%TF.GenerationSoftware,KiCad,Pcbnew,8.0.4*%
%TF.CreationDate,2026-10-01T15:00:12-05:00*%
%TF.ProjectId,Miliohmimetro_PCB,4d696c69-6f68-46d6-996d-6574726f5f50,rev?*%
%TF.SameCoordinates,Original*%
%TF.FileFunction,Copper,L1,Top*%
%TF.FilePolarity,Positive*%
%FSLAX46Y46*%
G04 Gerber Fmt 4.6, Leading zero omitted, Abs format (unit mm)*
G04 Created by KiCad (PCBNEW 8.0.4) date 2026-10-01 15:00:12*
%MOMM*%
%LPD*%
G01*
G04 APERTURE LIST*
G04 Aperture macros list*
%AMRoundRect*
0 Rectangle with rounded corners*
0 $1 Rounding radius*
0 $2 $3 $4 $5 $6 $7 $8 $9 X,Y pos of 4 corners*
0 Add a 4 corners polygon primitive as box body*
4,1,4,$2,$3,$4,$5,$6,$7,$8,$9,$2,$3,0*
0 Add four circle primitives for the rounded corners*
1,1,$1+$1,$2,$3*
1,1,$1+$1,$4,$5*
1,1,$1+$1,$6,$7*
1,1,$1+$1,$8,$9*
0 Add four rect primitives between the rounded corners*
20,1,$1+$1,$2,$3,$4,$5,0*
20,1,$1+$1,$4,$5,$6,$7,0*
20,1,$1+$1,$6,$7,$8,$9,0*
20,1,$1+$1,$8,$9,$2,$3,0*%
G04 Aperture macros list end*
%TA.AperFunction,SMDPad,CuDef*%
%ADD10RoundRect,0.200000X-0.200000X-0.275000X0.200000X-0.275000X0.200000X0.275000X-0.200000X0.275000X0*%
%TD*%
%TA.AperFunction,SMDPad,CuDef*%
%ADD11RoundRect,0.225000X0.250000X-0.225000X0.250000X0.225000X-0.250000X0.225000X-0.250000X-0.225000X0*%
%TD*%
%TA.AperFunction,SMDPad,CuDef*%
%ADD12RoundRect,0.250000X0.625000X-0.375000X0.625000X0.375000X-0.625000X0.375000X-0.625000X-0.375000X0*%
%TD*%
%TA.AperFunction,SMDPad,CuDef*%
%ADD13RoundRect,0.250000X0.475000X-0.250000X0.475000X0.250000X-0.475000X0.250000X-0.475000X-0.250000X0*%
%TD*%
%TA.AperFunction,SMDPad,CuDef*%
%ADD14RoundRect,0.200000X0.275000X-0.200000X0.275000X0.200000X-0.275000X0.200000X-0.275000X-0.200000X0*%
%TD*%
%TA.AperFunction,SMDPad,CuDef*%
%ADD15R,0.800000X1.000000*%
%TD*%
%TA.AperFunction,SMDPad,CuDef*%
%ADD16R,1.500000X0.700000*%
%TD*%
%TA.AperFunction,SMDPad,CuDef*%
%ADD17RoundRect,0.112500X0.112500X-0.187500X0.112500X0.187500X-0.112500X0.187500X-0.112500X-0.187500X0*%
%TD*%
%TA.AperFunction,ComponentPad*%
%ADD18R,2.000000X1.600000*%
%TD*%
%TA.AperFunction,ComponentPad*%
%ADD19O,2.000000X1.600000*%
%TD*%
%TA.AperFunction,ComponentPad*%
%ADD20C,1.500000*%
%TD*%
%TA.AperFunction,ComponentPad*%
%ADD21RoundRect,0.250000X-0.350000X-0.625000X0.350000X-0.625000X0.350000X0.625000X-0.350000X0.625000X0*%
%TD*%
%TA.AperFunction,ComponentPad*%
%ADD22O,1.200000X1.750000*%
%TD*%
%TA.AperFunction,SMDPad,CuDef*%
%ADD23RoundRect,0.225000X-0.225000X-0.250000X0.225000X-0.250000X0.225000X0.250000X-0.225000X0.250000X0*%
%TD*%
%TA.AperFunction,SMDPad,CuDef*%
%ADD24R,0.800000X2.700000*%
%TD*%
%TA.AperFunction,SMDPad,CuDef*%
%ADD25RoundRect,0.250000X0.300000X-0.300000X0.300000X0.300000X-0.300000X0.300000X-0.300000X-0.300000X0*%
%TD*%
%TA.AperFunction,SMDPad,CuDef*%
%ADD26RoundRect,0.150000X-0.825000X-0.150000X0.825000X-0.150000X0.825000X0.150000X-0.825000X0.150000X0*%
%TD*%
%TA.AperFunction,SMDPad,CuDef*%
%ADD27RoundRect,0.125000X-0.687500X-0.125000X0.687500X-0.125000X0.687500X0.125000X-0.687500X0.125000X0*%
%TD*%
%TA.AperFunction,SMDPad,CuDef*%
%ADD28RoundRect,0.150000X-0.512500X-0.150000X0.512500X-0.150000X0.512500X0.150000X-0.512500X0.150000X0*%
%TD*%
%TA.AperFunction,SMDPad,CuDef*%
%ADD29RoundRect,0.150000X-0.587500X-0.150000X0.587500X-0.150000X0.587500X0.150000X-0.587500X0.150000X0*%
%TD*%
%TA.AperFunction,SMDPad,CuDef*%
%ADD30RoundRect,0.250000X0.450000X-0.262500X0.450000X0.262500X-0.450000X0.262500X-0.450000X-0.262500X0*%
%TD*%
%TA.AperFunction,SMDPad,CuDef*%
%ADD31RoundRect,0.250000X-0.250000X-0.475000X0.250000X-0.475000X0.250000X0.475000X-0.250000X0.475000X0*%
%TD*%
%TA.AperFunction,ViaPad*%
%ADD32C,0.600000*%
%TD*%
%TA.AperFunction,ViaPad*%
%ADD33C,0.700000*%
%TD*%
%TA.AperFunction,Conductor*%
%ADD34C,0.187400*%
%TD*%
%TA.AperFunction,Conductor*%
%ADD35C,0.250000*%
%TD*%
%TA.AperFunction,Conductor*%
%ADD36C,0.300000*%
%TD*%
%TA.AperFunction,Conductor*%
%ADD37C,0.400000*%
%TD*%
%TA.AperFunction,Conductor*%
%ADD38C,0.200000*%
%TD*%
G04 APERTURE END LIST*
D10*
%TO.P,R1,1*%
%TO.N,/VCC*%
X136575000Y-112900000D03*
%TO.P,R1,2*%
%TO.N,/VREF*%
X138225000Y-112900000D03*
%TD*%
D11*
%TO.P,C3,1*%
%TO.N,/V_AMP*%
X114500000Y-119775000D03*
%TO.P,C3,2*%
%TO.N,GND*%
X114500000Y-118225000D03*
%TD*%
D10*
%TO.P,R3,1*%
%TO.N,/VSET*%
X136575000Y-120800000D03*
%TO.P,R3,2*%
%TO.N,GND*%
X138225000Y-120800000D03*
%TD*%
D12*
%TO.P,LED5,1*%
%TO.N,GND*%
X109600000Y-104600000D03*
%TO.P,LED5,2*%
%TO.N,/LED_A*%
X109600000Y-101800000D03*
%TD*%
D13*
%TO.P,C7,1*%
%TO.N,/V5_BOOST*%
X102000000Y-112350000D03*
%TO.P,C7,2*%
%TO.N,GND*%
X102000000Y-110450000D03*
%TD*%
D14*
%TO.P,R6,1*%
%TO.N,/V5_BOOST*%
X104400000Y-113075000D03*
%TO.P,R6,2*%
%TO.N,/FB_BST*%
X104400000Y-111425000D03*
%TD*%
D15*
%TO.P,SW1,*%
%TO.N,*%
X141220000Y-115250000D03*
X143430000Y-115250000D03*
X141220000Y-107950000D03*
X143430000Y-107950000D03*
D16*
%TO.P,SW1,1*%
%TO.N,/VCC*%
X140570000Y-113850000D03*
%TO.P,SW1,2*%
%TO.N,/VBAT_IN*%
X140570000Y-110850000D03*
%TO.P,SW1,3*%
%TO.N,unconnected-(SW1-C-Pad3)*%
X140570000Y-109350000D03*
%TD*%
D13*
%TO.P,C6,1*%
%TO.N,/VCC*%
X102000000Y-103650000D03*
%TO.P,C6,2*%
%TO.N,GND*%
X102000000Y-101750000D03*
%TD*%
D10*
%TO.P,R5,1*%
%TO.N,/RG_A*%
X117675000Y-128200000D03*
%TO.P,R5,2*%
%TO.N,/RG_B*%
X119325000Y-128200000D03*
%TD*%
D17*
%TO.P,D2,1*%
%TO.N,/v_base*%
X123200000Y-125850000D03*
%TO.P,D2,2*%
%TO.N,/v_volt*%
X123200000Y-123750000D03*
%TD*%
D11*
%TO.P,C10,1*%
%TO.N,/V5_BOOST*%
X101550000Y-121775000D03*
%TO.P,C10,2*%
%TO.N,GND*%
X101550000Y-120225000D03*
%TD*%
D14*
%TO.P,R8,1*%
%TO.N,/V5_BOOST*%
X102000000Y-117425000D03*
%TO.P,R8,2*%
%TO.N,/VDD_ADS*%
X102000000Y-115775000D03*
%TD*%
D18*
%TO.P,U5,1*%
%TO.N,/D0*%
X118380000Y-103380000D03*
D19*
%TO.P,U5,2*%
%TO.N,/clk*%
X118380000Y-105920000D03*
%TO.P,U5,3*%
%TO.N,/adc_out*%
X118380000Y-108460000D03*
%TO.P,U5,4*%
%TO.N,/sclk*%
X118380000Y-111000000D03*
%TO.P,U5,5*%
%TO.N,unconnected-(U5-D4{slash}SDA-Pad5)*%
X118380000Y-113540000D03*
%TO.P,U5,6*%
%TO.N,unconnected-(U5-D5{slash}SCL-Pad6)*%
X118380000Y-116080000D03*
%TO.P,U5,7*%
%TO.N,unconnected-(U5-D6{slash}TX-Pad7)*%
X118380000Y-118620000D03*
%TO.P,U5,8*%
%TO.N,unconnected-(U5-D7{slash}RX-Pad8)*%
X133620000Y-118620000D03*
%TO.P,U5,9*%
%TO.N,unconnected-(U5-D8{slash}SCK-Pad9)*%
X133620000Y-116080000D03*
%TO.P,U5,10*%
%TO.N,unconnected-(U5-D9{slash}MISO-Pad10)*%
X133620000Y-113540000D03*
%TO.P,U5,11*%
%TO.N,unconnected-(U5-D10{slash}MOSI-Pad11)*%
X133620000Y-111000000D03*
%TO.P,U5,12*%
%TO.N,/3V3*%
X133620000Y-108460000D03*
%TO.P,U5,13*%
%TO.N,GND*%
X133620000Y-105920000D03*
%TO.P,U5,14*%
%TO.N,unconnected-(U5-5V-Pad14)*%
X133620000Y-103380000D03*
D20*
%TO.P,U5,15*%
%TO.N,/VCC*%
X124700000Y-107100000D03*
%TO.P,U5,16*%
%TO.N,GND*%
X127300000Y-107100000D03*
%TD*%
D14*
%TO.P,R9,1*%
%TO.N,/DOUT5*%
X102000000Y-129425000D03*
%TO.P,R9,2*%
%TO.N,/adc_out*%
X102000000Y-127775000D03*
%TD*%
D21*
%TO.P,J2,1*%
%TO.N,/I_P*%
X133000000Y-130600000D03*
D22*
%TO.P,J2,2*%
%TO.N,/v_volt*%
X135000000Y-130600000D03*
%TO.P,J2,3*%
%TO.N,/v_base*%
X137000000Y-130600000D03*
%TO.P,J2,4*%
%TO.N,/I_N*%
X139000000Y-130600000D03*
%TD*%
D23*
%TO.P,C5,1*%
%TO.N,/VCC*%
X117725000Y-130500000D03*
%TO.P,C5,2*%
%TO.N,GND*%
X119275000Y-130500000D03*
%TD*%
D24*
%TO.P,L1,1*%
%TO.N,/VCC*%
X103900000Y-103000000D03*
%TO.P,L1,2*%
%TO.N,/SW_BST*%
X106100000Y-103000000D03*
%TD*%
D11*
%TO.P,C4,1*%
%TO.N,/VDD_ADS*%
X109200000Y-116975000D03*
%TO.P,C4,2*%
%TO.N,GND*%
X109200000Y-115425000D03*
%TD*%
D25*
%TO.P,D4,1*%
%TO.N,/V5_BOOST*%
X106150000Y-109600000D03*
%TO.P,D4,2*%
%TO.N,/SW_BST*%
X106150000Y-106800000D03*
%TD*%
D26*
%TO.P,U2,1*%
%TO.N,/BASE*%
X126525000Y-123595000D03*
%TO.P,U2,2*%
%TO.N,/I_N*%
X126525000Y-124865000D03*
%TO.P,U2,3*%
%TO.N,/VSET*%
X126525000Y-126135000D03*
%TO.P,U2,4*%
%TO.N,GND*%
X126525000Y-127405000D03*
%TO.P,U2,5*%
X131475000Y-127405000D03*
%TO.P,U2,6*%
%TO.N,/OPB*%
X131475000Y-126135000D03*
%TO.P,U2,7*%
X131475000Y-124865000D03*
%TO.P,U2,8*%
%TO.N,/VCC*%
X131475000Y-123595000D03*
%TD*%
D10*
%TO.P,R2,1*%
%TO.N,/VREF*%
X136575000Y-118500000D03*
%TO.P,R2,2*%
%TO.N,/VSET*%
X138225000Y-118500000D03*
%TD*%
D27*
%TO.P,U3,1*%
%TO.N,/RG_A*%
X116387500Y-124025000D03*
%TO.P,U3,2*%
%TO.N,/v_base*%
X116387500Y-124675000D03*
%TO.P,U3,3*%
%TO.N,/v_volt*%
X116387500Y-125325000D03*
%TO.P,U3,4*%
%TO.N,GND*%
X116387500Y-125975000D03*
%TO.P,U3,5*%
X120612500Y-125975000D03*
%TO.P,U3,6*%
%TO.N,/V_AMP*%
X120612500Y-125325000D03*
%TO.P,U3,7*%
%TO.N,/VCC*%
X120612500Y-124675000D03*
%TO.P,U3,8*%
%TO.N,/RG_B*%
X120612500Y-124025000D03*
%TD*%
D23*
%TO.P,C1,1*%
%TO.N,/VCC*%
X125825000Y-130300000D03*
%TO.P,C1,2*%
%TO.N,GND*%
X127375000Y-130300000D03*
%TD*%
D28*
%TO.P,U6,1*%
%TO.N,/SW_BST*%
X101462500Y-106650000D03*
%TO.P,U6,2*%
%TO.N,GND*%
X101462500Y-107600000D03*
%TO.P,U6,3*%
%TO.N,/FB_BST*%
X101462500Y-108550000D03*
%TO.P,U6,4*%
%TO.N,/VCC*%
X103737500Y-108550000D03*
%TO.P,U6,5*%
X103737500Y-107600000D03*
%TO.P,U6,6*%
%TO.N,unconnected-(U6-NC-Pad6)*%
X103737500Y-106650000D03*
%TD*%
%TO.P,U8,1*%
%TO.N,GND*%
X103462500Y-123850000D03*
%TO.P,U8,2*%
%TO.N,/sclk*%
X103462500Y-124800000D03*
%TO.P,U8,3*%
%TO.N,GND*%
X103462500Y-125750000D03*
%TO.P,U8,4*%
%TO.N,/SCLK5*%
X105737500Y-125750000D03*
%TO.P,U8,5*%
%TO.N,/V5_BOOST*%
X105737500Y-123850000D03*
%TD*%
D14*
%TO.P,R27,1*%
%TO.N,/V_AMP*%
X112000000Y-117025000D03*
%TO.P,R27,2*%
%TO.N,/ADC_IN*%
X112000000Y-115375000D03*
%TD*%
D21*
%TO.P,J1,1*%
%TO.N,/VBAT_IN*%
X139000000Y-103200000D03*
D22*
%TO.P,J1,2*%
%TO.N,GND*%
X141000000Y-103200000D03*
%TD*%
D28*
%TO.P,U7,1*%
%TO.N,GND*%
X103462500Y-119450000D03*
%TO.P,U7,2*%
%TO.N,/clk*%
X103462500Y-120400000D03*
%TO.P,U7,3*%
%TO.N,GND*%
X103462500Y-121350000D03*
%TO.P,U7,4*%
%TO.N,/CLK5*%
X105737500Y-121350000D03*
%TO.P,U7,5*%
%TO.N,/V5_BOOST*%
X105737500Y-119450000D03*
%TD*%
D29*
%TO.P,Q2,1*%
%TO.N,/BASE*%
X135562500Y-124250000D03*
%TO.P,Q2,2*%
%TO.N,/I_P*%
X135562500Y-126150000D03*
%TO.P,Q2,3*%
%TO.N,/VCC*%
X137437500Y-125200000D03*
%TD*%
D13*
%TO.P,C8,1*%
%TO.N,/VDD_ADS*%
X104600000Y-117550000D03*
%TO.P,C8,2*%
%TO.N,GND*%
X104600000Y-115650000D03*
%TD*%
D17*
%TO.P,D3,1*%
%TO.N,GND*%
X123200000Y-130050000D03*
%TO.P,D3,2*%
%TO.N,/v_base*%
X123200000Y-127950000D03*
%TD*%
D30*
%TO.P,R4,1*%
%TO.N,/I_N*%
X140500000Y-126112500D03*
%TO.P,R4,2*%
%TO.N,GND*%
X140500000Y-124287500D03*
%TD*%
D14*
%TO.P,R26,1*%
%TO.N,/D0*%
X113300000Y-104025000D03*
%TO.P,R26,2*%
%TO.N,/LED_A*%
X113300000Y-102375000D03*
%TD*%
D26*
%TO.P,U4,1*%
%TO.N,/ADC_IN*%
X109525000Y-109095000D03*
%TO.P,U4,2*%
%TO.N,GND*%
X109525000Y-110365000D03*
%TO.P,U4,3*%
%TO.N,/VDD_ADS*%
X109525000Y-111635000D03*
%TO.P,U4,4*%
%TO.N,/CLK5*%
X109525000Y-112905000D03*
%TO.P,U4,5*%
%TO.N,/DOUT5*%
X114475000Y-112905000D03*
%TO.P,U4,6*%
%TO.N,/SCLK5*%
X114475000Y-111635000D03*
%TO.P,U4,7*%
%TO.N,GND*%
X114475000Y-110365000D03*
%TO.P,U4,8*%
%TO.N,/VREF*%
X114475000Y-109095000D03*
%TD*%
D14*
%TO.P,R10,1*%
%TO.N,/adc_out*%
X104200000Y-129425000D03*
%TO.P,R10,2*%
%TO.N,GND*%
X104200000Y-127775000D03*
%TD*%
D29*
%TO.P,U1,1*%
%TO.N,/VREF*%
X136462500Y-109050000D03*
%TO.P,U1,2*%
X136462500Y-110950000D03*
%TO.P,U1,3*%
%TO.N,GND*%
X138337500Y-110000000D03*
%TD*%
D31*
%TO.P,C2,1*%
%TO.N,/VREF*%
X136450000Y-116000000D03*
%TO.P,C2,2*%
%TO.N,GND*%
X138350000Y-116000000D03*
%TD*%
D14*
%TO.P,R7,1*%
%TO.N,/FB_BST*%
X106000000Y-113075000D03*
%TO.P,R7,2*%
%TO.N,GND*%
X106000000Y-111425000D03*
%TD*%
D32*
%TO.N,/ADC_IN*%
X112026500Y-114500300D03*
X110780100Y-109789200D03*
%TO.N,/CLK5*%
X108764300Y-113665700D03*
X106444800Y-120521200D03*
%TO.N,/DOUT5*%
X103325000Y-127232700D03*
X114475000Y-113703800D03*
D33*
%TO.N,/I_N*%
X129950600Y-125181600D03*
D32*
%TO.N,/RG_A*%
X112612500Y-124125000D03*
X117073500Y-127329500D03*
%TO.N,/SCLK5*%
X113218800Y-112324100D03*
X113218800Y-124990600D03*
%TO.N,/V5_BOOST*%
X103202200Y-112350000D03*
X104888600Y-120179400D03*
D33*
X106993400Y-108756600D03*
D32*
X102637500Y-116657700D03*
D33*
%TO.N,/VCC*%
X137377100Y-113702100D03*
X104911800Y-107878800D03*
X125167600Y-131152400D03*
X122296000Y-124803600D03*
X134646400Y-121855100D03*
D32*
X104911800Y-103587500D03*
%TO.N,/VREF*%
X115873300Y-114810000D03*
X115873300Y-109537800D03*
%TO.N,/VSET*%
X139100800Y-118425000D03*
X135703100Y-120800000D03*
%TO.N,/adc_out*%
X102000000Y-126917900D03*
X112601800Y-108460000D03*
%TO.N,/clk*%
X104773600Y-118858300D03*
%TO.N,/sclk*%
X102322500Y-124801000D03*
X111196600Y-116184700D03*
%TO.N,/v_base*%
X125055200Y-125850000D03*
X115109000Y-124799300D03*
X121228600Y-127747400D03*
%TO.N,/v_volt*%
X123750700Y-124300700D03*
X117885400Y-125274700D03*
D33*
%TO.N,GND*%
X118770300Y-126020800D03*
D32*
X107600000Y-113600000D03*
X116100000Y-131600000D03*
X111600000Y-105600000D03*
X111600000Y-122600000D03*
X140100000Y-117100000D03*
X142600000Y-121600000D03*
X121100000Y-129100000D03*
X137100000Y-127600000D03*
X116100000Y-119100000D03*
D33*
X137451600Y-117515000D03*
D32*
X123100000Y-120100000D03*
X125600000Y-110600000D03*
X108100000Y-131100000D03*
X129100000Y-130600000D03*
X131600000Y-110600000D03*
X135600000Y-105100000D03*
X107600000Y-101600000D03*
X126100000Y-101600000D03*
X101600000Y-105100000D03*
X131600000Y-117100000D03*
X108100000Y-118600000D03*
X120600000Y-115600000D03*
X101600000Y-123600000D03*
X101600000Y-114100000D03*
D33*
X114500000Y-117263300D03*
D32*
X120600000Y-101600000D03*
D33*
X105314000Y-101298300D03*
D32*
X128100000Y-121600000D03*
X143100000Y-126600000D03*
X142600000Y-131600000D03*
X126100000Y-115600000D03*
D33*
X110807200Y-105528700D03*
D32*
X120100000Y-110600000D03*
X123100000Y-106100000D03*
X107600000Y-126100000D03*
X115100000Y-101600000D03*
X102600000Y-131100000D03*
D33*
X137043000Y-110000000D03*
D32*
X129100000Y-106100000D03*
X112600000Y-127600000D03*
X113600000Y-114600000D03*
X131600000Y-101600000D03*
%TD*%
D34*
%TO.N,/ADC_IN*%
X110219200Y-109789200D02*
X109525000Y-109095000D01*
D35*
X112026400Y-114500300D02*
X112026500Y-114500300D01*
X112026400Y-115348600D02*
X112026400Y-114500300D01*
D34*
X110780100Y-109789200D02*
X110219200Y-109789200D01*
D35*
X112000000Y-115375000D02*
X112026400Y-115348600D01*
%TO.N,/BASE*%
X127180000Y-124250000D02*
X126525000Y-123595000D01*
X135562500Y-124250000D02*
X127180000Y-124250000D01*
%TO.N,/CLK5*%
X106444700Y-120521200D02*
X106444800Y-120521200D01*
X109525000Y-112905000D02*
X108764300Y-113665700D01*
X105737500Y-121350000D02*
X106444700Y-120642800D01*
X106444700Y-120642800D02*
X106444700Y-120521200D01*
%TO.N,/D0*%
X113945000Y-103380000D02*
X113300000Y-104025000D01*
X118380000Y-103380000D02*
X113945000Y-103380000D01*
%TO.N,/DOUT5*%
X114475000Y-112905000D02*
X114475000Y-113703800D01*
X103325000Y-128100000D02*
X102000000Y-129425000D01*
X103325000Y-127232700D02*
X103325000Y-128100000D01*
%TO.N,/FB_BST*%
X101633300Y-108550000D02*
X101462500Y-108550000D01*
X106000000Y-113075000D02*
X104400000Y-111475000D01*
X104400000Y-111425000D02*
X104400000Y-111316600D01*
X104400000Y-111475000D02*
X104400000Y-111425000D01*
X104399900Y-111316600D02*
X101633300Y-108550000D01*
X104400000Y-111316600D02*
X104399900Y-111316600D01*
D36*
%TO.N,/I_N*%
X127742200Y-125484200D02*
X127144200Y-125484200D01*
D37*
X139951700Y-130600000D02*
X139951700Y-126660800D01*
D36*
X127144200Y-125484200D02*
X126525000Y-124865000D01*
D37*
X128044800Y-125181600D02*
X129950600Y-125181600D01*
X139951700Y-126660800D02*
X140500000Y-126112500D01*
X127742200Y-125484200D02*
X128044800Y-125181600D01*
X139000000Y-130600000D02*
X139951700Y-130600000D01*
%TO.N,/I_P*%
X133000000Y-130600000D02*
X133000000Y-128712500D01*
X133000000Y-128712500D02*
X135562500Y-126150000D01*
D35*
%TO.N,/LED_A*%
X109600000Y-101800000D02*
X112725000Y-101800000D01*
X112725000Y-101800000D02*
X113300000Y-102375000D01*
%TO.N,/OPB*%
X131475000Y-124865000D02*
X131475000Y-126135000D01*
%TO.N,/RG_A*%
X117675000Y-128200000D02*
X117675000Y-127931000D01*
D34*
X112612500Y-124125000D02*
X116287500Y-124125000D01*
X116287500Y-124125000D02*
X116387500Y-124025000D01*
D35*
X117675000Y-127931000D02*
X117073500Y-127329500D01*
%TO.N,/RG_B*%
X123970200Y-124908300D02*
X123187700Y-124908300D01*
X124354700Y-124021200D02*
X124354700Y-124523800D01*
X123187700Y-124908300D02*
X119896000Y-128200000D01*
X121499900Y-123137600D02*
X123471100Y-123137600D01*
X119896000Y-128200000D02*
X119325000Y-128200000D01*
X120612500Y-124025000D02*
X121499900Y-123137600D01*
X124354700Y-124523800D02*
X123970200Y-124908300D01*
X123471100Y-123137600D02*
X124354700Y-124021200D01*
%TO.N,/SCLK5*%
X106496900Y-124990600D02*
X113218800Y-124990600D01*
D34*
X114475000Y-111635000D02*
X113785900Y-112324100D01*
X113785900Y-112324100D02*
X113218800Y-112324100D01*
D35*
X105737500Y-125750000D02*
X106496900Y-124990600D01*
D37*
%TO.N,/SW_BST*%
X106150000Y-106800000D02*
X105327300Y-105977300D01*
X106100000Y-103000000D02*
X106100000Y-104701700D01*
X105327300Y-105977300D02*
X102135200Y-105977300D01*
X106100000Y-104701700D02*
X105327300Y-105474400D01*
X105327300Y-105474400D02*
X105327300Y-105977300D01*
X102135200Y-105977300D02*
X101462500Y-106650000D01*
%TO.N,/V5_BOOST*%
X104888600Y-120179400D02*
X105618000Y-119450000D01*
X104886900Y-120179400D02*
X104888600Y-120179400D01*
X101550000Y-121775000D02*
X101823000Y-122048000D01*
X102000000Y-117295200D02*
X102637500Y-116657700D01*
X104573300Y-120493000D02*
X104886900Y-120179400D01*
X104378800Y-122503000D02*
X105725800Y-123850000D01*
X103675000Y-112350000D02*
X104400000Y-113075000D01*
X102000000Y-112350000D02*
X103202200Y-112350000D01*
X102000000Y-117425000D02*
X102000000Y-117295200D01*
X101823000Y-122048000D02*
X104378800Y-122048000D01*
D38*
X104378800Y-122503000D02*
X104378800Y-122048000D01*
D37*
X106993400Y-108756600D02*
X106150000Y-109600000D01*
X105725800Y-123850000D02*
X105737500Y-123850000D01*
D38*
X104378800Y-122048000D02*
X104378800Y-120687500D01*
D37*
X105618000Y-119450000D02*
X105737500Y-119450000D01*
X103202200Y-112350000D02*
X103675000Y-112350000D01*
D38*
X104378800Y-120687500D02*
X104573300Y-120493000D01*
D37*
%TO.N,/VBAT_IN*%
X139000000Y-103200000D02*
X139000000Y-106862700D01*
D36*
X140570000Y-110850000D02*
X139518300Y-110850000D01*
D37*
X139000000Y-106862700D02*
X139425800Y-107288500D01*
D36*
X139425800Y-110757500D02*
X139518300Y-110850000D01*
X139425800Y-107288500D02*
X139425800Y-110757500D01*
D37*
%TO.N,/VCC*%
X125167600Y-131152400D02*
X125825000Y-130495000D01*
X121531900Y-124625700D02*
X121709800Y-124803600D01*
X131475000Y-123595000D02*
X132415300Y-123595000D01*
X125825000Y-130495000D02*
X125825000Y-130300000D01*
D36*
X136879900Y-121855100D02*
X137437500Y-122412700D01*
D37*
X102000000Y-103650000D02*
X103051700Y-104701700D01*
X103737500Y-107600000D02*
X103737500Y-107878800D01*
X136575000Y-112900000D02*
X137377100Y-113702100D01*
X104911800Y-107878800D02*
X103737500Y-107878800D01*
X137437500Y-122412700D02*
X137437500Y-125200000D01*
D36*
X120661800Y-124625700D02*
X120612500Y-124675000D01*
X134646400Y-121855100D02*
X136879900Y-121855100D01*
D37*
X125167600Y-131152400D02*
X124968400Y-131351600D01*
X111134000Y-103609700D02*
X108674600Y-103609700D01*
X124968400Y-131351600D02*
X118576600Y-131351600D01*
X108674600Y-103609700D02*
X107475000Y-104809300D01*
X103900000Y-104475500D02*
X104788000Y-103587500D01*
X103737500Y-107878800D02*
X103737500Y-108550000D01*
X103900000Y-104475500D02*
X103900000Y-104701700D01*
X121709800Y-124803600D02*
X122296000Y-124803600D01*
X124700000Y-107100000D02*
X114624300Y-107100000D01*
X137377100Y-113702100D02*
X137525000Y-113850000D01*
X132415300Y-123595000D02*
X134384300Y-121626000D01*
X103051700Y-104701700D02*
X103900000Y-104701700D01*
X107475000Y-104809300D02*
X107475000Y-106976300D01*
X107475000Y-106976300D02*
X106572500Y-107878800D01*
D36*
X134384300Y-121626000D02*
X134646400Y-121626000D01*
D37*
X106572500Y-107878800D02*
X104911800Y-107878800D01*
X137525000Y-113850000D02*
X140570000Y-113850000D01*
D36*
X121531900Y-124625700D02*
X120661800Y-124625700D01*
D37*
X114624300Y-107100000D02*
X111134000Y-103609700D01*
X118576600Y-131351600D02*
X117725000Y-130500000D01*
X104788000Y-103587500D02*
X104911800Y-103587500D01*
X134646400Y-121855100D02*
X134646400Y-121626000D01*
X103900000Y-103000000D02*
X103900000Y-104475500D01*
D36*
%TO.N,/VDD_ADS*%
X110838400Y-112254200D02*
X110144200Y-112254200D01*
D37*
X110838400Y-112254200D02*
X110922300Y-112338100D01*
X104600000Y-117550000D02*
X102825000Y-115775000D01*
X105175000Y-116975000D02*
X104600000Y-117550000D01*
X102825000Y-115775000D02*
X102000000Y-115775000D01*
D36*
X110144200Y-112254200D02*
X109525000Y-111635000D01*
D37*
X109200000Y-116975000D02*
X105175000Y-116975000D01*
X110922300Y-115252700D02*
X109200000Y-116975000D01*
X110922300Y-112338100D02*
X110922300Y-115252700D01*
D35*
%TO.N,/VREF*%
X135899000Y-114810000D02*
X115873300Y-114810000D01*
X136462500Y-110950000D02*
X136381300Y-110868800D01*
X135506600Y-112770400D02*
X136801000Y-111476000D01*
X136462500Y-111137500D02*
X136462500Y-110950000D01*
D34*
X135899000Y-113450800D02*
X135899000Y-113250600D01*
D35*
X136381300Y-110868800D02*
X136381300Y-109131200D01*
X138225000Y-112900000D02*
X136801000Y-111476000D01*
X136381300Y-109131200D02*
X136462500Y-109050000D01*
X136450000Y-118375000D02*
X136450000Y-116000000D01*
X135899000Y-114810000D02*
X136450000Y-115361000D01*
X135506600Y-112858200D02*
X135506600Y-112770400D01*
X115873300Y-109537800D02*
X114917800Y-109537800D01*
X136450000Y-115361000D02*
X136450000Y-116000000D01*
X114917800Y-109537800D02*
X114475000Y-109095000D01*
D34*
X135899000Y-113250600D02*
X135506600Y-112858200D01*
D35*
X136575000Y-118500000D02*
X136450000Y-118375000D01*
X136801000Y-111476000D02*
X136462500Y-111137500D01*
X135899000Y-114810000D02*
X135899000Y-113450800D01*
%TO.N,/VSET*%
X135703100Y-120800000D02*
X127730500Y-120800000D01*
X126185800Y-126135000D02*
X126525000Y-126135000D01*
X125262600Y-123267900D02*
X125262600Y-125211800D01*
X139100800Y-118425000D02*
X138300000Y-118425000D01*
X127730500Y-120800000D02*
X125262600Y-123267900D01*
X125262600Y-125211800D02*
X126185800Y-126135000D01*
X138300000Y-118425000D02*
X138225000Y-118500000D01*
X135703100Y-120800000D02*
X136575000Y-120800000D01*
D34*
%TO.N,/V_AMP*%
X119076600Y-125200700D02*
X120488200Y-125200700D01*
D35*
X112000000Y-117275000D02*
X112000000Y-117025000D01*
X119076600Y-124351600D02*
X114500000Y-119775000D01*
D34*
X120488200Y-125200700D02*
X120612500Y-125325000D01*
D35*
X114500000Y-119775000D02*
X112000000Y-117275000D01*
X119076600Y-125200700D02*
X119076600Y-124351600D01*
%TO.N,/adc_out*%
X101107500Y-130370900D02*
X100648200Y-129911600D01*
D34*
X100648200Y-129911600D02*
X100648200Y-129126800D01*
D35*
X101026000Y-128749000D02*
X102000000Y-127775000D01*
X103226800Y-129425000D02*
X102550800Y-130101000D01*
D34*
X102350600Y-130101000D02*
X102080700Y-130370900D01*
D35*
X102080700Y-130370900D02*
X101107500Y-130370900D01*
X102000000Y-127775000D02*
X102000000Y-126917900D01*
X104200000Y-129425000D02*
X103226800Y-129425000D01*
D34*
X100648200Y-129126800D02*
X101026000Y-128749000D01*
X102550800Y-130101000D02*
X102350600Y-130101000D01*
D35*
X118380000Y-108460000D02*
X112601800Y-108460000D01*
%TO.N,/clk*%
X103779300Y-120400000D02*
X103462500Y-120400000D01*
X104773600Y-119405700D02*
X103779300Y-120400000D01*
X104773600Y-118858300D02*
X104773600Y-119405700D01*
%TO.N,/sclk*%
X118380000Y-112076700D02*
X117303300Y-112076700D01*
X113195300Y-116184700D02*
X111196600Y-116184700D01*
X118380000Y-111000000D02*
X118380000Y-112076700D01*
X103462500Y-124800000D02*
X102322500Y-124800000D01*
X102322500Y-124800000D02*
X102322500Y-124801000D01*
X117303300Y-112076700D02*
X113195300Y-116184700D01*
%TO.N,/v_base*%
X122997400Y-127747400D02*
X121228600Y-127747400D01*
D34*
X116263200Y-124799300D02*
X116387500Y-124675000D01*
D35*
X123200000Y-127950000D02*
X123200000Y-125850000D01*
X123200000Y-127950000D02*
X122997400Y-127747400D01*
X123200000Y-125850000D02*
X125055200Y-125850000D01*
D34*
X115109000Y-124799300D02*
X116263200Y-124799300D01*
D35*
%TO.N,/v_volt*%
X117885400Y-125274700D02*
X116437800Y-125274700D01*
X116437800Y-125274700D02*
X116387500Y-125325000D01*
X123750700Y-124300700D02*
X123200000Y-123750000D01*
D37*
%TO.N,GND*%
X123182900Y-130067100D02*
X123200000Y-130050000D01*
X100717100Y-121057900D02*
X101550000Y-120225000D01*
X120566700Y-126020800D02*
X118770300Y-126020800D01*
X111457400Y-110365000D02*
X111457400Y-106178900D01*
X109200000Y-115425000D02*
X109137100Y-115362100D01*
X110528700Y-105528700D02*
X110807200Y-105528700D01*
D36*
X103163300Y-121050800D02*
X103462500Y-121350000D01*
D37*
X106000000Y-111425000D02*
X106610400Y-111425000D01*
X127375000Y-127405000D02*
X126525000Y-127405000D01*
D36*
X103761700Y-124149200D02*
X103612100Y-123999600D01*
D37*
X104600000Y-115650000D02*
X103920200Y-114970200D01*
X118574000Y-126024000D02*
X118767100Y-126024000D01*
X100951200Y-111498800D02*
X102000000Y-110450000D01*
X109628200Y-110468200D02*
X111354200Y-110468200D01*
D36*
X103498900Y-124112800D02*
X103462500Y-124149200D01*
D37*
X137451600Y-120026600D02*
X137451600Y-117515000D01*
D36*
X101550000Y-119749200D02*
X103163300Y-119749200D01*
X101761700Y-107899200D02*
X101462500Y-107600000D01*
D37*
X116387500Y-128238800D02*
X116387500Y-127775000D01*
D36*
X118574000Y-130059300D02*
X118162000Y-129647300D01*
D37*
X104503800Y-125249000D02*
X104503800Y-124149200D01*
D36*
X103163300Y-119749200D02*
X103462500Y-119450000D01*
D37*
X133591700Y-107100000D02*
X133620000Y-107071700D01*
X111457400Y-110365000D02*
X114475000Y-110365000D01*
X102451700Y-101298300D02*
X105314000Y-101298300D01*
X138225000Y-122012500D02*
X140500000Y-124287500D01*
X109525000Y-110365000D02*
X109628200Y-110468200D01*
X119275000Y-130067100D02*
X123182900Y-130067100D01*
X120612500Y-125975000D02*
X120566700Y-126020800D01*
X111457400Y-106178900D02*
X110807200Y-105528700D01*
D36*
X100723900Y-122300900D02*
X100723900Y-121714200D01*
D37*
X106892300Y-115362100D02*
X106892300Y-111706900D01*
X102575400Y-108818000D02*
X102575400Y-107899200D01*
X137043000Y-110000000D02*
X138337500Y-110000000D01*
X106892300Y-115362100D02*
X104887900Y-115362100D01*
X119275000Y-130067100D02*
X119275000Y-130500000D01*
X103787300Y-109212300D02*
X102969700Y-109212300D01*
X100951200Y-113672500D02*
X101157000Y-113878300D01*
D36*
X104503800Y-124149200D02*
X103761700Y-124149200D01*
X102575400Y-107899200D02*
X101761700Y-107899200D01*
D37*
X138225000Y-120800000D02*
X138225000Y-122012500D01*
X106892300Y-111706900D02*
X106610400Y-111425000D01*
D36*
X100951200Y-113672500D02*
X100951200Y-111498800D01*
X108905800Y-110984200D02*
X109525000Y-110365000D01*
D37*
X102969700Y-109212300D02*
X102575400Y-108818000D01*
X101157000Y-113878300D02*
X101157000Y-114970200D01*
X118574000Y-130059300D02*
X119267200Y-130059300D01*
X101550000Y-120225000D02*
X101571600Y-120225000D01*
D36*
X118549100Y-128208900D02*
X118549100Y-126048900D01*
D37*
X124608900Y-109791100D02*
X127300000Y-107100000D01*
D36*
X103612100Y-123999600D02*
X103462500Y-123850000D01*
D37*
X118549100Y-128646800D02*
X118162000Y-129033900D01*
X104002800Y-125750000D02*
X104503800Y-125249000D01*
X109600000Y-104600000D02*
X110528700Y-105528700D01*
X118549100Y-128208900D02*
X118549100Y-128646800D01*
X119267200Y-130059300D02*
X119275000Y-130067100D01*
X116463700Y-110365000D02*
X117037600Y-109791100D01*
X123777600Y-129472400D02*
X127375000Y-129472400D01*
D36*
X100723900Y-121714200D02*
X100717100Y-121707400D01*
X103462500Y-124149200D02*
X102572200Y-124149200D01*
D37*
X102572200Y-124149200D02*
X100723900Y-122300900D01*
X127375000Y-129472400D02*
X127375000Y-127405000D01*
X133620000Y-105920000D02*
X133620000Y-107071700D01*
D36*
X102397400Y-121050800D02*
X103163300Y-121050800D01*
D37*
X116387500Y-127775000D02*
X116387500Y-125975000D01*
X101571600Y-120225000D02*
X102397400Y-121050800D01*
X131475000Y-127405000D02*
X127375000Y-127405000D01*
X106610400Y-111425000D02*
X107051200Y-110984200D01*
X103612100Y-123999600D02*
X103498900Y-124112800D01*
X101157000Y-119356200D02*
X101550000Y-119749200D01*
D36*
X107051200Y-110984200D02*
X108905800Y-110984200D01*
D37*
X117182600Y-129033900D02*
X116387500Y-128238800D01*
X103920200Y-114970200D02*
X101157000Y-114970200D01*
X100717100Y-121707400D02*
X100717100Y-121057900D01*
X137451600Y-117515000D02*
X137451600Y-116898400D01*
X114475000Y-110365000D02*
X116463700Y-110365000D01*
X103462500Y-125750000D02*
X104002800Y-125750000D01*
X106000000Y-111425000D02*
X103787300Y-109212300D01*
D36*
X118549100Y-126048900D02*
X118574000Y-126024000D01*
D37*
X101550000Y-120225000D02*
X101550000Y-119749200D01*
X102000000Y-101750000D02*
X102451700Y-101298300D01*
X117037600Y-109791100D02*
X124608900Y-109791100D01*
X138225000Y-120800000D02*
X137451600Y-120026600D01*
X111354200Y-110468200D02*
X111457400Y-110365000D01*
X104200000Y-125947200D02*
X104002800Y-125750000D01*
X127375000Y-130300000D02*
X127375000Y-129472400D01*
X114500000Y-117263300D02*
X114500000Y-118225000D01*
X109137100Y-115362100D02*
X106892300Y-115362100D01*
X127300000Y-107100000D02*
X133591700Y-107100000D01*
X101157000Y-114970200D02*
X101157000Y-119356200D01*
X104887900Y-115362100D02*
X104600000Y-115650000D01*
X137451600Y-116898400D02*
X138350000Y-116000000D01*
X118162000Y-129033900D02*
X117182600Y-129033900D01*
X116387500Y-127775000D02*
X104200000Y-127775000D01*
X104200000Y-127775000D02*
X104200000Y-125947200D01*
D36*
X118162000Y-129647300D02*
X118162000Y-129033900D01*
D37*
X118767100Y-126024000D02*
X118770300Y-126020800D01*
X123200000Y-130050000D02*
X123777600Y-129472400D01*
%TD*%
%TA.AperFunction,Conductor*%
%TO.N,GND*%
G36*
X134016881Y-121194407D02*
G01*
X134052845Y-121243907D01*
X134052845Y-121305093D01*
X134028695Y-121344501D01*
X132696309Y-122676887D01*
X132357692Y-123015504D01*
X132303175Y-123043281D01*
X132287688Y-123044500D01*
X130618478Y-123044500D01*
X130618476Y-123044501D01*
X130524700Y-123059352D01*
X130524695Y-123059354D01*
X130411659Y-123116949D01*
X130321949Y-123206659D01*
X130264354Y-123319695D01*
X130249500Y-123413477D01*
X130249501Y-123775500D01*
X130230594Y-123833691D01*
X130181094Y-123869655D01*
X130150501Y-123874500D01*
X127849500Y-123874500D01*
X127791309Y-123855593D01*
X127755345Y-123806093D01*
X127750500Y-123775500D01*
X127750499Y-123413479D01*
X127750498Y-123413476D01*
X127735647Y-123319700D01*
X127735646Y-123319698D01*
X127735646Y-123319696D01*
X127678050Y-123206658D01*
X127588342Y-123116950D01*
X127475304Y-123059354D01*
X127475305Y-123059354D01*
X127381522Y-123044500D01*
X127381519Y-123044500D01*
X126256044Y-123044500D01*
X126197853Y-123025593D01*
X126161889Y-122976093D01*
X126161889Y-122914907D01*
X126186040Y-122875496D01*
X126489660Y-122571877D01*
X127857042Y-121204496D01*
X127911559Y-121176719D01*
X127927046Y-121175500D01*
X133958690Y-121175500D01*
X134016881Y-121194407D01*
G37*
%TD.AperFunction*%
%TA.AperFunction,Conductor*%
G36*
X143504308Y-100500877D02*
G01*
X143520845Y-100502323D01*
X143664937Y-100514930D01*
X143681914Y-100517923D01*
X143833491Y-100558537D01*
X143849695Y-100564435D01*
X143991902Y-100630748D01*
X144006842Y-100639374D01*
X144135367Y-100729368D01*
X144148587Y-100740460D01*
X144259539Y-100851412D01*
X144270631Y-100864632D01*
X144360625Y-100993157D01*
X144369253Y-101008101D01*
X144435560Y-101150295D01*
X144441463Y-101166512D01*
X144482074Y-101318075D01*
X144485070Y-101335069D01*
X144499123Y-101495690D01*
X144499500Y-101504319D01*
X144499500Y-132495680D01*
X144499123Y-132504309D01*
X144485070Y-132664930D01*
X144482074Y-132681924D01*
X144441463Y-132833487D01*
X144435560Y-132849704D01*
X144369253Y-132991898D01*
X144360625Y-133006842D01*
X144270631Y-133135367D01*
X144259539Y-133148587D01*
X144148587Y-133259539D01*
X144135367Y-133270631D01*
X144006842Y-133360625D01*
X143991898Y-133369253D01*
X143849704Y-133435560D01*
X143833487Y-133441463D01*
X143681924Y-133482074D01*
X143664930Y-133485070D01*
X143504309Y-133499123D01*
X143495680Y-133499500D01*
X101504320Y-133499500D01*
X101495691Y-133499123D01*
X101335069Y-133485070D01*
X101318075Y-133482074D01*
X101166512Y-133441463D01*
X101150298Y-133435561D01*
X101008101Y-133369253D01*
X100993157Y-133360625D01*
X100864632Y-133270631D01*
X100851412Y-133259539D01*
X100740460Y-133148587D01*
X100729368Y-133135367D01*
X100639374Y-133006842D01*
X100630748Y-132991902D01*
X100564435Y-132849695D01*
X100558536Y-132833487D01*
X100517923Y-132681914D01*
X100514930Y-132664937D01*
X100500877Y-132504308D01*
X100500500Y-132495680D01*
X100500500Y-130533945D01*
X100519407Y-130475754D01*
X100568907Y-130439790D01*
X100630093Y-130439790D01*
X100669504Y-130463941D01*
X100807025Y-130601462D01*
X100807024Y-130601462D01*
X100850804Y-130645241D01*
X100876938Y-130671375D01*
X100947595Y-130712169D01*
X100962559Y-130720808D01*
X100962562Y-130720810D01*
X100974908Y-130724118D01*
X101058064Y-130746400D01*
X101058065Y-130746400D01*
X102130133Y-130746400D01*
X102130135Y-130746400D01*
X102225638Y-130720810D01*
X102225640Y-130720808D01*
X102225642Y-130720808D01*
X102277639Y-130690787D01*
X102311262Y-130671375D01*
X102381175Y-130601462D01*
X102424744Y-130525999D01*
X102470214Y-130485059D01*
X102510480Y-130476500D01*
X102600237Y-130476500D01*
X102600237Y-130476499D01*
X102695737Y-130450910D01*
X102781363Y-130401474D01*
X102978319Y-130204518D01*
X117024500Y-130204518D01*
X117024500Y-130795478D01*
X117024501Y-130795484D01*
X117030587Y-130852111D01*
X117030587Y-130852112D01*
X117030588Y-130852114D01*
X117078372Y-130980226D01*
X117160313Y-131089687D01*
X117204920Y-131123079D01*
X117263161Y-131166678D01*
X117269774Y-131171628D01*
X117397886Y-131219412D01*
X117454515Y-131225500D01*
X117772388Y-131225499D01*
X117830578Y-131244406D01*
X117842391Y-131254495D01*
X118123519Y-131535622D01*
X118299986Y-131712089D01*
X118359296Y-131746331D01*
X118402714Y-131771399D01*
X118517291Y-131802100D01*
X118517293Y-131802100D01*
X125027709Y-131802100D01*
X125118069Y-131777887D01*
X125118072Y-131777887D01*
X125142284Y-131771400D01*
X125142284Y-131771399D01*
X125142287Y-131771399D01*
X125147631Y-131768313D01*
X125184212Y-131755895D01*
X125324362Y-131737444D01*
X125470441Y-131676936D01*
X125595882Y-131580682D01*
X125692136Y-131455241D01*
X125752644Y-131309162D01*
X125764131Y-131221902D01*
X125790471Y-131166678D01*
X125792281Y-131164821D01*
X125902608Y-131054495D01*
X125957124Y-131026718D01*
X125972611Y-131025499D01*
X126095479Y-131025499D01*
X126095484Y-131025499D01*
X126152114Y-131019412D01*
X126280226Y-130971628D01*
X126389687Y-130889687D01*
X126471628Y-130780226D01*
X126481000Y-130755098D01*
X126519049Y-130707185D01*
X126577996Y-130690787D01*
X126635324Y-130712169D01*
X126665854Y-130753377D01*
X126688074Y-130809724D01*
X126688077Y-130809728D01*
X126775276Y-130924717D01*
X126775282Y-130924723D01*
X126890270Y-131011922D01*
X127024531Y-131064867D01*
X127108895Y-131074999D01*
X127108900Y-131075000D01*
X127199999Y-131075000D01*
X127200000Y-131074999D01*
X127200000Y-130475001D01*
X127550000Y-130475001D01*
X127550000Y-131074999D01*
X127550001Y-131075000D01*
X127641100Y-131075000D01*
X127641104Y-131074999D01*
X127725468Y-131064867D01*
X127859729Y-131011922D01*
X127974717Y-130924723D01*
X127974723Y-130924717D01*
X128061922Y-130809729D01*
X128114867Y-130675468D01*
X128124999Y-130591104D01*
X128125000Y-130591100D01*
X128125000Y-130475001D01*
X128124999Y-130475000D01*
X127550001Y-130475000D01*
X127550000Y-130475001D01*
X127200000Y-130475001D01*
X127200000Y-129525001D01*
X127550000Y-129525001D01*
X127550000Y-130124999D01*
X127550001Y-130125000D01*
X128124999Y-130125000D01*
X128125000Y-130124999D01*
X128125000Y-130008899D01*
X128124999Y-130008895D01*
X128114867Y-129924531D01*
X128061922Y-129790270D01*
X127974723Y-129675282D01*
X127974717Y-129675276D01*
X127859729Y-129588077D01*
X127725468Y-129535132D01*
X127641104Y-129525000D01*
X127550001Y-129525000D01*
X127550000Y-129525001D01*
X127200000Y-129525001D01*
X127199999Y-129525000D01*
X127108895Y-129525000D01*
X127024531Y-129535132D01*
X126890270Y-129588077D01*
X126775282Y-129675276D01*
X126775276Y-129675282D01*
X126688077Y-129790271D01*
X126688076Y-129790273D01*
X126665854Y-129846623D01*
X126626917Y-129893820D01*
X126567675Y-129909116D01*
X126510755Y-129886669D01*
X126481000Y-129844901D01*
X126471628Y-129819774D01*
X126389687Y-129710313D01*
X126342883Y-129675276D01*
X126280228Y-129628373D01*
X126280226Y-129628372D01*
X126152114Y-129580588D01*
X126152113Y-129580587D01*
X126113895Y-129576479D01*
X126095485Y-129574500D01*
X126095481Y-129574500D01*
X125554521Y-129574500D01*
X125554515Y-129574501D01*
X125497888Y-129580587D01*
X125497886Y-129580588D01*
X125369774Y-129628372D01*
X125369773Y-129628372D01*
X125369772Y-129628373D01*
X125260315Y-129710311D01*
X125260311Y-129710315D01*
X125178373Y-129819771D01*
X125130587Y-129947887D01*
X125124500Y-130004518D01*
X125124500Y-130465571D01*
X125105593Y-130523762D01*
X125056093Y-130559726D01*
X125038424Y-130563724D01*
X125010839Y-130567355D01*
X125010833Y-130567357D01*
X124864761Y-130627862D01*
X124864760Y-130627862D01*
X124739323Y-130724113D01*
X124739313Y-130724123D01*
X124643062Y-130849560D01*
X124641883Y-130851604D01*
X124640627Y-130852733D01*
X124639114Y-130854707D01*
X124638748Y-130854426D01*
X124596412Y-130892543D01*
X124556149Y-130901100D01*
X120123391Y-130901100D01*
X120065200Y-130882193D01*
X120029236Y-130832693D01*
X120025468Y-130794100D01*
X120024823Y-130794062D01*
X120025000Y-130791100D01*
X120025000Y-130675001D01*
X120024999Y-130675000D01*
X119199000Y-130675000D01*
X119140809Y-130656093D01*
X119104845Y-130606593D01*
X119100000Y-130576000D01*
X119100000Y-129725001D01*
X119450000Y-129725001D01*
X119450000Y-130324999D01*
X119450001Y-130325000D01*
X120024999Y-130325000D01*
X120025000Y-130324999D01*
X120025000Y-130225001D01*
X122675001Y-130225001D01*
X122675001Y-130269966D01*
X122690299Y-130366557D01*
X122690301Y-130366564D01*
X122749619Y-130482981D01*
X122842018Y-130575380D01*
X122958438Y-130634700D01*
X122958446Y-130634702D01*
X123024999Y-130645242D01*
X123025000Y-130645241D01*
X123025000Y-130225001D01*
X123375000Y-130225001D01*
X123375000Y-130645242D01*
X123441553Y-130634702D01*
X123441561Y-130634700D01*
X123557981Y-130575380D01*
X123650380Y-130482981D01*
X123709699Y-130366561D01*
X123709700Y-130366559D01*
X123725000Y-130269966D01*
X123725000Y-130225001D01*
X123724999Y-130225000D01*
X123375001Y-130225000D01*
X123375000Y-130225001D01*
X123025000Y-130225001D01*
X123024999Y-130225000D01*
X122675002Y-130225000D01*
X122675001Y-130225001D01*
X120025000Y-130225001D01*
X120025000Y-130208899D01*
X120024999Y-130208895D01*
X120014867Y-130124531D01*
X119961922Y-129990270D01*
X119874723Y-129875282D01*
X119874717Y-129875276D01*
X119815056Y-129830033D01*
X122675000Y-129830033D01*
X122675000Y-129874999D01*
X122675001Y-129875000D01*
X123024999Y-129875000D01*
X123025000Y-129874999D01*
X123375000Y-129874999D01*
X123375001Y-129875000D01*
X123724998Y-129875000D01*
X123724999Y-129874999D01*
X123724999Y-129830033D01*
X123709700Y-129733442D01*
X123709698Y-129733435D01*
X123650380Y-129617018D01*
X123557981Y-129524619D01*
X123441561Y-129465300D01*
X123441559Y-129465299D01*
X123375000Y-129454757D01*
X123375000Y-129874999D01*
X123025000Y-129874999D01*
X123025000Y-129454757D01*
X123024999Y-129454757D01*
X122958440Y-129465299D01*
X122958438Y-129465300D01*
X122842018Y-129524619D01*
X122749619Y-129617018D01*
X122690300Y-129733438D01*
X122690299Y-129733440D01*
X122675000Y-129830033D01*
X119815056Y-129830033D01*
X119759729Y-129788077D01*
X119625468Y-129735132D01*
X119541104Y-129725000D01*
X119450001Y-129725000D01*
X119450000Y-129725001D01*
X119100000Y-129725001D01*
X119099999Y-129725000D01*
X119008895Y-129725000D01*
X118924531Y-129735132D01*
X118790270Y-129788077D01*
X118675282Y-129875276D01*
X118675276Y-129875282D01*
X118588077Y-129990271D01*
X118588076Y-129990273D01*
X118565854Y-130046623D01*
X118526917Y-130093820D01*
X118467675Y-130109116D01*
X118410755Y-130086669D01*
X118381000Y-130044901D01*
X118371628Y-130019774D01*
X118289687Y-129910313D01*
X118202305Y-129844900D01*
X118180228Y-129828373D01*
X118180226Y-129828372D01*
X118052114Y-129780588D01*
X118052113Y-129780587D01*
X118013895Y-129776479D01*
X117995485Y-129774500D01*
X117995481Y-129774500D01*
X117454521Y-129774500D01*
X117454515Y-129774501D01*
X117397888Y-129780587D01*
X117397886Y-129780588D01*
X117269774Y-129828372D01*
X117269773Y-129828372D01*
X117269772Y-129828373D01*
X117160315Y-129910311D01*
X117160311Y-129910315D01*
X117078373Y-130019771D01*
X117030587Y-130147887D01*
X117024500Y-130204518D01*
X102978319Y-130204518D01*
X103353341Y-129829496D01*
X103407858Y-129801719D01*
X103423345Y-129800500D01*
X103444641Y-129800500D01*
X103502832Y-129819407D01*
X103524291Y-129840706D01*
X103602850Y-129947150D01*
X103602853Y-129947152D01*
X103602855Y-129947154D01*
X103712116Y-130027792D01*
X103712117Y-130027792D01*
X103712118Y-130027793D01*
X103840301Y-130072646D01*
X103870725Y-130075499D01*
X103870727Y-130075500D01*
X103870734Y-130075500D01*
X104529273Y-130075500D01*
X104529273Y-130075499D01*
X104559699Y-130072646D01*
X104687882Y-130027793D01*
X104797150Y-129947150D01*
X104877793Y-129837882D01*
X104922646Y-129709699D01*
X104925499Y-129679273D01*
X104925500Y-129679273D01*
X104925500Y-129170727D01*
X104925499Y-129170725D01*
X104922646Y-129140305D01*
X104922646Y-129140301D01*
X104877793Y-129012118D01*
X104875704Y-129009288D01*
X104797154Y-128902855D01*
X104797152Y-128902853D01*
X104797150Y-128902850D01*
X104797146Y-128902847D01*
X104797144Y-128902845D01*
X104687883Y-128822207D01*
X104559703Y-128777355D01*
X104559694Y-128777353D01*
X104529274Y-128774500D01*
X104529266Y-128774500D01*
X103870734Y-128774500D01*
X103870725Y-128774500D01*
X103840305Y-128777353D01*
X103840296Y-128777355D01*
X103712116Y-128822207D01*
X103602855Y-128902845D01*
X103602850Y-128902850D01*
X103524294Y-129009290D01*
X103474529Y-129044881D01*
X103444641Y-129049500D01*
X103177361Y-129049500D01*
X103164286Y-129053003D01*
X103103185Y-129049798D01*
X103055637Y-129011290D01*
X103039804Y-128952188D01*
X103061734Y-128895068D01*
X103068645Y-128887391D01*
X103539202Y-128416834D01*
X103593715Y-128389060D01*
X103654147Y-128398631D01*
X103668532Y-128407588D01*
X103682914Y-128418354D01*
X103817618Y-128468596D01*
X103817629Y-128468598D01*
X103877176Y-128475000D01*
X104024999Y-128475000D01*
X104025000Y-128474999D01*
X104025000Y-127950001D01*
X104375000Y-127950001D01*
X104375000Y-128474999D01*
X104375001Y-128475000D01*
X104522824Y-128475000D01*
X104582370Y-128468598D01*
X104582381Y-128468596D01*
X104717088Y-128418353D01*
X104717090Y-128418352D01*
X104832184Y-128332192D01*
X104832192Y-128332184D01*
X104918352Y-128217090D01*
X104918353Y-128217088D01*
X104968596Y-128082381D01*
X104968598Y-128082370D01*
X104975000Y-128022824D01*
X104975000Y-127950001D01*
X104974999Y-127950000D01*
X104375001Y-127950000D01*
X104375000Y-127950001D01*
X104025000Y-127950001D01*
X104025000Y-127075001D01*
X104375000Y-127075001D01*
X104375000Y-127599999D01*
X104375001Y-127600000D01*
X104974999Y-127600000D01*
X104975000Y-127599999D01*
X104975000Y-127527175D01*
X104968598Y-127467629D01*
X104968596Y-127467618D01*
X104918353Y-127332911D01*
X104918352Y-127332909D01*
X104915799Y-127329499D01*
X116518250Y-127329499D01*
X116518250Y-127329500D01*
X116537169Y-127473208D01*
X116537170Y-127473209D01*
X116589687Y-127600000D01*
X116592639Y-127607125D01*
X116680879Y-127722121D01*
X116795875Y-127810361D01*
X116929791Y-127865830D01*
X116938421Y-127866966D01*
X116993646Y-127893306D01*
X117022842Y-127947076D01*
X117024500Y-127965119D01*
X117024500Y-128529274D01*
X117027353Y-128559694D01*
X117027355Y-128559703D01*
X117072207Y-128687883D01*
X117152845Y-128797144D01*
X117152847Y-128797146D01*
X117152850Y-128797150D01*
X117152853Y-128797152D01*
X117152855Y-128797154D01*
X117262116Y-128877792D01*
X117262117Y-128877792D01*
X117262118Y-128877793D01*
X117390301Y-128922646D01*
X117420725Y-128925499D01*
X117420727Y-128925500D01*
X117420734Y-128925500D01*
X117929273Y-128925500D01*
X117929273Y-128925499D01*
X117959699Y-128922646D01*
X118087882Y-128877793D01*
X118197150Y-128797150D01*
X118277793Y-128687882D01*
X118322646Y-128559699D01*
X118325499Y-128529273D01*
X118325500Y-128529273D01*
X118325500Y-127870727D01*
X118325499Y-127870725D01*
X118322646Y-127840301D01*
X118277793Y-127712118D01*
X118255003Y-127681239D01*
X118197154Y-127602855D01*
X118197152Y-127602853D01*
X118197150Y-127602850D01*
X118197146Y-127602847D01*
X118197144Y-127602845D01*
X118087883Y-127522207D01*
X117959703Y-127477355D01*
X117959694Y-127477353D01*
X117929274Y-127474500D01*
X117929266Y-127474500D01*
X117790545Y-127474500D01*
X117732354Y-127455593D01*
X117720541Y-127445504D01*
X117656183Y-127381146D01*
X117628406Y-127326629D01*
X117628034Y-127324064D01*
X117623458Y-127289308D01*
X117609830Y-127185791D01*
X117554361Y-127051875D01*
X117466121Y-126936879D01*
X117351125Y-126848639D01*
X117351121Y-126848637D01*
X117217209Y-126793170D01*
X117217208Y-126793169D01*
X117073500Y-126774250D01*
X116929791Y-126793169D01*
X116929790Y-126793170D01*
X116795878Y-126848637D01*
X116795874Y-126848639D01*
X116680881Y-126936877D01*
X116680877Y-126936881D01*
X116592639Y-127051874D01*
X116592637Y-127051878D01*
X116537170Y-127185790D01*
X116537169Y-127185791D01*
X116518250Y-127329499D01*
X104915799Y-127329499D01*
X104832192Y-127217815D01*
X104832184Y-127217807D01*
X104717090Y-127131647D01*
X104717088Y-127131646D01*
X104582381Y-127081403D01*
X104582370Y-127081401D01*
X104522824Y-127075000D01*
X104375001Y-127075000D01*
X104375000Y-127075001D01*
X104025000Y-127075001D01*
X104024999Y-127075000D01*
X103921684Y-127075000D01*
X103863493Y-127056093D01*
X103830221Y-127013887D01*
X103805861Y-126955075D01*
X103727270Y-126852654D01*
X103717625Y-126840084D01*
X103717624Y-126840083D01*
X103717621Y-126840079D01*
X103602625Y-126751839D01*
X103602621Y-126751837D01*
X103468709Y-126696370D01*
X103468708Y-126696369D01*
X103325000Y-126677450D01*
X103181291Y-126696369D01*
X103181290Y-126696370D01*
X103047378Y-126751837D01*
X103047374Y-126751839D01*
X102932381Y-126840077D01*
X102932377Y-126840081D01*
X102844139Y-126955074D01*
X102844137Y-126955078D01*
X102788670Y-127088990D01*
X102788670Y-127088991D01*
X102773411Y-127204889D01*
X102747070Y-127260114D01*
X102693299Y-127289308D01*
X102632637Y-127281322D01*
X102603347Y-127257145D01*
X102602396Y-127258097D01*
X102597152Y-127252853D01*
X102597150Y-127252850D01*
X102552212Y-127219684D01*
X102516621Y-127169919D01*
X102517079Y-127108736D01*
X102519538Y-127102147D01*
X102536330Y-127061609D01*
X102555250Y-126917900D01*
X102555040Y-126916308D01*
X102536330Y-126774191D01*
X102480861Y-126640275D01*
X102392621Y-126525279D01*
X102277625Y-126437039D01*
X102277621Y-126437037D01*
X102143709Y-126381570D01*
X102143708Y-126381569D01*
X102000000Y-126362650D01*
X101856291Y-126381569D01*
X101856290Y-126381570D01*
X101722378Y-126437037D01*
X101722374Y-126437039D01*
X101607381Y-126525277D01*
X101607377Y-126525281D01*
X101519139Y-126640274D01*
X101519137Y-126640278D01*
X101463670Y-126774190D01*
X101463669Y-126774191D01*
X101444750Y-126917899D01*
X101444750Y-126917900D01*
X101463669Y-127061605D01*
X101463670Y-127061610D01*
X101480461Y-127102147D01*
X101485260Y-127163143D01*
X101453290Y-127215312D01*
X101447785Y-127219685D01*
X101402855Y-127252845D01*
X101402845Y-127252855D01*
X101322207Y-127362116D01*
X101277355Y-127490296D01*
X101277353Y-127490305D01*
X101274500Y-127520725D01*
X101274500Y-127928455D01*
X101255593Y-127986646D01*
X101245504Y-127998459D01*
X100725525Y-128518438D01*
X100685236Y-128588221D01*
X100639766Y-128629161D01*
X100578916Y-128635556D01*
X100525928Y-128604963D01*
X100501042Y-128549068D01*
X100500500Y-128538720D01*
X100500500Y-125925001D01*
X102500001Y-125925001D01*
X102500001Y-125954203D01*
X102502850Y-125984600D01*
X102502850Y-125984602D01*
X102547654Y-126112647D01*
X102628207Y-126221790D01*
X102628209Y-126221792D01*
X102737352Y-126302345D01*
X102865398Y-126347149D01*
X102895789Y-126349999D01*
X103287498Y-126349999D01*
X103287500Y-126349998D01*
X103287500Y-125925001D01*
X103637500Y-125925001D01*
X103637500Y-126349998D01*
X103637501Y-126349999D01*
X104029203Y-126349999D01*
X104059600Y-126347149D01*
X104059602Y-126347149D01*
X104187647Y-126302345D01*
X104296790Y-126221792D01*
X104296792Y-126221790D01*
X104377345Y-126112647D01*
X104422149Y-125984601D01*
X104424999Y-125954211D01*
X104425000Y-125954210D01*
X104425000Y-125925001D01*
X104424999Y-125925000D01*
X103637501Y-125925000D01*
X103637500Y-125925001D01*
X103287500Y-125925001D01*
X103287499Y-125925000D01*
X102500002Y-125925000D01*
X102500001Y-125925001D01*
X100500500Y-125925001D01*
X100500500Y-124800999D01*
X101767250Y-124800999D01*
X101767250Y-124801000D01*
X101786169Y-124944708D01*
X101786170Y-124944709D01*
X101828341Y-125046522D01*
X101841639Y-125078625D01*
X101929879Y-125193621D01*
X102044875Y-125281861D01*
X102178791Y-125337330D01*
X102322500Y-125356250D01*
X102410437Y-125344672D01*
X102470596Y-125355822D01*
X102512713Y-125400203D01*
X102520700Y-125460865D01*
X102516803Y-125475521D01*
X102502850Y-125515397D01*
X102500000Y-125545788D01*
X102500000Y-125574999D01*
X102500001Y-125575000D01*
X104424998Y-125575000D01*
X104424999Y-125574999D01*
X104424999Y-125568477D01*
X104824500Y-125568477D01*
X104824500Y-125931520D01*
X104824501Y-125931523D01*
X104839352Y-126025299D01*
X104839354Y-126025304D01*
X104896950Y-126138342D01*
X104986658Y-126228050D01*
X105099696Y-126285646D01*
X105193481Y-126300500D01*
X106281518Y-126300499D01*
X106281521Y-126300499D01*
X106281522Y-126300498D01*
X106328411Y-126293072D01*
X106375299Y-126285647D01*
X106375299Y-126285646D01*
X106375304Y-126285646D01*
X106488342Y-126228050D01*
X106566392Y-126150000D01*
X115277622Y-126150000D01*
X115290760Y-126232964D01*
X115290762Y-126232969D01*
X115351881Y-126352921D01*
X115447078Y-126448118D01*
X115567030Y-126509237D01*
X115567029Y-126509237D01*
X115666545Y-126524999D01*
X116212498Y-126524999D01*
X116212500Y-126524998D01*
X116212500Y-126150001D01*
X116562500Y-126150001D01*
X116562500Y-126524998D01*
X116562501Y-126524999D01*
X117108453Y-126524999D01*
X117207965Y-126509239D01*
X117207969Y-126509237D01*
X117327921Y-126448118D01*
X117423118Y-126352921D01*
X117484237Y-126232970D01*
X117497379Y-126150000D01*
X119502622Y-126150000D01*
X119515760Y-126232964D01*
X119515762Y-126232969D01*
X119576881Y-126352921D01*
X119672078Y-126448118D01*
X119792030Y-126509237D01*
X119792029Y-126509237D01*
X119891545Y-126524999D01*
X120437498Y-126524999D01*
X120437500Y-126524998D01*
X120437500Y-126150001D01*
X120437499Y-126150000D01*
X119502622Y-126150000D01*
X117497379Y-126150000D01*
X116562501Y-126150000D01*
X116562500Y-126150001D01*
X116212500Y-126150001D01*
X116212499Y-126150000D01*
X115277622Y-126150000D01*
X106566392Y-126150000D01*
X106578050Y-126138342D01*
X106635646Y-126025304D01*
X106650500Y-125931519D01*
X106650499Y-125568482D01*
X106650498Y-125568477D01*
X106650498Y-125568475D01*
X106636580Y-125480585D01*
X106646152Y-125420153D01*
X106689418Y-125376889D01*
X106734361Y-125366100D01*
X112770261Y-125366100D01*
X112828452Y-125385007D01*
X112830485Y-125386525D01*
X112941175Y-125471461D01*
X113075091Y-125526930D01*
X113218800Y-125545850D01*
X113362509Y-125526930D01*
X113496425Y-125471461D01*
X113611421Y-125383221D01*
X113699661Y-125268225D01*
X113755130Y-125134309D01*
X113774050Y-124990600D01*
X113772854Y-124981519D01*
X113755130Y-124846891D01*
X113699661Y-124712975D01*
X113634815Y-124628467D01*
X113614392Y-124570792D01*
X113631769Y-124512126D01*
X113680311Y-124474879D01*
X113713358Y-124469200D01*
X114501712Y-124469200D01*
X114559903Y-124488107D01*
X114595867Y-124537607D01*
X114595867Y-124598793D01*
X114593178Y-124606079D01*
X114577200Y-124644655D01*
X114572670Y-124655591D01*
X114572669Y-124655591D01*
X114553750Y-124799299D01*
X114553750Y-124799300D01*
X114572669Y-124943008D01*
X114572670Y-124943009D01*
X114627467Y-125075304D01*
X114628139Y-125076925D01*
X114716379Y-125191921D01*
X114831375Y-125280161D01*
X114965291Y-125335630D01*
X115109000Y-125354550D01*
X115212578Y-125340913D01*
X115272738Y-125352063D01*
X115314856Y-125396445D01*
X115324500Y-125439066D01*
X115324500Y-125485636D01*
X115326764Y-125501175D01*
X115335134Y-125558627D01*
X115336995Y-125564649D01*
X115336105Y-125625828D01*
X115330615Y-125638814D01*
X115290762Y-125717031D01*
X115277621Y-125800000D01*
X115538062Y-125800000D01*
X115581544Y-125810060D01*
X115591375Y-125814866D01*
X115664364Y-125825500D01*
X115664367Y-125825500D01*
X117110632Y-125825500D01*
X117110636Y-125825500D01*
X117183625Y-125814866D01*
X117193456Y-125810060D01*
X117236938Y-125800000D01*
X117497378Y-125800000D01*
X117507550Y-125788090D01*
X117559719Y-125756120D01*
X117620715Y-125760921D01*
X117622497Y-125761659D01*
X117741691Y-125811030D01*
X117885400Y-125829950D01*
X118029109Y-125811030D01*
X118163025Y-125755561D01*
X118278021Y-125667321D01*
X118366261Y-125552325D01*
X118421730Y-125418409D01*
X118440650Y-125274700D01*
X118438877Y-125261236D01*
X118421730Y-125130991D01*
X118366261Y-124997075D01*
X118278021Y-124882079D01*
X118163025Y-124793839D01*
X118163021Y-124793837D01*
X118029109Y-124738370D01*
X118029108Y-124738369D01*
X117885400Y-124719450D01*
X117741691Y-124738369D01*
X117741690Y-124738370D01*
X117607778Y-124793837D01*
X117602153Y-124797085D01*
X117601158Y-124795361D01*
X117552073Y-124812734D01*
X117493411Y-124795345D01*
X117456172Y-124746797D01*
X117450500Y-124713767D01*
X117450500Y-124514367D01*
X117450375Y-124513508D01*
X117439866Y-124441375D01*
X117416450Y-124393479D01*
X117407880Y-124332898D01*
X117416451Y-124306520D01*
X117418580Y-124302165D01*
X117439866Y-124258625D01*
X117450500Y-124185636D01*
X117450500Y-123864364D01*
X117439866Y-123791375D01*
X117384826Y-123678789D01*
X117296211Y-123590174D01*
X117293132Y-123588669D01*
X117183625Y-123535134D01*
X117183626Y-123535134D01*
X117162162Y-123532007D01*
X117110636Y-123524500D01*
X115664364Y-123524500D01*
X115620570Y-123530880D01*
X115591373Y-123535134D01*
X115478790Y-123590173D01*
X115390173Y-123678790D01*
X115367446Y-123725280D01*
X115324902Y-123769254D01*
X115278505Y-123780800D01*
X113091097Y-123780800D01*
X113032906Y-123761893D01*
X113012555Y-123742067D01*
X113005125Y-123732384D01*
X113005124Y-123732383D01*
X113005121Y-123732379D01*
X112890125Y-123644139D01*
X112890121Y-123644137D01*
X112756209Y-123588670D01*
X112756208Y-123588669D01*
X112612500Y-123569750D01*
X112468791Y-123588669D01*
X112468790Y-123588670D01*
X112334878Y-123644137D01*
X112334874Y-123644139D01*
X112219881Y-123732377D01*
X112219877Y-123732381D01*
X112131639Y-123847374D01*
X112131637Y-123847378D01*
X112076170Y-123981290D01*
X112076169Y-123981291D01*
X112057250Y-124124999D01*
X112057250Y-124125000D01*
X112076169Y-124268708D01*
X112076170Y-124268709D01*
X112130758Y-124400500D01*
X112131639Y-124402625D01*
X112172467Y-124455833D01*
X112192891Y-124513508D01*
X112175514Y-124572174D01*
X112126973Y-124609421D01*
X112093925Y-124615100D01*
X106546336Y-124615100D01*
X106447464Y-124615100D01*
X106385556Y-124631688D01*
X106351962Y-124640689D01*
X106296641Y-124672629D01*
X106272303Y-124686681D01*
X106266334Y-124690127D01*
X105785956Y-125170504D01*
X105731440Y-125198281D01*
X105715953Y-125199500D01*
X105193479Y-125199500D01*
X105193476Y-125199501D01*
X105099700Y-125214352D01*
X105099695Y-125214354D01*
X104986659Y-125271949D01*
X104896949Y-125361659D01*
X104839354Y-125474695D01*
X104824500Y-125568477D01*
X104424999Y-125568477D01*
X104424999Y-125545796D01*
X104422149Y-125515399D01*
X104422149Y-125515397D01*
X104377345Y-125387352D01*
X104309734Y-125295745D01*
X104290392Y-125237697D01*
X104301180Y-125192010D01*
X104303047Y-125188344D01*
X104303050Y-125188342D01*
X104360646Y-125075304D01*
X104375500Y-124981519D01*
X104375499Y-124618482D01*
X104362691Y-124537607D01*
X104360647Y-124524700D01*
X104360646Y-124524698D01*
X104360646Y-124524696D01*
X104303050Y-124411658D01*
X104303048Y-124411656D01*
X104301180Y-124407989D01*
X104291608Y-124347557D01*
X104309735Y-124304254D01*
X104377344Y-124212649D01*
X104422149Y-124084601D01*
X104424999Y-124054211D01*
X104425000Y-124054210D01*
X104425000Y-124025001D01*
X104424999Y-124025000D01*
X102500002Y-124025000D01*
X102500001Y-124025001D01*
X102500001Y-124054203D01*
X102502850Y-124084600D01*
X102502851Y-124084605D01*
X102517536Y-124126574D01*
X102518908Y-124187744D01*
X102484063Y-124238038D01*
X102426311Y-124258245D01*
X102411169Y-124257423D01*
X102322501Y-124245750D01*
X102322500Y-124245750D01*
X102178791Y-124264669D01*
X102178790Y-124264670D01*
X102044878Y-124320137D01*
X102044874Y-124320139D01*
X101929881Y-124408377D01*
X101929877Y-124408381D01*
X101841639Y-124523374D01*
X101841637Y-124523378D01*
X101786170Y-124657290D01*
X101786169Y-124657291D01*
X101767250Y-124800999D01*
X100500500Y-124800999D01*
X100500500Y-123645788D01*
X102500000Y-123645788D01*
X102500000Y-123674999D01*
X102500001Y-123675000D01*
X103287499Y-123675000D01*
X103287500Y-123674999D01*
X103287500Y-123250001D01*
X103637500Y-123250001D01*
X103637500Y-123674999D01*
X103637501Y-123675000D01*
X104424998Y-123675000D01*
X104424999Y-123674999D01*
X104424999Y-123645796D01*
X104422149Y-123615399D01*
X104422149Y-123615397D01*
X104377345Y-123487352D01*
X104296792Y-123378209D01*
X104296790Y-123378207D01*
X104187647Y-123297654D01*
X104059601Y-123252850D01*
X104029211Y-123250000D01*
X103637501Y-123250000D01*
X103637500Y-123250001D01*
X103287500Y-123250001D01*
X103287499Y-123250000D01*
X102895796Y-123250000D01*
X102865399Y-123252850D01*
X102865397Y-123252850D01*
X102737352Y-123297654D01*
X102628209Y-123378207D01*
X102628207Y-123378209D01*
X102547654Y-123487352D01*
X102502850Y-123615398D01*
X102500000Y-123645788D01*
X100500500Y-123645788D01*
X100500500Y-120400001D01*
X100775000Y-120400001D01*
X100775000Y-120491104D01*
X100785132Y-120575468D01*
X100838077Y-120709729D01*
X100925276Y-120824717D01*
X100925282Y-120824723D01*
X101040271Y-120911922D01*
X101096621Y-120934144D01*
X101143819Y-120973081D01*
X101159116Y-121032323D01*
X101136670Y-121089243D01*
X101094903Y-121118999D01*
X101082924Y-121123467D01*
X101069774Y-121128372D01*
X101069773Y-121128372D01*
X101069772Y-121128373D01*
X100960315Y-121210311D01*
X100960311Y-121210315D01*
X100878373Y-121319771D01*
X100830587Y-121447887D01*
X100824500Y-121504518D01*
X100824500Y-122045478D01*
X100824501Y-122045484D01*
X100830587Y-122102111D01*
X100830587Y-122102112D01*
X100830588Y-122102114D01*
X100878372Y-122230226D01*
X100960313Y-122339687D01*
X101069774Y-122421628D01*
X101197886Y-122469412D01*
X101254515Y-122475500D01*
X101664816Y-122475499D01*
X101690439Y-122478872D01*
X101763691Y-122498500D01*
X103835238Y-122498500D01*
X103893429Y-122517407D01*
X103929393Y-122566907D01*
X103930861Y-122571864D01*
X103959001Y-122676887D01*
X103959002Y-122676889D01*
X103959003Y-122676892D01*
X104018307Y-122779609D01*
X104018308Y-122779610D01*
X104018309Y-122779611D01*
X104018311Y-122779614D01*
X104445352Y-123206655D01*
X104800135Y-123561438D01*
X104827912Y-123615955D01*
X104827913Y-123646925D01*
X104824500Y-123668479D01*
X104824500Y-124031520D01*
X104824501Y-124031523D01*
X104839352Y-124125299D01*
X104839354Y-124125304D01*
X104896950Y-124238342D01*
X104986658Y-124328050D01*
X105099696Y-124385646D01*
X105193481Y-124400500D01*
X106281518Y-124400499D01*
X106281521Y-124400499D01*
X106281522Y-124400498D01*
X106328411Y-124393072D01*
X106375299Y-124385647D01*
X106375299Y-124385646D01*
X106375304Y-124385646D01*
X106488342Y-124328050D01*
X106578050Y-124238342D01*
X106635646Y-124125304D01*
X106650500Y-124031519D01*
X106650499Y-123668482D01*
X106646644Y-123644139D01*
X106635647Y-123574700D01*
X106635646Y-123574698D01*
X106635646Y-123574696D01*
X106578050Y-123461658D01*
X106488342Y-123371950D01*
X106375304Y-123314354D01*
X106375305Y-123314354D01*
X106281522Y-123299500D01*
X106281519Y-123299500D01*
X105853412Y-123299500D01*
X105795221Y-123280593D01*
X105783408Y-123270504D01*
X105350029Y-122837125D01*
X104825529Y-122312626D01*
X104797753Y-122258110D01*
X104799908Y-122216999D01*
X104821588Y-122136091D01*
X104829300Y-122107309D01*
X104829300Y-121988691D01*
X104808530Y-121911177D01*
X104811732Y-121850078D01*
X104850238Y-121802528D01*
X104909338Y-121786692D01*
X104966460Y-121808618D01*
X104974150Y-121815542D01*
X104986658Y-121828050D01*
X105099696Y-121885646D01*
X105193481Y-121900500D01*
X106281518Y-121900499D01*
X106281521Y-121900499D01*
X106281522Y-121900498D01*
X106328411Y-121893072D01*
X106375299Y-121885647D01*
X106375299Y-121885646D01*
X106375304Y-121885646D01*
X106488342Y-121828050D01*
X106578050Y-121738342D01*
X106635646Y-121625304D01*
X106650500Y-121531519D01*
X106650499Y-121168482D01*
X106644290Y-121129274D01*
X106642401Y-121117347D01*
X106651973Y-121056915D01*
X106695238Y-121013651D01*
X106702271Y-121010408D01*
X106722425Y-121002061D01*
X106837421Y-120913821D01*
X106925661Y-120798825D01*
X106981130Y-120664909D01*
X107000050Y-120521200D01*
X106996522Y-120494406D01*
X106981130Y-120377491D01*
X106925661Y-120243575D01*
X106837421Y-120128579D01*
X106722425Y-120040339D01*
X106722421Y-120040337D01*
X106614388Y-119995589D01*
X106567862Y-119955853D01*
X106553578Y-119896358D01*
X106574644Y-119845500D01*
X106573469Y-119844647D01*
X106578043Y-119838348D01*
X106578050Y-119838342D01*
X106635646Y-119725304D01*
X106650500Y-119631519D01*
X106650499Y-119268482D01*
X106641287Y-119210313D01*
X106635647Y-119174700D01*
X106635646Y-119174698D01*
X106635646Y-119174696D01*
X106578050Y-119061658D01*
X106488342Y-118971950D01*
X106375304Y-118914354D01*
X106375305Y-118914354D01*
X106281522Y-118899500D01*
X106281519Y-118899500D01*
X105421095Y-118899500D01*
X105362904Y-118880593D01*
X105326940Y-118831093D01*
X105322942Y-118813423D01*
X105319258Y-118785446D01*
X105309930Y-118714591D01*
X105254461Y-118580675D01*
X105166221Y-118465679D01*
X105166216Y-118465675D01*
X105166214Y-118465673D01*
X105162887Y-118463120D01*
X105128234Y-118412694D01*
X105129838Y-118351530D01*
X105167087Y-118302990D01*
X105188557Y-118291825D01*
X105282378Y-118256832D01*
X105317329Y-118243797D01*
X105317329Y-118243796D01*
X105317331Y-118243796D01*
X105432546Y-118157546D01*
X105518796Y-118042331D01*
X105524219Y-118027793D01*
X105569089Y-117907488D01*
X105569090Y-117907485D01*
X105569091Y-117907483D01*
X105575500Y-117847873D01*
X105575499Y-117524499D01*
X105594406Y-117466310D01*
X105643906Y-117430345D01*
X105674499Y-117425500D01*
X108475278Y-117425500D01*
X108533469Y-117444407D01*
X108554532Y-117465172D01*
X108610313Y-117539687D01*
X108719774Y-117621628D01*
X108847886Y-117669412D01*
X108904515Y-117675500D01*
X109495484Y-117675499D01*
X109552114Y-117669412D01*
X109680226Y-117621628D01*
X109789687Y-117539687D01*
X109871628Y-117430226D01*
X109919412Y-117302114D01*
X109925500Y-117245485D01*
X109925499Y-116927609D01*
X109944406Y-116869420D01*
X109954489Y-116857612D01*
X110503786Y-116308315D01*
X110558301Y-116280540D01*
X110618733Y-116290111D01*
X110661998Y-116333376D01*
X110665248Y-116340428D01*
X110680725Y-116377792D01*
X110713157Y-116456093D01*
X110715739Y-116462325D01*
X110803979Y-116577321D01*
X110918975Y-116665561D01*
X111052891Y-116721030D01*
X111188422Y-116738873D01*
X111243647Y-116765214D01*
X111272842Y-116818985D01*
X111274500Y-116837026D01*
X111274500Y-117279274D01*
X111277353Y-117309694D01*
X111277355Y-117309703D01*
X111322207Y-117437883D01*
X111402845Y-117547144D01*
X111402847Y-117547146D01*
X111402850Y-117547150D01*
X111402853Y-117547152D01*
X111402855Y-117547154D01*
X111512116Y-117627792D01*
X111512117Y-117627792D01*
X111512118Y-117627793D01*
X111640301Y-117672646D01*
X111670725Y-117675499D01*
X111670727Y-117675500D01*
X111670734Y-117675500D01*
X111828455Y-117675500D01*
X111886646Y-117694407D01*
X111898459Y-117704496D01*
X113745504Y-119551541D01*
X113773281Y-119606058D01*
X113774500Y-119621545D01*
X113774500Y-120045478D01*
X113774501Y-120045484D01*
X113780587Y-120102111D01*
X113780587Y-120102112D01*
X113780588Y-120102114D01*
X113828372Y-120230226D01*
X113910313Y-120339687D01*
X113960812Y-120377490D01*
X113990883Y-120400001D01*
X114019774Y-120421628D01*
X114147886Y-120469412D01*
X114204515Y-120475500D01*
X114628454Y-120475499D01*
X114686645Y-120494406D01*
X114698458Y-120504495D01*
X118672104Y-124478141D01*
X118699881Y-124532658D01*
X118701100Y-124548145D01*
X118701100Y-125250135D01*
X118719157Y-125317525D01*
X118726691Y-125345642D01*
X118768704Y-125418409D01*
X118776125Y-125431262D01*
X118846038Y-125501175D01*
X118846040Y-125501176D01*
X118931658Y-125550608D01*
X118931656Y-125550608D01*
X118931660Y-125550609D01*
X118931662Y-125550610D01*
X119027165Y-125576200D01*
X119027167Y-125576200D01*
X119126033Y-125576200D01*
X119126035Y-125576200D01*
X119221538Y-125550610D01*
X119221539Y-125550609D01*
X119227806Y-125548930D01*
X119228157Y-125550242D01*
X119255015Y-125544900D01*
X119441914Y-125544900D01*
X119500105Y-125563807D01*
X119536069Y-125613307D01*
X119536069Y-125674493D01*
X119530123Y-125688846D01*
X119515762Y-125717030D01*
X119502621Y-125800000D01*
X119763062Y-125800000D01*
X119806544Y-125810060D01*
X119816375Y-125814866D01*
X119889364Y-125825500D01*
X119889367Y-125825500D01*
X120688500Y-125825500D01*
X120746691Y-125844407D01*
X120782655Y-125893907D01*
X120787500Y-125924500D01*
X120787500Y-126524998D01*
X120787501Y-126524999D01*
X120800954Y-126524999D01*
X120859145Y-126543906D01*
X120895109Y-126593406D01*
X120895109Y-126654592D01*
X120870958Y-126694003D01*
X119973537Y-127591424D01*
X119919020Y-127619201D01*
X119858588Y-127609630D01*
X119844745Y-127601075D01*
X119737883Y-127522207D01*
X119609703Y-127477355D01*
X119609694Y-127477353D01*
X119579274Y-127474500D01*
X119579266Y-127474500D01*
X119070734Y-127474500D01*
X119070725Y-127474500D01*
X119040305Y-127477353D01*
X119040296Y-127477355D01*
X118912116Y-127522207D01*
X118802855Y-127602845D01*
X118802845Y-127602855D01*
X118722207Y-127712116D01*
X118677355Y-127840296D01*
X118677353Y-127840305D01*
X118674500Y-127870725D01*
X118674500Y-128529274D01*
X118677353Y-128559694D01*
X118677355Y-128559703D01*
X118722207Y-128687883D01*
X118802845Y-128797144D01*
X118802847Y-128797146D01*
X118802850Y-128797150D01*
X118802853Y-128797152D01*
X118802855Y-128797154D01*
X118912116Y-128877792D01*
X118912117Y-128877792D01*
X118912118Y-128877793D01*
X119040301Y-128922646D01*
X119070725Y-128925499D01*
X119070727Y-128925500D01*
X119070734Y-128925500D01*
X119579273Y-128925500D01*
X119579273Y-128925499D01*
X119609699Y-128922646D01*
X119737882Y-128877793D01*
X119847150Y-128797150D01*
X119927793Y-128687882D01*
X119952079Y-128618473D01*
X119989143Y-128569795D01*
X120019898Y-128555547D01*
X120040938Y-128549910D01*
X120126562Y-128500475D01*
X120196475Y-128430562D01*
X120196474Y-128430562D01*
X120604645Y-128022391D01*
X120659161Y-127994615D01*
X120719593Y-128004186D01*
X120753188Y-128032126D01*
X120835979Y-128140021D01*
X120950975Y-128228261D01*
X121084891Y-128283730D01*
X121228600Y-128302650D01*
X121372309Y-128283730D01*
X121506225Y-128228261D01*
X121616873Y-128143357D01*
X121674547Y-128122934D01*
X121677139Y-128122900D01*
X122631733Y-128122900D01*
X122689924Y-128141807D01*
X122725888Y-128191307D01*
X122729699Y-128207630D01*
X122734778Y-128242505D01*
X122734781Y-128242514D01*
X122787985Y-128351343D01*
X122787987Y-128351345D01*
X122787988Y-128351347D01*
X122873653Y-128437012D01*
X122982491Y-128490220D01*
X123053051Y-128500500D01*
X123346948Y-128500499D01*
X123394542Y-128493565D01*
X123417504Y-128490221D01*
X123417505Y-128490220D01*
X123417509Y-128490220D01*
X123417511Y-128490218D01*
X123417514Y-128490218D01*
X123526343Y-128437014D01*
X123526343Y-128437013D01*
X123526347Y-128437012D01*
X123612012Y-128351347D01*
X123665220Y-128242509D01*
X123675500Y-128171949D01*
X123675499Y-127728052D01*
X123670359Y-127692771D01*
X123665221Y-127657495D01*
X123665218Y-127657485D01*
X123627338Y-127580001D01*
X125250001Y-127580001D01*
X125250001Y-127609203D01*
X125252850Y-127639600D01*
X125252850Y-127639602D01*
X125297654Y-127767647D01*
X125378207Y-127876790D01*
X125378209Y-127876792D01*
X125487352Y-127957345D01*
X125615398Y-128002149D01*
X125645789Y-128004999D01*
X126349998Y-128004999D01*
X126350000Y-128004998D01*
X126350000Y-127580001D01*
X126700000Y-127580001D01*
X126700000Y-128004998D01*
X126700001Y-128004999D01*
X127404203Y-128004999D01*
X127434600Y-128002149D01*
X127434602Y-128002149D01*
X127562647Y-127957345D01*
X127671790Y-127876792D01*
X127671792Y-127876790D01*
X127752345Y-127767647D01*
X127797149Y-127639601D01*
X127799999Y-127609211D01*
X127800000Y-127609210D01*
X127800000Y-127580001D01*
X130200001Y-127580001D01*
X130200001Y-127609203D01*
X130202850Y-127639600D01*
X130202850Y-127639602D01*
X130247654Y-127767647D01*
X130328207Y-127876790D01*
X130328209Y-127876792D01*
X130437352Y-127957345D01*
X130565398Y-128002149D01*
X130595789Y-128004999D01*
X131299998Y-128004999D01*
X131300000Y-128004998D01*
X131300000Y-127580001D01*
X131650000Y-127580001D01*
X131650000Y-128004998D01*
X131650001Y-128004999D01*
X132354203Y-128004999D01*
X132384600Y-128002149D01*
X132384602Y-128002149D01*
X132512647Y-127957345D01*
X132621790Y-127876792D01*
X132621792Y-127876790D01*
X132702345Y-127767647D01*
X132747149Y-127639601D01*
X132749999Y-127609211D01*
X132750000Y-127609210D01*
X132750000Y-127580001D01*
X132749999Y-127580000D01*
X131650001Y-127580000D01*
X131650000Y-127580001D01*
X131300000Y-127580001D01*
X131299999Y-127580000D01*
X130200002Y-127580000D01*
X130200001Y-127580001D01*
X127800000Y-127580001D01*
X127799999Y-127580000D01*
X126700001Y-127580000D01*
X126700000Y-127580001D01*
X126350000Y-127580001D01*
X126349999Y-127580000D01*
X125250002Y-127580000D01*
X125250001Y-127580001D01*
X123627338Y-127580001D01*
X123612014Y-127548656D01*
X123612009Y-127548650D01*
X123604494Y-127541134D01*
X123576718Y-127486616D01*
X123575500Y-127471133D01*
X123575500Y-126328866D01*
X123594407Y-126270675D01*
X123604490Y-126258868D01*
X123608864Y-126254494D01*
X123663379Y-126226719D01*
X123678866Y-126225500D01*
X124606661Y-126225500D01*
X124664852Y-126244407D01*
X124666885Y-126245925D01*
X124777575Y-126330861D01*
X124911491Y-126386330D01*
X125055200Y-126405250D01*
X125198909Y-126386330D01*
X125199590Y-126386047D01*
X125200117Y-126386006D01*
X125205175Y-126384651D01*
X125205426Y-126385587D01*
X125260584Y-126381239D01*
X125312757Y-126413202D01*
X125325694Y-126432561D01*
X125364763Y-126509237D01*
X125371950Y-126523342D01*
X125461658Y-126613050D01*
X125461660Y-126613051D01*
X125544534Y-126655278D01*
X125587799Y-126698542D01*
X125597370Y-126758974D01*
X125569592Y-126813491D01*
X125532287Y-126836931D01*
X125487354Y-126852653D01*
X125378209Y-126933207D01*
X125378207Y-126933209D01*
X125297654Y-127042352D01*
X125252850Y-127170398D01*
X125250000Y-127200788D01*
X125250000Y-127229999D01*
X125250001Y-127230000D01*
X127799998Y-127230000D01*
X127799999Y-127229999D01*
X127799999Y-127200796D01*
X127797149Y-127170399D01*
X127797149Y-127170397D01*
X127752345Y-127042352D01*
X127671792Y-126933209D01*
X127671790Y-126933207D01*
X127562647Y-126852654D01*
X127517713Y-126836932D01*
X127469032Y-126799866D01*
X127451435Y-126741266D01*
X127471643Y-126683514D01*
X127505461Y-126655279D01*
X127588342Y-126613050D01*
X127678050Y-126523342D01*
X127735646Y-126410304D01*
X127750500Y-126316519D01*
X127750499Y-126024331D01*
X127769406Y-125966142D01*
X127818906Y-125930178D01*
X127823851Y-125928712D01*
X127916087Y-125903999D01*
X127916089Y-125903997D01*
X127916091Y-125903997D01*
X128018809Y-125844692D01*
X128018809Y-125844691D01*
X128018814Y-125844689D01*
X128150946Y-125712557D01*
X128202408Y-125661096D01*
X128256924Y-125633319D01*
X128272411Y-125632100D01*
X129517668Y-125632100D01*
X129575859Y-125651007D01*
X129577915Y-125652543D01*
X129647759Y-125706136D01*
X129647760Y-125706136D01*
X129647761Y-125706137D01*
X129767079Y-125755560D01*
X129793838Y-125766644D01*
X129911409Y-125782122D01*
X129950599Y-125787282D01*
X129950600Y-125787282D01*
X129950601Y-125787282D01*
X129981952Y-125783154D01*
X130107362Y-125766644D01*
X130127827Y-125758166D01*
X130188824Y-125753365D01*
X130240993Y-125785333D01*
X130264409Y-125841861D01*
X130263495Y-125865117D01*
X130249500Y-125953477D01*
X130249500Y-126316520D01*
X130249501Y-126316523D01*
X130264352Y-126410299D01*
X130264354Y-126410304D01*
X130321950Y-126523342D01*
X130411658Y-126613050D01*
X130411660Y-126613051D01*
X130494534Y-126655278D01*
X130537799Y-126698542D01*
X130547370Y-126758974D01*
X130519592Y-126813491D01*
X130482287Y-126836931D01*
X130437354Y-126852653D01*
X130328209Y-126933207D01*
X130328207Y-126933209D01*
X130247654Y-127042352D01*
X130202850Y-127170398D01*
X130200000Y-127200788D01*
X130200000Y-127229999D01*
X130200001Y-127230000D01*
X132749998Y-127230000D01*
X132749999Y-127229999D01*
X132749999Y-127200796D01*
X132747149Y-127170399D01*
X132747149Y-127170397D01*
X132702345Y-127042352D01*
X132621792Y-126933209D01*
X132621790Y-126933207D01*
X132512647Y-126852654D01*
X132467713Y-126836932D01*
X132419032Y-126799866D01*
X132401435Y-126741266D01*
X132421643Y-126683514D01*
X132455461Y-126655279D01*
X132538342Y-126613050D01*
X132628050Y-126523342D01*
X132685646Y-126410304D01*
X132700500Y-126316519D01*
X132700499Y-125953482D01*
X132696575Y-125928705D01*
X132685647Y-125859700D01*
X132685646Y-125859698D01*
X132685646Y-125859696D01*
X132628050Y-125746658D01*
X132538342Y-125656950D01*
X132425304Y-125599354D01*
X132425306Y-125599354D01*
X132415372Y-125597781D01*
X132360856Y-125570002D01*
X132333080Y-125515485D01*
X132342652Y-125455053D01*
X132385917Y-125411790D01*
X132415376Y-125402218D01*
X132425304Y-125400646D01*
X132538342Y-125343050D01*
X132628050Y-125253342D01*
X132685646Y-125140304D01*
X132700500Y-125046519D01*
X132700499Y-124724499D01*
X132719406Y-124666310D01*
X132768906Y-124630345D01*
X132799499Y-124625500D01*
X134593101Y-124625500D01*
X134651292Y-124644407D01*
X134663098Y-124654490D01*
X134736658Y-124728050D01*
X134849696Y-124785646D01*
X134943481Y-124800500D01*
X136181518Y-124800499D01*
X136181521Y-124800499D01*
X136181522Y-124800498D01*
X136228411Y-124793072D01*
X136275299Y-124785647D01*
X136275304Y-124785646D01*
X136275306Y-124785645D01*
X136354856Y-124745111D01*
X136415287Y-124735540D01*
X136469804Y-124763317D01*
X136497582Y-124817833D01*
X136488011Y-124878265D01*
X136488011Y-124878266D01*
X136464354Y-124924696D01*
X136449500Y-125018477D01*
X136449500Y-125381520D01*
X136449501Y-125381523D01*
X136464352Y-125475299D01*
X136464353Y-125475302D01*
X136464353Y-125475303D01*
X136464354Y-125475304D01*
X136484782Y-125515397D01*
X136488011Y-125521733D01*
X136497582Y-125582165D01*
X136469805Y-125636681D01*
X136415288Y-125664459D01*
X136354856Y-125654888D01*
X136275303Y-125614353D01*
X136181521Y-125599500D01*
X134943478Y-125599500D01*
X134943476Y-125599501D01*
X134849700Y-125614352D01*
X134849695Y-125614354D01*
X134736659Y-125671949D01*
X134646949Y-125761659D01*
X134589354Y-125874695D01*
X134574500Y-125968477D01*
X134574500Y-126331520D01*
X134574501Y-126331521D01*
X134589767Y-126427916D01*
X134580195Y-126488348D01*
X134561990Y-126513406D01*
X132639508Y-128435889D01*
X132639507Y-128435890D01*
X132580200Y-128538612D01*
X132580200Y-128538613D01*
X132580201Y-128538614D01*
X132554226Y-128635556D01*
X132549500Y-128653192D01*
X132549500Y-129409567D01*
X132530593Y-129467758D01*
X132485096Y-129502325D01*
X132407670Y-129531202D01*
X132292458Y-129617450D01*
X132292450Y-129617458D01*
X132206202Y-129732670D01*
X132155910Y-129867511D01*
X132155908Y-129867522D01*
X132149500Y-129927129D01*
X132149500Y-131272866D01*
X132149500Y-131272869D01*
X132149501Y-131272872D01*
X132150038Y-131277863D01*
X132155908Y-131332480D01*
X132155909Y-131332485D01*
X132206202Y-131467329D01*
X132292450Y-131582541D01*
X132292454Y-131582546D01*
X132292457Y-131582548D01*
X132292458Y-131582549D01*
X132407670Y-131668797D01*
X132542511Y-131719089D01*
X132542512Y-131719089D01*
X132542517Y-131719091D01*
X132602127Y-131725500D01*
X133397872Y-131725499D01*
X133457483Y-131719091D01*
X133570507Y-131676936D01*
X133592329Y-131668797D01*
X133592329Y-131668796D01*
X133592331Y-131668796D01*
X133707546Y-131582546D01*
X133793796Y-131467331D01*
X133798307Y-131455238D01*
X133844089Y-131332488D01*
X133844090Y-131332485D01*
X133844091Y-131332483D01*
X133850500Y-131272873D01*
X133850499Y-130241230D01*
X134149500Y-130241230D01*
X134149500Y-130958769D01*
X134182183Y-131123079D01*
X134182185Y-131123085D01*
X134246296Y-131277862D01*
X134246297Y-131277863D01*
X134339374Y-131417162D01*
X134457838Y-131535626D01*
X134597137Y-131628703D01*
X134751918Y-131692816D01*
X134916233Y-131725500D01*
X134916234Y-131725500D01*
X135083766Y-131725500D01*
X135083767Y-131725500D01*
X135248082Y-131692816D01*
X135402863Y-131628703D01*
X135542162Y-131535626D01*
X135660626Y-131417162D01*
X135753703Y-131277863D01*
X135817816Y-131123082D01*
X135850500Y-130958767D01*
X135850500Y-130241233D01*
X135850499Y-130241230D01*
X136149500Y-130241230D01*
X136149500Y-130958769D01*
X136182183Y-131123079D01*
X136182185Y-131123085D01*
X136246296Y-131277862D01*
X136246297Y-131277863D01*
X136339374Y-131417162D01*
X136457838Y-131535626D01*
X136597137Y-131628703D01*
X136751918Y-131692816D01*
X136916233Y-131725500D01*
X136916234Y-131725500D01*
X137083766Y-131725500D01*
X137083767Y-131725500D01*
X137248082Y-131692816D01*
X137402863Y-131628703D01*
X137542162Y-131535626D01*
X137660626Y-131417162D01*
X137753703Y-131277863D01*
X137817816Y-131123082D01*
X137850500Y-130958767D01*
X137850500Y-130241233D01*
X137850499Y-130241230D01*
X138149500Y-130241230D01*
X138149500Y-130958769D01*
X138182183Y-131123079D01*
X138182185Y-131123085D01*
X138246296Y-131277862D01*
X138246297Y-131277863D01*
X138339374Y-131417162D01*
X138457838Y-131535626D01*
X138597137Y-131628703D01*
X138751918Y-131692816D01*
X138916233Y-131725500D01*
X138916234Y-131725500D01*
X139083766Y-131725500D01*
X139083767Y-131725500D01*
X139248082Y-131692816D01*
X139402863Y-131628703D01*
X139542162Y-131535626D01*
X139660626Y-131417162D01*
X139753703Y-131277863D01*
X139817816Y-131123082D01*
X139817816Y-131123077D01*
X139817818Y-131123075D01*
X139818522Y-131120756D01*
X139819155Y-131119847D01*
X139819677Y-131118588D01*
X139819953Y-131118702D01*
X139853510Y-131070562D01*
X139911319Y-131050519D01*
X139913257Y-131050500D01*
X140011007Y-131050500D01*
X140011009Y-131050500D01*
X140125586Y-131019799D01*
X140125588Y-131019797D01*
X140125590Y-131019797D01*
X140228308Y-130960492D01*
X140228308Y-130960491D01*
X140228313Y-130960489D01*
X140312189Y-130876613D01*
X140326334Y-130852113D01*
X140371497Y-130773890D01*
X140371497Y-130773888D01*
X140371499Y-130773886D01*
X140402200Y-130659309D01*
X140402200Y-126974499D01*
X140421107Y-126916308D01*
X140470607Y-126880344D01*
X140501200Y-126875499D01*
X140997867Y-126875499D01*
X140997872Y-126875499D01*
X141057483Y-126869091D01*
X141143709Y-126836931D01*
X141192329Y-126818797D01*
X141192329Y-126818796D01*
X141192331Y-126818796D01*
X141307546Y-126732546D01*
X141393796Y-126617331D01*
X141395393Y-126613051D01*
X141444089Y-126482488D01*
X141444088Y-126482488D01*
X141444091Y-126482483D01*
X141450500Y-126422873D01*
X141450499Y-125802128D01*
X141444091Y-125742517D01*
X141439707Y-125730763D01*
X141393797Y-125607670D01*
X141307549Y-125492458D01*
X141307548Y-125492457D01*
X141307546Y-125492454D01*
X141307541Y-125492450D01*
X141192329Y-125406202D01*
X141057488Y-125355910D01*
X141057483Y-125355909D01*
X141057481Y-125355908D01*
X141057477Y-125355908D01*
X141021711Y-125352063D01*
X140997873Y-125349500D01*
X140997870Y-125349500D01*
X140002133Y-125349500D01*
X140002129Y-125349500D01*
X140002128Y-125349501D01*
X139994949Y-125350272D01*
X139942519Y-125355908D01*
X139942514Y-125355909D01*
X139807670Y-125406202D01*
X139692458Y-125492450D01*
X139692450Y-125492458D01*
X139606202Y-125607670D01*
X139555910Y-125742511D01*
X139555908Y-125742522D01*
X139549500Y-125802129D01*
X139549500Y-126422881D01*
X139549574Y-126424248D01*
X139549500Y-126424552D01*
X139549501Y-126425523D01*
X139549269Y-126425523D01*
X139536453Y-126479026D01*
X139531902Y-126486907D01*
X139531902Y-126486911D01*
X139531901Y-126486913D01*
X139531901Y-126486914D01*
X139503367Y-126593406D01*
X139501200Y-126601492D01*
X139501200Y-129463865D01*
X139482293Y-129522056D01*
X139432793Y-129558020D01*
X139371607Y-129558020D01*
X139364314Y-129555329D01*
X139248085Y-129507185D01*
X139248079Y-129507183D01*
X139083769Y-129474500D01*
X139083767Y-129474500D01*
X138916233Y-129474500D01*
X138916230Y-129474500D01*
X138751920Y-129507183D01*
X138751914Y-129507185D01*
X138597137Y-129571296D01*
X138457838Y-129664374D01*
X138457834Y-129664377D01*
X138339377Y-129782834D01*
X138339374Y-129782838D01*
X138246296Y-129922137D01*
X138182185Y-130076914D01*
X138182183Y-130076920D01*
X138149500Y-130241230D01*
X137850499Y-130241230D01*
X137817816Y-130076918D01*
X137753703Y-129922137D01*
X137660626Y-129782838D01*
X137542162Y-129664374D01*
X137416768Y-129580588D01*
X137402862Y-129571296D01*
X137248085Y-129507185D01*
X137248079Y-129507183D01*
X137083769Y-129474500D01*
X137083767Y-129474500D01*
X136916233Y-129474500D01*
X136916230Y-129474500D01*
X136751920Y-129507183D01*
X136751914Y-129507185D01*
X136597137Y-129571296D01*
X136457838Y-129664374D01*
X136457834Y-129664377D01*
X136339377Y-129782834D01*
X136339374Y-129782838D01*
X136246296Y-129922137D01*
X136182185Y-130076914D01*
X136182183Y-130076920D01*
X136149500Y-130241230D01*
X135850499Y-130241230D01*
X135817816Y-130076918D01*
X135753703Y-129922137D01*
X135660626Y-129782838D01*
X135542162Y-129664374D01*
X135416768Y-129580588D01*
X135402862Y-129571296D01*
X135248085Y-129507185D01*
X135248079Y-129507183D01*
X135083769Y-129474500D01*
X135083767Y-129474500D01*
X134916233Y-129474500D01*
X134916230Y-129474500D01*
X134751920Y-129507183D01*
X134751914Y-129507185D01*
X134597137Y-129571296D01*
X134457838Y-129664374D01*
X134457834Y-129664377D01*
X134339377Y-129782834D01*
X134339374Y-129782838D01*
X134246296Y-129922137D01*
X134182185Y-130076914D01*
X134182183Y-130076920D01*
X134149500Y-130241230D01*
X133850499Y-130241230D01*
X133850499Y-129927128D01*
X133844091Y-129867517D01*
X133836298Y-129846623D01*
X133793797Y-129732670D01*
X133707549Y-129617458D01*
X133707548Y-129617457D01*
X133707546Y-129617454D01*
X133706964Y-129617018D01*
X133592329Y-129531202D01*
X133514904Y-129502325D01*
X133466989Y-129464275D01*
X133450500Y-129409567D01*
X133450500Y-128940110D01*
X133469407Y-128881919D01*
X133479490Y-128870112D01*
X135620107Y-126729494D01*
X135674624Y-126701718D01*
X135690111Y-126700499D01*
X136181521Y-126700499D01*
X136181522Y-126700498D01*
X136228411Y-126693072D01*
X136275299Y-126685647D01*
X136275299Y-126685646D01*
X136275304Y-126685646D01*
X136388342Y-126628050D01*
X136478050Y-126538342D01*
X136535646Y-126425304D01*
X136550500Y-126331519D01*
X136550499Y-125968482D01*
X136544433Y-125930178D01*
X136535647Y-125874700D01*
X136535646Y-125874695D01*
X136511989Y-125828267D01*
X136502417Y-125767835D01*
X136530194Y-125713318D01*
X136584710Y-125685540D01*
X136645141Y-125695110D01*
X136724696Y-125735646D01*
X136818481Y-125750500D01*
X138056518Y-125750499D01*
X138056521Y-125750499D01*
X138056522Y-125750498D01*
X138106938Y-125742514D01*
X138150299Y-125735647D01*
X138150299Y-125735646D01*
X138150304Y-125735646D01*
X138263342Y-125678050D01*
X138353050Y-125588342D01*
X138410646Y-125475304D01*
X138425500Y-125381519D01*
X138425499Y-125018482D01*
X138419645Y-124981519D01*
X138410647Y-124924700D01*
X138410646Y-124924698D01*
X138410646Y-124924696D01*
X138353050Y-124811658D01*
X138263342Y-124721950D01*
X138150304Y-124664354D01*
X138150305Y-124664354D01*
X138056522Y-124649500D01*
X138056519Y-124649500D01*
X137987000Y-124649500D01*
X137928809Y-124630593D01*
X137892845Y-124581093D01*
X137888000Y-124550500D01*
X137888000Y-124462501D01*
X139500000Y-124462501D01*
X139500000Y-124593064D01*
X139510613Y-124681443D01*
X139566080Y-124822095D01*
X139657435Y-124942564D01*
X139777904Y-125033919D01*
X139918556Y-125089386D01*
X140006935Y-125099999D01*
X140006942Y-125100000D01*
X140324999Y-125100000D01*
X140325000Y-125099999D01*
X140325000Y-124462501D01*
X140675000Y-124462501D01*
X140675000Y-125099999D01*
X140675001Y-125100000D01*
X140993058Y-125100000D01*
X140993064Y-125099999D01*
X141081443Y-125089386D01*
X141222095Y-125033919D01*
X141342564Y-124942564D01*
X141433919Y-124822095D01*
X141489386Y-124681443D01*
X141499999Y-124593064D01*
X141500000Y-124593058D01*
X141500000Y-124462501D01*
X141499999Y-124462500D01*
X140675001Y-124462500D01*
X140675000Y-124462501D01*
X140325000Y-124462501D01*
X140324999Y-124462500D01*
X139500001Y-124462500D01*
X139500000Y-124462501D01*
X137888000Y-124462501D01*
X137888000Y-123981935D01*
X139500000Y-123981935D01*
X139500000Y-124112499D01*
X139500001Y-124112500D01*
X140324999Y-124112500D01*
X140325000Y-124112499D01*
X140325000Y-123475001D01*
X140675000Y-123475001D01*
X140675000Y-124112499D01*
X140675001Y-124112500D01*
X141499999Y-124112500D01*
X141500000Y-124112499D01*
X141500000Y-123981941D01*
X141499999Y-123981935D01*
X141489386Y-123893556D01*
X141433919Y-123752904D01*
X141342564Y-123632435D01*
X141222095Y-123541080D01*
X141081443Y-123485613D01*
X140993064Y-123475000D01*
X140675001Y-123475000D01*
X140675000Y-123475001D01*
X140325000Y-123475001D01*
X140324999Y-123475000D01*
X140006935Y-123475000D01*
X139918556Y-123485613D01*
X139777904Y-123541080D01*
X139657435Y-123632435D01*
X139566080Y-123752904D01*
X139510613Y-123893556D01*
X139500000Y-123981935D01*
X137888000Y-123981935D01*
X137888000Y-122353392D01*
X137869241Y-122283382D01*
X137857299Y-122238814D01*
X137857297Y-122238811D01*
X137857297Y-122238809D01*
X137797992Y-122136091D01*
X137797990Y-122136089D01*
X137797989Y-122136087D01*
X137714113Y-122052211D01*
X137714110Y-122052209D01*
X137714108Y-122052207D01*
X137611389Y-121992902D01*
X137611386Y-121992901D01*
X137599724Y-121989776D01*
X137555348Y-121964154D01*
X137125813Y-121534620D01*
X137120664Y-121530669D01*
X137122433Y-121528363D01*
X137089566Y-121491854D01*
X137083175Y-121431003D01*
X137100355Y-121392807D01*
X137177793Y-121287882D01*
X137222646Y-121159699D01*
X137225499Y-121129273D01*
X137225500Y-121129273D01*
X137225500Y-121122824D01*
X137524999Y-121122824D01*
X137531401Y-121182370D01*
X137531403Y-121182381D01*
X137581646Y-121317088D01*
X137581647Y-121317090D01*
X137667807Y-121432184D01*
X137667815Y-121432192D01*
X137782909Y-121518352D01*
X137782911Y-121518353D01*
X137917618Y-121568596D01*
X137917629Y-121568598D01*
X137977176Y-121575000D01*
X138049999Y-121575000D01*
X138050000Y-121574999D01*
X138050000Y-120975001D01*
X138400000Y-120975001D01*
X138400000Y-121574999D01*
X138400001Y-121575000D01*
X138472824Y-121575000D01*
X138532370Y-121568598D01*
X138532381Y-121568596D01*
X138667088Y-121518353D01*
X138667090Y-121518352D01*
X138782184Y-121432192D01*
X138782192Y-121432184D01*
X138868352Y-121317090D01*
X138868353Y-121317088D01*
X138918596Y-121182381D01*
X138918598Y-121182370D01*
X138925000Y-121122824D01*
X138925000Y-120975001D01*
X138924999Y-120975000D01*
X138400001Y-120975000D01*
X138400000Y-120975001D01*
X138050000Y-120975001D01*
X138049999Y-120975000D01*
X137525001Y-120975000D01*
X137525000Y-120975001D01*
X137525000Y-121122824D01*
X137524999Y-121122824D01*
X137225500Y-121122824D01*
X137225500Y-120477175D01*
X137525000Y-120477175D01*
X137525000Y-120624999D01*
X137525001Y-120625000D01*
X138049999Y-120625000D01*
X138050000Y-120624999D01*
X138050000Y-120025001D01*
X138400000Y-120025001D01*
X138400000Y-120624999D01*
X138400001Y-120625000D01*
X138924999Y-120625000D01*
X138925000Y-120624999D01*
X138925000Y-120477175D01*
X138918598Y-120417629D01*
X138918596Y-120417618D01*
X138868353Y-120282911D01*
X138868352Y-120282909D01*
X138782192Y-120167815D01*
X138782184Y-120167807D01*
X138667090Y-120081647D01*
X138667088Y-120081646D01*
X138532381Y-120031403D01*
X138532370Y-120031401D01*
X138472824Y-120025000D01*
X138400001Y-120025000D01*
X138400000Y-120025001D01*
X138050000Y-120025001D01*
X138049999Y-120025000D01*
X137977176Y-120025000D01*
X137917629Y-120031401D01*
X137917618Y-120031403D01*
X137782911Y-120081646D01*
X137782909Y-120081647D01*
X137667815Y-120167807D01*
X137667807Y-120167815D01*
X137581647Y-120282909D01*
X137581646Y-120282911D01*
X137531403Y-120417618D01*
X137531401Y-120417629D01*
X137525000Y-120477175D01*
X137225500Y-120477175D01*
X137225500Y-120470727D01*
X137225499Y-120470725D01*
X137222646Y-120440305D01*
X137222646Y-120440301D01*
X137177793Y-120312118D01*
X137174005Y-120306986D01*
X137097154Y-120202855D01*
X137097151Y-120202852D01*
X137097150Y-120202850D01*
X137097146Y-120202847D01*
X137097144Y-120202845D01*
X136987883Y-120122207D01*
X136859703Y-120077355D01*
X136859694Y-120077353D01*
X136829274Y-120074500D01*
X136829266Y-120074500D01*
X136320734Y-120074500D01*
X136320725Y-120074500D01*
X136290305Y-120077353D01*
X136290296Y-120077355D01*
X136162116Y-120122207D01*
X136052855Y-120202845D01*
X136052848Y-120202852D01*
X136016221Y-120252480D01*
X135966453Y-120288072D01*
X135905269Y-120287614D01*
X135898682Y-120285156D01*
X135893257Y-120282909D01*
X135846809Y-120263670D01*
X135846806Y-120263669D01*
X135846808Y-120263669D01*
X135703100Y-120244750D01*
X135559391Y-120263669D01*
X135559390Y-120263670D01*
X135425478Y-120319137D01*
X135425474Y-120319139D01*
X135398700Y-120339684D01*
X135314826Y-120404042D01*
X135257153Y-120424466D01*
X135254561Y-120424500D01*
X127779936Y-120424500D01*
X127681064Y-120424500D01*
X127622112Y-120440296D01*
X127585562Y-120450089D01*
X127499937Y-120499525D01*
X125032038Y-122967425D01*
X125032037Y-122967424D01*
X124962124Y-123037338D01*
X124912689Y-123122961D01*
X124912689Y-123122962D01*
X124912690Y-123122963D01*
X124890265Y-123206655D01*
X124890264Y-123206658D01*
X124887100Y-123218464D01*
X124887100Y-123822870D01*
X124868193Y-123881061D01*
X124818693Y-123917025D01*
X124757507Y-123917025D01*
X124708007Y-123881061D01*
X124702364Y-123872371D01*
X124685544Y-123843240D01*
X124655175Y-123790638D01*
X124626430Y-123761893D01*
X124585262Y-123720724D01*
X124585262Y-123720725D01*
X123701663Y-122837126D01*
X123701663Y-122837125D01*
X123616041Y-122787691D01*
X123616034Y-122787688D01*
X123568285Y-122774894D01*
X123568284Y-122774894D01*
X123520538Y-122762100D01*
X123520536Y-122762100D01*
X123520535Y-122762100D01*
X121549336Y-122762100D01*
X121450464Y-122762100D01*
X121402713Y-122774895D01*
X121402712Y-122774894D01*
X121354962Y-122787689D01*
X121354958Y-122787691D01*
X121269336Y-122837125D01*
X121269337Y-122837126D01*
X120610959Y-123495504D01*
X120556442Y-123523281D01*
X120540955Y-123524500D01*
X119889364Y-123524500D01*
X119845570Y-123530880D01*
X119816373Y-123535134D01*
X119703790Y-123590173D01*
X119615173Y-123678790D01*
X119560134Y-123791373D01*
X119560134Y-123791375D01*
X119549895Y-123861659D01*
X119549500Y-123864367D01*
X119549500Y-124054455D01*
X119530593Y-124112646D01*
X119481093Y-124148610D01*
X119419907Y-124148610D01*
X119380496Y-124124459D01*
X119377076Y-124121039D01*
X119377075Y-124121037D01*
X115254494Y-119998457D01*
X115226718Y-119943941D01*
X115225499Y-119928454D01*
X115225499Y-119504521D01*
X115225499Y-119504516D01*
X115219412Y-119447886D01*
X115171628Y-119319774D01*
X115089687Y-119210313D01*
X114980226Y-119128372D01*
X114955097Y-119118999D01*
X114907184Y-119080948D01*
X114890787Y-119022000D01*
X114912170Y-118964673D01*
X114953378Y-118934144D01*
X115009728Y-118911922D01*
X115124717Y-118824723D01*
X115124723Y-118824717D01*
X115211922Y-118709729D01*
X115264867Y-118575468D01*
X115271945Y-118516532D01*
X117129500Y-118516532D01*
X117129500Y-118723467D01*
X117169869Y-118926418D01*
X117249058Y-119117597D01*
X117354230Y-119274999D01*
X117364023Y-119289655D01*
X117510345Y-119435977D01*
X117682402Y-119550941D01*
X117873580Y-119630130D01*
X118076535Y-119670500D01*
X118076536Y-119670500D01*
X118683464Y-119670500D01*
X118683465Y-119670500D01*
X118886420Y-119630130D01*
X119077598Y-119550941D01*
X119249655Y-119435977D01*
X119395977Y-119289655D01*
X119510941Y-119117598D01*
X119590130Y-118926420D01*
X119630500Y-118723465D01*
X119630500Y-118516535D01*
X119630499Y-118516532D01*
X132369500Y-118516532D01*
X132369500Y-118723467D01*
X132409869Y-118926418D01*
X132489058Y-119117597D01*
X132594230Y-119274999D01*
X132604023Y-119289655D01*
X132750345Y-119435977D01*
X132922402Y-119550941D01*
X133113580Y-119630130D01*
X133316535Y-119670500D01*
X133316536Y-119670500D01*
X133923464Y-119670500D01*
X133923465Y-119670500D01*
X134126420Y-119630130D01*
X134317598Y-119550941D01*
X134489655Y-119435977D01*
X134635977Y-119289655D01*
X134750941Y-119117598D01*
X134830130Y-118926420D01*
X134870500Y-118723465D01*
X134870500Y-118516535D01*
X134830130Y-118313580D01*
X134750941Y-118122402D01*
X134635977Y-117950345D01*
X134489655Y-117804023D01*
X134466552Y-117788586D01*
X134317597Y-117689058D01*
X134126418Y-117609869D01*
X133923467Y-117569500D01*
X133923465Y-117569500D01*
X133316535Y-117569500D01*
X133316532Y-117569500D01*
X133113581Y-117609869D01*
X132922402Y-117689058D01*
X132750348Y-117804020D01*
X132604020Y-117950348D01*
X132489058Y-118122402D01*
X132409869Y-118313581D01*
X132369500Y-118516532D01*
X119630499Y-118516532D01*
X119590130Y-118313580D01*
X119510941Y-118122402D01*
X119395977Y-117950345D01*
X119249655Y-117804023D01*
X119226552Y-117788586D01*
X119077597Y-117689058D01*
X118886418Y-117609869D01*
X118683467Y-117569500D01*
X118683465Y-117569500D01*
X118076535Y-117569500D01*
X118076532Y-117569500D01*
X117873581Y-117609869D01*
X117682402Y-117689058D01*
X117510348Y-117804020D01*
X117364020Y-117950348D01*
X117249058Y-118122402D01*
X117169869Y-118313581D01*
X117129500Y-118516532D01*
X115271945Y-118516532D01*
X115274999Y-118491104D01*
X115275000Y-118491100D01*
X115275000Y-118400001D01*
X115274999Y-118400000D01*
X113697045Y-118400000D01*
X113638854Y-118381093D01*
X113627041Y-118371004D01*
X113214932Y-117958895D01*
X113725000Y-117958895D01*
X113725000Y-118049999D01*
X113725001Y-118050000D01*
X114324999Y-118050000D01*
X114325000Y-118049999D01*
X114325000Y-117475001D01*
X114675000Y-117475001D01*
X114675000Y-118049999D01*
X114675001Y-118050000D01*
X115274999Y-118050000D01*
X115275000Y-118049999D01*
X115275000Y-117958899D01*
X115274999Y-117958895D01*
X115264867Y-117874531D01*
X115211922Y-117740270D01*
X115124723Y-117625282D01*
X115124717Y-117625276D01*
X115009729Y-117538077D01*
X114875468Y-117485132D01*
X114791104Y-117475000D01*
X114675001Y-117475000D01*
X114675000Y-117475001D01*
X114325000Y-117475001D01*
X114324999Y-117475000D01*
X114208895Y-117475000D01*
X114124531Y-117485132D01*
X113990270Y-117538077D01*
X113875282Y-117625276D01*
X113875276Y-117625282D01*
X113788077Y-117740270D01*
X113735132Y-117874531D01*
X113725000Y-117958895D01*
X113214932Y-117958895D01*
X112725958Y-117469921D01*
X112698181Y-117415404D01*
X112702517Y-117367222D01*
X112722646Y-117309699D01*
X112725499Y-117279273D01*
X112725500Y-117279273D01*
X112725500Y-116770727D01*
X112725499Y-116770725D01*
X112722646Y-116740305D01*
X112722646Y-116740301D01*
X112705708Y-116691897D01*
X112704335Y-116630728D01*
X112739179Y-116580434D01*
X112796931Y-116560225D01*
X112799153Y-116560200D01*
X113244736Y-116560200D01*
X113292486Y-116547405D01*
X113292487Y-116547405D01*
X113340234Y-116534611D01*
X113340233Y-116534611D01*
X113340238Y-116534610D01*
X113425862Y-116485175D01*
X113495775Y-116415262D01*
X115150853Y-114760182D01*
X115205366Y-114732408D01*
X115265798Y-114741979D01*
X115309063Y-114785244D01*
X115319006Y-114817266D01*
X115336970Y-114953708D01*
X115336970Y-114953709D01*
X115389778Y-115081202D01*
X115392439Y-115087625D01*
X115480679Y-115202621D01*
X115595675Y-115290861D01*
X115729591Y-115346330D01*
X115873300Y-115365250D01*
X116017009Y-115346330D01*
X116150925Y-115290861D01*
X116261573Y-115205957D01*
X116319247Y-115185534D01*
X116321839Y-115185500D01*
X117349861Y-115185500D01*
X117408052Y-115204407D01*
X117444016Y-115253907D01*
X117444016Y-115315093D01*
X117419866Y-115354501D01*
X117380812Y-115393556D01*
X117364020Y-115410348D01*
X117249058Y-115582402D01*
X117169869Y-115773581D01*
X117129500Y-115976532D01*
X117129500Y-116183467D01*
X117169869Y-116386418D01*
X117249058Y-116577597D01*
X117362312Y-116747095D01*
X117364023Y-116749655D01*
X117510345Y-116895977D01*
X117682402Y-117010941D01*
X117873580Y-117090130D01*
X118076535Y-117130500D01*
X118076536Y-117130500D01*
X118683464Y-117130500D01*
X118683465Y-117130500D01*
X118886420Y-117090130D01*
X119077598Y-117010941D01*
X119249655Y-116895977D01*
X119395977Y-116749655D01*
X119510941Y-116577598D01*
X119590130Y-116386420D01*
X119630500Y-116183465D01*
X119630500Y-115976535D01*
X119590130Y-115773580D01*
X119510941Y-115582402D01*
X119395977Y-115410345D01*
X119340133Y-115354501D01*
X119312358Y-115299987D01*
X119321929Y-115239555D01*
X119365194Y-115196290D01*
X119410139Y-115185500D01*
X132589861Y-115185500D01*
X132648052Y-115204407D01*
X132684016Y-115253907D01*
X132684016Y-115315093D01*
X132659866Y-115354501D01*
X132620812Y-115393556D01*
X132604020Y-115410348D01*
X132489058Y-115582402D01*
X132409869Y-115773581D01*
X132369500Y-115976532D01*
X132369500Y-116183467D01*
X132409869Y-116386418D01*
X132489058Y-116577597D01*
X132602312Y-116747095D01*
X132604023Y-116749655D01*
X132750345Y-116895977D01*
X132922402Y-117010941D01*
X133113580Y-117090130D01*
X133316535Y-117130500D01*
X133316536Y-117130500D01*
X133923464Y-117130500D01*
X133923465Y-117130500D01*
X134126420Y-117090130D01*
X134317598Y-117010941D01*
X134489655Y-116895977D01*
X134635977Y-116749655D01*
X134750941Y-116577598D01*
X134830130Y-116386420D01*
X134870500Y-116183465D01*
X134870500Y-115976535D01*
X134830130Y-115773580D01*
X134750941Y-115582402D01*
X134635977Y-115410345D01*
X134580133Y-115354501D01*
X134552358Y-115299987D01*
X134561929Y-115239555D01*
X134605194Y-115196290D01*
X134650139Y-115185500D01*
X135649859Y-115185500D01*
X135708050Y-115204407D01*
X135744014Y-115253907D01*
X135744014Y-115315093D01*
X135742617Y-115319096D01*
X135705910Y-115417511D01*
X135705908Y-115417522D01*
X135699500Y-115477129D01*
X135699500Y-116522866D01*
X135699501Y-116522870D01*
X135705908Y-116582480D01*
X135705909Y-116582485D01*
X135756202Y-116717329D01*
X135819145Y-116801409D01*
X135842454Y-116832546D01*
X135842457Y-116832548D01*
X135842458Y-116832549D01*
X135957667Y-116918795D01*
X135957668Y-116918795D01*
X135957669Y-116918796D01*
X136010098Y-116938350D01*
X136058011Y-116976400D01*
X136074500Y-117031108D01*
X136074500Y-117840938D01*
X136055593Y-117899129D01*
X136055155Y-117899726D01*
X135972207Y-118012116D01*
X135927355Y-118140296D01*
X135927353Y-118140305D01*
X135924500Y-118170725D01*
X135924500Y-118829274D01*
X135927353Y-118859694D01*
X135927355Y-118859703D01*
X135972207Y-118987883D01*
X136052845Y-119097144D01*
X136052847Y-119097146D01*
X136052850Y-119097150D01*
X136052853Y-119097152D01*
X136052855Y-119097154D01*
X136162116Y-119177792D01*
X136162117Y-119177792D01*
X136162118Y-119177793D01*
X136290301Y-119222646D01*
X136320725Y-119225499D01*
X136320727Y-119225500D01*
X136320734Y-119225500D01*
X136829273Y-119225500D01*
X136829273Y-119225499D01*
X136859699Y-119222646D01*
X136987882Y-119177793D01*
X137097150Y-119097150D01*
X137177793Y-118987882D01*
X137222646Y-118859699D01*
X137225499Y-118829273D01*
X137225500Y-118829273D01*
X137225500Y-118170727D01*
X137225499Y-118170725D01*
X137574500Y-118170725D01*
X137574500Y-118829274D01*
X137577353Y-118859694D01*
X137577355Y-118859703D01*
X137622207Y-118987883D01*
X137702845Y-119097144D01*
X137702847Y-119097146D01*
X137702850Y-119097150D01*
X137702853Y-119097152D01*
X137702855Y-119097154D01*
X137812116Y-119177792D01*
X137812117Y-119177792D01*
X137812118Y-119177793D01*
X137940301Y-119222646D01*
X137970725Y-119225499D01*
X137970727Y-119225500D01*
X137970734Y-119225500D01*
X138479273Y-119225500D01*
X138479273Y-119225499D01*
X138509699Y-119222646D01*
X138637882Y-119177793D01*
X138747150Y-119097150D01*
X138827086Y-118988839D01*
X138876851Y-118953249D01*
X138938034Y-118953707D01*
X138944605Y-118956158D01*
X138957091Y-118961330D01*
X139052897Y-118973943D01*
X139100799Y-118980250D01*
X139100799Y-118980249D01*
X139100800Y-118980250D01*
X139244509Y-118961330D01*
X139378425Y-118905861D01*
X139493421Y-118817621D01*
X139581661Y-118702625D01*
X139637130Y-118568709D01*
X139656050Y-118425000D01*
X139650269Y-118381093D01*
X139637130Y-118281291D01*
X139581661Y-118147375D01*
X139493421Y-118032379D01*
X139378425Y-117944139D01*
X139378421Y-117944137D01*
X139244509Y-117888670D01*
X139244508Y-117888669D01*
X139100800Y-117869750D01*
X138957093Y-117888669D01*
X138859725Y-117928999D01*
X138798728Y-117933798D01*
X138751834Y-117907534D01*
X138747147Y-117902847D01*
X138637883Y-117822207D01*
X138509703Y-117777355D01*
X138509694Y-117777353D01*
X138479274Y-117774500D01*
X138479266Y-117774500D01*
X137970734Y-117774500D01*
X137970725Y-117774500D01*
X137940305Y-117777353D01*
X137940296Y-117777355D01*
X137812116Y-117822207D01*
X137702855Y-117902845D01*
X137702845Y-117902855D01*
X137622207Y-118012116D01*
X137577355Y-118140296D01*
X137577353Y-118140305D01*
X137574500Y-118170725D01*
X137225499Y-118170725D01*
X137222646Y-118140301D01*
X137177793Y-118012118D01*
X137144092Y-117966455D01*
X137097154Y-117902855D01*
X137097152Y-117902853D01*
X137097150Y-117902850D01*
X137097146Y-117902847D01*
X137097144Y-117902845D01*
X136987883Y-117822207D01*
X136891802Y-117788586D01*
X136843121Y-117751520D01*
X136825500Y-117695142D01*
X136825500Y-117031108D01*
X136844407Y-116972917D01*
X136889901Y-116938350D01*
X136942331Y-116918796D01*
X137057546Y-116832546D01*
X137143796Y-116717331D01*
X137194091Y-116582483D01*
X137200500Y-116522873D01*
X137200500Y-116175001D01*
X137550000Y-116175001D01*
X137550000Y-116518064D01*
X137560613Y-116606443D01*
X137616080Y-116747095D01*
X137707435Y-116867564D01*
X137827904Y-116958919D01*
X137968556Y-117014386D01*
X138056935Y-117024999D01*
X138056942Y-117025000D01*
X138174999Y-117025000D01*
X138175000Y-117024999D01*
X138175000Y-116175001D01*
X138525000Y-116175001D01*
X138525000Y-117024999D01*
X138525001Y-117025000D01*
X138643058Y-117025000D01*
X138643064Y-117024999D01*
X138731443Y-117014386D01*
X138872095Y-116958919D01*
X138992564Y-116867564D01*
X139083919Y-116747095D01*
X139139386Y-116606443D01*
X139149999Y-116518064D01*
X139150000Y-116518058D01*
X139150000Y-116175001D01*
X139149999Y-116175000D01*
X138525001Y-116175000D01*
X138525000Y-116175001D01*
X138175000Y-116175001D01*
X138174999Y-116175000D01*
X137550001Y-116175000D01*
X137550000Y-116175001D01*
X137200500Y-116175001D01*
X137200499Y-115481935D01*
X137550000Y-115481935D01*
X137550000Y-115824999D01*
X137550001Y-115825000D01*
X138174999Y-115825000D01*
X138175000Y-115824999D01*
X138175000Y-114975001D01*
X138525000Y-114975001D01*
X138525000Y-115824999D01*
X138525001Y-115825000D01*
X139149999Y-115825000D01*
X139150000Y-115824999D01*
X139150000Y-115481941D01*
X139149999Y-115481935D01*
X139139386Y-115393556D01*
X139083919Y-115252904D01*
X138992564Y-115132435D01*
X138872095Y-115041080D01*
X138731443Y-114985613D01*
X138643064Y-114975000D01*
X138525001Y-114975000D01*
X138525000Y-114975001D01*
X138175000Y-114975001D01*
X138174999Y-114975000D01*
X138056935Y-114975000D01*
X137968556Y-114985613D01*
X137827904Y-115041080D01*
X137707435Y-115132435D01*
X137616080Y-115252904D01*
X137560613Y-115393556D01*
X137550000Y-115481935D01*
X137200499Y-115481935D01*
X137200499Y-115477128D01*
X137194091Y-115417517D01*
X137191416Y-115410345D01*
X137143797Y-115282670D01*
X137057549Y-115167458D01*
X137057548Y-115167457D01*
X137057546Y-115167454D01*
X137010767Y-115132435D01*
X136942329Y-115081202D01*
X136807488Y-115030910D01*
X136807483Y-115030909D01*
X136807481Y-115030908D01*
X136807477Y-115030908D01*
X136776249Y-115027550D01*
X136747873Y-115024500D01*
X136747870Y-115024500D01*
X136685546Y-115024500D01*
X136627355Y-115005593D01*
X136615542Y-114995504D01*
X136303496Y-114683458D01*
X136275719Y-114628941D01*
X136274500Y-114613454D01*
X136274500Y-113724500D01*
X136293407Y-113666309D01*
X136342907Y-113630345D01*
X136373500Y-113625500D01*
X136622388Y-113625500D01*
X136680579Y-113644407D01*
X136692392Y-113654496D01*
X136752418Y-113714522D01*
X136780195Y-113769039D01*
X136780567Y-113771603D01*
X136792056Y-113858862D01*
X136852562Y-114004938D01*
X136852562Y-114004939D01*
X136948813Y-114130376D01*
X136948818Y-114130382D01*
X137074259Y-114226636D01*
X137074260Y-114226636D01*
X137074261Y-114226637D01*
X137187809Y-114273670D01*
X137220338Y-114287144D01*
X137377100Y-114307782D01*
X137436132Y-114300010D01*
X137461977Y-114300011D01*
X137465690Y-114300500D01*
X137465691Y-114300500D01*
X139532961Y-114300500D01*
X139591152Y-114319407D01*
X139615276Y-114344498D01*
X139629705Y-114366093D01*
X139639294Y-114380445D01*
X139639399Y-114380601D01*
X139722260Y-114435966D01*
X139777808Y-114447015D01*
X139795315Y-114450498D01*
X139795320Y-114450498D01*
X139795326Y-114450500D01*
X139795327Y-114450500D01*
X140533629Y-114450500D01*
X140591820Y-114469407D01*
X140627784Y-114518907D01*
X140627784Y-114580093D01*
X140615945Y-114604501D01*
X140584035Y-114652257D01*
X140584033Y-114652263D01*
X140569501Y-114725315D01*
X140569500Y-114725327D01*
X140569500Y-115774672D01*
X140569501Y-115774684D01*
X140584033Y-115847736D01*
X140584035Y-115847742D01*
X140639397Y-115930599D01*
X140639400Y-115930602D01*
X140708141Y-115976532D01*
X140722260Y-115985966D01*
X140777808Y-115997015D01*
X140795315Y-116000498D01*
X140795320Y-116000498D01*
X140795326Y-116000500D01*
X140795327Y-116000500D01*
X141644673Y-116000500D01*
X141644674Y-116000500D01*
X141717740Y-115985966D01*
X141800601Y-115930601D01*
X141855966Y-115847740D01*
X141870500Y-115774674D01*
X141870500Y-114725327D01*
X142779500Y-114725327D01*
X142779500Y-115774672D01*
X142779501Y-115774684D01*
X142794033Y-115847736D01*
X142794035Y-115847742D01*
X142849397Y-115930599D01*
X142849400Y-115930602D01*
X142918141Y-115976532D01*
X142932260Y-115985966D01*
X142987808Y-115997015D01*
X143005315Y-116000498D01*
X143005320Y-116000498D01*
X143005326Y-116000500D01*
X143005327Y-116000500D01*
X143854673Y-116000500D01*
X143854674Y-116000500D01*
X143927740Y-115985966D01*
X144010601Y-115930601D01*
X144065966Y-115847740D01*
X144080500Y-115774674D01*
X144080500Y-114725326D01*
X144065966Y-114652260D01*
X144034055Y-114604501D01*
X144010602Y-114569400D01*
X144010599Y-114569397D01*
X143927742Y-114514035D01*
X143927740Y-114514034D01*
X143927737Y-114514033D01*
X143927736Y-114514033D01*
X143854684Y-114499501D01*
X143854674Y-114499500D01*
X143005326Y-114499500D01*
X143005325Y-114499500D01*
X143005315Y-114499501D01*
X142932263Y-114514033D01*
X142932257Y-114514035D01*
X142849400Y-114569397D01*
X142849397Y-114569400D01*
X142794035Y-114652257D01*
X142794033Y-114652263D01*
X142779501Y-114725315D01*
X142779500Y-114725327D01*
X141870500Y-114725327D01*
X141870500Y-114725326D01*
X141855966Y-114652260D01*
X141824055Y-114604501D01*
X141800602Y-114569400D01*
X141800599Y-114569397D01*
X141717742Y-114514035D01*
X141717740Y-114514034D01*
X141717737Y-114514033D01*
X141717736Y-114514033D01*
X141644684Y-114499501D01*
X141644674Y-114499500D01*
X141606371Y-114499500D01*
X141548180Y-114480593D01*
X141512216Y-114431093D01*
X141512216Y-114369907D01*
X141524055Y-114345499D01*
X141555966Y-114297740D01*
X141570500Y-114224674D01*
X141570500Y-113550553D01*
X141589407Y-113492362D01*
X141638907Y-113456398D01*
X141700093Y-113456398D01*
X141749593Y-113492362D01*
X141751810Y-113495544D01*
X141785886Y-113546542D01*
X141785889Y-113546545D01*
X141883458Y-113644114D01*
X141998182Y-113720771D01*
X141998193Y-113720777D01*
X142009596Y-113725500D01*
X142125672Y-113773580D01*
X142261007Y-113800500D01*
X142261008Y-113800500D01*
X142398992Y-113800500D01*
X142398993Y-113800500D01*
X142534328Y-113773580D01*
X142661811Y-113720775D01*
X142776542Y-113644114D01*
X142874114Y-113546542D01*
X142950775Y-113431811D01*
X143003580Y-113304328D01*
X143030500Y-113168993D01*
X143030500Y-113031007D01*
X143003580Y-112895672D01*
X142966007Y-112804962D01*
X142950777Y-112768193D01*
X142950771Y-112768182D01*
X142874114Y-112653458D01*
X142776541Y-112555885D01*
X142661817Y-112479228D01*
X142661806Y-112479222D01*
X142534328Y-112426420D01*
X142398995Y-112399500D01*
X142398993Y-112399500D01*
X142261007Y-112399500D01*
X142261004Y-112399500D01*
X142125672Y-112426420D01*
X142125670Y-112426420D01*
X141998193Y-112479222D01*
X141998182Y-112479228D01*
X141883458Y-112555885D01*
X141785885Y-112653458D01*
X141709228Y-112768182D01*
X141709222Y-112768193D01*
X141656420Y-112895670D01*
X141656420Y-112895672D01*
X141629500Y-113031004D01*
X141629500Y-113168995D01*
X141637133Y-113207367D01*
X141629941Y-113268128D01*
X141588409Y-113313058D01*
X141528399Y-113324995D01*
X141485035Y-113308997D01*
X141417745Y-113264036D01*
X141417740Y-113264034D01*
X141417737Y-113264033D01*
X141417736Y-113264033D01*
X141344684Y-113249501D01*
X141344674Y-113249500D01*
X139795326Y-113249500D01*
X139795325Y-113249500D01*
X139795315Y-113249501D01*
X139722263Y-113264033D01*
X139722257Y-113264035D01*
X139639400Y-113319397D01*
X139639398Y-113319399D01*
X139624003Y-113342440D01*
X139615276Y-113355500D01*
X139567228Y-113393380D01*
X139532961Y-113399500D01*
X138963255Y-113399500D01*
X138905064Y-113380593D01*
X138869100Y-113331093D01*
X138869100Y-113269907D01*
X138869811Y-113267802D01*
X138871129Y-113264033D01*
X138872646Y-113259699D01*
X138875499Y-113229273D01*
X138875500Y-113229273D01*
X138875500Y-112570727D01*
X138875499Y-112570725D01*
X138872646Y-112540301D01*
X138827793Y-112412118D01*
X138822977Y-112405593D01*
X138747154Y-112302855D01*
X138747152Y-112302853D01*
X138747150Y-112302850D01*
X138747146Y-112302847D01*
X138747144Y-112302845D01*
X138637883Y-112222207D01*
X138509703Y-112177355D01*
X138509694Y-112177353D01*
X138479274Y-112174500D01*
X138479266Y-112174500D01*
X138071545Y-112174500D01*
X138013354Y-112155593D01*
X138001541Y-112145504D01*
X137356218Y-111500181D01*
X137328441Y-111445664D01*
X137338012Y-111385232D01*
X137356215Y-111360176D01*
X137378050Y-111338342D01*
X137435646Y-111225304D01*
X137450500Y-111131519D01*
X137450499Y-110768482D01*
X137435646Y-110674696D01*
X137435084Y-110671146D01*
X137444656Y-110610714D01*
X137487921Y-110567450D01*
X137548353Y-110557879D01*
X137565563Y-110562216D01*
X137665397Y-110597149D01*
X137665395Y-110597149D01*
X137695789Y-110599999D01*
X138162498Y-110599999D01*
X138162500Y-110599998D01*
X138162500Y-110175001D01*
X138162499Y-110175000D01*
X137300002Y-110175000D01*
X137300001Y-110175001D01*
X137300001Y-110204203D01*
X137302850Y-110234600D01*
X137302850Y-110234601D01*
X137325556Y-110299491D01*
X137326928Y-110360661D01*
X137292084Y-110410955D01*
X137234332Y-110431163D01*
X137187166Y-110420398D01*
X137186752Y-110420187D01*
X137175304Y-110414354D01*
X137151857Y-110410640D01*
X137081522Y-110399500D01*
X137081519Y-110399500D01*
X136855800Y-110399500D01*
X136797609Y-110380593D01*
X136761645Y-110331093D01*
X136756800Y-110300500D01*
X136756800Y-109699499D01*
X136775707Y-109641308D01*
X136825207Y-109605344D01*
X136855800Y-109600499D01*
X137081521Y-109600499D01*
X137081522Y-109600498D01*
X137128411Y-109593072D01*
X137175299Y-109585647D01*
X137175301Y-109585646D01*
X137175304Y-109585646D01*
X137187164Y-109579602D01*
X137247594Y-109570029D01*
X137302112Y-109597805D01*
X137329892Y-109652320D01*
X137325556Y-109700508D01*
X137302850Y-109765398D01*
X137300000Y-109795788D01*
X137300000Y-109824999D01*
X137300001Y-109825000D01*
X138162499Y-109825000D01*
X138162500Y-109824999D01*
X138162500Y-109400001D01*
X138162499Y-109400000D01*
X137695796Y-109400000D01*
X137665399Y-109402850D01*
X137665397Y-109402850D01*
X137565561Y-109437784D01*
X137504391Y-109439156D01*
X137454097Y-109404312D01*
X137433889Y-109346559D01*
X137435083Y-109328851D01*
X137435644Y-109325307D01*
X137435646Y-109325304D01*
X137450500Y-109231519D01*
X137450499Y-108868482D01*
X137443660Y-108825299D01*
X137435647Y-108774700D01*
X137435646Y-108774698D01*
X137435646Y-108774696D01*
X137378050Y-108661658D01*
X137288342Y-108571950D01*
X137175304Y-108514354D01*
X137175305Y-108514354D01*
X137081521Y-108499500D01*
X135843478Y-108499500D01*
X135843476Y-108499501D01*
X135749700Y-108514352D01*
X135749695Y-108514354D01*
X135636659Y-108571949D01*
X135546949Y-108661659D01*
X135489354Y-108774695D01*
X135474500Y-108868477D01*
X135474500Y-109231520D01*
X135474501Y-109231523D01*
X135489352Y-109325299D01*
X135489354Y-109325304D01*
X135546950Y-109438342D01*
X135636658Y-109528050D01*
X135749696Y-109585646D01*
X135843481Y-109600500D01*
X135906800Y-109600499D01*
X135964990Y-109619405D01*
X136000954Y-109668905D01*
X136005800Y-109699499D01*
X136005800Y-110300500D01*
X135986893Y-110358691D01*
X135937393Y-110394655D01*
X135906801Y-110399500D01*
X135843479Y-110399500D01*
X135843476Y-110399501D01*
X135749700Y-110414352D01*
X135749695Y-110414354D01*
X135636659Y-110471949D01*
X135546949Y-110561659D01*
X135489354Y-110674695D01*
X135474500Y-110768477D01*
X135474500Y-111131520D01*
X135474501Y-111131523D01*
X135489352Y-111225299D01*
X135489354Y-111225304D01*
X135546950Y-111338342D01*
X135636658Y-111428050D01*
X135749696Y-111485646D01*
X135843481Y-111500500D01*
X136006454Y-111500499D01*
X136064644Y-111519406D01*
X136100608Y-111568906D01*
X136100609Y-111630091D01*
X136076458Y-111669502D01*
X135276038Y-112469924D01*
X135206124Y-112539838D01*
X135156691Y-112625457D01*
X135146868Y-112662118D01*
X135131100Y-112720965D01*
X135131100Y-112907635D01*
X135144490Y-112957607D01*
X135156691Y-113003142D01*
X135204832Y-113086523D01*
X135206125Y-113088762D01*
X135276038Y-113158675D01*
X135276040Y-113158676D01*
X135367283Y-113211356D01*
X135366602Y-113212533D01*
X135389370Y-113227742D01*
X135494505Y-113332878D01*
X135522281Y-113387392D01*
X135523500Y-113402879D01*
X135523500Y-114335500D01*
X135504593Y-114393691D01*
X135455093Y-114429655D01*
X135424500Y-114434500D01*
X134650139Y-114434500D01*
X134591948Y-114415593D01*
X134555984Y-114366093D01*
X134555984Y-114304907D01*
X134580133Y-114265498D01*
X134635977Y-114209655D01*
X134750941Y-114037598D01*
X134830130Y-113846420D01*
X134870500Y-113643465D01*
X134870500Y-113436535D01*
X134830130Y-113233580D01*
X134750941Y-113042402D01*
X134635977Y-112870345D01*
X134489655Y-112724023D01*
X134489651Y-112724020D01*
X134317597Y-112609058D01*
X134126418Y-112529869D01*
X133923467Y-112489500D01*
X133923465Y-112489500D01*
X133316535Y-112489500D01*
X133316532Y-112489500D01*
X133113581Y-112529869D01*
X132922402Y-112609058D01*
X132750348Y-112724020D01*
X132604020Y-112870348D01*
X132489058Y-113042402D01*
X132409869Y-113233581D01*
X132369500Y-113436532D01*
X132369500Y-113643467D01*
X132409869Y-113846418D01*
X132489058Y-114037597D01*
X132598928Y-114202030D01*
X132604023Y-114209655D01*
X132659866Y-114265498D01*
X132687642Y-114320013D01*
X132678071Y-114380445D01*
X132634806Y-114423710D01*
X132589861Y-114434500D01*
X119410139Y-114434500D01*
X119351948Y-114415593D01*
X119315984Y-114366093D01*
X119315984Y-114304907D01*
X119340133Y-114265498D01*
X119395977Y-114209655D01*
X119510941Y-114037598D01*
X119590130Y-113846420D01*
X119630500Y-113643465D01*
X119630500Y-113436535D01*
X119590130Y-113233580D01*
X119510941Y-113042402D01*
X119395977Y-112870345D01*
X119249655Y-112724023D01*
X119249651Y-112724020D01*
X119077597Y-112609058D01*
X118886418Y-112529869D01*
X118710625Y-112494902D01*
X118657241Y-112465005D01*
X118631625Y-112409440D01*
X118643562Y-112349430D01*
X118659933Y-112327803D01*
X118680475Y-112307262D01*
X118719605Y-112239487D01*
X118729908Y-112221642D01*
X118729908Y-112221640D01*
X118729910Y-112221638D01*
X118755500Y-112126135D01*
X118755500Y-112117418D01*
X118774407Y-112059227D01*
X118823907Y-112023263D01*
X118835180Y-112020321D01*
X118886420Y-112010130D01*
X119077598Y-111930941D01*
X119249655Y-111815977D01*
X119395977Y-111669655D01*
X119510941Y-111497598D01*
X119590130Y-111306420D01*
X119630500Y-111103465D01*
X119630500Y-110896535D01*
X119630499Y-110896532D01*
X132369500Y-110896532D01*
X132369500Y-111103467D01*
X132409869Y-111306418D01*
X132489058Y-111497597D01*
X132604020Y-111669651D01*
X132604023Y-111669655D01*
X132750345Y-111815977D01*
X132922402Y-111930941D01*
X133113580Y-112010130D01*
X133316535Y-112050500D01*
X133316536Y-112050500D01*
X133923464Y-112050500D01*
X133923465Y-112050500D01*
X134126420Y-112010130D01*
X134317598Y-111930941D01*
X134489655Y-111815977D01*
X134635977Y-111669655D01*
X134750941Y-111497598D01*
X134830130Y-111306420D01*
X134870500Y-111103465D01*
X134870500Y-110896535D01*
X134830130Y-110693580D01*
X134750941Y-110502402D01*
X134635977Y-110330345D01*
X134489655Y-110184023D01*
X134486361Y-110181822D01*
X134317597Y-110069058D01*
X134126418Y-109989869D01*
X133923467Y-109949500D01*
X133923465Y-109949500D01*
X133316535Y-109949500D01*
X133316532Y-109949500D01*
X133113581Y-109989869D01*
X132922402Y-110069058D01*
X132750348Y-110184020D01*
X132604020Y-110330348D01*
X132489058Y-110502402D01*
X132409869Y-110693581D01*
X132369500Y-110896532D01*
X119630499Y-110896532D01*
X119590130Y-110693580D01*
X119510941Y-110502402D01*
X119395977Y-110330345D01*
X119249655Y-110184023D01*
X119246361Y-110181822D01*
X119077597Y-110069058D01*
X118886418Y-109989869D01*
X118683467Y-109949500D01*
X118683465Y-109949500D01*
X118076535Y-109949500D01*
X118076532Y-109949500D01*
X117873581Y-109989869D01*
X117682402Y-110069058D01*
X117510348Y-110184020D01*
X117364020Y-110330348D01*
X117249058Y-110502402D01*
X117169869Y-110693581D01*
X117129500Y-110896532D01*
X117129500Y-111103467D01*
X117169869Y-111306418D01*
X117249058Y-111497597D01*
X117288418Y-111556503D01*
X117305026Y-111615391D01*
X117283848Y-111672794D01*
X117232974Y-111706787D01*
X117231735Y-111707128D01*
X117222155Y-111709696D01*
X117222146Y-111709698D01*
X117158362Y-111726789D01*
X117158358Y-111726791D01*
X117072736Y-111776225D01*
X117072737Y-111776226D01*
X115869503Y-112979458D01*
X115814986Y-113007235D01*
X115754554Y-112997664D01*
X115711289Y-112954399D01*
X115700499Y-112909456D01*
X115700499Y-112723482D01*
X115690781Y-112662118D01*
X115685647Y-112629700D01*
X115685646Y-112629698D01*
X115685646Y-112629696D01*
X115628050Y-112516658D01*
X115538342Y-112426950D01*
X115425304Y-112369354D01*
X115425306Y-112369354D01*
X115415372Y-112367781D01*
X115360856Y-112340002D01*
X115333080Y-112285485D01*
X115342652Y-112225053D01*
X115385917Y-112181790D01*
X115415376Y-112172218D01*
X115425304Y-112170646D01*
X115538342Y-112113050D01*
X115628050Y-112023342D01*
X115685646Y-111910304D01*
X115700500Y-111816519D01*
X115700499Y-111453482D01*
X115700498Y-111453478D01*
X115700498Y-111453476D01*
X115685647Y-111359700D01*
X115685646Y-111359698D01*
X115685646Y-111359696D01*
X115628050Y-111246658D01*
X115538342Y-111156950D01*
X115488431Y-111131519D01*
X115455464Y-111114721D01*
X115412200Y-111071456D01*
X115402629Y-111011024D01*
X115430407Y-110956508D01*
X115467714Y-110933067D01*
X115512646Y-110917345D01*
X115621790Y-110836792D01*
X115621792Y-110836790D01*
X115702345Y-110727647D01*
X115747149Y-110599601D01*
X115749999Y-110569211D01*
X115750000Y-110569210D01*
X115750000Y-110540001D01*
X115749999Y-110540000D01*
X113200002Y-110540000D01*
X113200001Y-110540001D01*
X113200001Y-110569203D01*
X113202850Y-110599600D01*
X113202850Y-110599602D01*
X113247654Y-110727647D01*
X113328207Y-110836790D01*
X113328209Y-110836792D01*
X113437353Y-110917345D01*
X113482285Y-110933067D01*
X113530966Y-110970132D01*
X113548564Y-111028732D01*
X113528357Y-111086484D01*
X113494535Y-111114721D01*
X113411659Y-111156949D01*
X113321949Y-111246659D01*
X113264354Y-111359695D01*
X113249500Y-111453478D01*
X113249500Y-111677987D01*
X113230593Y-111736178D01*
X113181093Y-111772142D01*
X113163423Y-111776140D01*
X113075091Y-111787770D01*
X113075090Y-111787770D01*
X112941178Y-111843237D01*
X112941174Y-111843239D01*
X112826181Y-111931477D01*
X112826177Y-111931481D01*
X112737939Y-112046474D01*
X112737937Y-112046478D01*
X112682470Y-112180390D01*
X112682469Y-112180391D01*
X112663550Y-112324099D01*
X112663550Y-112324100D01*
X112682469Y-112467808D01*
X112682470Y-112467809D01*
X112737448Y-112600541D01*
X112737939Y-112601725D01*
X112826179Y-112716721D01*
X112941175Y-112804961D01*
X113075091Y-112860430D01*
X113163422Y-112872059D01*
X113218647Y-112898400D01*
X113247842Y-112952171D01*
X113249500Y-112970211D01*
X113249500Y-113086520D01*
X113249501Y-113086523D01*
X113264352Y-113180299D01*
X113264354Y-113180304D01*
X113321950Y-113293342D01*
X113411658Y-113383050D01*
X113524696Y-113440646D01*
X113618481Y-113455500D01*
X113839552Y-113455499D01*
X113897741Y-113474406D01*
X113933705Y-113523906D01*
X113937704Y-113567421D01*
X113919750Y-113703799D01*
X113919750Y-113703800D01*
X113938669Y-113847508D01*
X113938670Y-113847509D01*
X113986908Y-113963969D01*
X113994139Y-113981425D01*
X114082379Y-114096421D01*
X114197375Y-114184661D01*
X114331291Y-114240130D01*
X114377508Y-114246214D01*
X114432732Y-114272554D01*
X114461928Y-114326325D01*
X114453942Y-114386987D01*
X114434590Y-114414371D01*
X113068759Y-115780204D01*
X113014242Y-115807981D01*
X112998755Y-115809200D01*
X112809861Y-115809200D01*
X112751670Y-115790293D01*
X112715706Y-115740793D01*
X112715706Y-115679607D01*
X112716416Y-115677503D01*
X112722646Y-115659699D01*
X112725499Y-115629273D01*
X112725500Y-115629273D01*
X112725500Y-115120727D01*
X112725499Y-115120725D01*
X112722646Y-115090305D01*
X112722646Y-115090301D01*
X112677793Y-114962118D01*
X112671586Y-114953708D01*
X112597149Y-114852849D01*
X112597149Y-114852848D01*
X112566928Y-114830545D01*
X112531335Y-114780778D01*
X112531792Y-114719594D01*
X112534240Y-114713031D01*
X112562830Y-114644009D01*
X112581750Y-114500300D01*
X112579155Y-114480593D01*
X112562830Y-114356591D01*
X112507361Y-114222675D01*
X112419121Y-114107679D01*
X112304125Y-114019439D01*
X112304121Y-114019437D01*
X112170209Y-113963970D01*
X112170208Y-113963969D01*
X112026500Y-113945050D01*
X111882791Y-113963969D01*
X111882790Y-113963970D01*
X111748878Y-114019437D01*
X111748874Y-114019439D01*
X111633881Y-114107677D01*
X111633877Y-114107681D01*
X111550342Y-114216546D01*
X111499917Y-114251201D01*
X111438753Y-114249599D01*
X111390211Y-114212352D01*
X111372800Y-114156278D01*
X111372800Y-112278792D01*
X111366558Y-112255496D01*
X111342099Y-112164214D01*
X111282790Y-112061487D01*
X111115014Y-111893711D01*
X111115011Y-111893709D01*
X111115009Y-111893707D01*
X111012292Y-111834403D01*
X111012289Y-111834402D01*
X111012287Y-111834401D01*
X110897709Y-111803701D01*
X110849499Y-111803701D01*
X110791308Y-111784794D01*
X110755344Y-111735294D01*
X110750499Y-111704701D01*
X110750499Y-111453478D01*
X110750498Y-111453476D01*
X110735647Y-111359700D01*
X110735646Y-111359698D01*
X110735646Y-111359696D01*
X110678050Y-111246658D01*
X110588342Y-111156950D01*
X110538431Y-111131519D01*
X110505464Y-111114721D01*
X110462200Y-111071456D01*
X110452629Y-111011024D01*
X110480407Y-110956508D01*
X110517714Y-110933067D01*
X110562646Y-110917345D01*
X110671790Y-110836792D01*
X110671792Y-110836790D01*
X110752345Y-110727647D01*
X110797149Y-110599601D01*
X110799999Y-110569211D01*
X110800000Y-110569210D01*
X110800000Y-110540001D01*
X110797496Y-110537497D01*
X110783175Y-110532844D01*
X110755002Y-110540000D01*
X108250002Y-110540000D01*
X108250001Y-110540001D01*
X108250001Y-110569203D01*
X108252850Y-110599600D01*
X108252850Y-110599602D01*
X108297654Y-110727647D01*
X108378207Y-110836790D01*
X108378209Y-110836792D01*
X108487353Y-110917345D01*
X108532285Y-110933067D01*
X108580966Y-110970132D01*
X108598564Y-111028732D01*
X108578357Y-111086484D01*
X108544535Y-111114721D01*
X108461659Y-111156949D01*
X108371949Y-111246659D01*
X108314354Y-111359695D01*
X108299500Y-111453477D01*
X108299500Y-111816520D01*
X108299501Y-111816523D01*
X108314352Y-111910299D01*
X108314354Y-111910304D01*
X108371950Y-112023342D01*
X108461658Y-112113050D01*
X108574696Y-112170646D01*
X108584625Y-112172218D01*
X108639140Y-112199993D01*
X108666919Y-112254509D01*
X108657349Y-112314941D01*
X108614086Y-112358207D01*
X108584628Y-112367780D01*
X108574698Y-112369353D01*
X108574695Y-112369354D01*
X108461659Y-112426949D01*
X108371949Y-112516659D01*
X108314354Y-112629695D01*
X108299500Y-112723477D01*
X108299500Y-113086520D01*
X108299501Y-113086523D01*
X108314352Y-113180299D01*
X108314354Y-113180307D01*
X108337278Y-113225296D01*
X108346850Y-113285728D01*
X108327612Y-113330506D01*
X108305213Y-113359699D01*
X108283437Y-113388078D01*
X108227970Y-113521990D01*
X108227969Y-113521991D01*
X108209050Y-113665699D01*
X108209050Y-113665700D01*
X108227969Y-113809408D01*
X108227970Y-113809409D01*
X108283439Y-113943325D01*
X108371679Y-114058321D01*
X108486675Y-114146561D01*
X108620591Y-114202030D01*
X108764300Y-114220950D01*
X108908009Y-114202030D01*
X109041925Y-114146561D01*
X109156921Y-114058321D01*
X109245161Y-113943325D01*
X109300630Y-113809409D01*
X109318834Y-113671132D01*
X109345175Y-113615909D01*
X109346984Y-113614052D01*
X109476542Y-113484495D01*
X109531058Y-113456718D01*
X109546545Y-113455499D01*
X110372800Y-113455499D01*
X110430991Y-113474406D01*
X110466955Y-113523906D01*
X110471800Y-113554499D01*
X110471800Y-115025088D01*
X110452893Y-115083279D01*
X110442804Y-115095092D01*
X110144004Y-115393892D01*
X110089487Y-115421669D01*
X110029055Y-115412098D01*
X109985790Y-115368833D01*
X109975000Y-115323888D01*
X109975000Y-115158899D01*
X109974999Y-115158895D01*
X109964867Y-115074531D01*
X109911922Y-114940270D01*
X109824723Y-114825282D01*
X109824717Y-114825276D01*
X109709729Y-114738077D01*
X109575468Y-114685132D01*
X109491104Y-114675000D01*
X109375001Y-114675000D01*
X109375000Y-114675001D01*
X109375000Y-115501000D01*
X109356093Y-115559191D01*
X109306593Y-115595155D01*
X109276000Y-115600000D01*
X108425001Y-115600000D01*
X108425000Y-115600001D01*
X108425000Y-115691104D01*
X108435132Y-115775468D01*
X108488077Y-115909729D01*
X108575276Y-116024717D01*
X108575282Y-116024723D01*
X108690271Y-116111922D01*
X108746621Y-116134144D01*
X108793819Y-116173081D01*
X108809116Y-116232323D01*
X108786670Y-116289243D01*
X108744903Y-116318999D01*
X108732924Y-116323467D01*
X108719774Y-116328372D01*
X108719773Y-116328372D01*
X108719772Y-116328373D01*
X108610315Y-116410311D01*
X108610310Y-116410316D01*
X108554532Y-116484828D01*
X108504523Y-116520082D01*
X108475278Y-116524500D01*
X105456107Y-116524500D01*
X105397916Y-116505593D01*
X105361952Y-116456093D01*
X105361952Y-116394907D01*
X105396288Y-116346616D01*
X105467561Y-116292567D01*
X105467564Y-116292564D01*
X105558919Y-116172095D01*
X105614386Y-116031443D01*
X105624999Y-115943064D01*
X105625000Y-115943058D01*
X105625000Y-115825001D01*
X105624999Y-115825000D01*
X104775001Y-115825000D01*
X104775000Y-115825001D01*
X104775000Y-116449999D01*
X104775001Y-116450000D01*
X104823889Y-116450000D01*
X104882080Y-116468907D01*
X104918044Y-116518407D01*
X104918044Y-116579593D01*
X104893892Y-116619004D01*
X104742391Y-116770504D01*
X104687875Y-116798281D01*
X104672388Y-116799500D01*
X104527611Y-116799500D01*
X104469420Y-116780593D01*
X104457607Y-116770504D01*
X104306107Y-116619004D01*
X104278330Y-116564487D01*
X104287901Y-116504055D01*
X104331166Y-116460790D01*
X104376111Y-116450000D01*
X104424999Y-116450000D01*
X104425000Y-116449999D01*
X104425000Y-115825001D01*
X104424999Y-115825000D01*
X103553111Y-115825000D01*
X103494920Y-115806093D01*
X103483108Y-115796004D01*
X103101614Y-115414511D01*
X103101609Y-115414507D01*
X103001892Y-115356935D01*
X103575000Y-115356935D01*
X103575000Y-115474999D01*
X103575001Y-115475000D01*
X104424999Y-115475000D01*
X104425000Y-115474999D01*
X104425000Y-114850001D01*
X104775000Y-114850001D01*
X104775000Y-115474999D01*
X104775001Y-115475000D01*
X105624999Y-115475000D01*
X105625000Y-115474999D01*
X105625000Y-115356941D01*
X105624999Y-115356935D01*
X105614386Y-115268556D01*
X105571140Y-115158895D01*
X108425000Y-115158895D01*
X108425000Y-115249999D01*
X108425001Y-115250000D01*
X109024999Y-115250000D01*
X109025000Y-115249999D01*
X109025000Y-114675001D01*
X109024999Y-114675000D01*
X108908895Y-114675000D01*
X108824531Y-114685132D01*
X108690270Y-114738077D01*
X108575282Y-114825276D01*
X108575276Y-114825282D01*
X108488077Y-114940270D01*
X108435132Y-115074531D01*
X108425000Y-115158895D01*
X105571140Y-115158895D01*
X105558919Y-115127904D01*
X105467564Y-115007435D01*
X105347095Y-114916080D01*
X105206443Y-114860613D01*
X105118064Y-114850000D01*
X104775001Y-114850000D01*
X104775000Y-114850001D01*
X104425000Y-114850001D01*
X104424999Y-114850000D01*
X104081935Y-114850000D01*
X103993556Y-114860613D01*
X103852904Y-114916080D01*
X103732435Y-115007435D01*
X103641080Y-115127904D01*
X103585613Y-115268556D01*
X103575000Y-115356935D01*
X103001892Y-115356935D01*
X102998892Y-115355203D01*
X102998889Y-115355202D01*
X102998887Y-115355201D01*
X102965779Y-115346330D01*
X102884309Y-115324500D01*
X102884308Y-115324500D01*
X102700008Y-115324500D01*
X102641817Y-115305593D01*
X102620352Y-115284288D01*
X102619157Y-115282669D01*
X102597150Y-115252850D01*
X102597149Y-115252849D01*
X102487883Y-115172207D01*
X102359703Y-115127355D01*
X102359694Y-115127353D01*
X102329274Y-115124500D01*
X102329266Y-115124500D01*
X101670734Y-115124500D01*
X101670725Y-115124500D01*
X101640305Y-115127353D01*
X101640296Y-115127355D01*
X101512116Y-115172207D01*
X101402855Y-115252845D01*
X101402845Y-115252855D01*
X101322207Y-115362116D01*
X101277355Y-115490296D01*
X101277353Y-115490305D01*
X101274500Y-115520725D01*
X101274500Y-116029274D01*
X101277353Y-116059694D01*
X101277355Y-116059703D01*
X101322207Y-116187883D01*
X101402845Y-116297144D01*
X101402847Y-116297146D01*
X101402850Y-116297150D01*
X101402853Y-116297152D01*
X101402855Y-116297154D01*
X101512116Y-116377792D01*
X101512117Y-116377792D01*
X101512118Y-116377793D01*
X101640301Y-116422646D01*
X101670725Y-116425499D01*
X101670727Y-116425500D01*
X101670734Y-116425500D01*
X101993589Y-116425500D01*
X102051780Y-116444407D01*
X102087744Y-116493907D01*
X102087744Y-116555093D01*
X102063593Y-116594503D01*
X101912594Y-116745503D01*
X101858077Y-116773281D01*
X101842590Y-116774500D01*
X101670725Y-116774500D01*
X101640305Y-116777353D01*
X101640296Y-116777355D01*
X101512116Y-116822207D01*
X101402855Y-116902845D01*
X101402845Y-116902855D01*
X101322207Y-117012116D01*
X101277355Y-117140296D01*
X101277353Y-117140305D01*
X101274500Y-117170725D01*
X101274500Y-117679274D01*
X101277353Y-117709694D01*
X101277355Y-117709703D01*
X101322207Y-117837883D01*
X101402845Y-117947144D01*
X101402847Y-117947146D01*
X101402850Y-117947150D01*
X101402853Y-117947152D01*
X101402855Y-117947154D01*
X101512114Y-118027791D01*
X101512116Y-118027792D01*
X101512117Y-118027792D01*
X101512118Y-118027793D01*
X101640301Y-118072646D01*
X101670725Y-118075499D01*
X101670727Y-118075500D01*
X101670734Y-118075500D01*
X102329273Y-118075500D01*
X102329273Y-118075499D01*
X102359699Y-118072646D01*
X102487882Y-118027793D01*
X102487883Y-118027791D01*
X102487886Y-118027791D01*
X102563251Y-117972168D01*
X102597150Y-117947150D01*
X102677793Y-117837882D01*
X102722646Y-117709699D01*
X102725499Y-117679273D01*
X102725500Y-117679273D01*
X102725500Y-117283254D01*
X102744407Y-117225063D01*
X102786610Y-117191792D01*
X102915125Y-117138561D01*
X103030121Y-117050321D01*
X103118361Y-116935325D01*
X103128985Y-116909673D01*
X103168720Y-116863150D01*
X103228214Y-116848865D01*
X103284743Y-116872278D01*
X103290453Y-116877556D01*
X103595504Y-117182607D01*
X103623281Y-117237124D01*
X103624500Y-117252611D01*
X103624500Y-117847866D01*
X103624501Y-117847870D01*
X103630908Y-117907480D01*
X103630909Y-117907485D01*
X103681202Y-118042329D01*
X103754544Y-118140301D01*
X103767454Y-118157546D01*
X103767457Y-118157548D01*
X103767458Y-118157549D01*
X103882670Y-118243797D01*
X104017511Y-118294089D01*
X104017512Y-118294089D01*
X104017517Y-118294091D01*
X104077127Y-118300500D01*
X104307153Y-118300499D01*
X104365341Y-118319406D01*
X104401305Y-118368906D01*
X104401306Y-118430091D01*
X104383388Y-118459350D01*
X104384929Y-118460532D01*
X104380980Y-118465678D01*
X104380979Y-118465679D01*
X104361473Y-118491100D01*
X104292739Y-118580674D01*
X104292737Y-118580678D01*
X104237270Y-118714590D01*
X104237270Y-118714591D01*
X104227941Y-118785446D01*
X104201599Y-118840671D01*
X104147828Y-118869865D01*
X104097091Y-118865968D01*
X104059601Y-118852850D01*
X104029211Y-118850000D01*
X103637501Y-118850000D01*
X103637500Y-118850001D01*
X103637500Y-119526000D01*
X103618593Y-119584191D01*
X103569093Y-119620155D01*
X103538500Y-119625000D01*
X102500002Y-119625000D01*
X102500001Y-119625001D01*
X102500001Y-119654203D01*
X102502850Y-119684600D01*
X102502850Y-119684602D01*
X102547655Y-119812649D01*
X102615265Y-119904256D01*
X102634607Y-119962303D01*
X102623819Y-120007989D01*
X102564355Y-120124692D01*
X102564354Y-120124694D01*
X102549500Y-120218477D01*
X102549500Y-120581520D01*
X102549501Y-120581523D01*
X102564352Y-120675299D01*
X102564354Y-120675307D01*
X102623819Y-120792011D01*
X102633391Y-120852443D01*
X102615265Y-120895744D01*
X102547655Y-120987350D01*
X102502850Y-121115398D01*
X102500000Y-121145788D01*
X102500000Y-121174999D01*
X102500001Y-121175000D01*
X103538500Y-121175000D01*
X103596691Y-121193907D01*
X103632655Y-121243407D01*
X103637500Y-121274000D01*
X103637500Y-121426000D01*
X103618593Y-121484191D01*
X103569093Y-121520155D01*
X103538500Y-121525000D01*
X102500002Y-121525000D01*
X102487246Y-121537755D01*
X102481094Y-121556691D01*
X102431594Y-121592655D01*
X102401001Y-121597500D01*
X102374318Y-121597500D01*
X102316127Y-121578593D01*
X102280163Y-121529093D01*
X102276079Y-121507119D01*
X102275782Y-121507151D01*
X102270133Y-121454600D01*
X102269412Y-121447886D01*
X102221628Y-121319774D01*
X102139687Y-121210313D01*
X102030226Y-121128372D01*
X102005097Y-121118999D01*
X101957184Y-121080948D01*
X101940787Y-121022000D01*
X101962170Y-120964673D01*
X102003378Y-120934144D01*
X102059728Y-120911922D01*
X102174717Y-120824723D01*
X102174723Y-120824717D01*
X102261922Y-120709729D01*
X102314867Y-120575468D01*
X102324999Y-120491104D01*
X102325000Y-120491100D01*
X102325000Y-120400001D01*
X102324999Y-120400000D01*
X100775001Y-120400000D01*
X100775000Y-120400001D01*
X100500500Y-120400001D01*
X100500500Y-119958895D01*
X100775000Y-119958895D01*
X100775000Y-120049999D01*
X100775001Y-120050000D01*
X101374999Y-120050000D01*
X101375000Y-120049999D01*
X101375000Y-119475001D01*
X101725000Y-119475001D01*
X101725000Y-120049999D01*
X101725001Y-120050000D01*
X102324999Y-120050000D01*
X102325000Y-120049999D01*
X102325000Y-119958899D01*
X102324999Y-119958895D01*
X102314867Y-119874531D01*
X102261922Y-119740270D01*
X102174723Y-119625282D01*
X102174717Y-119625276D01*
X102059729Y-119538077D01*
X101925468Y-119485132D01*
X101841104Y-119475000D01*
X101725001Y-119475000D01*
X101725000Y-119475001D01*
X101375000Y-119475001D01*
X101374999Y-119475000D01*
X101258895Y-119475000D01*
X101174531Y-119485132D01*
X101040270Y-119538077D01*
X100925282Y-119625276D01*
X100925276Y-119625282D01*
X100838077Y-119740270D01*
X100785132Y-119874531D01*
X100775000Y-119958895D01*
X100500500Y-119958895D01*
X100500500Y-119245788D01*
X102500000Y-119245788D01*
X102500000Y-119274999D01*
X102500001Y-119275000D01*
X103287499Y-119275000D01*
X103287500Y-119274999D01*
X103287500Y-118850001D01*
X103287499Y-118850000D01*
X102895796Y-118850000D01*
X102865399Y-118852850D01*
X102865397Y-118852850D01*
X102737352Y-118897654D01*
X102628209Y-118978207D01*
X102628207Y-118978209D01*
X102547654Y-119087352D01*
X102502850Y-119215398D01*
X102500000Y-119245788D01*
X100500500Y-119245788D01*
X100500500Y-110625001D01*
X100975000Y-110625001D01*
X100975000Y-110743064D01*
X100985613Y-110831443D01*
X101041080Y-110972095D01*
X101132435Y-111092564D01*
X101252904Y-111183919D01*
X101393556Y-111239386D01*
X101481935Y-111249999D01*
X101481942Y-111250000D01*
X101824999Y-111250000D01*
X101825000Y-111249999D01*
X101825000Y-110625001D01*
X101824999Y-110625000D01*
X100975001Y-110625000D01*
X100975000Y-110625001D01*
X100500500Y-110625001D01*
X100500500Y-110156935D01*
X100975000Y-110156935D01*
X100975000Y-110274999D01*
X100975001Y-110275000D01*
X101824999Y-110275000D01*
X101825000Y-110274999D01*
X101825000Y-109650001D01*
X101824999Y-109650000D01*
X101481935Y-109650000D01*
X101393556Y-109660613D01*
X101252904Y-109716080D01*
X101132435Y-109807435D01*
X101041080Y-109927904D01*
X100985613Y-110068556D01*
X100975000Y-110156935D01*
X100500500Y-110156935D01*
X100500500Y-109055899D01*
X100519407Y-108997708D01*
X100568907Y-108961744D01*
X100630093Y-108961744D01*
X100669501Y-108985893D01*
X100711658Y-109028050D01*
X100824696Y-109085646D01*
X100918481Y-109100500D01*
X101611754Y-109100499D01*
X101669945Y-109119406D01*
X101681758Y-109129495D01*
X102146004Y-109593741D01*
X102173781Y-109648258D01*
X102175000Y-109663745D01*
X102175000Y-111249999D01*
X102175001Y-111250000D01*
X102518058Y-111250000D01*
X102518064Y-111249999D01*
X102606443Y-111239386D01*
X102747095Y-111183919D01*
X102867564Y-111092564D01*
X102958919Y-110972095D01*
X103014386Y-110831443D01*
X103024999Y-110743064D01*
X103025000Y-110743058D01*
X103025000Y-110711745D01*
X103043907Y-110653554D01*
X103093407Y-110617590D01*
X103154593Y-110617590D01*
X103194004Y-110641741D01*
X103645748Y-111093485D01*
X103673525Y-111148002D01*
X103674196Y-111168395D01*
X103674608Y-111168415D01*
X103674500Y-111170727D01*
X103674500Y-111679274D01*
X103677353Y-111709694D01*
X103677355Y-111709703D01*
X103697685Y-111767802D01*
X103699058Y-111828972D01*
X103664215Y-111879267D01*
X103606463Y-111899475D01*
X103604241Y-111899500D01*
X103552999Y-111899500D01*
X103494808Y-111880593D01*
X103492732Y-111879043D01*
X103479825Y-111869139D01*
X103479821Y-111869137D01*
X103345909Y-111813670D01*
X103345908Y-111813669D01*
X103202200Y-111794750D01*
X103058493Y-111813669D01*
X102997767Y-111838822D01*
X102936770Y-111843621D01*
X102884602Y-111811651D01*
X102880630Y-111806686D01*
X102878395Y-111803701D01*
X102832546Y-111742454D01*
X102832541Y-111742450D01*
X102717329Y-111656202D01*
X102582488Y-111605910D01*
X102582483Y-111605909D01*
X102582481Y-111605908D01*
X102582477Y-111605908D01*
X102551249Y-111602550D01*
X102522873Y-111599500D01*
X102522870Y-111599500D01*
X101477133Y-111599500D01*
X101477129Y-111599500D01*
X101477128Y-111599501D01*
X101472486Y-111600000D01*
X101417519Y-111605908D01*
X101417514Y-111605909D01*
X101282670Y-111656202D01*
X101167458Y-111742450D01*
X101167450Y-111742458D01*
X101081202Y-111857670D01*
X101030910Y-111992511D01*
X101030909Y-111992517D01*
X101025108Y-112046478D01*
X101024500Y-112052129D01*
X101024500Y-112647866D01*
X101024500Y-112647869D01*
X101024501Y-112647872D01*
X101026032Y-112662116D01*
X101030908Y-112707480D01*
X101030909Y-112707485D01*
X101081202Y-112842329D01*
X101163430Y-112952171D01*
X101167454Y-112957546D01*
X101167457Y-112957548D01*
X101167458Y-112957549D01*
X101282670Y-113043797D01*
X101417511Y-113094089D01*
X101417512Y-113094089D01*
X101417517Y-113094091D01*
X101477127Y-113100500D01*
X102522872Y-113100499D01*
X102582483Y-113094091D01*
X102653220Y-113067708D01*
X102717329Y-113043797D01*
X102717329Y-113043796D01*
X102717331Y-113043796D01*
X102832546Y-112957546D01*
X102880631Y-112893312D01*
X102930638Y-112858060D01*
X102991817Y-112858934D01*
X102997765Y-112861177D01*
X103058491Y-112886330D01*
X103202200Y-112905250D01*
X103345909Y-112886330D01*
X103446240Y-112844771D01*
X103507237Y-112839972D01*
X103554129Y-112866232D01*
X103645504Y-112957607D01*
X103673281Y-113012124D01*
X103674500Y-113027611D01*
X103674500Y-113329274D01*
X103677353Y-113359694D01*
X103677355Y-113359703D01*
X103722207Y-113487883D01*
X103802845Y-113597144D01*
X103802847Y-113597146D01*
X103802850Y-113597150D01*
X103802853Y-113597152D01*
X103802855Y-113597154D01*
X103912116Y-113677792D01*
X103912117Y-113677792D01*
X103912118Y-113677793D01*
X104040301Y-113722646D01*
X104070725Y-113725499D01*
X104070727Y-113725500D01*
X104070734Y-113725500D01*
X104729273Y-113725500D01*
X104729273Y-113725499D01*
X104759699Y-113722646D01*
X104887882Y-113677793D01*
X104997150Y-113597150D01*
X105077793Y-113487882D01*
X105106556Y-113405682D01*
X105143621Y-113357002D01*
X105202221Y-113339405D01*
X105259973Y-113359613D01*
X105293444Y-113405682D01*
X105322207Y-113487883D01*
X105402845Y-113597144D01*
X105402847Y-113597146D01*
X105402850Y-113597150D01*
X105402853Y-113597152D01*
X105402855Y-113597154D01*
X105512116Y-113677792D01*
X105512117Y-113677792D01*
X105512118Y-113677793D01*
X105640301Y-113722646D01*
X105670725Y-113725499D01*
X105670727Y-113725500D01*
X105670734Y-113725500D01*
X106329273Y-113725500D01*
X106329273Y-113725499D01*
X106359699Y-113722646D01*
X106487882Y-113677793D01*
X106597150Y-113597150D01*
X106677793Y-113487882D01*
X106722646Y-113359699D01*
X106725499Y-113329273D01*
X106725500Y-113329273D01*
X106725500Y-112820727D01*
X106725499Y-112820725D01*
X106724864Y-112813957D01*
X106722646Y-112790301D01*
X106677793Y-112662118D01*
X106655043Y-112631293D01*
X106597154Y-112552855D01*
X106597152Y-112552853D01*
X106597150Y-112552850D01*
X106597146Y-112552847D01*
X106597144Y-112552845D01*
X106487883Y-112472207D01*
X106359703Y-112427355D01*
X106359694Y-112427353D01*
X106329274Y-112424500D01*
X106329266Y-112424500D01*
X105921546Y-112424500D01*
X105863355Y-112405593D01*
X105851542Y-112395504D01*
X105750042Y-112294004D01*
X105722265Y-112239487D01*
X105731836Y-112179055D01*
X105775101Y-112135790D01*
X105820046Y-112125000D01*
X105824999Y-112125000D01*
X105825000Y-112124999D01*
X105825000Y-111600001D01*
X106175000Y-111600001D01*
X106175000Y-112124999D01*
X106175001Y-112125000D01*
X106322824Y-112125000D01*
X106382370Y-112118598D01*
X106382381Y-112118596D01*
X106517088Y-112068353D01*
X106517090Y-112068352D01*
X106632184Y-111982192D01*
X106632192Y-111982184D01*
X106718352Y-111867090D01*
X106718353Y-111867088D01*
X106768596Y-111732381D01*
X106768598Y-111732370D01*
X106775000Y-111672824D01*
X106775000Y-111600001D01*
X106774999Y-111600000D01*
X106175001Y-111600000D01*
X106175000Y-111600001D01*
X105825000Y-111600001D01*
X105825000Y-110725001D01*
X106175000Y-110725001D01*
X106175000Y-111249999D01*
X106175001Y-111250000D01*
X106774999Y-111250000D01*
X106775000Y-111249999D01*
X106775000Y-111177175D01*
X106768598Y-111117629D01*
X106768596Y-111117618D01*
X106718353Y-110982911D01*
X106718352Y-110982909D01*
X106632192Y-110867815D01*
X106632184Y-110867807D01*
X106517090Y-110781647D01*
X106517088Y-110781646D01*
X106382381Y-110731403D01*
X106382370Y-110731401D01*
X106322824Y-110725000D01*
X106175001Y-110725000D01*
X106175000Y-110725001D01*
X105825000Y-110725001D01*
X105824999Y-110725000D01*
X105677176Y-110725000D01*
X105617629Y-110731401D01*
X105617618Y-110731403D01*
X105482911Y-110781646D01*
X105482909Y-110781647D01*
X105367815Y-110867807D01*
X105367807Y-110867815D01*
X105281647Y-110982909D01*
X105266923Y-111022386D01*
X105228872Y-111070301D01*
X105169925Y-111086698D01*
X105112597Y-111065316D01*
X105080720Y-111020484D01*
X105077792Y-111012116D01*
X104997154Y-110902855D01*
X104997152Y-110902853D01*
X104997150Y-110902850D01*
X104997146Y-110902847D01*
X104997144Y-110902845D01*
X104887883Y-110822207D01*
X104759703Y-110777355D01*
X104759694Y-110777353D01*
X104729274Y-110774500D01*
X104729266Y-110774500D01*
X104429845Y-110774500D01*
X104371654Y-110755593D01*
X104359841Y-110745504D01*
X102404495Y-108790158D01*
X102376718Y-108735641D01*
X102375499Y-108720166D01*
X102375499Y-108368482D01*
X102369138Y-108328318D01*
X102360647Y-108274700D01*
X102360646Y-108274698D01*
X102360646Y-108274696D01*
X102303050Y-108161658D01*
X102303048Y-108161656D01*
X102301180Y-108157989D01*
X102291608Y-108097557D01*
X102309735Y-108054254D01*
X102377344Y-107962649D01*
X102422149Y-107834601D01*
X102424999Y-107804211D01*
X102425000Y-107804210D01*
X102425000Y-107775001D01*
X102424999Y-107775000D01*
X101386500Y-107775000D01*
X101328309Y-107756093D01*
X101292345Y-107706593D01*
X101287500Y-107676000D01*
X101287500Y-107524000D01*
X101306407Y-107465809D01*
X101355907Y-107429845D01*
X101386500Y-107425000D01*
X102424998Y-107425000D01*
X102424999Y-107424999D01*
X102424999Y-107395796D01*
X102422149Y-107365399D01*
X102422149Y-107365397D01*
X102377345Y-107237352D01*
X102309734Y-107145745D01*
X102290392Y-107087697D01*
X102301180Y-107042010D01*
X102303047Y-107038344D01*
X102303050Y-107038342D01*
X102360646Y-106925304D01*
X102375500Y-106831519D01*
X102375499Y-106526799D01*
X102394406Y-106468610D01*
X102443906Y-106432646D01*
X102474499Y-106427800D01*
X102725500Y-106427800D01*
X102783691Y-106446707D01*
X102819655Y-106496207D01*
X102824500Y-106526800D01*
X102824500Y-106831520D01*
X102824501Y-106831523D01*
X102839352Y-106925299D01*
X102839354Y-106925304D01*
X102896950Y-107038342D01*
X102896952Y-107038344D01*
X102913605Y-107054998D01*
X102941381Y-107109515D01*
X102931809Y-107169947D01*
X102913605Y-107195002D01*
X102896952Y-107211655D01*
X102896950Y-107211658D01*
X102839354Y-107324695D01*
X102824500Y-107418477D01*
X102824500Y-107781520D01*
X102824501Y-107781523D01*
X102839352Y-107875299D01*
X102839354Y-107875304D01*
X102896950Y-107988342D01*
X102896952Y-107988344D01*
X102913605Y-108004998D01*
X102941381Y-108059515D01*
X102931809Y-108119947D01*
X102913605Y-108145002D01*
X102896952Y-108161655D01*
X102896950Y-108161658D01*
X102839354Y-108274695D01*
X102824500Y-108368477D01*
X102824500Y-108731520D01*
X102824501Y-108731523D01*
X102839352Y-108825299D01*
X102839354Y-108825304D01*
X102896950Y-108938342D01*
X102986658Y-109028050D01*
X103099696Y-109085646D01*
X103193481Y-109100500D01*
X104281518Y-109100499D01*
X104281521Y-109100499D01*
X104281522Y-109100498D01*
X104328411Y-109093072D01*
X104375299Y-109085647D01*
X104375299Y-109085646D01*
X104375304Y-109085646D01*
X104488342Y-109028050D01*
X104578050Y-108938342D01*
X104635646Y-108825304D01*
X104650500Y-108731519D01*
X104650499Y-108562967D01*
X104669406Y-108504778D01*
X104718906Y-108468814D01*
X104762417Y-108464815D01*
X104911800Y-108484482D01*
X105068562Y-108463844D01*
X105214641Y-108403336D01*
X105284465Y-108349757D01*
X105342141Y-108329334D01*
X105344732Y-108329300D01*
X106372253Y-108329300D01*
X106430444Y-108348207D01*
X106466408Y-108397707D01*
X106466408Y-108458893D01*
X106463720Y-108466176D01*
X106449917Y-108499501D01*
X106408355Y-108599838D01*
X106396867Y-108687096D01*
X106370525Y-108742321D01*
X106368719Y-108744175D01*
X106342393Y-108770502D01*
X106287877Y-108798281D01*
X106272388Y-108799500D01*
X105802133Y-108799500D01*
X105802129Y-108799500D01*
X105802128Y-108799501D01*
X105794949Y-108800272D01*
X105742519Y-108805908D01*
X105742514Y-108805909D01*
X105607670Y-108856202D01*
X105492458Y-108942450D01*
X105492450Y-108942458D01*
X105406202Y-109057670D01*
X105355910Y-109192511D01*
X105355908Y-109192522D01*
X105349500Y-109252129D01*
X105349500Y-109947866D01*
X105349501Y-109947870D01*
X105355908Y-110007480D01*
X105355909Y-110007485D01*
X105406202Y-110142329D01*
X105492450Y-110257541D01*
X105492454Y-110257546D01*
X105492457Y-110257548D01*
X105492458Y-110257549D01*
X105607670Y-110343797D01*
X105742511Y-110394089D01*
X105742512Y-110394089D01*
X105742517Y-110394091D01*
X105802127Y-110400500D01*
X106497872Y-110400499D01*
X106557483Y-110394091D01*
X106647114Y-110360661D01*
X106692329Y-110343797D01*
X106692329Y-110343796D01*
X106692331Y-110343796D01*
X106807546Y-110257546D01*
X106879979Y-110160788D01*
X108250000Y-110160788D01*
X108250000Y-110189999D01*
X108250001Y-110190000D01*
X110364531Y-110190000D01*
X110422722Y-110208907D01*
X110424798Y-110210458D01*
X110475681Y-110249501D01*
X110502475Y-110270061D01*
X110636391Y-110325530D01*
X110767924Y-110342847D01*
X110779015Y-110348137D01*
X110792276Y-110342847D01*
X110817061Y-110339583D01*
X110923809Y-110325530D01*
X111057725Y-110270061D01*
X111172721Y-110181821D01*
X111260961Y-110066825D01*
X111316430Y-109932909D01*
X111335350Y-109789200D01*
X111316430Y-109645491D01*
X111260961Y-109511575D01*
X111172721Y-109396579D01*
X111057725Y-109308339D01*
X111057721Y-109308337D01*
X110941452Y-109260178D01*
X110923809Y-109252870D01*
X110899687Y-109249694D01*
X110836576Y-109241385D01*
X110781351Y-109215044D01*
X110752157Y-109161273D01*
X110750499Y-109143232D01*
X110750499Y-108913478D01*
X110750498Y-108913476D01*
X110735647Y-108819700D01*
X110735646Y-108819698D01*
X110735646Y-108819696D01*
X110678050Y-108706658D01*
X110588342Y-108616950D01*
X110475304Y-108559354D01*
X110475305Y-108559354D01*
X110381521Y-108544500D01*
X108668478Y-108544500D01*
X108668476Y-108544501D01*
X108574700Y-108559352D01*
X108574695Y-108559354D01*
X108461659Y-108616949D01*
X108371949Y-108706659D01*
X108314354Y-108819695D01*
X108299500Y-108913477D01*
X108299500Y-109276520D01*
X108299501Y-109276523D01*
X108314352Y-109370299D01*
X108314354Y-109370304D01*
X108371950Y-109483342D01*
X108461658Y-109573050D01*
X108461660Y-109573051D01*
X108544534Y-109615278D01*
X108587799Y-109658542D01*
X108597370Y-109718974D01*
X108569592Y-109773491D01*
X108532287Y-109796931D01*
X108487354Y-109812653D01*
X108378209Y-109893207D01*
X108378207Y-109893209D01*
X108297654Y-110002352D01*
X108252850Y-110130398D01*
X108250000Y-110160788D01*
X106879979Y-110160788D01*
X106893796Y-110142331D01*
X106944091Y-110007483D01*
X106950500Y-109947873D01*
X106950499Y-109477610D01*
X106969406Y-109419420D01*
X106979489Y-109407613D01*
X107005824Y-109381278D01*
X107060339Y-109353503D01*
X107062874Y-109353135D01*
X107150162Y-109341644D01*
X107296241Y-109281136D01*
X107421682Y-109184882D01*
X107517936Y-109059441D01*
X107578444Y-108913362D01*
X107599082Y-108756600D01*
X107578444Y-108599838D01*
X107543035Y-108514354D01*
X107517937Y-108453761D01*
X107517937Y-108453760D01*
X107421686Y-108328323D01*
X107421685Y-108328322D01*
X107421682Y-108328318D01*
X107421677Y-108328314D01*
X107421676Y-108328313D01*
X107296238Y-108232062D01*
X107150166Y-108171557D01*
X107150163Y-108171556D01*
X107150162Y-108171556D01*
X107143020Y-108170615D01*
X107087797Y-108144273D01*
X107058603Y-108090502D01*
X107066591Y-108029840D01*
X107085943Y-108002459D01*
X107152496Y-107935906D01*
X107835490Y-107252914D01*
X107894799Y-107150187D01*
X107897398Y-107140487D01*
X107904332Y-107114612D01*
X107913591Y-107080055D01*
X107925500Y-107035609D01*
X107925500Y-105036911D01*
X107944407Y-104978720D01*
X107954496Y-104966907D01*
X108255996Y-104665407D01*
X108310513Y-104637630D01*
X108370945Y-104647201D01*
X108414210Y-104690466D01*
X108425000Y-104735411D01*
X108425000Y-105018064D01*
X108435613Y-105106443D01*
X108491080Y-105247095D01*
X108582435Y-105367564D01*
X108702904Y-105458919D01*
X108843556Y-105514386D01*
X108931935Y-105524999D01*
X108931942Y-105525000D01*
X109424999Y-105525000D01*
X109425000Y-105524999D01*
X109425000Y-104775001D01*
X109775000Y-104775001D01*
X109775000Y-105524999D01*
X109775001Y-105525000D01*
X110268058Y-105525000D01*
X110268064Y-105524999D01*
X110356443Y-105514386D01*
X110497095Y-105458919D01*
X110617564Y-105367564D01*
X110708919Y-105247095D01*
X110764386Y-105106443D01*
X110774999Y-105018064D01*
X110775000Y-105018058D01*
X110775000Y-104775001D01*
X110774999Y-104775000D01*
X109775001Y-104775000D01*
X109775000Y-104775001D01*
X109425000Y-104775001D01*
X109425000Y-104524000D01*
X109443907Y-104465809D01*
X109493407Y-104429845D01*
X109524000Y-104425000D01*
X110774999Y-104425000D01*
X110775000Y-104424999D01*
X110775000Y-104181941D01*
X110774999Y-104181932D01*
X110773687Y-104171003D01*
X110785522Y-104110973D01*
X110830381Y-104069364D01*
X110871981Y-104060200D01*
X110906389Y-104060200D01*
X110964580Y-104079107D01*
X110976392Y-104089195D01*
X114347686Y-107460490D01*
X114447837Y-107518311D01*
X114450414Y-107519799D01*
X114564991Y-107550500D01*
X117364861Y-107550500D01*
X117423052Y-107569407D01*
X117459016Y-107618907D01*
X117459016Y-107680093D01*
X117434866Y-107719501D01*
X117398275Y-107756093D01*
X117364020Y-107790348D01*
X117249058Y-107962402D01*
X117223798Y-108023386D01*
X117184061Y-108069912D01*
X117132334Y-108084500D01*
X113050339Y-108084500D01*
X112992148Y-108065593D01*
X112990114Y-108064074D01*
X112879425Y-107979139D01*
X112879421Y-107979137D01*
X112745509Y-107923670D01*
X112745508Y-107923669D01*
X112601800Y-107904750D01*
X112458091Y-107923669D01*
X112458090Y-107923670D01*
X112324178Y-107979137D01*
X112324174Y-107979139D01*
X112209181Y-108067377D01*
X112209177Y-108067381D01*
X112120939Y-108182374D01*
X112120937Y-108182378D01*
X112065470Y-108316290D01*
X112065469Y-108316291D01*
X112046550Y-108459999D01*
X112046550Y-108460000D01*
X112065469Y-108603708D01*
X112065470Y-108603709D01*
X112118411Y-108731523D01*
X112120939Y-108737625D01*
X112209179Y-108852621D01*
X112324175Y-108940861D01*
X112458091Y-108996330D01*
X112601800Y-109015250D01*
X112745509Y-108996330D01*
X112879425Y-108940861D01*
X112990073Y-108855957D01*
X113047747Y-108835534D01*
X113050339Y-108835500D01*
X113150500Y-108835500D01*
X113208691Y-108854407D01*
X113244655Y-108903907D01*
X113249500Y-108934500D01*
X113249500Y-109276520D01*
X113249501Y-109276523D01*
X113264352Y-109370299D01*
X113264354Y-109370304D01*
X113321950Y-109483342D01*
X113411658Y-109573050D01*
X113411660Y-109573051D01*
X113494534Y-109615278D01*
X113537799Y-109658542D01*
X113547370Y-109718974D01*
X113519592Y-109773491D01*
X113482287Y-109796931D01*
X113437354Y-109812653D01*
X113328209Y-109893207D01*
X113328207Y-109893209D01*
X113247654Y-110002352D01*
X113202850Y-110130398D01*
X113200000Y-110160788D01*
X113200000Y-110189999D01*
X113200001Y-110190000D01*
X115749998Y-110190000D01*
X115749999Y-110189999D01*
X115749999Y-110189704D01*
X115768906Y-110131513D01*
X115818406Y-110095549D01*
X115861923Y-110091552D01*
X115873300Y-110093050D01*
X116017009Y-110074130D01*
X116150925Y-110018661D01*
X116265921Y-109930421D01*
X116354161Y-109815425D01*
X116409630Y-109681509D01*
X116428550Y-109537800D01*
X116409630Y-109394091D01*
X116354161Y-109260175D01*
X116265921Y-109145179D01*
X116150925Y-109056939D01*
X116150921Y-109056937D01*
X116076144Y-109025964D01*
X116029618Y-108986228D01*
X116015334Y-108926733D01*
X116038748Y-108870205D01*
X116090917Y-108838236D01*
X116114029Y-108835500D01*
X117132334Y-108835500D01*
X117190525Y-108854407D01*
X117223798Y-108896614D01*
X117249058Y-108957597D01*
X117344542Y-109100500D01*
X117364023Y-109129655D01*
X117510345Y-109275977D01*
X117682402Y-109390941D01*
X117873580Y-109470130D01*
X118076535Y-109510500D01*
X118076536Y-109510500D01*
X118683464Y-109510500D01*
X118683465Y-109510500D01*
X118886420Y-109470130D01*
X119077598Y-109390941D01*
X119249655Y-109275977D01*
X119395977Y-109129655D01*
X119510941Y-108957598D01*
X119590130Y-108766420D01*
X119630500Y-108563465D01*
X119630500Y-108356535D01*
X119630499Y-108356532D01*
X132369500Y-108356532D01*
X132369500Y-108563467D01*
X132409869Y-108766418D01*
X132489058Y-108957597D01*
X132584542Y-109100500D01*
X132604023Y-109129655D01*
X132750345Y-109275977D01*
X132922402Y-109390941D01*
X133113580Y-109470130D01*
X133316535Y-109510500D01*
X133316536Y-109510500D01*
X133923464Y-109510500D01*
X133923465Y-109510500D01*
X134126420Y-109470130D01*
X134317598Y-109390941D01*
X134489655Y-109275977D01*
X134635977Y-109129655D01*
X134750941Y-108957598D01*
X134830130Y-108766420D01*
X134870500Y-108563465D01*
X134870500Y-108356535D01*
X134830130Y-108153580D01*
X134750941Y-107962402D01*
X134635977Y-107790345D01*
X134489655Y-107644023D01*
X134430587Y-107604555D01*
X134317597Y-107529058D01*
X134126418Y-107449869D01*
X133923467Y-107409500D01*
X133923465Y-107409500D01*
X133316535Y-107409500D01*
X133316532Y-107409500D01*
X133113581Y-107449869D01*
X132922402Y-107529058D01*
X132750348Y-107644020D01*
X132604020Y-107790348D01*
X132489058Y-107962402D01*
X132409869Y-108153581D01*
X132369500Y-108356532D01*
X119630499Y-108356532D01*
X119590130Y-108153580D01*
X119510941Y-107962402D01*
X119395977Y-107790345D01*
X119325133Y-107719501D01*
X119297358Y-107664987D01*
X119306929Y-107604555D01*
X119350194Y-107561290D01*
X119395139Y-107550500D01*
X123747004Y-107550500D01*
X123805195Y-107569407D01*
X123834314Y-107602831D01*
X123864089Y-107658536D01*
X123864093Y-107658542D01*
X123989112Y-107810878D01*
X123989121Y-107810887D01*
X124141457Y-107935906D01*
X124141462Y-107935910D01*
X124315273Y-108028814D01*
X124503868Y-108086024D01*
X124503870Y-108086024D01*
X124503873Y-108086025D01*
X124699997Y-108105341D01*
X124700000Y-108105341D01*
X124700003Y-108105341D01*
X124896126Y-108086025D01*
X124896127Y-108086024D01*
X124896132Y-108086024D01*
X125084727Y-108028814D01*
X125258538Y-107935910D01*
X125410883Y-107810883D01*
X125535910Y-107658538D01*
X125628814Y-107484727D01*
X125686024Y-107296132D01*
X125686259Y-107293755D01*
X125705341Y-107100003D01*
X125705341Y-107099996D01*
X125705341Y-107099995D01*
X126244919Y-107099995D01*
X126244919Y-107100004D01*
X126265190Y-107305830D01*
X126265191Y-107305836D01*
X126325232Y-107503762D01*
X126325234Y-107503767D01*
X126422729Y-107686167D01*
X126442388Y-107710123D01*
X126921100Y-107231410D01*
X126927259Y-107254394D01*
X126979920Y-107345606D01*
X127054394Y-107420080D01*
X127145606Y-107472741D01*
X127168587Y-107478898D01*
X126689875Y-107957611D01*
X126713826Y-107977267D01*
X126713831Y-107977270D01*
X126896232Y-108074765D01*
X126896237Y-108074767D01*
X127094163Y-108134808D01*
X127094169Y-108134809D01*
X127299996Y-108155081D01*
X127300004Y-108155081D01*
X127505830Y-108134809D01*
X127505836Y-108134808D01*
X127703762Y-108074767D01*
X127703767Y-108074765D01*
X127886160Y-107977275D01*
X127886170Y-107977268D01*
X127910123Y-107957611D01*
X127431411Y-107478899D01*
X127454394Y-107472741D01*
X127545606Y-107420080D01*
X127620080Y-107345606D01*
X127672741Y-107254394D01*
X127678899Y-107231411D01*
X128157611Y-107710123D01*
X128177268Y-107686170D01*
X128177275Y-107686160D01*
X128274765Y-107503767D01*
X128274767Y-107503762D01*
X128334808Y-107305836D01*
X128334809Y-107305830D01*
X128355081Y-107100004D01*
X128355081Y-107099995D01*
X128334809Y-106894169D01*
X128334808Y-106894163D01*
X128274767Y-106696237D01*
X128274765Y-106696232D01*
X128177270Y-106513831D01*
X128177267Y-106513826D01*
X128157611Y-106489875D01*
X127678898Y-106968587D01*
X127672741Y-106945606D01*
X127620080Y-106854394D01*
X127545606Y-106779920D01*
X127454394Y-106727259D01*
X127431410Y-106721100D01*
X127910123Y-106242388D01*
X127910124Y-106242388D01*
X127886167Y-106222729D01*
X127703767Y-106125234D01*
X127703762Y-106125232D01*
X127505836Y-106065191D01*
X127505830Y-106065190D01*
X127300004Y-106044919D01*
X127299996Y-106044919D01*
X127094169Y-106065190D01*
X127094163Y-106065191D01*
X126896237Y-106125232D01*
X126896232Y-106125234D01*
X126713832Y-106222729D01*
X126689875Y-106242387D01*
X127168588Y-106721100D01*
X127145606Y-106727259D01*
X127054394Y-106779920D01*
X126979920Y-106854394D01*
X126927259Y-106945606D01*
X126921100Y-106968588D01*
X126442387Y-106489875D01*
X126422729Y-106513832D01*
X126325234Y-106696232D01*
X126325232Y-106696237D01*
X126265191Y-106894163D01*
X126265190Y-106894169D01*
X126244919Y-107099995D01*
X125705341Y-107099995D01*
X125686025Y-106903873D01*
X125686024Y-106903870D01*
X125686024Y-106903868D01*
X125628814Y-106715273D01*
X125620650Y-106700000D01*
X125594233Y-106650576D01*
X125535910Y-106541462D01*
X125513230Y-106513826D01*
X125410887Y-106389121D01*
X125410878Y-106389112D01*
X125258542Y-106264093D01*
X125258540Y-106264092D01*
X125258538Y-106264090D01*
X125189161Y-106227007D01*
X125084732Y-106171188D01*
X125084730Y-106171187D01*
X124896129Y-106113975D01*
X124896126Y-106113974D01*
X124700003Y-106094659D01*
X124699997Y-106094659D01*
X124503873Y-106113974D01*
X124503870Y-106113975D01*
X124315269Y-106171187D01*
X124315267Y-106171188D01*
X124141467Y-106264087D01*
X124141457Y-106264093D01*
X123989121Y-106389112D01*
X123989112Y-106389121D01*
X123864093Y-106541457D01*
X123864089Y-106541463D01*
X123834314Y-106597169D01*
X123790208Y-106639575D01*
X123747004Y-106649500D01*
X119541206Y-106649500D01*
X119483015Y-106630593D01*
X119447051Y-106581093D01*
X119447051Y-106519907D01*
X119458890Y-106495499D01*
X119504124Y-106427800D01*
X119510941Y-106417598D01*
X119590130Y-106226420D01*
X119630500Y-106023465D01*
X119630500Y-105816535D01*
X119616271Y-105745000D01*
X132334006Y-105745000D01*
X133149254Y-105745000D01*
X133120000Y-105854174D01*
X133120000Y-105985826D01*
X133149254Y-106095000D01*
X132334006Y-106095000D01*
X132347084Y-106177579D01*
X132400588Y-106342248D01*
X132479195Y-106496524D01*
X132479197Y-106496528D01*
X132580962Y-106636596D01*
X132703403Y-106759037D01*
X132843471Y-106860802D01*
X132843475Y-106860804D01*
X132997751Y-106939411D01*
X133162420Y-106992915D01*
X133333425Y-107020000D01*
X133444999Y-107020000D01*
X133445000Y-107019999D01*
X133445000Y-106390746D01*
X133554174Y-106420000D01*
X133685826Y-106420000D01*
X133795000Y-106390746D01*
X133795000Y-107019999D01*
X133795001Y-107020000D01*
X133906575Y-107020000D01*
X134077579Y-106992915D01*
X134242248Y-106939411D01*
X134396524Y-106860804D01*
X134396528Y-106860802D01*
X134536596Y-106759037D01*
X134659037Y-106636596D01*
X134760802Y-106496528D01*
X134760804Y-106496524D01*
X134839411Y-106342248D01*
X134892915Y-106177579D01*
X134905994Y-106095000D01*
X134090746Y-106095000D01*
X134120000Y-105985826D01*
X134120000Y-105854174D01*
X134090746Y-105745000D01*
X134905994Y-105745000D01*
X134892915Y-105662420D01*
X134839411Y-105497751D01*
X134760804Y-105343475D01*
X134760802Y-105343471D01*
X134659037Y-105203403D01*
X134536596Y-105080962D01*
X134396528Y-104979197D01*
X134396524Y-104979195D01*
X134242248Y-104900588D01*
X134077579Y-104847084D01*
X133906575Y-104820000D01*
X133795001Y-104820000D01*
X133795000Y-104820001D01*
X133795000Y-105449253D01*
X133685826Y-105420000D01*
X133554174Y-105420000D01*
X133445000Y-105449253D01*
X133445000Y-104820001D01*
X133444999Y-104820000D01*
X133333425Y-104820000D01*
X133162420Y-104847084D01*
X132997751Y-104900588D01*
X132843475Y-104979195D01*
X132843471Y-104979197D01*
X132703403Y-105080962D01*
X132580962Y-105203403D01*
X132479197Y-105343471D01*
X132479195Y-105343475D01*
X132400588Y-105497751D01*
X132347084Y-105662420D01*
X132334006Y-105745000D01*
X119616271Y-105745000D01*
X119590130Y-105613580D01*
X119510941Y-105422402D01*
X119395977Y-105250345D01*
X119249655Y-105104023D01*
X119215142Y-105080962D01*
X119077597Y-104989058D01*
X118886418Y-104909869D01*
X118683467Y-104869500D01*
X118683465Y-104869500D01*
X118076535Y-104869500D01*
X118076532Y-104869500D01*
X117873581Y-104909869D01*
X117682402Y-104989058D01*
X117510348Y-105104020D01*
X117364020Y-105250348D01*
X117249058Y-105422402D01*
X117169869Y-105613581D01*
X117129500Y-105816532D01*
X117129500Y-106023467D01*
X117169869Y-106226418D01*
X117249058Y-106417597D01*
X117301110Y-106495499D01*
X117317718Y-106554387D01*
X117296540Y-106611791D01*
X117245666Y-106645783D01*
X117218794Y-106649500D01*
X114851912Y-106649500D01*
X114793721Y-106630593D01*
X114781908Y-106620504D01*
X113005908Y-104844504D01*
X112978131Y-104789987D01*
X112987702Y-104729555D01*
X113030967Y-104686290D01*
X113075912Y-104675500D01*
X113629273Y-104675500D01*
X113629273Y-104675499D01*
X113659699Y-104672646D01*
X113787882Y-104627793D01*
X113897150Y-104547150D01*
X113977793Y-104437882D01*
X114022646Y-104309699D01*
X114025499Y-104279273D01*
X114025500Y-104279273D01*
X114025500Y-103871544D01*
X114044407Y-103813353D01*
X114054489Y-103801547D01*
X114071544Y-103784493D01*
X114126061Y-103756718D01*
X114141545Y-103755500D01*
X117030500Y-103755500D01*
X117088691Y-103774407D01*
X117124655Y-103823907D01*
X117129500Y-103854500D01*
X117129500Y-104204672D01*
X117129501Y-104204684D01*
X117144033Y-104277736D01*
X117144035Y-104277742D01*
X117199397Y-104360599D01*
X117199400Y-104360602D01*
X117259113Y-104400500D01*
X117282260Y-104415966D01*
X117337808Y-104427015D01*
X117355315Y-104430498D01*
X117355320Y-104430498D01*
X117355326Y-104430500D01*
X117355327Y-104430500D01*
X119404673Y-104430500D01*
X119404674Y-104430500D01*
X119477740Y-104415966D01*
X119560601Y-104360601D01*
X119615966Y-104277740D01*
X119630500Y-104204674D01*
X119630500Y-103276532D01*
X132369500Y-103276532D01*
X132369500Y-103483467D01*
X132409869Y-103686418D01*
X132489058Y-103877597D01*
X132595235Y-104036503D01*
X132604023Y-104049655D01*
X132750345Y-104195977D01*
X132922402Y-104310941D01*
X133113580Y-104390130D01*
X133316535Y-104430500D01*
X133316536Y-104430500D01*
X133923464Y-104430500D01*
X133923465Y-104430500D01*
X134126420Y-104390130D01*
X134317598Y-104310941D01*
X134489655Y-104195977D01*
X134635977Y-104049655D01*
X134750941Y-103877598D01*
X134830130Y-103686420D01*
X134870500Y-103483465D01*
X134870500Y-103276535D01*
X134830130Y-103073580D01*
X134750941Y-102882402D01*
X134635977Y-102710345D01*
X134489655Y-102564023D01*
X134489651Y-102564020D01*
X134434439Y-102527129D01*
X138149500Y-102527129D01*
X138149500Y-103872866D01*
X138149501Y-103872870D01*
X138155908Y-103932480D01*
X138155909Y-103932485D01*
X138206202Y-104067329D01*
X138263575Y-104143969D01*
X138292454Y-104182546D01*
X138407669Y-104268796D01*
X138485097Y-104297674D01*
X138533010Y-104335723D01*
X138549500Y-104390432D01*
X138549500Y-106922008D01*
X138573207Y-107010487D01*
X138580201Y-107036588D01*
X138580202Y-107036590D01*
X138639507Y-107139309D01*
X138639509Y-107139311D01*
X138639511Y-107139314D01*
X138996305Y-107496108D01*
X139024081Y-107550623D01*
X139025300Y-107566110D01*
X139025300Y-109301000D01*
X139006393Y-109359191D01*
X138956893Y-109395155D01*
X138926300Y-109400000D01*
X138512501Y-109400000D01*
X138512500Y-109400001D01*
X138512500Y-110599998D01*
X138512501Y-110599999D01*
X138926300Y-110599999D01*
X138984491Y-110618906D01*
X139020455Y-110668406D01*
X139025300Y-110698999D01*
X139025300Y-110704773D01*
X139025300Y-110810227D01*
X139048425Y-110896532D01*
X139052594Y-110912092D01*
X139105319Y-111003413D01*
X139192173Y-111090265D01*
X139192176Y-111090269D01*
X139192177Y-111090269D01*
X139197819Y-111095911D01*
X139197820Y-111095913D01*
X139272387Y-111170480D01*
X139300888Y-111186935D01*
X139363712Y-111223207D01*
X139465573Y-111250501D01*
X139465575Y-111250501D01*
X139499553Y-111250501D01*
X139557744Y-111269408D01*
X139581869Y-111294500D01*
X139639397Y-111380599D01*
X139639400Y-111380602D01*
X139710413Y-111428050D01*
X139722260Y-111435966D01*
X139777808Y-111447015D01*
X139795315Y-111450498D01*
X139795320Y-111450498D01*
X139795326Y-111450500D01*
X139795327Y-111450500D01*
X141344673Y-111450500D01*
X141344674Y-111450500D01*
X141417740Y-111435966D01*
X141500601Y-111380601D01*
X141555966Y-111297740D01*
X141570500Y-111224674D01*
X141570500Y-110550553D01*
X141589407Y-110492362D01*
X141638907Y-110456398D01*
X141700093Y-110456398D01*
X141749593Y-110492362D01*
X141751810Y-110495544D01*
X141785886Y-110546542D01*
X141785889Y-110546545D01*
X141883458Y-110644114D01*
X141998182Y-110720771D01*
X141998193Y-110720777D01*
X142023847Y-110731403D01*
X142125672Y-110773580D01*
X142261007Y-110800500D01*
X142261008Y-110800500D01*
X142398992Y-110800500D01*
X142398993Y-110800500D01*
X142534328Y-110773580D01*
X142661811Y-110720775D01*
X142776542Y-110644114D01*
X142874114Y-110546542D01*
X142950775Y-110431811D01*
X143003580Y-110304328D01*
X143030500Y-110168993D01*
X143030500Y-110031007D01*
X143003580Y-109895672D01*
X142985978Y-109853177D01*
X142950777Y-109768193D01*
X142950771Y-109768182D01*
X142874114Y-109653458D01*
X142776541Y-109555885D01*
X142661817Y-109479228D01*
X142661806Y-109479222D01*
X142534328Y-109426420D01*
X142398995Y-109399500D01*
X142398993Y-109399500D01*
X142261007Y-109399500D01*
X142261004Y-109399500D01*
X142125672Y-109426420D01*
X142125670Y-109426420D01*
X141998193Y-109479222D01*
X141998182Y-109479228D01*
X141883458Y-109555885D01*
X141785889Y-109653454D01*
X141785886Y-109653457D01*
X141785886Y-109653458D01*
X141754448Y-109700508D01*
X141751815Y-109704449D01*
X141703764Y-109742327D01*
X141642626Y-109744729D01*
X141591753Y-109710735D01*
X141570576Y-109653331D01*
X141570500Y-109649446D01*
X141570500Y-108975327D01*
X141570498Y-108975315D01*
X141563960Y-108942450D01*
X141555966Y-108902260D01*
X141524054Y-108854500D01*
X141507447Y-108795613D01*
X141528625Y-108738209D01*
X141579499Y-108704217D01*
X141606371Y-108700500D01*
X141644673Y-108700500D01*
X141644674Y-108700500D01*
X141717740Y-108685966D01*
X141800601Y-108630601D01*
X141855966Y-108547740D01*
X141870500Y-108474674D01*
X141870500Y-107425327D01*
X142779500Y-107425327D01*
X142779500Y-108474672D01*
X142779501Y-108474684D01*
X142794033Y-108547736D01*
X142794035Y-108547742D01*
X142849397Y-108630599D01*
X142849399Y-108630601D01*
X142932260Y-108685966D01*
X142987808Y-108697015D01*
X143005315Y-108700498D01*
X143005320Y-108700498D01*
X143005326Y-108700500D01*
X143005327Y-108700500D01*
X143854673Y-108700500D01*
X143854674Y-108700500D01*
X143927740Y-108685966D01*
X144010601Y-108630601D01*
X144065966Y-108547740D01*
X144080500Y-108474674D01*
X144080500Y-107425326D01*
X144079456Y-107420080D01*
X144070585Y-107375481D01*
X144065966Y-107352260D01*
X144010601Y-107269399D01*
X144010599Y-107269397D01*
X143927742Y-107214035D01*
X143927740Y-107214034D01*
X143927737Y-107214033D01*
X143927736Y-107214033D01*
X143854684Y-107199501D01*
X143854674Y-107199500D01*
X143005326Y-107199500D01*
X143005325Y-107199500D01*
X143005315Y-107199501D01*
X142932263Y-107214033D01*
X142932257Y-107214035D01*
X142849400Y-107269397D01*
X142849397Y-107269400D01*
X142794035Y-107352257D01*
X142794033Y-107352263D01*
X142779501Y-107425315D01*
X142779500Y-107425327D01*
X141870500Y-107425327D01*
X141870500Y-107425326D01*
X141869456Y-107420080D01*
X141860585Y-107375481D01*
X141855966Y-107352260D01*
X141800601Y-107269399D01*
X141800599Y-107269397D01*
X141717742Y-107214035D01*
X141717740Y-107214034D01*
X141717737Y-107214033D01*
X141717736Y-107214033D01*
X141644684Y-107199501D01*
X141644674Y-107199500D01*
X140795326Y-107199500D01*
X140795325Y-107199500D01*
X140795315Y-107199501D01*
X140722263Y-107214033D01*
X140722257Y-107214035D01*
X140639400Y-107269397D01*
X140639397Y-107269400D01*
X140584035Y-107352257D01*
X140584033Y-107352263D01*
X140569501Y-107425315D01*
X140569500Y-107425327D01*
X140569500Y-108474672D01*
X140569501Y-108474684D01*
X140584033Y-108547736D01*
X140584035Y-108547742D01*
X140615945Y-108595499D01*
X140632553Y-108654387D01*
X140611375Y-108711791D01*
X140560501Y-108745783D01*
X140533629Y-108749500D01*
X139925300Y-108749500D01*
X139867109Y-108730593D01*
X139831145Y-108681093D01*
X139826300Y-108650500D01*
X139826300Y-107522340D01*
X139839564Y-107472838D01*
X139845599Y-107462387D01*
X139876299Y-107347809D01*
X139876299Y-107229191D01*
X139845599Y-107114613D01*
X139842656Y-107109515D01*
X139786292Y-107011890D01*
X139786288Y-107011885D01*
X139479496Y-106705092D01*
X139451719Y-106650576D01*
X139450500Y-106635089D01*
X139450500Y-104390432D01*
X139469407Y-104332241D01*
X139514902Y-104297674D01*
X139592331Y-104268796D01*
X139707546Y-104182546D01*
X139793796Y-104067331D01*
X139800740Y-104048715D01*
X139829880Y-103970584D01*
X139844091Y-103932483D01*
X139850500Y-103872873D01*
X139850499Y-102836355D01*
X140100000Y-102836355D01*
X140100000Y-103024999D01*
X140100001Y-103025000D01*
X140668024Y-103025000D01*
X140650556Y-103055255D01*
X140625000Y-103150630D01*
X140625000Y-103249370D01*
X140650556Y-103344745D01*
X140668024Y-103375000D01*
X140100001Y-103375000D01*
X140100000Y-103375001D01*
X140100000Y-103563644D01*
X140134586Y-103737519D01*
X140134586Y-103737521D01*
X140202429Y-103901308D01*
X140300923Y-104048715D01*
X140426284Y-104174076D01*
X140573691Y-104272570D01*
X140737473Y-104340411D01*
X140737484Y-104340414D01*
X140825000Y-104357821D01*
X140825000Y-103531976D01*
X140855255Y-103549444D01*
X140950630Y-103575000D01*
X141049370Y-103575000D01*
X141144745Y-103549444D01*
X141175000Y-103531976D01*
X141175000Y-104357820D01*
X141262515Y-104340414D01*
X141262526Y-104340411D01*
X141426308Y-104272570D01*
X141573715Y-104174076D01*
X141699076Y-104048715D01*
X141797570Y-103901308D01*
X141865413Y-103737521D01*
X141865413Y-103737519D01*
X141899999Y-103563644D01*
X141900000Y-103563641D01*
X141900000Y-103375001D01*
X141899999Y-103375000D01*
X141331976Y-103375000D01*
X141349444Y-103344745D01*
X141375000Y-103249370D01*
X141375000Y-103150630D01*
X141349444Y-103055255D01*
X141331976Y-103025000D01*
X141899999Y-103025000D01*
X141900000Y-103024999D01*
X141900000Y-102836358D01*
X141899999Y-102836355D01*
X141865413Y-102662480D01*
X141865413Y-102662478D01*
X141797570Y-102498691D01*
X141699076Y-102351284D01*
X141573715Y-102225923D01*
X141426308Y-102127429D01*
X141262520Y-102059586D01*
X141175000Y-102042177D01*
X141175000Y-102868023D01*
X141144745Y-102850556D01*
X141049370Y-102825000D01*
X140950630Y-102825000D01*
X140855255Y-102850556D01*
X140825000Y-102868023D01*
X140825000Y-102042177D01*
X140737480Y-102059586D01*
X140737478Y-102059586D01*
X140573691Y-102127429D01*
X140426284Y-102225923D01*
X140300923Y-102351284D01*
X140202429Y-102498691D01*
X140134586Y-102662478D01*
X140134586Y-102662480D01*
X140100000Y-102836355D01*
X139850499Y-102836355D01*
X139850499Y-102527128D01*
X139844091Y-102467517D01*
X139818684Y-102399397D01*
X139793797Y-102332670D01*
X139707549Y-102217458D01*
X139707548Y-102217457D01*
X139707546Y-102217454D01*
X139707541Y-102217450D01*
X139592329Y-102131202D01*
X139457488Y-102080910D01*
X139457483Y-102080909D01*
X139457481Y-102080908D01*
X139457477Y-102080908D01*
X139426249Y-102077550D01*
X139397873Y-102074500D01*
X139397870Y-102074500D01*
X138602133Y-102074500D01*
X138602129Y-102074500D01*
X138602128Y-102074501D01*
X138594949Y-102075272D01*
X138542519Y-102080908D01*
X138542514Y-102080909D01*
X138407670Y-102131202D01*
X138292458Y-102217450D01*
X138292450Y-102217458D01*
X138206202Y-102332670D01*
X138155910Y-102467511D01*
X138155908Y-102467522D01*
X138149500Y-102527129D01*
X134434439Y-102527129D01*
X134317597Y-102449058D01*
X134126418Y-102369869D01*
X133923467Y-102329500D01*
X133923465Y-102329500D01*
X133316535Y-102329500D01*
X133316532Y-102329500D01*
X133113581Y-102369869D01*
X132922402Y-102449058D01*
X132750348Y-102564020D01*
X132604020Y-102710348D01*
X132489058Y-102882402D01*
X132409869Y-103073581D01*
X132369500Y-103276532D01*
X119630500Y-103276532D01*
X119630500Y-102555326D01*
X119629440Y-102549999D01*
X119619234Y-102498691D01*
X119615966Y-102482260D01*
X119560601Y-102399399D01*
X119560599Y-102399397D01*
X119477742Y-102344035D01*
X119477740Y-102344034D01*
X119477737Y-102344033D01*
X119477736Y-102344033D01*
X119404684Y-102329501D01*
X119404674Y-102329500D01*
X117355326Y-102329500D01*
X117355325Y-102329500D01*
X117355315Y-102329501D01*
X117282263Y-102344033D01*
X117282257Y-102344035D01*
X117199400Y-102399397D01*
X117199397Y-102399400D01*
X117144035Y-102482257D01*
X117144033Y-102482263D01*
X117129501Y-102555315D01*
X117129500Y-102555327D01*
X117129500Y-102905500D01*
X117110593Y-102963691D01*
X117061093Y-102999655D01*
X117030500Y-103004500D01*
X114014030Y-103004500D01*
X113955839Y-102985593D01*
X113919875Y-102936093D01*
X113919875Y-102874907D01*
X113934375Y-102846712D01*
X113977792Y-102787883D01*
X113977791Y-102787883D01*
X113977793Y-102787882D01*
X114022646Y-102659699D01*
X114025499Y-102629273D01*
X114025500Y-102629273D01*
X114025500Y-102120727D01*
X114025499Y-102120725D01*
X114022646Y-102090305D01*
X114022646Y-102090301D01*
X113977793Y-101962118D01*
X113897150Y-101852850D01*
X113897146Y-101852847D01*
X113897144Y-101852845D01*
X113787883Y-101772207D01*
X113659703Y-101727355D01*
X113659694Y-101727353D01*
X113629274Y-101724500D01*
X113629266Y-101724500D01*
X113221545Y-101724500D01*
X113163354Y-101705593D01*
X113151541Y-101695504D01*
X112955563Y-101499526D01*
X112955563Y-101499525D01*
X112869941Y-101450091D01*
X112869934Y-101450088D01*
X112822185Y-101437294D01*
X112822184Y-101437294D01*
X112774438Y-101424500D01*
X112774436Y-101424500D01*
X112774435Y-101424500D01*
X110819519Y-101424500D01*
X110761328Y-101405593D01*
X110725364Y-101356093D01*
X110721086Y-101336079D01*
X110720977Y-101335069D01*
X110719091Y-101317517D01*
X110685668Y-101227904D01*
X110668797Y-101182670D01*
X110582549Y-101067458D01*
X110582548Y-101067457D01*
X110582546Y-101067454D01*
X110582541Y-101067450D01*
X110467329Y-100981202D01*
X110332488Y-100930910D01*
X110332483Y-100930909D01*
X110332481Y-100930908D01*
X110332477Y-100930908D01*
X110301249Y-100927550D01*
X110272873Y-100924500D01*
X110272870Y-100924500D01*
X108927133Y-100924500D01*
X108927129Y-100924500D01*
X108927128Y-100924501D01*
X108919949Y-100925272D01*
X108867519Y-100930908D01*
X108867514Y-100930909D01*
X108732670Y-100981202D01*
X108617458Y-101067450D01*
X108617450Y-101067458D01*
X108531202Y-101182670D01*
X108480910Y-101317511D01*
X108480908Y-101317522D01*
X108474500Y-101377129D01*
X108474500Y-102222866D01*
X108474501Y-102222870D01*
X108480908Y-102282480D01*
X108480909Y-102282485D01*
X108531202Y-102417329D01*
X108592110Y-102498691D01*
X108617454Y-102532546D01*
X108617457Y-102532548D01*
X108617458Y-102532549D01*
X108732670Y-102618797D01*
X108867511Y-102669089D01*
X108867512Y-102669089D01*
X108867517Y-102669091D01*
X108927127Y-102675500D01*
X110272872Y-102675499D01*
X110332483Y-102669091D01*
X110439241Y-102629273D01*
X110467329Y-102618797D01*
X110467329Y-102618796D01*
X110467331Y-102618796D01*
X110582546Y-102532546D01*
X110668796Y-102417331D01*
X110678034Y-102392564D01*
X110719089Y-102282488D01*
X110719090Y-102282485D01*
X110719091Y-102282483D01*
X110721087Y-102263916D01*
X110746107Y-102208081D01*
X110799167Y-102177615D01*
X110819520Y-102175500D01*
X112475500Y-102175500D01*
X112533691Y-102194407D01*
X112569655Y-102243907D01*
X112574500Y-102274500D01*
X112574500Y-102629274D01*
X112577353Y-102659694D01*
X112577355Y-102659703D01*
X112622207Y-102787883D01*
X112702845Y-102897144D01*
X112702847Y-102897146D01*
X112702850Y-102897150D01*
X112702853Y-102897152D01*
X112702855Y-102897154D01*
X112812116Y-102977792D01*
X112812117Y-102977792D01*
X112812118Y-102977793D01*
X112940301Y-103022646D01*
X112970725Y-103025499D01*
X112970727Y-103025500D01*
X113529455Y-103025500D01*
X113587646Y-103044407D01*
X113623610Y-103093907D01*
X113623610Y-103155093D01*
X113599458Y-103194504D01*
X113448457Y-103345504D01*
X113393941Y-103373281D01*
X113378454Y-103374500D01*
X112970725Y-103374500D01*
X112940305Y-103377353D01*
X112940296Y-103377355D01*
X112812116Y-103422207D01*
X112702855Y-103502845D01*
X112702845Y-103502855D01*
X112622207Y-103612116D01*
X112577355Y-103740296D01*
X112577353Y-103740305D01*
X112574500Y-103770725D01*
X112574500Y-104174089D01*
X112555593Y-104232280D01*
X112506093Y-104268244D01*
X112444907Y-104268244D01*
X112405496Y-104244093D01*
X111916903Y-103755500D01*
X111410614Y-103249211D01*
X111410611Y-103249209D01*
X111410610Y-103249208D01*
X111410609Y-103249207D01*
X111307890Y-103189902D01*
X111307886Y-103189900D01*
X111283673Y-103183412D01*
X111283673Y-103183413D01*
X111193309Y-103159200D01*
X108615291Y-103159200D01*
X108500718Y-103189900D01*
X108500714Y-103189901D01*
X108397986Y-103249210D01*
X107114508Y-104532689D01*
X107114507Y-104532690D01*
X107055202Y-104635409D01*
X107055201Y-104635412D01*
X107051456Y-104649385D01*
X107051457Y-104649386D01*
X107037062Y-104703111D01*
X107024500Y-104749992D01*
X107024500Y-106134822D01*
X107005593Y-106193013D01*
X106956093Y-106228977D01*
X106894907Y-106228977D01*
X106846247Y-106194151D01*
X106807549Y-106142458D01*
X106807548Y-106142457D01*
X106807546Y-106142454D01*
X106784543Y-106125234D01*
X106692329Y-106056202D01*
X106557488Y-106005910D01*
X106557483Y-106005909D01*
X106557481Y-106005908D01*
X106557477Y-106005908D01*
X106526249Y-106002550D01*
X106497873Y-105999500D01*
X106497870Y-105999500D01*
X106027611Y-105999500D01*
X105969420Y-105980593D01*
X105957607Y-105970504D01*
X105806796Y-105819693D01*
X105779019Y-105765176D01*
X105777800Y-105749689D01*
X105777800Y-105702011D01*
X105796707Y-105643820D01*
X105806796Y-105632007D01*
X106095332Y-105343471D01*
X106460490Y-104978314D01*
X106519799Y-104875587D01*
X106530409Y-104835989D01*
X106550500Y-104761009D01*
X106550500Y-104670447D01*
X106569407Y-104612256D01*
X106594500Y-104588131D01*
X106680597Y-104530604D01*
X106680597Y-104530603D01*
X106680601Y-104530601D01*
X106735966Y-104447740D01*
X106750500Y-104374674D01*
X106750500Y-101625326D01*
X106735966Y-101552260D01*
X106735964Y-101552257D01*
X106680602Y-101469400D01*
X106680599Y-101469397D01*
X106597742Y-101414035D01*
X106597740Y-101414034D01*
X106597737Y-101414033D01*
X106597736Y-101414033D01*
X106524684Y-101399501D01*
X106524674Y-101399500D01*
X105675326Y-101399500D01*
X105675325Y-101399500D01*
X105675315Y-101399501D01*
X105602263Y-101414033D01*
X105602257Y-101414035D01*
X105519400Y-101469397D01*
X105519397Y-101469400D01*
X105464035Y-101552257D01*
X105464033Y-101552263D01*
X105449501Y-101625315D01*
X105449500Y-101625327D01*
X105449500Y-103105449D01*
X105430593Y-103163640D01*
X105381093Y-103199604D01*
X105319907Y-103199604D01*
X105290233Y-103183991D01*
X105189429Y-103106642D01*
X105189428Y-103106641D01*
X105189425Y-103106639D01*
X105189422Y-103106638D01*
X105189421Y-103106637D01*
X105055509Y-103051170D01*
X105055508Y-103051169D01*
X104911800Y-103032250D01*
X104768093Y-103051169D01*
X104687384Y-103084599D01*
X104626387Y-103089398D01*
X104574219Y-103057428D01*
X104550805Y-103000900D01*
X104550500Y-102993134D01*
X104550500Y-101625327D01*
X104550498Y-101625315D01*
X104540489Y-101574999D01*
X104535966Y-101552260D01*
X104535964Y-101552257D01*
X104480602Y-101469400D01*
X104480599Y-101469397D01*
X104397742Y-101414035D01*
X104397740Y-101414034D01*
X104397737Y-101414033D01*
X104397736Y-101414033D01*
X104324684Y-101399501D01*
X104324674Y-101399500D01*
X103475326Y-101399500D01*
X103475325Y-101399500D01*
X103475315Y-101399501D01*
X103402263Y-101414033D01*
X103402257Y-101414035D01*
X103319400Y-101469397D01*
X103319397Y-101469400D01*
X103264035Y-101552257D01*
X103264033Y-101552263D01*
X103249501Y-101625315D01*
X103249500Y-101625327D01*
X103249500Y-104023389D01*
X103230593Y-104081580D01*
X103181093Y-104117544D01*
X103119907Y-104117544D01*
X103080496Y-104093393D01*
X103004495Y-104017392D01*
X102976718Y-103962875D01*
X102975499Y-103947400D01*
X102975499Y-103352128D01*
X102969091Y-103292517D01*
X102969089Y-103292511D01*
X102918797Y-103157670D01*
X102832549Y-103042458D01*
X102832548Y-103042457D01*
X102832546Y-103042454D01*
X102832541Y-103042450D01*
X102717329Y-102956202D01*
X102582488Y-102905910D01*
X102582483Y-102905909D01*
X102582481Y-102905908D01*
X102582477Y-102905908D01*
X102551249Y-102902550D01*
X102522873Y-102899500D01*
X102522870Y-102899500D01*
X101477133Y-102899500D01*
X101477129Y-102899500D01*
X101477128Y-102899501D01*
X101473184Y-102899925D01*
X101417519Y-102905908D01*
X101417514Y-102905909D01*
X101282670Y-102956202D01*
X101167458Y-103042450D01*
X101167450Y-103042458D01*
X101081202Y-103157670D01*
X101030910Y-103292511D01*
X101030908Y-103292522D01*
X101024500Y-103352129D01*
X101024500Y-103947866D01*
X101024501Y-103947870D01*
X101030908Y-104007480D01*
X101030909Y-104007485D01*
X101081202Y-104142329D01*
X101127874Y-104204674D01*
X101167454Y-104257546D01*
X101167457Y-104257548D01*
X101167458Y-104257549D01*
X101282670Y-104343797D01*
X101417511Y-104394089D01*
X101417512Y-104394089D01*
X101417517Y-104394091D01*
X101477127Y-104400500D01*
X102072388Y-104400499D01*
X102130579Y-104419406D01*
X102142392Y-104429495D01*
X102775086Y-105062189D01*
X102834396Y-105096431D01*
X102877814Y-105121499D01*
X102992391Y-105152200D01*
X102992393Y-105152200D01*
X103959307Y-105152200D01*
X103959309Y-105152200D01*
X104073886Y-105121499D01*
X104073888Y-105121497D01*
X104073890Y-105121497D01*
X104176608Y-105062192D01*
X104176608Y-105062191D01*
X104176613Y-105062189D01*
X104260489Y-104978313D01*
X104319799Y-104875586D01*
X104350500Y-104761009D01*
X104350500Y-104703111D01*
X104369407Y-104644920D01*
X104379496Y-104633107D01*
X104840857Y-104171746D01*
X104895374Y-104143969D01*
X104910861Y-104142750D01*
X104911800Y-104142750D01*
X105055509Y-104123830D01*
X105189425Y-104068361D01*
X105290233Y-103991007D01*
X105347908Y-103970584D01*
X105406574Y-103987961D01*
X105443821Y-104036503D01*
X105449500Y-104069550D01*
X105449500Y-104374672D01*
X105449501Y-104374684D01*
X105462073Y-104437882D01*
X105464034Y-104447740D01*
X105514988Y-104524000D01*
X105520161Y-104531741D01*
X105536769Y-104590629D01*
X105515591Y-104648033D01*
X105507849Y-104656745D01*
X104966811Y-105197785D01*
X104966807Y-105197790D01*
X104907500Y-105300512D01*
X104907500Y-105300513D01*
X104907501Y-105300514D01*
X104876800Y-105415092D01*
X104876800Y-105427800D01*
X104857893Y-105485991D01*
X104808393Y-105521955D01*
X104777800Y-105526800D01*
X102075891Y-105526800D01*
X102005767Y-105545589D01*
X101961309Y-105557502D01*
X101949183Y-105564504D01*
X101858586Y-105616810D01*
X101404891Y-106070504D01*
X101350375Y-106098281D01*
X101334888Y-106099500D01*
X100918479Y-106099500D01*
X100918476Y-106099501D01*
X100824700Y-106114352D01*
X100824695Y-106114354D01*
X100711659Y-106171949D01*
X100711658Y-106171949D01*
X100711658Y-106171950D01*
X100669501Y-106214106D01*
X100614987Y-106241882D01*
X100554555Y-106232311D01*
X100511290Y-106189046D01*
X100500500Y-106144101D01*
X100500500Y-101925001D01*
X100975000Y-101925001D01*
X100975000Y-102043064D01*
X100985613Y-102131443D01*
X101041080Y-102272095D01*
X101132435Y-102392564D01*
X101252904Y-102483919D01*
X101393556Y-102539386D01*
X101481935Y-102549999D01*
X101481942Y-102550000D01*
X101824999Y-102550000D01*
X101825000Y-102549999D01*
X101825000Y-101925001D01*
X102175000Y-101925001D01*
X102175000Y-102549999D01*
X102175001Y-102550000D01*
X102518058Y-102550000D01*
X102518064Y-102549999D01*
X102606443Y-102539386D01*
X102747095Y-102483919D01*
X102867564Y-102392564D01*
X102958919Y-102272095D01*
X103014386Y-102131443D01*
X103024999Y-102043064D01*
X103025000Y-102043058D01*
X103025000Y-101925001D01*
X103024999Y-101925000D01*
X102175001Y-101925000D01*
X102175000Y-101925001D01*
X101825000Y-101925001D01*
X101824999Y-101925000D01*
X100975001Y-101925000D01*
X100975000Y-101925001D01*
X100500500Y-101925001D01*
X100500500Y-101504319D01*
X100500877Y-101495691D01*
X100504268Y-101456935D01*
X100975000Y-101456935D01*
X100975000Y-101574999D01*
X100975001Y-101575000D01*
X101824999Y-101575000D01*
X101825000Y-101574999D01*
X101825000Y-100950001D01*
X102175000Y-100950001D01*
X102175000Y-101574999D01*
X102175001Y-101575000D01*
X103024999Y-101575000D01*
X103025000Y-101574999D01*
X103025000Y-101456941D01*
X103024999Y-101456935D01*
X103014386Y-101368556D01*
X102958919Y-101227904D01*
X102867564Y-101107435D01*
X102747095Y-101016080D01*
X102606443Y-100960613D01*
X102518064Y-100950000D01*
X102175001Y-100950000D01*
X102175000Y-100950001D01*
X101825000Y-100950001D01*
X101824999Y-100950000D01*
X101481935Y-100950000D01*
X101393556Y-100960613D01*
X101252904Y-101016080D01*
X101132435Y-101107435D01*
X101041080Y-101227904D01*
X100985613Y-101368556D01*
X100975000Y-101456935D01*
X100504268Y-101456935D01*
X100514930Y-101335060D01*
X100517922Y-101318086D01*
X100558538Y-101166504D01*
X100564434Y-101150308D01*
X100630751Y-101008092D01*
X100639371Y-100993161D01*
X100729373Y-100864625D01*
X100740454Y-100851418D01*
X100851418Y-100740454D01*
X100864625Y-100729373D01*
X100993161Y-100639371D01*
X101008092Y-100630751D01*
X101150308Y-100564434D01*
X101166504Y-100558538D01*
X101318086Y-100517922D01*
X101335060Y-100514930D01*
X101480668Y-100502191D01*
X101495692Y-100500877D01*
X101504320Y-100500500D01*
X101565892Y-100500500D01*
X143434108Y-100500500D01*
X143495680Y-100500500D01*
X143504308Y-100500877D01*
G37*
%TD.AperFunction*%
%TD*%
M02*
