%TF.GenerationSoftware,KiCad,Pcbnew,8.0.4*%
%TF.CreationDate,2026-10-01T15:00:12-05:00*%
%TF.ProjectId,Miliohmimetro_PCB,4d696c69-6f68-46d6-996d-6574726f5f50,rev?*%
%TF.SameCoordinates,Original*%
%TF.FileFunction,Legend,Top*%
%TF.FilePolarity,Positive*%
%FSLAX46Y46*%
G04 Gerber Fmt 4.6, Leading zero omitted, Abs format (unit mm)*
G04 Created by KiCad (PCBNEW 8.0.4) date 2026-10-01 15:00:12*
%MOMM*%
%LPD*%
G01*
G04 APERTURE LIST*
%ADD10C,0.120000*%
%ADD11C,0.130000*%
G04 APERTURE END LIST*
D10*
X132854762Y-128213855D02*
X132854762Y-127413855D01*
X133235714Y-127909093D02*
X133845238Y-127909093D01*
X133540476Y-128213855D02*
X133540476Y-127604331D01*
X136276190Y-128175760D02*
X136390476Y-128213855D01*
X136390476Y-128213855D02*
X136580952Y-128213855D01*
X136580952Y-128213855D02*
X136657143Y-128175760D01*
X136657143Y-128175760D02*
X136695238Y-128137664D01*
X136695238Y-128137664D02*
X136733333Y-128061474D01*
X136733333Y-128061474D02*
X136733333Y-127985283D01*
X136733333Y-127985283D02*
X136695238Y-127909093D01*
X136695238Y-127909093D02*
X136657143Y-127870998D01*
X136657143Y-127870998D02*
X136580952Y-127832902D01*
X136580952Y-127832902D02*
X136428571Y-127794807D01*
X136428571Y-127794807D02*
X136352381Y-127756712D01*
X136352381Y-127756712D02*
X136314286Y-127718617D01*
X136314286Y-127718617D02*
X136276190Y-127642426D01*
X136276190Y-127642426D02*
X136276190Y-127566236D01*
X136276190Y-127566236D02*
X136314286Y-127490045D01*
X136314286Y-127490045D02*
X136352381Y-127451950D01*
X136352381Y-127451950D02*
X136428571Y-127413855D01*
X136428571Y-127413855D02*
X136619048Y-127413855D01*
X136619048Y-127413855D02*
X136733333Y-127451950D01*
X137076191Y-127909093D02*
X137685715Y-127909093D01*
X143663855Y-132409523D02*
X143282902Y-132676190D01*
X143663855Y-132866666D02*
X142863855Y-132866666D01*
X142863855Y-132866666D02*
X142863855Y-132561904D01*
X142863855Y-132561904D02*
X142901950Y-132485714D01*
X142901950Y-132485714D02*
X142940045Y-132447619D01*
X142940045Y-132447619D02*
X143016236Y-132409523D01*
X143016236Y-132409523D02*
X143130521Y-132409523D01*
X143130521Y-132409523D02*
X143206712Y-132447619D01*
X143206712Y-132447619D02*
X143244807Y-132485714D01*
X143244807Y-132485714D02*
X143282902Y-132561904D01*
X143282902Y-132561904D02*
X143282902Y-132866666D01*
X143740045Y-132257143D02*
X143740045Y-131647619D01*
X142863855Y-131571428D02*
X142863855Y-131114285D01*
X143663855Y-131342857D02*
X142863855Y-131342857D01*
X143244807Y-130847618D02*
X143244807Y-130580952D01*
X143663855Y-130466666D02*
X143663855Y-130847618D01*
X143663855Y-130847618D02*
X142863855Y-130847618D01*
X142863855Y-130847618D02*
X142863855Y-130466666D01*
X143625760Y-130161904D02*
X143663855Y-130047618D01*
X143663855Y-130047618D02*
X143663855Y-129857142D01*
X143663855Y-129857142D02*
X143625760Y-129780951D01*
X143625760Y-129780951D02*
X143587664Y-129742856D01*
X143587664Y-129742856D02*
X143511474Y-129704761D01*
X143511474Y-129704761D02*
X143435283Y-129704761D01*
X143435283Y-129704761D02*
X143359093Y-129742856D01*
X143359093Y-129742856D02*
X143320998Y-129780951D01*
X143320998Y-129780951D02*
X143282902Y-129857142D01*
X143282902Y-129857142D02*
X143244807Y-130009523D01*
X143244807Y-130009523D02*
X143206712Y-130085713D01*
X143206712Y-130085713D02*
X143168617Y-130123808D01*
X143168617Y-130123808D02*
X143092426Y-130161904D01*
X143092426Y-130161904D02*
X143016236Y-130161904D01*
X143016236Y-130161904D02*
X142940045Y-130123808D01*
X142940045Y-130123808D02*
X142901950Y-130085713D01*
X142901950Y-130085713D02*
X142863855Y-130009523D01*
X142863855Y-130009523D02*
X142863855Y-129819046D01*
X142863855Y-129819046D02*
X142901950Y-129704761D01*
X142863855Y-129476189D02*
X142863855Y-129019046D01*
X143663855Y-129247618D02*
X142863855Y-129247618D01*
X134276190Y-128175760D02*
X134390476Y-128213855D01*
X134390476Y-128213855D02*
X134580952Y-128213855D01*
X134580952Y-128213855D02*
X134657143Y-128175760D01*
X134657143Y-128175760D02*
X134695238Y-128137664D01*
X134695238Y-128137664D02*
X134733333Y-128061474D01*
X134733333Y-128061474D02*
X134733333Y-127985283D01*
X134733333Y-127985283D02*
X134695238Y-127909093D01*
X134695238Y-127909093D02*
X134657143Y-127870998D01*
X134657143Y-127870998D02*
X134580952Y-127832902D01*
X134580952Y-127832902D02*
X134428571Y-127794807D01*
X134428571Y-127794807D02*
X134352381Y-127756712D01*
X134352381Y-127756712D02*
X134314286Y-127718617D01*
X134314286Y-127718617D02*
X134276190Y-127642426D01*
X134276190Y-127642426D02*
X134276190Y-127566236D01*
X134276190Y-127566236D02*
X134314286Y-127490045D01*
X134314286Y-127490045D02*
X134352381Y-127451950D01*
X134352381Y-127451950D02*
X134428571Y-127413855D01*
X134428571Y-127413855D02*
X134619048Y-127413855D01*
X134619048Y-127413855D02*
X134733333Y-127451950D01*
X135076191Y-127909093D02*
X135685715Y-127909093D01*
X135380953Y-128213855D02*
X135380953Y-127604331D01*
X143263855Y-122019046D02*
X143263855Y-121866665D01*
X143263855Y-121866665D02*
X143301950Y-121790475D01*
X143301950Y-121790475D02*
X143378140Y-121714284D01*
X143378140Y-121714284D02*
X143530521Y-121676189D01*
X143530521Y-121676189D02*
X143797188Y-121676189D01*
X143797188Y-121676189D02*
X143949569Y-121714284D01*
X143949569Y-121714284D02*
X144025760Y-121790475D01*
X144025760Y-121790475D02*
X144063855Y-121866665D01*
X144063855Y-121866665D02*
X144063855Y-122019046D01*
X144063855Y-122019046D02*
X144025760Y-122095237D01*
X144025760Y-122095237D02*
X143949569Y-122171427D01*
X143949569Y-122171427D02*
X143797188Y-122209523D01*
X143797188Y-122209523D02*
X143530521Y-122209523D01*
X143530521Y-122209523D02*
X143378140Y-122171427D01*
X143378140Y-122171427D02*
X143301950Y-122095237D01*
X143301950Y-122095237D02*
X143263855Y-122019046D01*
X144063855Y-121333332D02*
X143263855Y-121333332D01*
X143263855Y-121333332D02*
X144063855Y-120876189D01*
X144063855Y-120876189D02*
X143263855Y-120876189D01*
X143225760Y-119923809D02*
X144254331Y-120609523D01*
X143263855Y-119504761D02*
X143263855Y-119352380D01*
X143263855Y-119352380D02*
X143301950Y-119276190D01*
X143301950Y-119276190D02*
X143378140Y-119199999D01*
X143378140Y-119199999D02*
X143530521Y-119161904D01*
X143530521Y-119161904D02*
X143797188Y-119161904D01*
X143797188Y-119161904D02*
X143949569Y-119199999D01*
X143949569Y-119199999D02*
X144025760Y-119276190D01*
X144025760Y-119276190D02*
X144063855Y-119352380D01*
X144063855Y-119352380D02*
X144063855Y-119504761D01*
X144063855Y-119504761D02*
X144025760Y-119580952D01*
X144025760Y-119580952D02*
X143949569Y-119657142D01*
X143949569Y-119657142D02*
X143797188Y-119695238D01*
X143797188Y-119695238D02*
X143530521Y-119695238D01*
X143530521Y-119695238D02*
X143378140Y-119657142D01*
X143378140Y-119657142D02*
X143301950Y-119580952D01*
X143301950Y-119580952D02*
X143263855Y-119504761D01*
X143644807Y-118552381D02*
X143644807Y-118819047D01*
X144063855Y-118819047D02*
X143263855Y-118819047D01*
X143263855Y-118819047D02*
X143263855Y-118438095D01*
X143644807Y-117866667D02*
X143644807Y-118133333D01*
X144063855Y-118133333D02*
X143263855Y-118133333D01*
X143263855Y-118133333D02*
X143263855Y-117752381D01*
X138504762Y-128213855D02*
X138504762Y-127413855D01*
X138885714Y-127909093D02*
X139495238Y-127909093D01*
X135894807Y-103190476D02*
X135932902Y-103076190D01*
X135932902Y-103076190D02*
X135970998Y-103038095D01*
X135970998Y-103038095D02*
X136047188Y-102999999D01*
X136047188Y-102999999D02*
X136161474Y-102999999D01*
X136161474Y-102999999D02*
X136237664Y-103038095D01*
X136237664Y-103038095D02*
X136275760Y-103076190D01*
X136275760Y-103076190D02*
X136313855Y-103152380D01*
X136313855Y-103152380D02*
X136313855Y-103457142D01*
X136313855Y-103457142D02*
X135513855Y-103457142D01*
X135513855Y-103457142D02*
X135513855Y-103190476D01*
X135513855Y-103190476D02*
X135551950Y-103114285D01*
X135551950Y-103114285D02*
X135590045Y-103076190D01*
X135590045Y-103076190D02*
X135666236Y-103038095D01*
X135666236Y-103038095D02*
X135742426Y-103038095D01*
X135742426Y-103038095D02*
X135818617Y-103076190D01*
X135818617Y-103076190D02*
X135856712Y-103114285D01*
X135856712Y-103114285D02*
X135894807Y-103190476D01*
X135894807Y-103190476D02*
X135894807Y-103457142D01*
X136085283Y-102695238D02*
X136085283Y-102314285D01*
X136313855Y-102771428D02*
X135513855Y-102504761D01*
X135513855Y-102504761D02*
X136313855Y-102238095D01*
X135513855Y-102085714D02*
X135513855Y-101628571D01*
X136313855Y-101857143D02*
X135513855Y-101857143D01*
D11*
X139766667Y-113263335D02*
X139500000Y-112882382D01*
X139309524Y-113263335D02*
X139309524Y-112463335D01*
X139309524Y-112463335D02*
X139614286Y-112463335D01*
X139614286Y-112463335D02*
X139690476Y-112501430D01*
X139690476Y-112501430D02*
X139728571Y-112539525D01*
X139728571Y-112539525D02*
X139766667Y-112615716D01*
X139766667Y-112615716D02*
X139766667Y-112730001D01*
X139766667Y-112730001D02*
X139728571Y-112806192D01*
X139728571Y-112806192D02*
X139690476Y-112844287D01*
X139690476Y-112844287D02*
X139614286Y-112882382D01*
X139614286Y-112882382D02*
X139309524Y-112882382D01*
X140528571Y-113263335D02*
X140071428Y-113263335D01*
X140300000Y-113263335D02*
X140300000Y-112463335D01*
X140300000Y-112463335D02*
X140223809Y-112577620D01*
X140223809Y-112577620D02*
X140147619Y-112653811D01*
X140147619Y-112653811D02*
X140071428Y-112691906D01*
X113357144Y-119133332D02*
X113395240Y-119171428D01*
X113395240Y-119171428D02*
X113433335Y-119285713D01*
X113433335Y-119285713D02*
X113433335Y-119361904D01*
X113433335Y-119361904D02*
X113395240Y-119476190D01*
X113395240Y-119476190D02*
X113319049Y-119552380D01*
X113319049Y-119552380D02*
X113242859Y-119590475D01*
X113242859Y-119590475D02*
X113090478Y-119628571D01*
X113090478Y-119628571D02*
X112976192Y-119628571D01*
X112976192Y-119628571D02*
X112823811Y-119590475D01*
X112823811Y-119590475D02*
X112747620Y-119552380D01*
X112747620Y-119552380D02*
X112671430Y-119476190D01*
X112671430Y-119476190D02*
X112633335Y-119361904D01*
X112633335Y-119361904D02*
X112633335Y-119285713D01*
X112633335Y-119285713D02*
X112671430Y-119171428D01*
X112671430Y-119171428D02*
X112709525Y-119133332D01*
X112633335Y-118866666D02*
X112633335Y-118371428D01*
X112633335Y-118371428D02*
X112938097Y-118638094D01*
X112938097Y-118638094D02*
X112938097Y-118523809D01*
X112938097Y-118523809D02*
X112976192Y-118447618D01*
X112976192Y-118447618D02*
X113014287Y-118409523D01*
X113014287Y-118409523D02*
X113090478Y-118371428D01*
X113090478Y-118371428D02*
X113280954Y-118371428D01*
X113280954Y-118371428D02*
X113357144Y-118409523D01*
X113357144Y-118409523D02*
X113395240Y-118447618D01*
X113395240Y-118447618D02*
X113433335Y-118523809D01*
X113433335Y-118523809D02*
X113433335Y-118752380D01*
X113433335Y-118752380D02*
X113395240Y-118828571D01*
X113395240Y-118828571D02*
X113357144Y-118866666D01*
X139866667Y-121163335D02*
X139600000Y-120782382D01*
X139409524Y-121163335D02*
X139409524Y-120363335D01*
X139409524Y-120363335D02*
X139714286Y-120363335D01*
X139714286Y-120363335D02*
X139790476Y-120401430D01*
X139790476Y-120401430D02*
X139828571Y-120439525D01*
X139828571Y-120439525D02*
X139866667Y-120515716D01*
X139866667Y-120515716D02*
X139866667Y-120630001D01*
X139866667Y-120630001D02*
X139828571Y-120706192D01*
X139828571Y-120706192D02*
X139790476Y-120744287D01*
X139790476Y-120744287D02*
X139714286Y-120782382D01*
X139714286Y-120782382D02*
X139409524Y-120782382D01*
X140133333Y-120363335D02*
X140628571Y-120363335D01*
X140628571Y-120363335D02*
X140361905Y-120668097D01*
X140361905Y-120668097D02*
X140476190Y-120668097D01*
X140476190Y-120668097D02*
X140552381Y-120706192D01*
X140552381Y-120706192D02*
X140590476Y-120744287D01*
X140590476Y-120744287D02*
X140628571Y-120820478D01*
X140628571Y-120820478D02*
X140628571Y-121010954D01*
X140628571Y-121010954D02*
X140590476Y-121087144D01*
X140590476Y-121087144D02*
X140552381Y-121125240D01*
X140552381Y-121125240D02*
X140476190Y-121163335D01*
X140476190Y-121163335D02*
X140247619Y-121163335D01*
X140247619Y-121163335D02*
X140171428Y-121125240D01*
X140171428Y-121125240D02*
X140133333Y-121087144D01*
X108143335Y-104095238D02*
X108143335Y-104476190D01*
X108143335Y-104476190D02*
X107343335Y-104476190D01*
X107724287Y-103828571D02*
X107724287Y-103561905D01*
X108143335Y-103447619D02*
X108143335Y-103828571D01*
X108143335Y-103828571D02*
X107343335Y-103828571D01*
X107343335Y-103828571D02*
X107343335Y-103447619D01*
X108143335Y-103104761D02*
X107343335Y-103104761D01*
X107343335Y-103104761D02*
X107343335Y-102914285D01*
X107343335Y-102914285D02*
X107381430Y-102799999D01*
X107381430Y-102799999D02*
X107457620Y-102723809D01*
X107457620Y-102723809D02*
X107533811Y-102685714D01*
X107533811Y-102685714D02*
X107686192Y-102647618D01*
X107686192Y-102647618D02*
X107800478Y-102647618D01*
X107800478Y-102647618D02*
X107952859Y-102685714D01*
X107952859Y-102685714D02*
X108029049Y-102723809D01*
X108029049Y-102723809D02*
X108105240Y-102799999D01*
X108105240Y-102799999D02*
X108143335Y-102914285D01*
X108143335Y-102914285D02*
X108143335Y-103104761D01*
X107343335Y-101923809D02*
X107343335Y-102304761D01*
X107343335Y-102304761D02*
X107724287Y-102342857D01*
X107724287Y-102342857D02*
X107686192Y-102304761D01*
X107686192Y-102304761D02*
X107648097Y-102228571D01*
X107648097Y-102228571D02*
X107648097Y-102038095D01*
X107648097Y-102038095D02*
X107686192Y-101961904D01*
X107686192Y-101961904D02*
X107724287Y-101923809D01*
X107724287Y-101923809D02*
X107800478Y-101885714D01*
X107800478Y-101885714D02*
X107990954Y-101885714D01*
X107990954Y-101885714D02*
X108067144Y-101923809D01*
X108067144Y-101923809D02*
X108105240Y-101961904D01*
X108105240Y-101961904D02*
X108143335Y-102038095D01*
X108143335Y-102038095D02*
X108143335Y-102228571D01*
X108143335Y-102228571D02*
X108105240Y-102304761D01*
X108105240Y-102304761D02*
X108067144Y-102342857D01*
X101037144Y-111533332D02*
X101075240Y-111571428D01*
X101075240Y-111571428D02*
X101113335Y-111685713D01*
X101113335Y-111685713D02*
X101113335Y-111761904D01*
X101113335Y-111761904D02*
X101075240Y-111876190D01*
X101075240Y-111876190D02*
X100999049Y-111952380D01*
X100999049Y-111952380D02*
X100922859Y-111990475D01*
X100922859Y-111990475D02*
X100770478Y-112028571D01*
X100770478Y-112028571D02*
X100656192Y-112028571D01*
X100656192Y-112028571D02*
X100503811Y-111990475D01*
X100503811Y-111990475D02*
X100427620Y-111952380D01*
X100427620Y-111952380D02*
X100351430Y-111876190D01*
X100351430Y-111876190D02*
X100313335Y-111761904D01*
X100313335Y-111761904D02*
X100313335Y-111685713D01*
X100313335Y-111685713D02*
X100351430Y-111571428D01*
X100351430Y-111571428D02*
X100389525Y-111533332D01*
X100313335Y-111266666D02*
X100313335Y-110733332D01*
X100313335Y-110733332D02*
X101113335Y-111076190D01*
X103966667Y-114713335D02*
X103700000Y-114332382D01*
X103509524Y-114713335D02*
X103509524Y-113913335D01*
X103509524Y-113913335D02*
X103814286Y-113913335D01*
X103814286Y-113913335D02*
X103890476Y-113951430D01*
X103890476Y-113951430D02*
X103928571Y-113989525D01*
X103928571Y-113989525D02*
X103966667Y-114065716D01*
X103966667Y-114065716D02*
X103966667Y-114180001D01*
X103966667Y-114180001D02*
X103928571Y-114256192D01*
X103928571Y-114256192D02*
X103890476Y-114294287D01*
X103890476Y-114294287D02*
X103814286Y-114332382D01*
X103814286Y-114332382D02*
X103509524Y-114332382D01*
X104652381Y-113913335D02*
X104500000Y-113913335D01*
X104500000Y-113913335D02*
X104423809Y-113951430D01*
X104423809Y-113951430D02*
X104385714Y-113989525D01*
X104385714Y-113989525D02*
X104309524Y-114103811D01*
X104309524Y-114103811D02*
X104271428Y-114256192D01*
X104271428Y-114256192D02*
X104271428Y-114560954D01*
X104271428Y-114560954D02*
X104309524Y-114637144D01*
X104309524Y-114637144D02*
X104347619Y-114675240D01*
X104347619Y-114675240D02*
X104423809Y-114713335D01*
X104423809Y-114713335D02*
X104576190Y-114713335D01*
X104576190Y-114713335D02*
X104652381Y-114675240D01*
X104652381Y-114675240D02*
X104690476Y-114637144D01*
X104690476Y-114637144D02*
X104728571Y-114560954D01*
X104728571Y-114560954D02*
X104728571Y-114370478D01*
X104728571Y-114370478D02*
X104690476Y-114294287D01*
X104690476Y-114294287D02*
X104652381Y-114256192D01*
X104652381Y-114256192D02*
X104576190Y-114218097D01*
X104576190Y-114218097D02*
X104423809Y-114218097D01*
X104423809Y-114218097D02*
X104347619Y-114256192D01*
X104347619Y-114256192D02*
X104309524Y-114294287D01*
X104309524Y-114294287D02*
X104271428Y-114370478D01*
X141233332Y-117025239D02*
X141347618Y-117063334D01*
X141347618Y-117063334D02*
X141538094Y-117063334D01*
X141538094Y-117063334D02*
X141614285Y-117025239D01*
X141614285Y-117025239D02*
X141652380Y-116987143D01*
X141652380Y-116987143D02*
X141690475Y-116910953D01*
X141690475Y-116910953D02*
X141690475Y-116834762D01*
X141690475Y-116834762D02*
X141652380Y-116758572D01*
X141652380Y-116758572D02*
X141614285Y-116720477D01*
X141614285Y-116720477D02*
X141538094Y-116682381D01*
X141538094Y-116682381D02*
X141385713Y-116644286D01*
X141385713Y-116644286D02*
X141309523Y-116606191D01*
X141309523Y-116606191D02*
X141271428Y-116568096D01*
X141271428Y-116568096D02*
X141233332Y-116491905D01*
X141233332Y-116491905D02*
X141233332Y-116415715D01*
X141233332Y-116415715D02*
X141271428Y-116339524D01*
X141271428Y-116339524D02*
X141309523Y-116301429D01*
X141309523Y-116301429D02*
X141385713Y-116263334D01*
X141385713Y-116263334D02*
X141576190Y-116263334D01*
X141576190Y-116263334D02*
X141690475Y-116301429D01*
X141957142Y-116263334D02*
X142147618Y-117063334D01*
X142147618Y-117063334D02*
X142299999Y-116491905D01*
X142299999Y-116491905D02*
X142452380Y-117063334D01*
X142452380Y-117063334D02*
X142642857Y-116263334D01*
X143366666Y-117063334D02*
X142909523Y-117063334D01*
X143138095Y-117063334D02*
X143138095Y-116263334D01*
X143138095Y-116263334D02*
X143061904Y-116377619D01*
X143061904Y-116377619D02*
X142985714Y-116453810D01*
X142985714Y-116453810D02*
X142909523Y-116491905D01*
X101866667Y-105437144D02*
X101828571Y-105475240D01*
X101828571Y-105475240D02*
X101714286Y-105513335D01*
X101714286Y-105513335D02*
X101638095Y-105513335D01*
X101638095Y-105513335D02*
X101523809Y-105475240D01*
X101523809Y-105475240D02*
X101447619Y-105399049D01*
X101447619Y-105399049D02*
X101409524Y-105322859D01*
X101409524Y-105322859D02*
X101371428Y-105170478D01*
X101371428Y-105170478D02*
X101371428Y-105056192D01*
X101371428Y-105056192D02*
X101409524Y-104903811D01*
X101409524Y-104903811D02*
X101447619Y-104827620D01*
X101447619Y-104827620D02*
X101523809Y-104751430D01*
X101523809Y-104751430D02*
X101638095Y-104713335D01*
X101638095Y-104713335D02*
X101714286Y-104713335D01*
X101714286Y-104713335D02*
X101828571Y-104751430D01*
X101828571Y-104751430D02*
X101866667Y-104789525D01*
X102552381Y-104713335D02*
X102400000Y-104713335D01*
X102400000Y-104713335D02*
X102323809Y-104751430D01*
X102323809Y-104751430D02*
X102285714Y-104789525D01*
X102285714Y-104789525D02*
X102209524Y-104903811D01*
X102209524Y-104903811D02*
X102171428Y-105056192D01*
X102171428Y-105056192D02*
X102171428Y-105360954D01*
X102171428Y-105360954D02*
X102209524Y-105437144D01*
X102209524Y-105437144D02*
X102247619Y-105475240D01*
X102247619Y-105475240D02*
X102323809Y-105513335D01*
X102323809Y-105513335D02*
X102476190Y-105513335D01*
X102476190Y-105513335D02*
X102552381Y-105475240D01*
X102552381Y-105475240D02*
X102590476Y-105437144D01*
X102590476Y-105437144D02*
X102628571Y-105360954D01*
X102628571Y-105360954D02*
X102628571Y-105170478D01*
X102628571Y-105170478D02*
X102590476Y-105094287D01*
X102590476Y-105094287D02*
X102552381Y-105056192D01*
X102552381Y-105056192D02*
X102476190Y-105018097D01*
X102476190Y-105018097D02*
X102323809Y-105018097D01*
X102323809Y-105018097D02*
X102247619Y-105056192D01*
X102247619Y-105056192D02*
X102209524Y-105094287D01*
X102209524Y-105094287D02*
X102171428Y-105170478D01*
X115766667Y-128563335D02*
X115500000Y-128182382D01*
X115309524Y-128563335D02*
X115309524Y-127763335D01*
X115309524Y-127763335D02*
X115614286Y-127763335D01*
X115614286Y-127763335D02*
X115690476Y-127801430D01*
X115690476Y-127801430D02*
X115728571Y-127839525D01*
X115728571Y-127839525D02*
X115766667Y-127915716D01*
X115766667Y-127915716D02*
X115766667Y-128030001D01*
X115766667Y-128030001D02*
X115728571Y-128106192D01*
X115728571Y-128106192D02*
X115690476Y-128144287D01*
X115690476Y-128144287D02*
X115614286Y-128182382D01*
X115614286Y-128182382D02*
X115309524Y-128182382D01*
X116490476Y-127763335D02*
X116109524Y-127763335D01*
X116109524Y-127763335D02*
X116071428Y-128144287D01*
X116071428Y-128144287D02*
X116109524Y-128106192D01*
X116109524Y-128106192D02*
X116185714Y-128068097D01*
X116185714Y-128068097D02*
X116376190Y-128068097D01*
X116376190Y-128068097D02*
X116452381Y-128106192D01*
X116452381Y-128106192D02*
X116490476Y-128144287D01*
X116490476Y-128144287D02*
X116528571Y-128220478D01*
X116528571Y-128220478D02*
X116528571Y-128410954D01*
X116528571Y-128410954D02*
X116490476Y-128487144D01*
X116490476Y-128487144D02*
X116452381Y-128525240D01*
X116452381Y-128525240D02*
X116376190Y-128563335D01*
X116376190Y-128563335D02*
X116185714Y-128563335D01*
X116185714Y-128563335D02*
X116109524Y-128525240D01*
X116109524Y-128525240D02*
X116071428Y-128487144D01*
X125163335Y-125390475D02*
X124363335Y-125390475D01*
X124363335Y-125390475D02*
X124363335Y-125199999D01*
X124363335Y-125199999D02*
X124401430Y-125085713D01*
X124401430Y-125085713D02*
X124477620Y-125009523D01*
X124477620Y-125009523D02*
X124553811Y-124971428D01*
X124553811Y-124971428D02*
X124706192Y-124933332D01*
X124706192Y-124933332D02*
X124820478Y-124933332D01*
X124820478Y-124933332D02*
X124972859Y-124971428D01*
X124972859Y-124971428D02*
X125049049Y-125009523D01*
X125049049Y-125009523D02*
X125125240Y-125085713D01*
X125125240Y-125085713D02*
X125163335Y-125199999D01*
X125163335Y-125199999D02*
X125163335Y-125390475D01*
X124439525Y-124628571D02*
X124401430Y-124590475D01*
X124401430Y-124590475D02*
X124363335Y-124514285D01*
X124363335Y-124514285D02*
X124363335Y-124323809D01*
X124363335Y-124323809D02*
X124401430Y-124247618D01*
X124401430Y-124247618D02*
X124439525Y-124209523D01*
X124439525Y-124209523D02*
X124515716Y-124171428D01*
X124515716Y-124171428D02*
X124591906Y-124171428D01*
X124591906Y-124171428D02*
X124706192Y-124209523D01*
X124706192Y-124209523D02*
X125163335Y-124666666D01*
X125163335Y-124666666D02*
X125163335Y-124171428D01*
X101035714Y-118987144D02*
X100997618Y-119025240D01*
X100997618Y-119025240D02*
X100883333Y-119063335D01*
X100883333Y-119063335D02*
X100807142Y-119063335D01*
X100807142Y-119063335D02*
X100692856Y-119025240D01*
X100692856Y-119025240D02*
X100616666Y-118949049D01*
X100616666Y-118949049D02*
X100578571Y-118872859D01*
X100578571Y-118872859D02*
X100540475Y-118720478D01*
X100540475Y-118720478D02*
X100540475Y-118606192D01*
X100540475Y-118606192D02*
X100578571Y-118453811D01*
X100578571Y-118453811D02*
X100616666Y-118377620D01*
X100616666Y-118377620D02*
X100692856Y-118301430D01*
X100692856Y-118301430D02*
X100807142Y-118263335D01*
X100807142Y-118263335D02*
X100883333Y-118263335D01*
X100883333Y-118263335D02*
X100997618Y-118301430D01*
X100997618Y-118301430D02*
X101035714Y-118339525D01*
X101797618Y-119063335D02*
X101340475Y-119063335D01*
X101569047Y-119063335D02*
X101569047Y-118263335D01*
X101569047Y-118263335D02*
X101492856Y-118377620D01*
X101492856Y-118377620D02*
X101416666Y-118453811D01*
X101416666Y-118453811D02*
X101340475Y-118491906D01*
X102292857Y-118263335D02*
X102369047Y-118263335D01*
X102369047Y-118263335D02*
X102445238Y-118301430D01*
X102445238Y-118301430D02*
X102483333Y-118339525D01*
X102483333Y-118339525D02*
X102521428Y-118415716D01*
X102521428Y-118415716D02*
X102559523Y-118568097D01*
X102559523Y-118568097D02*
X102559523Y-118758573D01*
X102559523Y-118758573D02*
X102521428Y-118910954D01*
X102521428Y-118910954D02*
X102483333Y-118987144D01*
X102483333Y-118987144D02*
X102445238Y-119025240D01*
X102445238Y-119025240D02*
X102369047Y-119063335D01*
X102369047Y-119063335D02*
X102292857Y-119063335D01*
X102292857Y-119063335D02*
X102216666Y-119025240D01*
X102216666Y-119025240D02*
X102178571Y-118987144D01*
X102178571Y-118987144D02*
X102140476Y-118910954D01*
X102140476Y-118910954D02*
X102102380Y-118758573D01*
X102102380Y-118758573D02*
X102102380Y-118568097D01*
X102102380Y-118568097D02*
X102140476Y-118415716D01*
X102140476Y-118415716D02*
X102178571Y-118339525D01*
X102178571Y-118339525D02*
X102216666Y-118301430D01*
X102216666Y-118301430D02*
X102292857Y-118263335D01*
X100963335Y-116733332D02*
X100582382Y-116999999D01*
X100963335Y-117190475D02*
X100163335Y-117190475D01*
X100163335Y-117190475D02*
X100163335Y-116885713D01*
X100163335Y-116885713D02*
X100201430Y-116809523D01*
X100201430Y-116809523D02*
X100239525Y-116771428D01*
X100239525Y-116771428D02*
X100315716Y-116733332D01*
X100315716Y-116733332D02*
X100430001Y-116733332D01*
X100430001Y-116733332D02*
X100506192Y-116771428D01*
X100506192Y-116771428D02*
X100544287Y-116809523D01*
X100544287Y-116809523D02*
X100582382Y-116885713D01*
X100582382Y-116885713D02*
X100582382Y-117190475D01*
X100506192Y-116276190D02*
X100468097Y-116352380D01*
X100468097Y-116352380D02*
X100430001Y-116390475D01*
X100430001Y-116390475D02*
X100353811Y-116428571D01*
X100353811Y-116428571D02*
X100315716Y-116428571D01*
X100315716Y-116428571D02*
X100239525Y-116390475D01*
X100239525Y-116390475D02*
X100201430Y-116352380D01*
X100201430Y-116352380D02*
X100163335Y-116276190D01*
X100163335Y-116276190D02*
X100163335Y-116123809D01*
X100163335Y-116123809D02*
X100201430Y-116047618D01*
X100201430Y-116047618D02*
X100239525Y-116009523D01*
X100239525Y-116009523D02*
X100315716Y-115971428D01*
X100315716Y-115971428D02*
X100353811Y-115971428D01*
X100353811Y-115971428D02*
X100430001Y-116009523D01*
X100430001Y-116009523D02*
X100468097Y-116047618D01*
X100468097Y-116047618D02*
X100506192Y-116123809D01*
X100506192Y-116123809D02*
X100506192Y-116276190D01*
X100506192Y-116276190D02*
X100544287Y-116352380D01*
X100544287Y-116352380D02*
X100582382Y-116390475D01*
X100582382Y-116390475D02*
X100658573Y-116428571D01*
X100658573Y-116428571D02*
X100810954Y-116428571D01*
X100810954Y-116428571D02*
X100887144Y-116390475D01*
X100887144Y-116390475D02*
X100925240Y-116352380D01*
X100925240Y-116352380D02*
X100963335Y-116276190D01*
X100963335Y-116276190D02*
X100963335Y-116123809D01*
X100963335Y-116123809D02*
X100925240Y-116047618D01*
X100925240Y-116047618D02*
X100887144Y-116009523D01*
X100887144Y-116009523D02*
X100810954Y-115971428D01*
X100810954Y-115971428D02*
X100658573Y-115971428D01*
X100658573Y-115971428D02*
X100582382Y-116009523D01*
X100582382Y-116009523D02*
X100544287Y-116047618D01*
X100544287Y-116047618D02*
X100506192Y-116123809D01*
X125390476Y-97963335D02*
X125390476Y-98610954D01*
X125390476Y-98610954D02*
X125428571Y-98687144D01*
X125428571Y-98687144D02*
X125466666Y-98725240D01*
X125466666Y-98725240D02*
X125542857Y-98763335D01*
X125542857Y-98763335D02*
X125695238Y-98763335D01*
X125695238Y-98763335D02*
X125771428Y-98725240D01*
X125771428Y-98725240D02*
X125809523Y-98687144D01*
X125809523Y-98687144D02*
X125847619Y-98610954D01*
X125847619Y-98610954D02*
X125847619Y-97963335D01*
X126609523Y-97963335D02*
X126228571Y-97963335D01*
X126228571Y-97963335D02*
X126190475Y-98344287D01*
X126190475Y-98344287D02*
X126228571Y-98306192D01*
X126228571Y-98306192D02*
X126304761Y-98268097D01*
X126304761Y-98268097D02*
X126495237Y-98268097D01*
X126495237Y-98268097D02*
X126571428Y-98306192D01*
X126571428Y-98306192D02*
X126609523Y-98344287D01*
X126609523Y-98344287D02*
X126647618Y-98420478D01*
X126647618Y-98420478D02*
X126647618Y-98610954D01*
X126647618Y-98610954D02*
X126609523Y-98687144D01*
X126609523Y-98687144D02*
X126571428Y-98725240D01*
X126571428Y-98725240D02*
X126495237Y-98763335D01*
X126495237Y-98763335D02*
X126304761Y-98763335D01*
X126304761Y-98763335D02*
X126228571Y-98725240D01*
X126228571Y-98725240D02*
X126190475Y-98687144D01*
D10*
X129092481Y-105521950D02*
X129016291Y-105483855D01*
X129016291Y-105483855D02*
X128902005Y-105483855D01*
X128902005Y-105483855D02*
X128787719Y-105521950D01*
X128787719Y-105521950D02*
X128711529Y-105598140D01*
X128711529Y-105598140D02*
X128673434Y-105674331D01*
X128673434Y-105674331D02*
X128635338Y-105826712D01*
X128635338Y-105826712D02*
X128635338Y-105940998D01*
X128635338Y-105940998D02*
X128673434Y-106093379D01*
X128673434Y-106093379D02*
X128711529Y-106169569D01*
X128711529Y-106169569D02*
X128787719Y-106245760D01*
X128787719Y-106245760D02*
X128902005Y-106283855D01*
X128902005Y-106283855D02*
X128978196Y-106283855D01*
X128978196Y-106283855D02*
X129092481Y-106245760D01*
X129092481Y-106245760D02*
X129130577Y-106207664D01*
X129130577Y-106207664D02*
X129130577Y-105940998D01*
X129130577Y-105940998D02*
X128978196Y-105940998D01*
X129473434Y-106283855D02*
X129473434Y-105483855D01*
X129473434Y-105483855D02*
X129930577Y-106283855D01*
X129930577Y-106283855D02*
X129930577Y-105483855D01*
X130311529Y-106283855D02*
X130311529Y-105483855D01*
X130311529Y-105483855D02*
X130502005Y-105483855D01*
X130502005Y-105483855D02*
X130616291Y-105521950D01*
X130616291Y-105521950D02*
X130692481Y-105598140D01*
X130692481Y-105598140D02*
X130730576Y-105674331D01*
X130730576Y-105674331D02*
X130768672Y-105826712D01*
X130768672Y-105826712D02*
X130768672Y-105940998D01*
X130768672Y-105940998D02*
X130730576Y-106093379D01*
X130730576Y-106093379D02*
X130692481Y-106169569D01*
X130692481Y-106169569D02*
X130616291Y-106245760D01*
X130616291Y-106245760D02*
X130502005Y-106283855D01*
X130502005Y-106283855D02*
X130311529Y-106283855D01*
X121269423Y-111363855D02*
X121269423Y-110563855D01*
X121269423Y-110563855D02*
X121459899Y-110563855D01*
X121459899Y-110563855D02*
X121574185Y-110601950D01*
X121574185Y-110601950D02*
X121650375Y-110678140D01*
X121650375Y-110678140D02*
X121688470Y-110754331D01*
X121688470Y-110754331D02*
X121726566Y-110906712D01*
X121726566Y-110906712D02*
X121726566Y-111020998D01*
X121726566Y-111020998D02*
X121688470Y-111173379D01*
X121688470Y-111173379D02*
X121650375Y-111249569D01*
X121650375Y-111249569D02*
X121574185Y-111325760D01*
X121574185Y-111325760D02*
X121459899Y-111363855D01*
X121459899Y-111363855D02*
X121269423Y-111363855D01*
X121993232Y-110563855D02*
X122488470Y-110563855D01*
X122488470Y-110563855D02*
X122221804Y-110868617D01*
X122221804Y-110868617D02*
X122336089Y-110868617D01*
X122336089Y-110868617D02*
X122412280Y-110906712D01*
X122412280Y-110906712D02*
X122450375Y-110944807D01*
X122450375Y-110944807D02*
X122488470Y-111020998D01*
X122488470Y-111020998D02*
X122488470Y-111211474D01*
X122488470Y-111211474D02*
X122450375Y-111287664D01*
X122450375Y-111287664D02*
X122412280Y-111325760D01*
X122412280Y-111325760D02*
X122336089Y-111363855D01*
X122336089Y-111363855D02*
X122107518Y-111363855D01*
X122107518Y-111363855D02*
X122031327Y-111325760D01*
X122031327Y-111325760D02*
X121993232Y-111287664D01*
X128614285Y-107044807D02*
X128728571Y-107082902D01*
X128728571Y-107082902D02*
X128766666Y-107120998D01*
X128766666Y-107120998D02*
X128804762Y-107197188D01*
X128804762Y-107197188D02*
X128804762Y-107311474D01*
X128804762Y-107311474D02*
X128766666Y-107387664D01*
X128766666Y-107387664D02*
X128728571Y-107425760D01*
X128728571Y-107425760D02*
X128652381Y-107463855D01*
X128652381Y-107463855D02*
X128347619Y-107463855D01*
X128347619Y-107463855D02*
X128347619Y-106663855D01*
X128347619Y-106663855D02*
X128614285Y-106663855D01*
X128614285Y-106663855D02*
X128690476Y-106701950D01*
X128690476Y-106701950D02*
X128728571Y-106740045D01*
X128728571Y-106740045D02*
X128766666Y-106816236D01*
X128766666Y-106816236D02*
X128766666Y-106892426D01*
X128766666Y-106892426D02*
X128728571Y-106968617D01*
X128728571Y-106968617D02*
X128690476Y-107006712D01*
X128690476Y-107006712D02*
X128614285Y-107044807D01*
X128614285Y-107044807D02*
X128347619Y-107044807D01*
X129109523Y-107235283D02*
X129490476Y-107235283D01*
X129033333Y-107463855D02*
X129300000Y-106663855D01*
X129300000Y-106663855D02*
X129566666Y-107463855D01*
X129719047Y-106663855D02*
X130176190Y-106663855D01*
X129947618Y-107463855D02*
X129947618Y-106663855D01*
X130442857Y-107159093D02*
X131052381Y-107159093D01*
X121269423Y-108823855D02*
X121269423Y-108023855D01*
X121269423Y-108023855D02*
X121459899Y-108023855D01*
X121459899Y-108023855D02*
X121574185Y-108061950D01*
X121574185Y-108061950D02*
X121650375Y-108138140D01*
X121650375Y-108138140D02*
X121688470Y-108214331D01*
X121688470Y-108214331D02*
X121726566Y-108366712D01*
X121726566Y-108366712D02*
X121726566Y-108480998D01*
X121726566Y-108480998D02*
X121688470Y-108633379D01*
X121688470Y-108633379D02*
X121650375Y-108709569D01*
X121650375Y-108709569D02*
X121574185Y-108785760D01*
X121574185Y-108785760D02*
X121459899Y-108823855D01*
X121459899Y-108823855D02*
X121269423Y-108823855D01*
X122031327Y-108100045D02*
X122069423Y-108061950D01*
X122069423Y-108061950D02*
X122145613Y-108023855D01*
X122145613Y-108023855D02*
X122336089Y-108023855D01*
X122336089Y-108023855D02*
X122412280Y-108061950D01*
X122412280Y-108061950D02*
X122450375Y-108100045D01*
X122450375Y-108100045D02*
X122488470Y-108176236D01*
X122488470Y-108176236D02*
X122488470Y-108252426D01*
X122488470Y-108252426D02*
X122450375Y-108366712D01*
X122450375Y-108366712D02*
X121993232Y-108823855D01*
X121993232Y-108823855D02*
X122488470Y-108823855D01*
X129549624Y-118983855D02*
X129549624Y-118183855D01*
X129549624Y-118183855D02*
X129740100Y-118183855D01*
X129740100Y-118183855D02*
X129854386Y-118221950D01*
X129854386Y-118221950D02*
X129930576Y-118298140D01*
X129930576Y-118298140D02*
X129968671Y-118374331D01*
X129968671Y-118374331D02*
X130006767Y-118526712D01*
X130006767Y-118526712D02*
X130006767Y-118640998D01*
X130006767Y-118640998D02*
X129968671Y-118793379D01*
X129968671Y-118793379D02*
X129930576Y-118869569D01*
X129930576Y-118869569D02*
X129854386Y-118945760D01*
X129854386Y-118945760D02*
X129740100Y-118983855D01*
X129740100Y-118983855D02*
X129549624Y-118983855D01*
X130273433Y-118183855D02*
X130806767Y-118183855D01*
X130806767Y-118183855D02*
X130463909Y-118983855D01*
X129549624Y-116443855D02*
X129549624Y-115643855D01*
X129549624Y-115643855D02*
X129740100Y-115643855D01*
X129740100Y-115643855D02*
X129854386Y-115681950D01*
X129854386Y-115681950D02*
X129930576Y-115758140D01*
X129930576Y-115758140D02*
X129968671Y-115834331D01*
X129968671Y-115834331D02*
X130006767Y-115986712D01*
X130006767Y-115986712D02*
X130006767Y-116100998D01*
X130006767Y-116100998D02*
X129968671Y-116253379D01*
X129968671Y-116253379D02*
X129930576Y-116329569D01*
X129930576Y-116329569D02*
X129854386Y-116405760D01*
X129854386Y-116405760D02*
X129740100Y-116443855D01*
X129740100Y-116443855D02*
X129549624Y-116443855D01*
X130463909Y-115986712D02*
X130387719Y-115948617D01*
X130387719Y-115948617D02*
X130349624Y-115910521D01*
X130349624Y-115910521D02*
X130311528Y-115834331D01*
X130311528Y-115834331D02*
X130311528Y-115796236D01*
X130311528Y-115796236D02*
X130349624Y-115720045D01*
X130349624Y-115720045D02*
X130387719Y-115681950D01*
X130387719Y-115681950D02*
X130463909Y-115643855D01*
X130463909Y-115643855D02*
X130616290Y-115643855D01*
X130616290Y-115643855D02*
X130692481Y-115681950D01*
X130692481Y-115681950D02*
X130730576Y-115720045D01*
X130730576Y-115720045D02*
X130768671Y-115796236D01*
X130768671Y-115796236D02*
X130768671Y-115834331D01*
X130768671Y-115834331D02*
X130730576Y-115910521D01*
X130730576Y-115910521D02*
X130692481Y-115948617D01*
X130692481Y-115948617D02*
X130616290Y-115986712D01*
X130616290Y-115986712D02*
X130463909Y-115986712D01*
X130463909Y-115986712D02*
X130387719Y-116024807D01*
X130387719Y-116024807D02*
X130349624Y-116062902D01*
X130349624Y-116062902D02*
X130311528Y-116139093D01*
X130311528Y-116139093D02*
X130311528Y-116291474D01*
X130311528Y-116291474D02*
X130349624Y-116367664D01*
X130349624Y-116367664D02*
X130387719Y-116405760D01*
X130387719Y-116405760D02*
X130463909Y-116443855D01*
X130463909Y-116443855D02*
X130616290Y-116443855D01*
X130616290Y-116443855D02*
X130692481Y-116405760D01*
X130692481Y-116405760D02*
X130730576Y-116367664D01*
X130730576Y-116367664D02*
X130768671Y-116291474D01*
X130768671Y-116291474D02*
X130768671Y-116139093D01*
X130768671Y-116139093D02*
X130730576Y-116062902D01*
X130730576Y-116062902D02*
X130692481Y-116024807D01*
X130692481Y-116024807D02*
X130616290Y-115986712D01*
X121214285Y-107044807D02*
X121328571Y-107082902D01*
X121328571Y-107082902D02*
X121366666Y-107120998D01*
X121366666Y-107120998D02*
X121404762Y-107197188D01*
X121404762Y-107197188D02*
X121404762Y-107311474D01*
X121404762Y-107311474D02*
X121366666Y-107387664D01*
X121366666Y-107387664D02*
X121328571Y-107425760D01*
X121328571Y-107425760D02*
X121252381Y-107463855D01*
X121252381Y-107463855D02*
X120947619Y-107463855D01*
X120947619Y-107463855D02*
X120947619Y-106663855D01*
X120947619Y-106663855D02*
X121214285Y-106663855D01*
X121214285Y-106663855D02*
X121290476Y-106701950D01*
X121290476Y-106701950D02*
X121328571Y-106740045D01*
X121328571Y-106740045D02*
X121366666Y-106816236D01*
X121366666Y-106816236D02*
X121366666Y-106892426D01*
X121366666Y-106892426D02*
X121328571Y-106968617D01*
X121328571Y-106968617D02*
X121290476Y-107006712D01*
X121290476Y-107006712D02*
X121214285Y-107044807D01*
X121214285Y-107044807D02*
X120947619Y-107044807D01*
X121709523Y-107235283D02*
X122090476Y-107235283D01*
X121633333Y-107463855D02*
X121900000Y-106663855D01*
X121900000Y-106663855D02*
X122166666Y-107463855D01*
X122319047Y-106663855D02*
X122776190Y-106663855D01*
X122547618Y-107463855D02*
X122547618Y-106663855D01*
X123042857Y-107159093D02*
X123652381Y-107159093D01*
X123347619Y-107463855D02*
X123347619Y-106854331D01*
X121269423Y-113903855D02*
X121269423Y-113103855D01*
X121269423Y-113103855D02*
X121459899Y-113103855D01*
X121459899Y-113103855D02*
X121574185Y-113141950D01*
X121574185Y-113141950D02*
X121650375Y-113218140D01*
X121650375Y-113218140D02*
X121688470Y-113294331D01*
X121688470Y-113294331D02*
X121726566Y-113446712D01*
X121726566Y-113446712D02*
X121726566Y-113560998D01*
X121726566Y-113560998D02*
X121688470Y-113713379D01*
X121688470Y-113713379D02*
X121650375Y-113789569D01*
X121650375Y-113789569D02*
X121574185Y-113865760D01*
X121574185Y-113865760D02*
X121459899Y-113903855D01*
X121459899Y-113903855D02*
X121269423Y-113903855D01*
X122412280Y-113370521D02*
X122412280Y-113903855D01*
X122221804Y-113065760D02*
X122031327Y-113637188D01*
X122031327Y-113637188D02*
X122526566Y-113637188D01*
X128825814Y-108023855D02*
X129321052Y-108023855D01*
X129321052Y-108023855D02*
X129054386Y-108328617D01*
X129054386Y-108328617D02*
X129168671Y-108328617D01*
X129168671Y-108328617D02*
X129244862Y-108366712D01*
X129244862Y-108366712D02*
X129282957Y-108404807D01*
X129282957Y-108404807D02*
X129321052Y-108480998D01*
X129321052Y-108480998D02*
X129321052Y-108671474D01*
X129321052Y-108671474D02*
X129282957Y-108747664D01*
X129282957Y-108747664D02*
X129244862Y-108785760D01*
X129244862Y-108785760D02*
X129168671Y-108823855D01*
X129168671Y-108823855D02*
X128940100Y-108823855D01*
X128940100Y-108823855D02*
X128863909Y-108785760D01*
X128863909Y-108785760D02*
X128825814Y-108747664D01*
X129549624Y-108023855D02*
X129816291Y-108823855D01*
X129816291Y-108823855D02*
X130082957Y-108023855D01*
X130273433Y-108023855D02*
X130768671Y-108023855D01*
X130768671Y-108023855D02*
X130502005Y-108328617D01*
X130502005Y-108328617D02*
X130616290Y-108328617D01*
X130616290Y-108328617D02*
X130692481Y-108366712D01*
X130692481Y-108366712D02*
X130730576Y-108404807D01*
X130730576Y-108404807D02*
X130768671Y-108480998D01*
X130768671Y-108480998D02*
X130768671Y-108671474D01*
X130768671Y-108671474D02*
X130730576Y-108747664D01*
X130730576Y-108747664D02*
X130692481Y-108785760D01*
X130692481Y-108785760D02*
X130616290Y-108823855D01*
X130616290Y-108823855D02*
X130387719Y-108823855D01*
X130387719Y-108823855D02*
X130311528Y-108785760D01*
X130311528Y-108785760D02*
X130273433Y-108747664D01*
X121269423Y-116443855D02*
X121269423Y-115643855D01*
X121269423Y-115643855D02*
X121459899Y-115643855D01*
X121459899Y-115643855D02*
X121574185Y-115681950D01*
X121574185Y-115681950D02*
X121650375Y-115758140D01*
X121650375Y-115758140D02*
X121688470Y-115834331D01*
X121688470Y-115834331D02*
X121726566Y-115986712D01*
X121726566Y-115986712D02*
X121726566Y-116100998D01*
X121726566Y-116100998D02*
X121688470Y-116253379D01*
X121688470Y-116253379D02*
X121650375Y-116329569D01*
X121650375Y-116329569D02*
X121574185Y-116405760D01*
X121574185Y-116405760D02*
X121459899Y-116443855D01*
X121459899Y-116443855D02*
X121269423Y-116443855D01*
X122450375Y-115643855D02*
X122069423Y-115643855D01*
X122069423Y-115643855D02*
X122031327Y-116024807D01*
X122031327Y-116024807D02*
X122069423Y-115986712D01*
X122069423Y-115986712D02*
X122145613Y-115948617D01*
X122145613Y-115948617D02*
X122336089Y-115948617D01*
X122336089Y-115948617D02*
X122412280Y-115986712D01*
X122412280Y-115986712D02*
X122450375Y-116024807D01*
X122450375Y-116024807D02*
X122488470Y-116100998D01*
X122488470Y-116100998D02*
X122488470Y-116291474D01*
X122488470Y-116291474D02*
X122450375Y-116367664D01*
X122450375Y-116367664D02*
X122412280Y-116405760D01*
X122412280Y-116405760D02*
X122336089Y-116443855D01*
X122336089Y-116443855D02*
X122145613Y-116443855D01*
X122145613Y-116443855D02*
X122069423Y-116405760D01*
X122069423Y-116405760D02*
X122031327Y-116367664D01*
X130044862Y-102943855D02*
X129663910Y-102943855D01*
X129663910Y-102943855D02*
X129625814Y-103324807D01*
X129625814Y-103324807D02*
X129663910Y-103286712D01*
X129663910Y-103286712D02*
X129740100Y-103248617D01*
X129740100Y-103248617D02*
X129930576Y-103248617D01*
X129930576Y-103248617D02*
X130006767Y-103286712D01*
X130006767Y-103286712D02*
X130044862Y-103324807D01*
X130044862Y-103324807D02*
X130082957Y-103400998D01*
X130082957Y-103400998D02*
X130082957Y-103591474D01*
X130082957Y-103591474D02*
X130044862Y-103667664D01*
X130044862Y-103667664D02*
X130006767Y-103705760D01*
X130006767Y-103705760D02*
X129930576Y-103743855D01*
X129930576Y-103743855D02*
X129740100Y-103743855D01*
X129740100Y-103743855D02*
X129663910Y-103705760D01*
X129663910Y-103705760D02*
X129625814Y-103667664D01*
X130311529Y-102943855D02*
X130578196Y-103743855D01*
X130578196Y-103743855D02*
X130844862Y-102943855D01*
X124990476Y-101263855D02*
X124990476Y-101911474D01*
X124990476Y-101911474D02*
X125028571Y-101987664D01*
X125028571Y-101987664D02*
X125066666Y-102025760D01*
X125066666Y-102025760D02*
X125142857Y-102063855D01*
X125142857Y-102063855D02*
X125295238Y-102063855D01*
X125295238Y-102063855D02*
X125371428Y-102025760D01*
X125371428Y-102025760D02*
X125409523Y-101987664D01*
X125409523Y-101987664D02*
X125447619Y-101911474D01*
X125447619Y-101911474D02*
X125447619Y-101263855D01*
X125790475Y-102025760D02*
X125904761Y-102063855D01*
X125904761Y-102063855D02*
X126095237Y-102063855D01*
X126095237Y-102063855D02*
X126171428Y-102025760D01*
X126171428Y-102025760D02*
X126209523Y-101987664D01*
X126209523Y-101987664D02*
X126247618Y-101911474D01*
X126247618Y-101911474D02*
X126247618Y-101835283D01*
X126247618Y-101835283D02*
X126209523Y-101759093D01*
X126209523Y-101759093D02*
X126171428Y-101720998D01*
X126171428Y-101720998D02*
X126095237Y-101682902D01*
X126095237Y-101682902D02*
X125942856Y-101644807D01*
X125942856Y-101644807D02*
X125866666Y-101606712D01*
X125866666Y-101606712D02*
X125828571Y-101568617D01*
X125828571Y-101568617D02*
X125790475Y-101492426D01*
X125790475Y-101492426D02*
X125790475Y-101416236D01*
X125790475Y-101416236D02*
X125828571Y-101340045D01*
X125828571Y-101340045D02*
X125866666Y-101301950D01*
X125866666Y-101301950D02*
X125942856Y-101263855D01*
X125942856Y-101263855D02*
X126133333Y-101263855D01*
X126133333Y-101263855D02*
X126247618Y-101301950D01*
X126857142Y-101644807D02*
X126971428Y-101682902D01*
X126971428Y-101682902D02*
X127009523Y-101720998D01*
X127009523Y-101720998D02*
X127047619Y-101797188D01*
X127047619Y-101797188D02*
X127047619Y-101911474D01*
X127047619Y-101911474D02*
X127009523Y-101987664D01*
X127009523Y-101987664D02*
X126971428Y-102025760D01*
X126971428Y-102025760D02*
X126895238Y-102063855D01*
X126895238Y-102063855D02*
X126590476Y-102063855D01*
X126590476Y-102063855D02*
X126590476Y-101263855D01*
X126590476Y-101263855D02*
X126857142Y-101263855D01*
X126857142Y-101263855D02*
X126933333Y-101301950D01*
X126933333Y-101301950D02*
X126971428Y-101340045D01*
X126971428Y-101340045D02*
X127009523Y-101416236D01*
X127009523Y-101416236D02*
X127009523Y-101492426D01*
X127009523Y-101492426D02*
X126971428Y-101568617D01*
X126971428Y-101568617D02*
X126933333Y-101606712D01*
X126933333Y-101606712D02*
X126857142Y-101644807D01*
X126857142Y-101644807D02*
X126590476Y-101644807D01*
X121269423Y-106283855D02*
X121269423Y-105483855D01*
X121269423Y-105483855D02*
X121459899Y-105483855D01*
X121459899Y-105483855D02*
X121574185Y-105521950D01*
X121574185Y-105521950D02*
X121650375Y-105598140D01*
X121650375Y-105598140D02*
X121688470Y-105674331D01*
X121688470Y-105674331D02*
X121726566Y-105826712D01*
X121726566Y-105826712D02*
X121726566Y-105940998D01*
X121726566Y-105940998D02*
X121688470Y-106093379D01*
X121688470Y-106093379D02*
X121650375Y-106169569D01*
X121650375Y-106169569D02*
X121574185Y-106245760D01*
X121574185Y-106245760D02*
X121459899Y-106283855D01*
X121459899Y-106283855D02*
X121269423Y-106283855D01*
X122488470Y-106283855D02*
X122031327Y-106283855D01*
X122259899Y-106283855D02*
X122259899Y-105483855D01*
X122259899Y-105483855D02*
X122183708Y-105598140D01*
X122183708Y-105598140D02*
X122107518Y-105674331D01*
X122107518Y-105674331D02*
X122031327Y-105712426D01*
X129549624Y-113903855D02*
X129549624Y-113103855D01*
X129549624Y-113103855D02*
X129740100Y-113103855D01*
X129740100Y-113103855D02*
X129854386Y-113141950D01*
X129854386Y-113141950D02*
X129930576Y-113218140D01*
X129930576Y-113218140D02*
X129968671Y-113294331D01*
X129968671Y-113294331D02*
X130006767Y-113446712D01*
X130006767Y-113446712D02*
X130006767Y-113560998D01*
X130006767Y-113560998D02*
X129968671Y-113713379D01*
X129968671Y-113713379D02*
X129930576Y-113789569D01*
X129930576Y-113789569D02*
X129854386Y-113865760D01*
X129854386Y-113865760D02*
X129740100Y-113903855D01*
X129740100Y-113903855D02*
X129549624Y-113903855D01*
X130387719Y-113903855D02*
X130540100Y-113903855D01*
X130540100Y-113903855D02*
X130616290Y-113865760D01*
X130616290Y-113865760D02*
X130654386Y-113827664D01*
X130654386Y-113827664D02*
X130730576Y-113713379D01*
X130730576Y-113713379D02*
X130768671Y-113560998D01*
X130768671Y-113560998D02*
X130768671Y-113256236D01*
X130768671Y-113256236D02*
X130730576Y-113180045D01*
X130730576Y-113180045D02*
X130692481Y-113141950D01*
X130692481Y-113141950D02*
X130616290Y-113103855D01*
X130616290Y-113103855D02*
X130463909Y-113103855D01*
X130463909Y-113103855D02*
X130387719Y-113141950D01*
X130387719Y-113141950D02*
X130349624Y-113180045D01*
X130349624Y-113180045D02*
X130311528Y-113256236D01*
X130311528Y-113256236D02*
X130311528Y-113446712D01*
X130311528Y-113446712D02*
X130349624Y-113522902D01*
X130349624Y-113522902D02*
X130387719Y-113560998D01*
X130387719Y-113560998D02*
X130463909Y-113599093D01*
X130463909Y-113599093D02*
X130616290Y-113599093D01*
X130616290Y-113599093D02*
X130692481Y-113560998D01*
X130692481Y-113560998D02*
X130730576Y-113522902D01*
X130730576Y-113522902D02*
X130768671Y-113446712D01*
X121269423Y-118983855D02*
X121269423Y-118183855D01*
X121269423Y-118183855D02*
X121459899Y-118183855D01*
X121459899Y-118183855D02*
X121574185Y-118221950D01*
X121574185Y-118221950D02*
X121650375Y-118298140D01*
X121650375Y-118298140D02*
X121688470Y-118374331D01*
X121688470Y-118374331D02*
X121726566Y-118526712D01*
X121726566Y-118526712D02*
X121726566Y-118640998D01*
X121726566Y-118640998D02*
X121688470Y-118793379D01*
X121688470Y-118793379D02*
X121650375Y-118869569D01*
X121650375Y-118869569D02*
X121574185Y-118945760D01*
X121574185Y-118945760D02*
X121459899Y-118983855D01*
X121459899Y-118983855D02*
X121269423Y-118983855D01*
X122412280Y-118183855D02*
X122259899Y-118183855D01*
X122259899Y-118183855D02*
X122183708Y-118221950D01*
X122183708Y-118221950D02*
X122145613Y-118260045D01*
X122145613Y-118260045D02*
X122069423Y-118374331D01*
X122069423Y-118374331D02*
X122031327Y-118526712D01*
X122031327Y-118526712D02*
X122031327Y-118831474D01*
X122031327Y-118831474D02*
X122069423Y-118907664D01*
X122069423Y-118907664D02*
X122107518Y-118945760D01*
X122107518Y-118945760D02*
X122183708Y-118983855D01*
X122183708Y-118983855D02*
X122336089Y-118983855D01*
X122336089Y-118983855D02*
X122412280Y-118945760D01*
X122412280Y-118945760D02*
X122450375Y-118907664D01*
X122450375Y-118907664D02*
X122488470Y-118831474D01*
X122488470Y-118831474D02*
X122488470Y-118640998D01*
X122488470Y-118640998D02*
X122450375Y-118564807D01*
X122450375Y-118564807D02*
X122412280Y-118526712D01*
X122412280Y-118526712D02*
X122336089Y-118488617D01*
X122336089Y-118488617D02*
X122183708Y-118488617D01*
X122183708Y-118488617D02*
X122107518Y-118526712D01*
X122107518Y-118526712D02*
X122069423Y-118564807D01*
X122069423Y-118564807D02*
X122031327Y-118640998D01*
X128787719Y-111363855D02*
X128787719Y-110563855D01*
X128787719Y-110563855D02*
X128978195Y-110563855D01*
X128978195Y-110563855D02*
X129092481Y-110601950D01*
X129092481Y-110601950D02*
X129168671Y-110678140D01*
X129168671Y-110678140D02*
X129206766Y-110754331D01*
X129206766Y-110754331D02*
X129244862Y-110906712D01*
X129244862Y-110906712D02*
X129244862Y-111020998D01*
X129244862Y-111020998D02*
X129206766Y-111173379D01*
X129206766Y-111173379D02*
X129168671Y-111249569D01*
X129168671Y-111249569D02*
X129092481Y-111325760D01*
X129092481Y-111325760D02*
X128978195Y-111363855D01*
X128978195Y-111363855D02*
X128787719Y-111363855D01*
X130006766Y-111363855D02*
X129549623Y-111363855D01*
X129778195Y-111363855D02*
X129778195Y-110563855D01*
X129778195Y-110563855D02*
X129702004Y-110678140D01*
X129702004Y-110678140D02*
X129625814Y-110754331D01*
X129625814Y-110754331D02*
X129549623Y-110792426D01*
X130502005Y-110563855D02*
X130578195Y-110563855D01*
X130578195Y-110563855D02*
X130654386Y-110601950D01*
X130654386Y-110601950D02*
X130692481Y-110640045D01*
X130692481Y-110640045D02*
X130730576Y-110716236D01*
X130730576Y-110716236D02*
X130768671Y-110868617D01*
X130768671Y-110868617D02*
X130768671Y-111059093D01*
X130768671Y-111059093D02*
X130730576Y-111211474D01*
X130730576Y-111211474D02*
X130692481Y-111287664D01*
X130692481Y-111287664D02*
X130654386Y-111325760D01*
X130654386Y-111325760D02*
X130578195Y-111363855D01*
X130578195Y-111363855D02*
X130502005Y-111363855D01*
X130502005Y-111363855D02*
X130425814Y-111325760D01*
X130425814Y-111325760D02*
X130387719Y-111287664D01*
X130387719Y-111287664D02*
X130349624Y-111211474D01*
X130349624Y-111211474D02*
X130311528Y-111059093D01*
X130311528Y-111059093D02*
X130311528Y-110868617D01*
X130311528Y-110868617D02*
X130349624Y-110716236D01*
X130349624Y-110716236D02*
X130387719Y-110640045D01*
X130387719Y-110640045D02*
X130425814Y-110601950D01*
X130425814Y-110601950D02*
X130502005Y-110563855D01*
X121269423Y-103743855D02*
X121269423Y-102943855D01*
X121269423Y-102943855D02*
X121459899Y-102943855D01*
X121459899Y-102943855D02*
X121574185Y-102981950D01*
X121574185Y-102981950D02*
X121650375Y-103058140D01*
X121650375Y-103058140D02*
X121688470Y-103134331D01*
X121688470Y-103134331D02*
X121726566Y-103286712D01*
X121726566Y-103286712D02*
X121726566Y-103400998D01*
X121726566Y-103400998D02*
X121688470Y-103553379D01*
X121688470Y-103553379D02*
X121650375Y-103629569D01*
X121650375Y-103629569D02*
X121574185Y-103705760D01*
X121574185Y-103705760D02*
X121459899Y-103743855D01*
X121459899Y-103743855D02*
X121269423Y-103743855D01*
X122221804Y-102943855D02*
X122297994Y-102943855D01*
X122297994Y-102943855D02*
X122374185Y-102981950D01*
X122374185Y-102981950D02*
X122412280Y-103020045D01*
X122412280Y-103020045D02*
X122450375Y-103096236D01*
X122450375Y-103096236D02*
X122488470Y-103248617D01*
X122488470Y-103248617D02*
X122488470Y-103439093D01*
X122488470Y-103439093D02*
X122450375Y-103591474D01*
X122450375Y-103591474D02*
X122412280Y-103667664D01*
X122412280Y-103667664D02*
X122374185Y-103705760D01*
X122374185Y-103705760D02*
X122297994Y-103743855D01*
X122297994Y-103743855D02*
X122221804Y-103743855D01*
X122221804Y-103743855D02*
X122145613Y-103705760D01*
X122145613Y-103705760D02*
X122107518Y-103667664D01*
X122107518Y-103667664D02*
X122069423Y-103591474D01*
X122069423Y-103591474D02*
X122031327Y-103439093D01*
X122031327Y-103439093D02*
X122031327Y-103248617D01*
X122031327Y-103248617D02*
X122069423Y-103096236D01*
X122069423Y-103096236D02*
X122107518Y-103020045D01*
X122107518Y-103020045D02*
X122145613Y-102981950D01*
X122145613Y-102981950D02*
X122221804Y-102943855D01*
D11*
X101063335Y-128733332D02*
X100682382Y-128999999D01*
X101063335Y-129190475D02*
X100263335Y-129190475D01*
X100263335Y-129190475D02*
X100263335Y-128885713D01*
X100263335Y-128885713D02*
X100301430Y-128809523D01*
X100301430Y-128809523D02*
X100339525Y-128771428D01*
X100339525Y-128771428D02*
X100415716Y-128733332D01*
X100415716Y-128733332D02*
X100530001Y-128733332D01*
X100530001Y-128733332D02*
X100606192Y-128771428D01*
X100606192Y-128771428D02*
X100644287Y-128809523D01*
X100644287Y-128809523D02*
X100682382Y-128885713D01*
X100682382Y-128885713D02*
X100682382Y-129190475D01*
X101063335Y-128352380D02*
X101063335Y-128199999D01*
X101063335Y-128199999D02*
X101025240Y-128123809D01*
X101025240Y-128123809D02*
X100987144Y-128085713D01*
X100987144Y-128085713D02*
X100872859Y-128009523D01*
X100872859Y-128009523D02*
X100720478Y-127971428D01*
X100720478Y-127971428D02*
X100415716Y-127971428D01*
X100415716Y-127971428D02*
X100339525Y-128009523D01*
X100339525Y-128009523D02*
X100301430Y-128047618D01*
X100301430Y-128047618D02*
X100263335Y-128123809D01*
X100263335Y-128123809D02*
X100263335Y-128276190D01*
X100263335Y-128276190D02*
X100301430Y-128352380D01*
X100301430Y-128352380D02*
X100339525Y-128390475D01*
X100339525Y-128390475D02*
X100415716Y-128428571D01*
X100415716Y-128428571D02*
X100606192Y-128428571D01*
X100606192Y-128428571D02*
X100682382Y-128390475D01*
X100682382Y-128390475D02*
X100720478Y-128352380D01*
X100720478Y-128352380D02*
X100758573Y-128276190D01*
X100758573Y-128276190D02*
X100758573Y-128123809D01*
X100758573Y-128123809D02*
X100720478Y-128047618D01*
X100720478Y-128047618D02*
X100682382Y-128009523D01*
X100682382Y-128009523D02*
X100606192Y-127971428D01*
X129163335Y-130866666D02*
X129734763Y-130866666D01*
X129734763Y-130866666D02*
X129849049Y-130904761D01*
X129849049Y-130904761D02*
X129925240Y-130980952D01*
X129925240Y-130980952D02*
X129963335Y-131095237D01*
X129963335Y-131095237D02*
X129963335Y-131171428D01*
X129239525Y-130523809D02*
X129201430Y-130485713D01*
X129201430Y-130485713D02*
X129163335Y-130409523D01*
X129163335Y-130409523D02*
X129163335Y-130219047D01*
X129163335Y-130219047D02*
X129201430Y-130142856D01*
X129201430Y-130142856D02*
X129239525Y-130104761D01*
X129239525Y-130104761D02*
X129315716Y-130066666D01*
X129315716Y-130066666D02*
X129391906Y-130066666D01*
X129391906Y-130066666D02*
X129506192Y-130104761D01*
X129506192Y-130104761D02*
X129963335Y-130561904D01*
X129963335Y-130561904D02*
X129963335Y-130066666D01*
X115766667Y-130787144D02*
X115728571Y-130825240D01*
X115728571Y-130825240D02*
X115614286Y-130863335D01*
X115614286Y-130863335D02*
X115538095Y-130863335D01*
X115538095Y-130863335D02*
X115423809Y-130825240D01*
X115423809Y-130825240D02*
X115347619Y-130749049D01*
X115347619Y-130749049D02*
X115309524Y-130672859D01*
X115309524Y-130672859D02*
X115271428Y-130520478D01*
X115271428Y-130520478D02*
X115271428Y-130406192D01*
X115271428Y-130406192D02*
X115309524Y-130253811D01*
X115309524Y-130253811D02*
X115347619Y-130177620D01*
X115347619Y-130177620D02*
X115423809Y-130101430D01*
X115423809Y-130101430D02*
X115538095Y-130063335D01*
X115538095Y-130063335D02*
X115614286Y-130063335D01*
X115614286Y-130063335D02*
X115728571Y-130101430D01*
X115728571Y-130101430D02*
X115766667Y-130139525D01*
X116490476Y-130063335D02*
X116109524Y-130063335D01*
X116109524Y-130063335D02*
X116071428Y-130444287D01*
X116071428Y-130444287D02*
X116109524Y-130406192D01*
X116109524Y-130406192D02*
X116185714Y-130368097D01*
X116185714Y-130368097D02*
X116376190Y-130368097D01*
X116376190Y-130368097D02*
X116452381Y-130406192D01*
X116452381Y-130406192D02*
X116490476Y-130444287D01*
X116490476Y-130444287D02*
X116528571Y-130520478D01*
X116528571Y-130520478D02*
X116528571Y-130710954D01*
X116528571Y-130710954D02*
X116490476Y-130787144D01*
X116490476Y-130787144D02*
X116452381Y-130825240D01*
X116452381Y-130825240D02*
X116376190Y-130863335D01*
X116376190Y-130863335D02*
X116185714Y-130863335D01*
X116185714Y-130863335D02*
X116109524Y-130825240D01*
X116109524Y-130825240D02*
X116071428Y-130787144D01*
X105363335Y-103133333D02*
X105363335Y-103514285D01*
X105363335Y-103514285D02*
X104563335Y-103514285D01*
X105363335Y-102447619D02*
X105363335Y-102904762D01*
X105363335Y-102676190D02*
X104563335Y-102676190D01*
X104563335Y-102676190D02*
X104677620Y-102752381D01*
X104677620Y-102752381D02*
X104753811Y-102828571D01*
X104753811Y-102828571D02*
X104791906Y-102904762D01*
X108057144Y-116333332D02*
X108095240Y-116371428D01*
X108095240Y-116371428D02*
X108133335Y-116485713D01*
X108133335Y-116485713D02*
X108133335Y-116561904D01*
X108133335Y-116561904D02*
X108095240Y-116676190D01*
X108095240Y-116676190D02*
X108019049Y-116752380D01*
X108019049Y-116752380D02*
X107942859Y-116790475D01*
X107942859Y-116790475D02*
X107790478Y-116828571D01*
X107790478Y-116828571D02*
X107676192Y-116828571D01*
X107676192Y-116828571D02*
X107523811Y-116790475D01*
X107523811Y-116790475D02*
X107447620Y-116752380D01*
X107447620Y-116752380D02*
X107371430Y-116676190D01*
X107371430Y-116676190D02*
X107333335Y-116561904D01*
X107333335Y-116561904D02*
X107333335Y-116485713D01*
X107333335Y-116485713D02*
X107371430Y-116371428D01*
X107371430Y-116371428D02*
X107409525Y-116333332D01*
X107600001Y-115647618D02*
X108133335Y-115647618D01*
X107295240Y-115838094D02*
X107866668Y-116028571D01*
X107866668Y-116028571D02*
X107866668Y-115533332D01*
X108413335Y-108790475D02*
X107613335Y-108790475D01*
X107613335Y-108790475D02*
X107613335Y-108599999D01*
X107613335Y-108599999D02*
X107651430Y-108485713D01*
X107651430Y-108485713D02*
X107727620Y-108409523D01*
X107727620Y-108409523D02*
X107803811Y-108371428D01*
X107803811Y-108371428D02*
X107956192Y-108333332D01*
X107956192Y-108333332D02*
X108070478Y-108333332D01*
X108070478Y-108333332D02*
X108222859Y-108371428D01*
X108222859Y-108371428D02*
X108299049Y-108409523D01*
X108299049Y-108409523D02*
X108375240Y-108485713D01*
X108375240Y-108485713D02*
X108413335Y-108599999D01*
X108413335Y-108599999D02*
X108413335Y-108790475D01*
X107880001Y-107647618D02*
X108413335Y-107647618D01*
X107575240Y-107838094D02*
X108146668Y-108028571D01*
X108146668Y-108028571D02*
X108146668Y-107533332D01*
X128390476Y-121663335D02*
X128390476Y-122310954D01*
X128390476Y-122310954D02*
X128428571Y-122387144D01*
X128428571Y-122387144D02*
X128466666Y-122425240D01*
X128466666Y-122425240D02*
X128542857Y-122463335D01*
X128542857Y-122463335D02*
X128695238Y-122463335D01*
X128695238Y-122463335D02*
X128771428Y-122425240D01*
X128771428Y-122425240D02*
X128809523Y-122387144D01*
X128809523Y-122387144D02*
X128847619Y-122310954D01*
X128847619Y-122310954D02*
X128847619Y-121663335D01*
X129190475Y-121739525D02*
X129228571Y-121701430D01*
X129228571Y-121701430D02*
X129304761Y-121663335D01*
X129304761Y-121663335D02*
X129495237Y-121663335D01*
X129495237Y-121663335D02*
X129571428Y-121701430D01*
X129571428Y-121701430D02*
X129609523Y-121739525D01*
X129609523Y-121739525D02*
X129647618Y-121815716D01*
X129647618Y-121815716D02*
X129647618Y-121891906D01*
X129647618Y-121891906D02*
X129609523Y-122006192D01*
X129609523Y-122006192D02*
X129152380Y-122463335D01*
X129152380Y-122463335D02*
X129647618Y-122463335D01*
X139866667Y-118863335D02*
X139600000Y-118482382D01*
X139409524Y-118863335D02*
X139409524Y-118063335D01*
X139409524Y-118063335D02*
X139714286Y-118063335D01*
X139714286Y-118063335D02*
X139790476Y-118101430D01*
X139790476Y-118101430D02*
X139828571Y-118139525D01*
X139828571Y-118139525D02*
X139866667Y-118215716D01*
X139866667Y-118215716D02*
X139866667Y-118330001D01*
X139866667Y-118330001D02*
X139828571Y-118406192D01*
X139828571Y-118406192D02*
X139790476Y-118444287D01*
X139790476Y-118444287D02*
X139714286Y-118482382D01*
X139714286Y-118482382D02*
X139409524Y-118482382D01*
X140171428Y-118139525D02*
X140209524Y-118101430D01*
X140209524Y-118101430D02*
X140285714Y-118063335D01*
X140285714Y-118063335D02*
X140476190Y-118063335D01*
X140476190Y-118063335D02*
X140552381Y-118101430D01*
X140552381Y-118101430D02*
X140590476Y-118139525D01*
X140590476Y-118139525D02*
X140628571Y-118215716D01*
X140628571Y-118215716D02*
X140628571Y-118291906D01*
X140628571Y-118291906D02*
X140590476Y-118406192D01*
X140590476Y-118406192D02*
X140133333Y-118863335D01*
X140133333Y-118863335D02*
X140628571Y-118863335D01*
X117890476Y-122113335D02*
X117890476Y-122760954D01*
X117890476Y-122760954D02*
X117928571Y-122837144D01*
X117928571Y-122837144D02*
X117966666Y-122875240D01*
X117966666Y-122875240D02*
X118042857Y-122913335D01*
X118042857Y-122913335D02*
X118195238Y-122913335D01*
X118195238Y-122913335D02*
X118271428Y-122875240D01*
X118271428Y-122875240D02*
X118309523Y-122837144D01*
X118309523Y-122837144D02*
X118347619Y-122760954D01*
X118347619Y-122760954D02*
X118347619Y-122113335D01*
X118652380Y-122113335D02*
X119147618Y-122113335D01*
X119147618Y-122113335D02*
X118880952Y-122418097D01*
X118880952Y-122418097D02*
X118995237Y-122418097D01*
X118995237Y-122418097D02*
X119071428Y-122456192D01*
X119071428Y-122456192D02*
X119109523Y-122494287D01*
X119109523Y-122494287D02*
X119147618Y-122570478D01*
X119147618Y-122570478D02*
X119147618Y-122760954D01*
X119147618Y-122760954D02*
X119109523Y-122837144D01*
X119109523Y-122837144D02*
X119071428Y-122875240D01*
X119071428Y-122875240D02*
X118995237Y-122913335D01*
X118995237Y-122913335D02*
X118766666Y-122913335D01*
X118766666Y-122913335D02*
X118690475Y-122875240D01*
X118690475Y-122875240D02*
X118652380Y-122837144D01*
X126466667Y-131987144D02*
X126428571Y-132025240D01*
X126428571Y-132025240D02*
X126314286Y-132063335D01*
X126314286Y-132063335D02*
X126238095Y-132063335D01*
X126238095Y-132063335D02*
X126123809Y-132025240D01*
X126123809Y-132025240D02*
X126047619Y-131949049D01*
X126047619Y-131949049D02*
X126009524Y-131872859D01*
X126009524Y-131872859D02*
X125971428Y-131720478D01*
X125971428Y-131720478D02*
X125971428Y-131606192D01*
X125971428Y-131606192D02*
X126009524Y-131453811D01*
X126009524Y-131453811D02*
X126047619Y-131377620D01*
X126047619Y-131377620D02*
X126123809Y-131301430D01*
X126123809Y-131301430D02*
X126238095Y-131263335D01*
X126238095Y-131263335D02*
X126314286Y-131263335D01*
X126314286Y-131263335D02*
X126428571Y-131301430D01*
X126428571Y-131301430D02*
X126466667Y-131339525D01*
X127228571Y-132063335D02*
X126771428Y-132063335D01*
X127000000Y-132063335D02*
X127000000Y-131263335D01*
X127000000Y-131263335D02*
X126923809Y-131377620D01*
X126923809Y-131377620D02*
X126847619Y-131453811D01*
X126847619Y-131453811D02*
X126771428Y-131491906D01*
X103990476Y-104863335D02*
X103990476Y-105510954D01*
X103990476Y-105510954D02*
X104028571Y-105587144D01*
X104028571Y-105587144D02*
X104066666Y-105625240D01*
X104066666Y-105625240D02*
X104142857Y-105663335D01*
X104142857Y-105663335D02*
X104295238Y-105663335D01*
X104295238Y-105663335D02*
X104371428Y-105625240D01*
X104371428Y-105625240D02*
X104409523Y-105587144D01*
X104409523Y-105587144D02*
X104447619Y-105510954D01*
X104447619Y-105510954D02*
X104447619Y-104863335D01*
X105171428Y-104863335D02*
X105019047Y-104863335D01*
X105019047Y-104863335D02*
X104942856Y-104901430D01*
X104942856Y-104901430D02*
X104904761Y-104939525D01*
X104904761Y-104939525D02*
X104828571Y-105053811D01*
X104828571Y-105053811D02*
X104790475Y-105206192D01*
X104790475Y-105206192D02*
X104790475Y-105510954D01*
X104790475Y-105510954D02*
X104828571Y-105587144D01*
X104828571Y-105587144D02*
X104866666Y-105625240D01*
X104866666Y-105625240D02*
X104942856Y-105663335D01*
X104942856Y-105663335D02*
X105095237Y-105663335D01*
X105095237Y-105663335D02*
X105171428Y-105625240D01*
X105171428Y-105625240D02*
X105209523Y-105587144D01*
X105209523Y-105587144D02*
X105247618Y-105510954D01*
X105247618Y-105510954D02*
X105247618Y-105320478D01*
X105247618Y-105320478D02*
X105209523Y-105244287D01*
X105209523Y-105244287D02*
X105171428Y-105206192D01*
X105171428Y-105206192D02*
X105095237Y-105168097D01*
X105095237Y-105168097D02*
X104942856Y-105168097D01*
X104942856Y-105168097D02*
X104866666Y-105206192D01*
X104866666Y-105206192D02*
X104828571Y-105244287D01*
X104828571Y-105244287D02*
X104790475Y-105320478D01*
X107163335Y-125409523D02*
X107810954Y-125409523D01*
X107810954Y-125409523D02*
X107887144Y-125371428D01*
X107887144Y-125371428D02*
X107925240Y-125333333D01*
X107925240Y-125333333D02*
X107963335Y-125257142D01*
X107963335Y-125257142D02*
X107963335Y-125104761D01*
X107963335Y-125104761D02*
X107925240Y-125028571D01*
X107925240Y-125028571D02*
X107887144Y-124990476D01*
X107887144Y-124990476D02*
X107810954Y-124952380D01*
X107810954Y-124952380D02*
X107163335Y-124952380D01*
X107506192Y-124457143D02*
X107468097Y-124533333D01*
X107468097Y-124533333D02*
X107430001Y-124571428D01*
X107430001Y-124571428D02*
X107353811Y-124609524D01*
X107353811Y-124609524D02*
X107315716Y-124609524D01*
X107315716Y-124609524D02*
X107239525Y-124571428D01*
X107239525Y-124571428D02*
X107201430Y-124533333D01*
X107201430Y-124533333D02*
X107163335Y-124457143D01*
X107163335Y-124457143D02*
X107163335Y-124304762D01*
X107163335Y-124304762D02*
X107201430Y-124228571D01*
X107201430Y-124228571D02*
X107239525Y-124190476D01*
X107239525Y-124190476D02*
X107315716Y-124152381D01*
X107315716Y-124152381D02*
X107353811Y-124152381D01*
X107353811Y-124152381D02*
X107430001Y-124190476D01*
X107430001Y-124190476D02*
X107468097Y-124228571D01*
X107468097Y-124228571D02*
X107506192Y-124304762D01*
X107506192Y-124304762D02*
X107506192Y-124457143D01*
X107506192Y-124457143D02*
X107544287Y-124533333D01*
X107544287Y-124533333D02*
X107582382Y-124571428D01*
X107582382Y-124571428D02*
X107658573Y-124609524D01*
X107658573Y-124609524D02*
X107810954Y-124609524D01*
X107810954Y-124609524D02*
X107887144Y-124571428D01*
X107887144Y-124571428D02*
X107925240Y-124533333D01*
X107925240Y-124533333D02*
X107963335Y-124457143D01*
X107963335Y-124457143D02*
X107963335Y-124304762D01*
X107963335Y-124304762D02*
X107925240Y-124228571D01*
X107925240Y-124228571D02*
X107887144Y-124190476D01*
X107887144Y-124190476D02*
X107810954Y-124152381D01*
X107810954Y-124152381D02*
X107658573Y-124152381D01*
X107658573Y-124152381D02*
X107582382Y-124190476D01*
X107582382Y-124190476D02*
X107544287Y-124228571D01*
X107544287Y-124228571D02*
X107506192Y-124304762D01*
X110933335Y-116714285D02*
X110552382Y-116980952D01*
X110933335Y-117171428D02*
X110133335Y-117171428D01*
X110133335Y-117171428D02*
X110133335Y-116866666D01*
X110133335Y-116866666D02*
X110171430Y-116790476D01*
X110171430Y-116790476D02*
X110209525Y-116752381D01*
X110209525Y-116752381D02*
X110285716Y-116714285D01*
X110285716Y-116714285D02*
X110400001Y-116714285D01*
X110400001Y-116714285D02*
X110476192Y-116752381D01*
X110476192Y-116752381D02*
X110514287Y-116790476D01*
X110514287Y-116790476D02*
X110552382Y-116866666D01*
X110552382Y-116866666D02*
X110552382Y-117171428D01*
X110209525Y-116409524D02*
X110171430Y-116371428D01*
X110171430Y-116371428D02*
X110133335Y-116295238D01*
X110133335Y-116295238D02*
X110133335Y-116104762D01*
X110133335Y-116104762D02*
X110171430Y-116028571D01*
X110171430Y-116028571D02*
X110209525Y-115990476D01*
X110209525Y-115990476D02*
X110285716Y-115952381D01*
X110285716Y-115952381D02*
X110361906Y-115952381D01*
X110361906Y-115952381D02*
X110476192Y-115990476D01*
X110476192Y-115990476D02*
X110933335Y-116447619D01*
X110933335Y-116447619D02*
X110933335Y-115952381D01*
X110133335Y-115685714D02*
X110133335Y-115152380D01*
X110133335Y-115152380D02*
X110933335Y-115495238D01*
X135763335Y-106866666D02*
X136334763Y-106866666D01*
X136334763Y-106866666D02*
X136449049Y-106904761D01*
X136449049Y-106904761D02*
X136525240Y-106980952D01*
X136525240Y-106980952D02*
X136563335Y-107095237D01*
X136563335Y-107095237D02*
X136563335Y-107171428D01*
X136563335Y-106066666D02*
X136563335Y-106523809D01*
X136563335Y-106295237D02*
X135763335Y-106295237D01*
X135763335Y-106295237D02*
X135877620Y-106371428D01*
X135877620Y-106371428D02*
X135953811Y-106447618D01*
X135953811Y-106447618D02*
X135991906Y-106523809D01*
X107163335Y-121009523D02*
X107810954Y-121009523D01*
X107810954Y-121009523D02*
X107887144Y-120971428D01*
X107887144Y-120971428D02*
X107925240Y-120933333D01*
X107925240Y-120933333D02*
X107963335Y-120857142D01*
X107963335Y-120857142D02*
X107963335Y-120704761D01*
X107963335Y-120704761D02*
X107925240Y-120628571D01*
X107925240Y-120628571D02*
X107887144Y-120590476D01*
X107887144Y-120590476D02*
X107810954Y-120552380D01*
X107810954Y-120552380D02*
X107163335Y-120552380D01*
X107163335Y-120247619D02*
X107163335Y-119714285D01*
X107163335Y-119714285D02*
X107963335Y-120057143D01*
X136423809Y-123239525D02*
X136347619Y-123201430D01*
X136347619Y-123201430D02*
X136271428Y-123125240D01*
X136271428Y-123125240D02*
X136157142Y-123010954D01*
X136157142Y-123010954D02*
X136080952Y-122972859D01*
X136080952Y-122972859D02*
X136004761Y-122972859D01*
X136042857Y-123163335D02*
X135966666Y-123125240D01*
X135966666Y-123125240D02*
X135890476Y-123049049D01*
X135890476Y-123049049D02*
X135852380Y-122896668D01*
X135852380Y-122896668D02*
X135852380Y-122630001D01*
X135852380Y-122630001D02*
X135890476Y-122477620D01*
X135890476Y-122477620D02*
X135966666Y-122401430D01*
X135966666Y-122401430D02*
X136042857Y-122363335D01*
X136042857Y-122363335D02*
X136195238Y-122363335D01*
X136195238Y-122363335D02*
X136271428Y-122401430D01*
X136271428Y-122401430D02*
X136347619Y-122477620D01*
X136347619Y-122477620D02*
X136385714Y-122630001D01*
X136385714Y-122630001D02*
X136385714Y-122896668D01*
X136385714Y-122896668D02*
X136347619Y-123049049D01*
X136347619Y-123049049D02*
X136271428Y-123125240D01*
X136271428Y-123125240D02*
X136195238Y-123163335D01*
X136195238Y-123163335D02*
X136042857Y-123163335D01*
X136690475Y-122439525D02*
X136728571Y-122401430D01*
X136728571Y-122401430D02*
X136804761Y-122363335D01*
X136804761Y-122363335D02*
X136995237Y-122363335D01*
X136995237Y-122363335D02*
X137071428Y-122401430D01*
X137071428Y-122401430D02*
X137109523Y-122439525D01*
X137109523Y-122439525D02*
X137147618Y-122515716D01*
X137147618Y-122515716D02*
X137147618Y-122591906D01*
X137147618Y-122591906D02*
X137109523Y-122706192D01*
X137109523Y-122706192D02*
X136652380Y-123163335D01*
X136652380Y-123163335D02*
X137147618Y-123163335D01*
X107187143Y-116733332D02*
X107225239Y-116771428D01*
X107225239Y-116771428D02*
X107263334Y-116885713D01*
X107263334Y-116885713D02*
X107263334Y-116961904D01*
X107263334Y-116961904D02*
X107225239Y-117076190D01*
X107225239Y-117076190D02*
X107149048Y-117152380D01*
X107149048Y-117152380D02*
X107072858Y-117190475D01*
X107072858Y-117190475D02*
X106920477Y-117228571D01*
X106920477Y-117228571D02*
X106806191Y-117228571D01*
X106806191Y-117228571D02*
X106653810Y-117190475D01*
X106653810Y-117190475D02*
X106577619Y-117152380D01*
X106577619Y-117152380D02*
X106501429Y-117076190D01*
X106501429Y-117076190D02*
X106463334Y-116961904D01*
X106463334Y-116961904D02*
X106463334Y-116885713D01*
X106463334Y-116885713D02*
X106501429Y-116771428D01*
X106501429Y-116771428D02*
X106539524Y-116733332D01*
X106806191Y-116276190D02*
X106768096Y-116352380D01*
X106768096Y-116352380D02*
X106730000Y-116390475D01*
X106730000Y-116390475D02*
X106653810Y-116428571D01*
X106653810Y-116428571D02*
X106615715Y-116428571D01*
X106615715Y-116428571D02*
X106539524Y-116390475D01*
X106539524Y-116390475D02*
X106501429Y-116352380D01*
X106501429Y-116352380D02*
X106463334Y-116276190D01*
X106463334Y-116276190D02*
X106463334Y-116123809D01*
X106463334Y-116123809D02*
X106501429Y-116047618D01*
X106501429Y-116047618D02*
X106539524Y-116009523D01*
X106539524Y-116009523D02*
X106615715Y-115971428D01*
X106615715Y-115971428D02*
X106653810Y-115971428D01*
X106653810Y-115971428D02*
X106730000Y-116009523D01*
X106730000Y-116009523D02*
X106768096Y-116047618D01*
X106768096Y-116047618D02*
X106806191Y-116123809D01*
X106806191Y-116123809D02*
X106806191Y-116276190D01*
X106806191Y-116276190D02*
X106844286Y-116352380D01*
X106844286Y-116352380D02*
X106882381Y-116390475D01*
X106882381Y-116390475D02*
X106958572Y-116428571D01*
X106958572Y-116428571D02*
X107110953Y-116428571D01*
X107110953Y-116428571D02*
X107187143Y-116390475D01*
X107187143Y-116390475D02*
X107225239Y-116352380D01*
X107225239Y-116352380D02*
X107263334Y-116276190D01*
X107263334Y-116276190D02*
X107263334Y-116123809D01*
X107263334Y-116123809D02*
X107225239Y-116047618D01*
X107225239Y-116047618D02*
X107187143Y-116009523D01*
X107187143Y-116009523D02*
X107110953Y-115971428D01*
X107110953Y-115971428D02*
X106958572Y-115971428D01*
X106958572Y-115971428D02*
X106882381Y-116009523D01*
X106882381Y-116009523D02*
X106844286Y-116047618D01*
X106844286Y-116047618D02*
X106806191Y-116123809D01*
X125163335Y-129590475D02*
X124363335Y-129590475D01*
X124363335Y-129590475D02*
X124363335Y-129399999D01*
X124363335Y-129399999D02*
X124401430Y-129285713D01*
X124401430Y-129285713D02*
X124477620Y-129209523D01*
X124477620Y-129209523D02*
X124553811Y-129171428D01*
X124553811Y-129171428D02*
X124706192Y-129133332D01*
X124706192Y-129133332D02*
X124820478Y-129133332D01*
X124820478Y-129133332D02*
X124972859Y-129171428D01*
X124972859Y-129171428D02*
X125049049Y-129209523D01*
X125049049Y-129209523D02*
X125125240Y-129285713D01*
X125125240Y-129285713D02*
X125163335Y-129399999D01*
X125163335Y-129399999D02*
X125163335Y-129590475D01*
X124363335Y-128866666D02*
X124363335Y-128371428D01*
X124363335Y-128371428D02*
X124668097Y-128638094D01*
X124668097Y-128638094D02*
X124668097Y-128523809D01*
X124668097Y-128523809D02*
X124706192Y-128447618D01*
X124706192Y-128447618D02*
X124744287Y-128409523D01*
X124744287Y-128409523D02*
X124820478Y-128371428D01*
X124820478Y-128371428D02*
X125010954Y-128371428D01*
X125010954Y-128371428D02*
X125087144Y-128409523D01*
X125087144Y-128409523D02*
X125125240Y-128447618D01*
X125125240Y-128447618D02*
X125163335Y-128523809D01*
X125163335Y-128523809D02*
X125163335Y-128752380D01*
X125163335Y-128752380D02*
X125125240Y-128828571D01*
X125125240Y-128828571D02*
X125087144Y-128866666D01*
X139213335Y-125333332D02*
X138832382Y-125599999D01*
X139213335Y-125790475D02*
X138413335Y-125790475D01*
X138413335Y-125790475D02*
X138413335Y-125485713D01*
X138413335Y-125485713D02*
X138451430Y-125409523D01*
X138451430Y-125409523D02*
X138489525Y-125371428D01*
X138489525Y-125371428D02*
X138565716Y-125333332D01*
X138565716Y-125333332D02*
X138680001Y-125333332D01*
X138680001Y-125333332D02*
X138756192Y-125371428D01*
X138756192Y-125371428D02*
X138794287Y-125409523D01*
X138794287Y-125409523D02*
X138832382Y-125485713D01*
X138832382Y-125485713D02*
X138832382Y-125790475D01*
X138680001Y-124647618D02*
X139213335Y-124647618D01*
X138375240Y-124838094D02*
X138946668Y-125028571D01*
X138946668Y-125028571D02*
X138946668Y-124533332D01*
X112233335Y-103714285D02*
X111852382Y-103980952D01*
X112233335Y-104171428D02*
X111433335Y-104171428D01*
X111433335Y-104171428D02*
X111433335Y-103866666D01*
X111433335Y-103866666D02*
X111471430Y-103790476D01*
X111471430Y-103790476D02*
X111509525Y-103752381D01*
X111509525Y-103752381D02*
X111585716Y-103714285D01*
X111585716Y-103714285D02*
X111700001Y-103714285D01*
X111700001Y-103714285D02*
X111776192Y-103752381D01*
X111776192Y-103752381D02*
X111814287Y-103790476D01*
X111814287Y-103790476D02*
X111852382Y-103866666D01*
X111852382Y-103866666D02*
X111852382Y-104171428D01*
X111509525Y-103409524D02*
X111471430Y-103371428D01*
X111471430Y-103371428D02*
X111433335Y-103295238D01*
X111433335Y-103295238D02*
X111433335Y-103104762D01*
X111433335Y-103104762D02*
X111471430Y-103028571D01*
X111471430Y-103028571D02*
X111509525Y-102990476D01*
X111509525Y-102990476D02*
X111585716Y-102952381D01*
X111585716Y-102952381D02*
X111661906Y-102952381D01*
X111661906Y-102952381D02*
X111776192Y-102990476D01*
X111776192Y-102990476D02*
X112233335Y-103447619D01*
X112233335Y-103447619D02*
X112233335Y-102952381D01*
X111433335Y-102266666D02*
X111433335Y-102419047D01*
X111433335Y-102419047D02*
X111471430Y-102495238D01*
X111471430Y-102495238D02*
X111509525Y-102533333D01*
X111509525Y-102533333D02*
X111623811Y-102609523D01*
X111623811Y-102609523D02*
X111776192Y-102647619D01*
X111776192Y-102647619D02*
X112080954Y-102647619D01*
X112080954Y-102647619D02*
X112157144Y-102609523D01*
X112157144Y-102609523D02*
X112195240Y-102571428D01*
X112195240Y-102571428D02*
X112233335Y-102495238D01*
X112233335Y-102495238D02*
X112233335Y-102342857D01*
X112233335Y-102342857D02*
X112195240Y-102266666D01*
X112195240Y-102266666D02*
X112157144Y-102228571D01*
X112157144Y-102228571D02*
X112080954Y-102190476D01*
X112080954Y-102190476D02*
X111890478Y-102190476D01*
X111890478Y-102190476D02*
X111814287Y-102228571D01*
X111814287Y-102228571D02*
X111776192Y-102266666D01*
X111776192Y-102266666D02*
X111738097Y-102342857D01*
X111738097Y-102342857D02*
X111738097Y-102495238D01*
X111738097Y-102495238D02*
X111776192Y-102571428D01*
X111776192Y-102571428D02*
X111814287Y-102609523D01*
X111814287Y-102609523D02*
X111890478Y-102647619D01*
X111390476Y-107163335D02*
X111390476Y-107810954D01*
X111390476Y-107810954D02*
X111428571Y-107887144D01*
X111428571Y-107887144D02*
X111466666Y-107925240D01*
X111466666Y-107925240D02*
X111542857Y-107963335D01*
X111542857Y-107963335D02*
X111695238Y-107963335D01*
X111695238Y-107963335D02*
X111771428Y-107925240D01*
X111771428Y-107925240D02*
X111809523Y-107887144D01*
X111809523Y-107887144D02*
X111847619Y-107810954D01*
X111847619Y-107810954D02*
X111847619Y-107163335D01*
X112571428Y-107430001D02*
X112571428Y-107963335D01*
X112380952Y-107125240D02*
X112190475Y-107696668D01*
X112190475Y-107696668D02*
X112685714Y-107696668D01*
X105863335Y-129114285D02*
X105482382Y-129380952D01*
X105863335Y-129571428D02*
X105063335Y-129571428D01*
X105063335Y-129571428D02*
X105063335Y-129266666D01*
X105063335Y-129266666D02*
X105101430Y-129190476D01*
X105101430Y-129190476D02*
X105139525Y-129152381D01*
X105139525Y-129152381D02*
X105215716Y-129114285D01*
X105215716Y-129114285D02*
X105330001Y-129114285D01*
X105330001Y-129114285D02*
X105406192Y-129152381D01*
X105406192Y-129152381D02*
X105444287Y-129190476D01*
X105444287Y-129190476D02*
X105482382Y-129266666D01*
X105482382Y-129266666D02*
X105482382Y-129571428D01*
X105863335Y-128352381D02*
X105863335Y-128809524D01*
X105863335Y-128580952D02*
X105063335Y-128580952D01*
X105063335Y-128580952D02*
X105177620Y-128657143D01*
X105177620Y-128657143D02*
X105253811Y-128733333D01*
X105253811Y-128733333D02*
X105291906Y-128809524D01*
X105063335Y-127857142D02*
X105063335Y-127780952D01*
X105063335Y-127780952D02*
X105101430Y-127704761D01*
X105101430Y-127704761D02*
X105139525Y-127666666D01*
X105139525Y-127666666D02*
X105215716Y-127628571D01*
X105215716Y-127628571D02*
X105368097Y-127590476D01*
X105368097Y-127590476D02*
X105558573Y-127590476D01*
X105558573Y-127590476D02*
X105710954Y-127628571D01*
X105710954Y-127628571D02*
X105787144Y-127666666D01*
X105787144Y-127666666D02*
X105825240Y-127704761D01*
X105825240Y-127704761D02*
X105863335Y-127780952D01*
X105863335Y-127780952D02*
X105863335Y-127857142D01*
X105863335Y-127857142D02*
X105825240Y-127933333D01*
X105825240Y-127933333D02*
X105787144Y-127971428D01*
X105787144Y-127971428D02*
X105710954Y-128009523D01*
X105710954Y-128009523D02*
X105558573Y-128047619D01*
X105558573Y-128047619D02*
X105368097Y-128047619D01*
X105368097Y-128047619D02*
X105215716Y-128009523D01*
X105215716Y-128009523D02*
X105139525Y-127971428D01*
X105139525Y-127971428D02*
X105101430Y-127933333D01*
X105101430Y-127933333D02*
X105063335Y-127857142D01*
X136790476Y-107163335D02*
X136790476Y-107810954D01*
X136790476Y-107810954D02*
X136828571Y-107887144D01*
X136828571Y-107887144D02*
X136866666Y-107925240D01*
X136866666Y-107925240D02*
X136942857Y-107963335D01*
X136942857Y-107963335D02*
X137095238Y-107963335D01*
X137095238Y-107963335D02*
X137171428Y-107925240D01*
X137171428Y-107925240D02*
X137209523Y-107887144D01*
X137209523Y-107887144D02*
X137247619Y-107810954D01*
X137247619Y-107810954D02*
X137247619Y-107163335D01*
X138047618Y-107963335D02*
X137590475Y-107963335D01*
X137819047Y-107963335D02*
X137819047Y-107163335D01*
X137819047Y-107163335D02*
X137742856Y-107277620D01*
X137742856Y-107277620D02*
X137666666Y-107353811D01*
X137666666Y-107353811D02*
X137590475Y-107391906D01*
X137266667Y-114787144D02*
X137228571Y-114825240D01*
X137228571Y-114825240D02*
X137114286Y-114863335D01*
X137114286Y-114863335D02*
X137038095Y-114863335D01*
X137038095Y-114863335D02*
X136923809Y-114825240D01*
X136923809Y-114825240D02*
X136847619Y-114749049D01*
X136847619Y-114749049D02*
X136809524Y-114672859D01*
X136809524Y-114672859D02*
X136771428Y-114520478D01*
X136771428Y-114520478D02*
X136771428Y-114406192D01*
X136771428Y-114406192D02*
X136809524Y-114253811D01*
X136809524Y-114253811D02*
X136847619Y-114177620D01*
X136847619Y-114177620D02*
X136923809Y-114101430D01*
X136923809Y-114101430D02*
X137038095Y-114063335D01*
X137038095Y-114063335D02*
X137114286Y-114063335D01*
X137114286Y-114063335D02*
X137228571Y-114101430D01*
X137228571Y-114101430D02*
X137266667Y-114139525D01*
X137571428Y-114139525D02*
X137609524Y-114101430D01*
X137609524Y-114101430D02*
X137685714Y-114063335D01*
X137685714Y-114063335D02*
X137876190Y-114063335D01*
X137876190Y-114063335D02*
X137952381Y-114101430D01*
X137952381Y-114101430D02*
X137990476Y-114139525D01*
X137990476Y-114139525D02*
X138028571Y-114215716D01*
X138028571Y-114215716D02*
X138028571Y-114291906D01*
X138028571Y-114291906D02*
X137990476Y-114406192D01*
X137990476Y-114406192D02*
X137533333Y-114863335D01*
X137533333Y-114863335D02*
X138028571Y-114863335D01*
X106316667Y-114713335D02*
X106050000Y-114332382D01*
X105859524Y-114713335D02*
X105859524Y-113913335D01*
X105859524Y-113913335D02*
X106164286Y-113913335D01*
X106164286Y-113913335D02*
X106240476Y-113951430D01*
X106240476Y-113951430D02*
X106278571Y-113989525D01*
X106278571Y-113989525D02*
X106316667Y-114065716D01*
X106316667Y-114065716D02*
X106316667Y-114180001D01*
X106316667Y-114180001D02*
X106278571Y-114256192D01*
X106278571Y-114256192D02*
X106240476Y-114294287D01*
X106240476Y-114294287D02*
X106164286Y-114332382D01*
X106164286Y-114332382D02*
X105859524Y-114332382D01*
X106583333Y-113913335D02*
X107116667Y-113913335D01*
X107116667Y-113913335D02*
X106773809Y-114713335D01*
D10*
%TO.C,R1*%
X137162742Y-112377500D02*
X137637258Y-112377500D01*
X137162742Y-113422500D02*
X137637258Y-113422500D01*
%TO.C,C3*%
X113990000Y-119140580D02*
X113990000Y-118859420D01*
X115010000Y-119140580D02*
X115010000Y-118859420D01*
%TO.C,R3*%
X137162742Y-120277500D02*
X137637258Y-120277500D01*
X137162742Y-121322500D02*
X137637258Y-121322500D01*
%TO.C,LED5*%
X108465000Y-101600000D02*
X108465000Y-105485000D01*
X108465000Y-105485000D02*
X110735000Y-105485000D01*
X110735000Y-105485000D02*
X110735000Y-101600000D01*
%TO.C,C7*%
X101265000Y-111661252D02*
X101265000Y-111138748D01*
X102735000Y-111661252D02*
X102735000Y-111138748D01*
%TO.C,R6*%
X103877500Y-112487258D02*
X103877500Y-112012742D01*
X104922500Y-112487258D02*
X104922500Y-112012742D01*
%TO.C,SW1*%
X140880000Y-110200000D02*
X140880000Y-110000000D01*
X140880000Y-113200000D02*
X140880000Y-111500000D01*
X141930000Y-115050000D02*
X142720000Y-115050000D01*
X142720000Y-108150000D02*
X141930000Y-108150000D01*
X143730000Y-113000000D02*
X145020000Y-113000000D01*
X143730000Y-114450000D02*
X143730000Y-108750000D01*
X145020000Y-111700000D02*
X143730000Y-111700000D01*
X145020000Y-111700000D02*
X145230000Y-111900000D01*
X145020000Y-113000000D02*
X145230000Y-112800000D01*
X145230000Y-112800000D02*
X145230000Y-111900000D01*
%TO.C,C6*%
X101265000Y-102961252D02*
X101265000Y-102438748D01*
X102735000Y-102961252D02*
X102735000Y-102438748D01*
%TO.C,R5*%
X118262742Y-127677500D02*
X118737258Y-127677500D01*
X118262742Y-128722500D02*
X118737258Y-128722500D01*
%TO.C,D2*%
X122350000Y-126410000D02*
X122350000Y-123750000D01*
X122350000Y-126410000D02*
X124050000Y-126410000D01*
X124050000Y-126410000D02*
X124050000Y-123750000D01*
%TO.C,C10*%
X101040000Y-121140580D02*
X101040000Y-120859420D01*
X102060000Y-121140580D02*
X102060000Y-120859420D01*
%TO.C,R8*%
X101477500Y-116837258D02*
X101477500Y-116362742D01*
X102522500Y-116837258D02*
X102522500Y-116362742D01*
%TO.C,U5*%
X117100000Y-100500000D02*
X134900000Y-100500000D01*
X134900000Y-121500000D01*
X117100000Y-121500000D01*
X117100000Y-100500000D01*
%TO.C,R9*%
X101477500Y-128837258D02*
X101477500Y-128362742D01*
X102522500Y-128837258D02*
X102522500Y-128362742D01*
%TO.C,J2*%
X130640000Y-128490000D02*
X130640000Y-129740000D01*
X130940000Y-128790000D02*
X130940000Y-133510000D01*
X130940000Y-130100000D02*
X131550000Y-130100000D01*
X130940000Y-131400000D02*
X131550000Y-131400000D01*
X130940000Y-133510000D02*
X141060000Y-133510000D01*
X131550000Y-129400000D02*
X131550000Y-132900000D01*
X131550000Y-132900000D02*
X140450000Y-132900000D01*
X131890000Y-128490000D02*
X130640000Y-128490000D01*
X132400000Y-128590000D02*
X132400000Y-128790000D01*
X132700000Y-128590000D02*
X132400000Y-128590000D01*
X132700000Y-128690000D02*
X132400000Y-128690000D01*
X132700000Y-128790000D02*
X132700000Y-128590000D01*
X133500000Y-128790000D02*
X133500000Y-129400000D01*
X133500000Y-129400000D02*
X131550000Y-129400000D01*
X133900000Y-132400000D02*
X134100000Y-132400000D01*
X133900000Y-132900000D02*
X133900000Y-132400000D01*
X134000000Y-132900000D02*
X134000000Y-132400000D01*
X134100000Y-132400000D02*
X134100000Y-132900000D01*
X135900000Y-132400000D02*
X136100000Y-132400000D01*
X135900000Y-132900000D02*
X135900000Y-132400000D01*
X136000000Y-132900000D02*
X136000000Y-132400000D01*
X136100000Y-132400000D02*
X136100000Y-132900000D01*
X137900000Y-132400000D02*
X138100000Y-132400000D01*
X137900000Y-132900000D02*
X137900000Y-132400000D01*
X138000000Y-132900000D02*
X138000000Y-132400000D01*
X138100000Y-132400000D02*
X138100000Y-132900000D01*
X138500000Y-129400000D02*
X138500000Y-128790000D01*
X140450000Y-129400000D02*
X138500000Y-129400000D01*
X140450000Y-132900000D02*
X140450000Y-129400000D01*
X141060000Y-128790000D02*
X130940000Y-128790000D01*
X141060000Y-130100000D02*
X140450000Y-130100000D01*
X141060000Y-131400000D02*
X140450000Y-131400000D01*
X141060000Y-133510000D02*
X141060000Y-128790000D01*
%TO.C,C5*%
X118359420Y-129990000D02*
X118640580Y-129990000D01*
X118359420Y-131010000D02*
X118640580Y-131010000D01*
%TO.C,L1*%
X103500000Y-101400000D02*
X106500000Y-101400000D01*
X103500000Y-104600000D02*
X106500000Y-104600000D01*
%TO.C,C4*%
X108690000Y-116340580D02*
X108690000Y-116059420D01*
X109710000Y-116340580D02*
X109710000Y-116059420D01*
%TO.C,D4*%
X105150000Y-110410000D02*
X105150000Y-106550000D01*
X105150000Y-110410000D02*
X107150000Y-110410000D01*
X107150000Y-110410000D02*
X107150000Y-106550000D01*
%TO.C,U2*%
X129000000Y-122940000D02*
X127050000Y-122940000D01*
X129000000Y-122940000D02*
X130950000Y-122940000D01*
X129000000Y-128060000D02*
X127050000Y-128060000D01*
X129000000Y-128060000D02*
X130950000Y-128060000D01*
X126300000Y-123035000D02*
X126060000Y-122705000D01*
X126540000Y-122705000D01*
X126300000Y-123035000D01*
G36*
X126300000Y-123035000D02*
G01*
X126060000Y-122705000D01*
X126540000Y-122705000D01*
X126300000Y-123035000D01*
G37*
%TO.C,R2*%
X137162742Y-117977500D02*
X137637258Y-117977500D01*
X137162742Y-119022500D02*
X137637258Y-119022500D01*
%TO.C,U3*%
X118500000Y-123390000D02*
X117000000Y-123390000D01*
X118500000Y-123390000D02*
X120000000Y-123390000D01*
X118500000Y-126610000D02*
X117000000Y-126610000D01*
X118500000Y-126610000D02*
X120000000Y-126610000D01*
X116287500Y-123515000D02*
X116047500Y-123185000D01*
X116527500Y-123185000D01*
X116287500Y-123515000D01*
G36*
X116287500Y-123515000D02*
G01*
X116047500Y-123185000D01*
X116527500Y-123185000D01*
X116287500Y-123515000D01*
G37*
%TO.C,C1*%
X126459420Y-129790000D02*
X126740580Y-129790000D01*
X126459420Y-130810000D02*
X126740580Y-130810000D01*
%TO.C,U6*%
X102600000Y-106040000D02*
X101800000Y-106040000D01*
X102600000Y-106040000D02*
X103400000Y-106040000D01*
X102600000Y-109160000D02*
X101800000Y-109160000D01*
X102600000Y-109160000D02*
X103400000Y-109160000D01*
X101300000Y-106090000D02*
X101060000Y-105760000D01*
X101540000Y-105760000D01*
X101300000Y-106090000D01*
G36*
X101300000Y-106090000D02*
G01*
X101060000Y-105760000D01*
X101540000Y-105760000D01*
X101300000Y-106090000D01*
G37*
%TO.C,U8*%
X104600000Y-123240000D02*
X103800000Y-123240000D01*
X104600000Y-123240000D02*
X105400000Y-123240000D01*
X104600000Y-126360000D02*
X103800000Y-126360000D01*
X104600000Y-126360000D02*
X105400000Y-126360000D01*
X103300000Y-123290000D02*
X103060000Y-122960000D01*
X103540000Y-122960000D01*
X103300000Y-123290000D01*
G36*
X103300000Y-123290000D02*
G01*
X103060000Y-122960000D01*
X103540000Y-122960000D01*
X103300000Y-123290000D01*
G37*
%TO.C,R27*%
X111477500Y-116437258D02*
X111477500Y-115962742D01*
X112522500Y-116437258D02*
X112522500Y-115962742D01*
%TO.C,J1*%
X136640000Y-101090000D02*
X136640000Y-102340000D01*
X136940000Y-101390000D02*
X136940000Y-106110000D01*
X136940000Y-102700000D02*
X137550000Y-102700000D01*
X136940000Y-104000000D02*
X137550000Y-104000000D01*
X136940000Y-106110000D02*
X143060000Y-106110000D01*
X137550000Y-102000000D02*
X137550000Y-105500000D01*
X137550000Y-105500000D02*
X142450000Y-105500000D01*
X137890000Y-101090000D02*
X136640000Y-101090000D01*
X138400000Y-101190000D02*
X138400000Y-101390000D01*
X138700000Y-101190000D02*
X138400000Y-101190000D01*
X138700000Y-101290000D02*
X138400000Y-101290000D01*
X138700000Y-101390000D02*
X138700000Y-101190000D01*
X139500000Y-101390000D02*
X139500000Y-102000000D01*
X139500000Y-102000000D02*
X137550000Y-102000000D01*
X139900000Y-105000000D02*
X140100000Y-105000000D01*
X139900000Y-105500000D02*
X139900000Y-105000000D01*
X140000000Y-105500000D02*
X140000000Y-105000000D01*
X140100000Y-105000000D02*
X140100000Y-105500000D01*
X140500000Y-102000000D02*
X140500000Y-101390000D01*
X142450000Y-102000000D02*
X140500000Y-102000000D01*
X142450000Y-105500000D02*
X142450000Y-102000000D01*
X143060000Y-101390000D02*
X136940000Y-101390000D01*
X143060000Y-102700000D02*
X142450000Y-102700000D01*
X143060000Y-104000000D02*
X142450000Y-104000000D01*
X143060000Y-106110000D02*
X143060000Y-101390000D01*
%TO.C,U7*%
X104600000Y-118840000D02*
X103800000Y-118840000D01*
X104600000Y-118840000D02*
X105400000Y-118840000D01*
X104600000Y-121960000D02*
X103800000Y-121960000D01*
X104600000Y-121960000D02*
X105400000Y-121960000D01*
X103300000Y-118890000D02*
X103060000Y-118560000D01*
X103540000Y-118560000D01*
X103300000Y-118890000D01*
G36*
X103300000Y-118890000D02*
G01*
X103060000Y-118560000D01*
X103540000Y-118560000D01*
X103300000Y-118890000D01*
G37*
%TO.C,Q2*%
X136500000Y-123640000D02*
X135850000Y-123640000D01*
X136500000Y-123640000D02*
X137150000Y-123640000D01*
X136500000Y-126760000D02*
X135850000Y-126760000D01*
X136500000Y-126760000D02*
X137150000Y-126760000D01*
X135337500Y-123690000D02*
X135097500Y-123360000D01*
X135577500Y-123360000D01*
X135337500Y-123690000D01*
G36*
X135337500Y-123690000D02*
G01*
X135097500Y-123360000D01*
X135577500Y-123360000D01*
X135337500Y-123690000D01*
G37*
%TO.C,C8*%
X103865000Y-116861252D02*
X103865000Y-116338748D01*
X105335000Y-116861252D02*
X105335000Y-116338748D01*
%TO.C,D3*%
X122350000Y-130610000D02*
X122350000Y-127950000D01*
X122350000Y-130610000D02*
X124050000Y-130610000D01*
X124050000Y-130610000D02*
X124050000Y-127950000D01*
%TO.C,R4*%
X139765000Y-125427064D02*
X139765000Y-124972936D01*
X141235000Y-125427064D02*
X141235000Y-124972936D01*
%TO.C,R26*%
X112777500Y-103437258D02*
X112777500Y-102962742D01*
X113822500Y-103437258D02*
X113822500Y-102962742D01*
%TO.C,U4*%
X112000000Y-108440000D02*
X110050000Y-108440000D01*
X112000000Y-108440000D02*
X113950000Y-108440000D01*
X112000000Y-113560000D02*
X110050000Y-113560000D01*
X112000000Y-113560000D02*
X113950000Y-113560000D01*
X109300000Y-108535000D02*
X109060000Y-108205000D01*
X109540000Y-108205000D01*
X109300000Y-108535000D01*
G36*
X109300000Y-108535000D02*
G01*
X109060000Y-108205000D01*
X109540000Y-108205000D01*
X109300000Y-108535000D01*
G37*
%TO.C,R10*%
X103677500Y-128837258D02*
X103677500Y-128362742D01*
X104722500Y-128837258D02*
X104722500Y-128362742D01*
%TO.C,U1*%
X137400000Y-108440000D02*
X136750000Y-108440000D01*
X137400000Y-108440000D02*
X138050000Y-108440000D01*
X137400000Y-111560000D02*
X136750000Y-111560000D01*
X137400000Y-111560000D02*
X138050000Y-111560000D01*
X136237500Y-108490000D02*
X135997500Y-108160000D01*
X136477500Y-108160000D01*
X136237500Y-108490000D01*
G36*
X136237500Y-108490000D02*
G01*
X135997500Y-108160000D01*
X136477500Y-108160000D01*
X136237500Y-108490000D01*
G37*
%TO.C,C2*%
X137138748Y-115265000D02*
X137661252Y-115265000D01*
X137138748Y-116735000D02*
X137661252Y-116735000D01*
%TO.C,R7*%
X105477500Y-112487258D02*
X105477500Y-112012742D01*
X106522500Y-112487258D02*
X106522500Y-112012742D01*
%TD*%
M02*
