M48
; DRILL file {KiCad 8.0.4} date 2026-10-01T15:00:12-0500
; FORMAT={-:-/ absolute / metric / decimal}
; #@! TF.CreationDate,2026-10-01T15:00:12-05:00
; #@! TF.GenerationSoftware,Kicad,Pcbnew,8.0.4
; #@! TF.FileFunction,MixedPlating,1,2
FMAT,2
METRIC
; #@! TA.AperFunction,Plated,PTH,ViaDrill
T1C0.300
; #@! TA.AperFunction,Plated,PTH,ViaDrill
T2C0.350
; #@! TA.AperFunction,Plated,PTH,ComponentDrill
T3C0.750
; #@! TA.AperFunction,Plated,PTH,ComponentDrill
T4C0.800
; #@! TA.AperFunction,Plated,PTH,ComponentDrill
T5C1.000
; #@! TA.AperFunction,NonPlated,NPTH,ComponentDrill
T6C0.900
%
G90
G05
T1
X101.6Y-105.1
X101.6Y-114.1
X101.6Y-123.6
X102.0Y-126.918
X102.322Y-124.801
X102.6Y-131.1
X103.325Y-127.233
X104.774Y-118.858
X106.445Y-120.521
X107.6Y-101.6
X107.6Y-113.6
X107.6Y-126.1
X108.1Y-118.6
X108.1Y-131.1
X108.764Y-113.666
X110.78Y-109.789
X111.197Y-116.185
X111.6Y-105.6
X111.6Y-122.6
X112.026Y-114.5
X112.6Y-127.6
X112.602Y-108.46
X112.612Y-124.125
X113.219Y-112.324
X113.219Y-124.991
X113.6Y-114.6
X114.475Y-113.704
X115.1Y-101.6
X115.109Y-124.799
X115.873Y-109.538
X115.873Y-114.81
X116.1Y-119.1
X116.1Y-131.6
X117.073Y-127.329
X117.885Y-125.275
X120.1Y-110.6
X120.6Y-101.6
X120.6Y-115.6
X121.1Y-129.1
X121.229Y-127.747
X123.1Y-106.1
X123.1Y-120.1
X123.751Y-124.301
X125.055Y-125.85
X125.6Y-110.6
X126.1Y-101.6
X126.1Y-115.6
X128.1Y-121.6
X129.1Y-106.1
X129.1Y-130.6
X131.6Y-101.6
X131.6Y-110.6
X131.6Y-117.1
X135.6Y-105.1
X135.703Y-120.8
X137.1Y-127.6
X139.101Y-118.425
X140.1Y-117.1
X142.6Y-121.6
X142.6Y-131.6
X143.1Y-126.6
T2
X102.637Y-116.658
X103.202Y-112.35
X104.889Y-120.179
X104.912Y-103.587
X104.912Y-107.879
X105.314Y-101.298
X106.993Y-108.757
X110.807Y-105.529
X114.5Y-117.263
X118.77Y-126.021
X122.296Y-124.804
X125.168Y-131.152
X129.951Y-125.182
X134.646Y-121.855
X137.043Y-110.0
X137.377Y-113.702
X137.452Y-117.515
T3
X133.0Y-130.6
X135.0Y-130.6
X137.0Y-130.6
X139.0Y-103.2
X139.0Y-130.6
X141.0Y-103.2
T4
X124.7Y-107.1
X127.3Y-107.1
T5
X118.38Y-103.38
X118.38Y-105.92
X118.38Y-108.46
X118.38Y-111.0
X118.38Y-113.54
X118.38Y-116.08
X118.38Y-118.62
X133.62Y-103.38
X133.62Y-105.92
X133.62Y-108.46
X133.62Y-111.0
X133.62Y-113.54
X133.62Y-116.08
X133.62Y-118.62
T6
X142.33Y-110.1
X142.33Y-113.1
M30
