%TF.GenerationSoftware,KiCad,Pcbnew,8.0.4*%
%TF.CreationDate,2026-10-01T15:00:12-05:00*%
%TF.ProjectId,Miliohmimetro_PCB,4d696c69-6f68-46d6-996d-6574726f5f50,rev?*%
%TF.SameCoordinates,Original*%
%TF.FileFunction,Legend,Bot*%
%TF.FilePolarity,Positive*%
%FSLAX46Y46*%
G04 Gerber Fmt 4.6, Leading zero omitted, Abs format (unit mm)*
G04 Created by KiCad (PCBNEW 8.0.4) date 2026-10-01 15:00:12*
%MOMM*%
%LPD*%
G01*
G04 APERTURE LIST*
%ADD10C,0.120000*%
%ADD11C,0.135000*%
G04 APERTURE END LIST*
D10*
X129295238Y-116430521D02*
X129295238Y-116963855D01*
X129485714Y-116125760D02*
X129676191Y-116697188D01*
X129676191Y-116697188D02*
X129180952Y-116697188D01*
X128495238Y-116163855D02*
X128876190Y-116163855D01*
X128876190Y-116163855D02*
X128914286Y-116544807D01*
X128914286Y-116544807D02*
X128876190Y-116506712D01*
X128876190Y-116506712D02*
X128800000Y-116468617D01*
X128800000Y-116468617D02*
X128609524Y-116468617D01*
X128609524Y-116468617D02*
X128533333Y-116506712D01*
X128533333Y-116506712D02*
X128495238Y-116544807D01*
X128495238Y-116544807D02*
X128457143Y-116620998D01*
X128457143Y-116620998D02*
X128457143Y-116811474D01*
X128457143Y-116811474D02*
X128495238Y-116887664D01*
X128495238Y-116887664D02*
X128533333Y-116925760D01*
X128533333Y-116925760D02*
X128609524Y-116963855D01*
X128609524Y-116963855D02*
X128800000Y-116963855D01*
X128800000Y-116963855D02*
X128876190Y-116925760D01*
X128876190Y-116925760D02*
X128914286Y-116887664D01*
X127580952Y-116963855D02*
X127161904Y-116430521D01*
X127580952Y-116430521D02*
X127161904Y-116963855D01*
X126323809Y-116163855D02*
X125828571Y-116163855D01*
X125828571Y-116163855D02*
X126095237Y-116468617D01*
X126095237Y-116468617D02*
X125980952Y-116468617D01*
X125980952Y-116468617D02*
X125904761Y-116506712D01*
X125904761Y-116506712D02*
X125866666Y-116544807D01*
X125866666Y-116544807D02*
X125828571Y-116620998D01*
X125828571Y-116620998D02*
X125828571Y-116811474D01*
X125828571Y-116811474D02*
X125866666Y-116887664D01*
X125866666Y-116887664D02*
X125904761Y-116925760D01*
X125904761Y-116925760D02*
X125980952Y-116963855D01*
X125980952Y-116963855D02*
X126209523Y-116963855D01*
X126209523Y-116963855D02*
X126285714Y-116925760D01*
X126285714Y-116925760D02*
X126323809Y-116887664D01*
X125142856Y-116430521D02*
X125142856Y-116963855D01*
X125333332Y-116125760D02*
X125523809Y-116697188D01*
X125523809Y-116697188D02*
X125028570Y-116697188D01*
X124114284Y-116963855D02*
X124114284Y-116430521D01*
X124114284Y-116506712D02*
X124076189Y-116468617D01*
X124076189Y-116468617D02*
X123999999Y-116430521D01*
X123999999Y-116430521D02*
X123885713Y-116430521D01*
X123885713Y-116430521D02*
X123809522Y-116468617D01*
X123809522Y-116468617D02*
X123771427Y-116544807D01*
X123771427Y-116544807D02*
X123771427Y-116963855D01*
X123771427Y-116544807D02*
X123733332Y-116468617D01*
X123733332Y-116468617D02*
X123657141Y-116430521D01*
X123657141Y-116430521D02*
X123542856Y-116430521D01*
X123542856Y-116430521D02*
X123466665Y-116468617D01*
X123466665Y-116468617D02*
X123428570Y-116544807D01*
X123428570Y-116544807D02*
X123428570Y-116963855D01*
X123047617Y-116963855D02*
X123047617Y-116430521D01*
X123047617Y-116506712D02*
X123009522Y-116468617D01*
X123009522Y-116468617D02*
X122933332Y-116430521D01*
X122933332Y-116430521D02*
X122819046Y-116430521D01*
X122819046Y-116430521D02*
X122742855Y-116468617D01*
X122742855Y-116468617D02*
X122704760Y-116544807D01*
X122704760Y-116544807D02*
X122704760Y-116963855D01*
X122704760Y-116544807D02*
X122666665Y-116468617D01*
X122666665Y-116468617D02*
X122590474Y-116430521D01*
X122590474Y-116430521D02*
X122476189Y-116430521D01*
X122476189Y-116430521D02*
X122399998Y-116468617D01*
X122399998Y-116468617D02*
X122361903Y-116544807D01*
X122361903Y-116544807D02*
X122361903Y-116963855D01*
X131790475Y-114363855D02*
X131790475Y-115011474D01*
X131790475Y-115011474D02*
X131752380Y-115087664D01*
X131752380Y-115087664D02*
X131714285Y-115125760D01*
X131714285Y-115125760D02*
X131638094Y-115163855D01*
X131638094Y-115163855D02*
X131485713Y-115163855D01*
X131485713Y-115163855D02*
X131409523Y-115125760D01*
X131409523Y-115125760D02*
X131371428Y-115087664D01*
X131371428Y-115087664D02*
X131333332Y-115011474D01*
X131333332Y-115011474D02*
X131333332Y-114363855D01*
X130952380Y-115163855D02*
X130952380Y-114363855D01*
X130609524Y-115125760D02*
X130495238Y-115163855D01*
X130495238Y-115163855D02*
X130304762Y-115163855D01*
X130304762Y-115163855D02*
X130228571Y-115125760D01*
X130228571Y-115125760D02*
X130190476Y-115087664D01*
X130190476Y-115087664D02*
X130152381Y-115011474D01*
X130152381Y-115011474D02*
X130152381Y-114935283D01*
X130152381Y-114935283D02*
X130190476Y-114859093D01*
X130190476Y-114859093D02*
X130228571Y-114820998D01*
X130228571Y-114820998D02*
X130304762Y-114782902D01*
X130304762Y-114782902D02*
X130457143Y-114744807D01*
X130457143Y-114744807D02*
X130533333Y-114706712D01*
X130533333Y-114706712D02*
X130571428Y-114668617D01*
X130571428Y-114668617D02*
X130609524Y-114592426D01*
X130609524Y-114592426D02*
X130609524Y-114516236D01*
X130609524Y-114516236D02*
X130571428Y-114440045D01*
X130571428Y-114440045D02*
X130533333Y-114401950D01*
X130533333Y-114401950D02*
X130457143Y-114363855D01*
X130457143Y-114363855D02*
X130266666Y-114363855D01*
X130266666Y-114363855D02*
X130152381Y-114401950D01*
X129199999Y-115163855D02*
X129199999Y-114363855D01*
X129199999Y-114363855D02*
X129009523Y-114363855D01*
X129009523Y-114363855D02*
X128895237Y-114401950D01*
X128895237Y-114401950D02*
X128819047Y-114478140D01*
X128819047Y-114478140D02*
X128780952Y-114554331D01*
X128780952Y-114554331D02*
X128742856Y-114706712D01*
X128742856Y-114706712D02*
X128742856Y-114820998D01*
X128742856Y-114820998D02*
X128780952Y-114973379D01*
X128780952Y-114973379D02*
X128819047Y-115049569D01*
X128819047Y-115049569D02*
X128895237Y-115125760D01*
X128895237Y-115125760D02*
X129009523Y-115163855D01*
X129009523Y-115163855D02*
X129199999Y-115163855D01*
X128399999Y-115163855D02*
X128399999Y-114630521D01*
X128399999Y-114363855D02*
X128438095Y-114401950D01*
X128438095Y-114401950D02*
X128399999Y-114440045D01*
X128399999Y-114440045D02*
X128361904Y-114401950D01*
X128361904Y-114401950D02*
X128399999Y-114363855D01*
X128399999Y-114363855D02*
X128399999Y-114440045D01*
X128057143Y-115125760D02*
X127980952Y-115163855D01*
X127980952Y-115163855D02*
X127828571Y-115163855D01*
X127828571Y-115163855D02*
X127752381Y-115125760D01*
X127752381Y-115125760D02*
X127714285Y-115049569D01*
X127714285Y-115049569D02*
X127714285Y-115011474D01*
X127714285Y-115011474D02*
X127752381Y-114935283D01*
X127752381Y-114935283D02*
X127828571Y-114897188D01*
X127828571Y-114897188D02*
X127942857Y-114897188D01*
X127942857Y-114897188D02*
X128019047Y-114859093D01*
X128019047Y-114859093D02*
X128057143Y-114782902D01*
X128057143Y-114782902D02*
X128057143Y-114744807D01*
X128057143Y-114744807D02*
X128019047Y-114668617D01*
X128019047Y-114668617D02*
X127942857Y-114630521D01*
X127942857Y-114630521D02*
X127828571Y-114630521D01*
X127828571Y-114630521D02*
X127752381Y-114668617D01*
X127066666Y-115125760D02*
X127142857Y-115163855D01*
X127142857Y-115163855D02*
X127295238Y-115163855D01*
X127295238Y-115163855D02*
X127371428Y-115125760D01*
X127371428Y-115125760D02*
X127409524Y-115049569D01*
X127409524Y-115049569D02*
X127409524Y-114744807D01*
X127409524Y-114744807D02*
X127371428Y-114668617D01*
X127371428Y-114668617D02*
X127295238Y-114630521D01*
X127295238Y-114630521D02*
X127142857Y-114630521D01*
X127142857Y-114630521D02*
X127066666Y-114668617D01*
X127066666Y-114668617D02*
X127028571Y-114744807D01*
X127028571Y-114744807D02*
X127028571Y-114820998D01*
X127028571Y-114820998D02*
X127409524Y-114897188D01*
X126685714Y-114630521D02*
X126685714Y-115163855D01*
X126685714Y-114706712D02*
X126647619Y-114668617D01*
X126647619Y-114668617D02*
X126571429Y-114630521D01*
X126571429Y-114630521D02*
X126457143Y-114630521D01*
X126457143Y-114630521D02*
X126380952Y-114668617D01*
X126380952Y-114668617D02*
X126342857Y-114744807D01*
X126342857Y-114744807D02*
X126342857Y-115163855D01*
X125847619Y-115163855D02*
X125923809Y-115125760D01*
X125923809Y-115125760D02*
X125961904Y-115087664D01*
X125961904Y-115087664D02*
X126000000Y-115011474D01*
X126000000Y-115011474D02*
X126000000Y-114782902D01*
X126000000Y-114782902D02*
X125961904Y-114706712D01*
X125961904Y-114706712D02*
X125923809Y-114668617D01*
X125923809Y-114668617D02*
X125847619Y-114630521D01*
X125847619Y-114630521D02*
X125733333Y-114630521D01*
X125733333Y-114630521D02*
X125657142Y-114668617D01*
X125657142Y-114668617D02*
X125619047Y-114706712D01*
X125619047Y-114706712D02*
X125580952Y-114782902D01*
X125580952Y-114782902D02*
X125580952Y-115011474D01*
X125580952Y-115011474D02*
X125619047Y-115087664D01*
X125619047Y-115087664D02*
X125657142Y-115125760D01*
X125657142Y-115125760D02*
X125733333Y-115163855D01*
X125733333Y-115163855D02*
X125847619Y-115163855D01*
X124666666Y-114440045D02*
X124628570Y-114401950D01*
X124628570Y-114401950D02*
X124552380Y-114363855D01*
X124552380Y-114363855D02*
X124361904Y-114363855D01*
X124361904Y-114363855D02*
X124285713Y-114401950D01*
X124285713Y-114401950D02*
X124247618Y-114440045D01*
X124247618Y-114440045D02*
X124209523Y-114516236D01*
X124209523Y-114516236D02*
X124209523Y-114592426D01*
X124209523Y-114592426D02*
X124247618Y-114706712D01*
X124247618Y-114706712D02*
X124704761Y-115163855D01*
X124704761Y-115163855D02*
X124209523Y-115163855D01*
X123714284Y-114363855D02*
X123638094Y-114363855D01*
X123638094Y-114363855D02*
X123561903Y-114401950D01*
X123561903Y-114401950D02*
X123523808Y-114440045D01*
X123523808Y-114440045D02*
X123485713Y-114516236D01*
X123485713Y-114516236D02*
X123447618Y-114668617D01*
X123447618Y-114668617D02*
X123447618Y-114859093D01*
X123447618Y-114859093D02*
X123485713Y-115011474D01*
X123485713Y-115011474D02*
X123523808Y-115087664D01*
X123523808Y-115087664D02*
X123561903Y-115125760D01*
X123561903Y-115125760D02*
X123638094Y-115163855D01*
X123638094Y-115163855D02*
X123714284Y-115163855D01*
X123714284Y-115163855D02*
X123790475Y-115125760D01*
X123790475Y-115125760D02*
X123828570Y-115087664D01*
X123828570Y-115087664D02*
X123866665Y-115011474D01*
X123866665Y-115011474D02*
X123904761Y-114859093D01*
X123904761Y-114859093D02*
X123904761Y-114668617D01*
X123904761Y-114668617D02*
X123866665Y-114516236D01*
X123866665Y-114516236D02*
X123828570Y-114440045D01*
X123828570Y-114440045D02*
X123790475Y-114401950D01*
X123790475Y-114401950D02*
X123714284Y-114363855D01*
X123142856Y-114440045D02*
X123104760Y-114401950D01*
X123104760Y-114401950D02*
X123028570Y-114363855D01*
X123028570Y-114363855D02*
X122838094Y-114363855D01*
X122838094Y-114363855D02*
X122761903Y-114401950D01*
X122761903Y-114401950D02*
X122723808Y-114440045D01*
X122723808Y-114440045D02*
X122685713Y-114516236D01*
X122685713Y-114516236D02*
X122685713Y-114592426D01*
X122685713Y-114592426D02*
X122723808Y-114706712D01*
X122723808Y-114706712D02*
X123180951Y-115163855D01*
X123180951Y-115163855D02*
X122685713Y-115163855D01*
X121999998Y-114363855D02*
X122152379Y-114363855D01*
X122152379Y-114363855D02*
X122228570Y-114401950D01*
X122228570Y-114401950D02*
X122266665Y-114440045D01*
X122266665Y-114440045D02*
X122342855Y-114554331D01*
X122342855Y-114554331D02*
X122380951Y-114706712D01*
X122380951Y-114706712D02*
X122380951Y-115011474D01*
X122380951Y-115011474D02*
X122342855Y-115087664D01*
X122342855Y-115087664D02*
X122304760Y-115125760D01*
X122304760Y-115125760D02*
X122228570Y-115163855D01*
X122228570Y-115163855D02*
X122076189Y-115163855D01*
X122076189Y-115163855D02*
X121999998Y-115125760D01*
X121999998Y-115125760D02*
X121961903Y-115087664D01*
X121961903Y-115087664D02*
X121923808Y-115011474D01*
X121923808Y-115011474D02*
X121923808Y-114820998D01*
X121923808Y-114820998D02*
X121961903Y-114744807D01*
X121961903Y-114744807D02*
X121999998Y-114706712D01*
X121999998Y-114706712D02*
X122076189Y-114668617D01*
X122076189Y-114668617D02*
X122228570Y-114668617D01*
X122228570Y-114668617D02*
X122304760Y-114706712D01*
X122304760Y-114706712D02*
X122342855Y-114744807D01*
X122342855Y-114744807D02*
X122380951Y-114820998D01*
X121580950Y-114859093D02*
X120971427Y-114859093D01*
X120590474Y-115163855D02*
X120590474Y-114363855D01*
X120209522Y-115163855D02*
X120209522Y-114363855D01*
D11*
X132257140Y-113409337D02*
X132257140Y-112509337D01*
X132257140Y-112509337D02*
X131957140Y-113152194D01*
X131957140Y-113152194D02*
X131657140Y-112509337D01*
X131657140Y-112509337D02*
X131657140Y-113409337D01*
X131228569Y-113409337D02*
X131228569Y-112509337D01*
X130371426Y-113409337D02*
X130799998Y-113409337D01*
X130799998Y-113409337D02*
X130799998Y-112509337D01*
X130071427Y-113409337D02*
X130071427Y-112509337D01*
X129471427Y-112509337D02*
X129299999Y-112509337D01*
X129299999Y-112509337D02*
X129214284Y-112552194D01*
X129214284Y-112552194D02*
X129128570Y-112637908D01*
X129128570Y-112637908D02*
X129085713Y-112809337D01*
X129085713Y-112809337D02*
X129085713Y-113109337D01*
X129085713Y-113109337D02*
X129128570Y-113280765D01*
X129128570Y-113280765D02*
X129214284Y-113366480D01*
X129214284Y-113366480D02*
X129299999Y-113409337D01*
X129299999Y-113409337D02*
X129471427Y-113409337D01*
X129471427Y-113409337D02*
X129557142Y-113366480D01*
X129557142Y-113366480D02*
X129642856Y-113280765D01*
X129642856Y-113280765D02*
X129685713Y-113109337D01*
X129685713Y-113109337D02*
X129685713Y-112809337D01*
X129685713Y-112809337D02*
X129642856Y-112637908D01*
X129642856Y-112637908D02*
X129557142Y-112552194D01*
X129557142Y-112552194D02*
X129471427Y-112509337D01*
X128699999Y-113409337D02*
X128699999Y-112509337D01*
X128699999Y-112937908D02*
X128185713Y-112937908D01*
X128185713Y-113409337D02*
X128185713Y-112509337D01*
X127757142Y-113409337D02*
X127757142Y-112509337D01*
X127757142Y-112509337D02*
X127457142Y-113152194D01*
X127457142Y-113152194D02*
X127157142Y-112509337D01*
X127157142Y-112509337D02*
X127157142Y-113409337D01*
X126728571Y-113409337D02*
X126728571Y-112509337D01*
X126300000Y-113409337D02*
X126300000Y-112509337D01*
X126300000Y-112509337D02*
X126000000Y-113152194D01*
X126000000Y-113152194D02*
X125700000Y-112509337D01*
X125700000Y-112509337D02*
X125700000Y-113409337D01*
X125271429Y-112937908D02*
X124971429Y-112937908D01*
X124842857Y-113409337D02*
X125271429Y-113409337D01*
X125271429Y-113409337D02*
X125271429Y-112509337D01*
X125271429Y-112509337D02*
X124842857Y-112509337D01*
X124585714Y-112509337D02*
X124071429Y-112509337D01*
X124328571Y-113409337D02*
X124328571Y-112509337D01*
X123257143Y-113409337D02*
X123557143Y-112980765D01*
X123771429Y-113409337D02*
X123771429Y-112509337D01*
X123771429Y-112509337D02*
X123428572Y-112509337D01*
X123428572Y-112509337D02*
X123342857Y-112552194D01*
X123342857Y-112552194D02*
X123300000Y-112595051D01*
X123300000Y-112595051D02*
X123257143Y-112680765D01*
X123257143Y-112680765D02*
X123257143Y-112809337D01*
X123257143Y-112809337D02*
X123300000Y-112895051D01*
X123300000Y-112895051D02*
X123342857Y-112937908D01*
X123342857Y-112937908D02*
X123428572Y-112980765D01*
X123428572Y-112980765D02*
X123771429Y-112980765D01*
X122700000Y-112509337D02*
X122528572Y-112509337D01*
X122528572Y-112509337D02*
X122442857Y-112552194D01*
X122442857Y-112552194D02*
X122357143Y-112637908D01*
X122357143Y-112637908D02*
X122314286Y-112809337D01*
X122314286Y-112809337D02*
X122314286Y-113109337D01*
X122314286Y-113109337D02*
X122357143Y-113280765D01*
X122357143Y-113280765D02*
X122442857Y-113366480D01*
X122442857Y-113366480D02*
X122528572Y-113409337D01*
X122528572Y-113409337D02*
X122700000Y-113409337D01*
X122700000Y-113409337D02*
X122785715Y-113366480D01*
X122785715Y-113366480D02*
X122871429Y-113280765D01*
X122871429Y-113280765D02*
X122914286Y-113109337D01*
X122914286Y-113109337D02*
X122914286Y-112809337D01*
X122914286Y-112809337D02*
X122871429Y-112637908D01*
X122871429Y-112637908D02*
X122785715Y-112552194D01*
X122785715Y-112552194D02*
X122700000Y-112509337D01*
X121242858Y-113409337D02*
X121242858Y-112509337D01*
X120685715Y-113409337D02*
X120771430Y-113366480D01*
X120771430Y-113366480D02*
X120814287Y-113323622D01*
X120814287Y-113323622D02*
X120857144Y-113237908D01*
X120857144Y-113237908D02*
X120857144Y-112980765D01*
X120857144Y-112980765D02*
X120814287Y-112895051D01*
X120814287Y-112895051D02*
X120771430Y-112852194D01*
X120771430Y-112852194D02*
X120685715Y-112809337D01*
X120685715Y-112809337D02*
X120557144Y-112809337D01*
X120557144Y-112809337D02*
X120471430Y-112852194D01*
X120471430Y-112852194D02*
X120428573Y-112895051D01*
X120428573Y-112895051D02*
X120385715Y-112980765D01*
X120385715Y-112980765D02*
X120385715Y-113237908D01*
X120385715Y-113237908D02*
X120428573Y-113323622D01*
X120428573Y-113323622D02*
X120471430Y-113366480D01*
X120471430Y-113366480D02*
X120557144Y-113409337D01*
X120557144Y-113409337D02*
X120685715Y-113409337D01*
X120128572Y-112509337D02*
X119614287Y-112509337D01*
X119871429Y-113409337D02*
X119871429Y-112509337D01*
M02*
