%TF.GenerationSoftware,KiCad,Pcbnew,8.0.4*%
%TF.CreationDate,2026-10-01T15:00:12-05:00*%
%TF.ProjectId,Miliohmimetro_PCB,4d696c69-6f68-46d6-996d-6574726f5f50,rev?*%
%TF.SameCoordinates,Original*%
%TF.FileFunction,Copper,L2,Bot*%
%TF.FilePolarity,Positive*%
%FSLAX46Y46*%
G04 Gerber Fmt 4.6, Leading zero omitted, Abs format (unit mm)*
G04 Created by KiCad (PCBNEW 8.0.4) date 2026-10-01 15:00:12*
%MOMM*%
%LPD*%
G01*
G04 APERTURE LIST*
G04 Aperture macros list*
%AMRoundRect*
0 Rectangle with rounded corners*
0 $1 Rounding radius*
0 $2 $3 $4 $5 $6 $7 $8 $9 X,Y pos of 4 corners*
0 Add a 4 corners polygon primitive as box body*
4,1,4,$2,$3,$4,$5,$6,$7,$8,$9,$2,$3,0*
0 Add four circle primitives for the rounded corners*
1,1,$1+$1,$2,$3*
1,1,$1+$1,$4,$5*
1,1,$1+$1,$6,$7*
1,1,$1+$1,$8,$9*
0 Add four rect primitives between the rounded corners*
20,1,$1+$1,$2,$3,$4,$5,0*
20,1,$1+$1,$4,$5,$6,$7,0*
20,1,$1+$1,$6,$7,$8,$9,0*
20,1,$1+$1,$8,$9,$2,$3,0*%
G04 Aperture macros list end*
%TA.AperFunction,ComponentPad*%
%ADD10R,2.000000X1.600000*%
%TD*%
%TA.AperFunction,ComponentPad*%
%ADD11O,2.000000X1.600000*%
%TD*%
%TA.AperFunction,ComponentPad*%
%ADD12C,1.500000*%
%TD*%
%TA.AperFunction,ComponentPad*%
%ADD13RoundRect,0.250000X-0.350000X-0.625000X0.350000X-0.625000X0.350000X0.625000X-0.350000X0.625000X0*%
%TD*%
%TA.AperFunction,ComponentPad*%
%ADD14O,1.200000X1.750000*%
%TD*%
%TA.AperFunction,ViaPad*%
%ADD15C,0.600000*%
%TD*%
%TA.AperFunction,ViaPad*%
%ADD16C,0.700000*%
%TD*%
%TA.AperFunction,Conductor*%
%ADD17C,0.250000*%
%TD*%
%TA.AperFunction,Conductor*%
%ADD18C,0.400000*%
%TD*%
G04 APERTURE END LIST*
D10*
%TO.P,U5,1*%
%TO.N,/D0*%
X118380000Y-103380000D03*
D11*
%TO.P,U5,2*%
%TO.N,/clk*%
X118380000Y-105920000D03*
%TO.P,U5,3*%
%TO.N,/adc_out*%
X118380000Y-108460000D03*
%TO.P,U5,4*%
%TO.N,/sclk*%
X118380000Y-111000000D03*
%TO.P,U5,5*%
%TO.N,unconnected-(U5-D4{slash}SDA-Pad5)*%
X118380000Y-113540000D03*
%TO.P,U5,6*%
%TO.N,unconnected-(U5-D5{slash}SCL-Pad6)*%
X118380000Y-116080000D03*
%TO.P,U5,7*%
%TO.N,unconnected-(U5-D6{slash}TX-Pad7)*%
X118380000Y-118620000D03*
%TO.P,U5,8*%
%TO.N,unconnected-(U5-D7{slash}RX-Pad8)*%
X133620000Y-118620000D03*
%TO.P,U5,9*%
%TO.N,unconnected-(U5-D8{slash}SCK-Pad9)*%
X133620000Y-116080000D03*
%TO.P,U5,10*%
%TO.N,unconnected-(U5-D9{slash}MISO-Pad10)*%
X133620000Y-113540000D03*
%TO.P,U5,11*%
%TO.N,unconnected-(U5-D10{slash}MOSI-Pad11)*%
X133620000Y-111000000D03*
%TO.P,U5,12*%
%TO.N,/3V3*%
X133620000Y-108460000D03*
%TO.P,U5,13*%
%TO.N,GND*%
X133620000Y-105920000D03*
%TO.P,U5,14*%
%TO.N,unconnected-(U5-5V-Pad14)*%
X133620000Y-103380000D03*
D12*
%TO.P,U5,15*%
%TO.N,/VCC*%
X124700000Y-107100000D03*
%TO.P,U5,16*%
%TO.N,GND*%
X127300000Y-107100000D03*
%TD*%
D13*
%TO.P,J2,1*%
%TO.N,/I_P*%
X133000000Y-130600000D03*
D14*
%TO.P,J2,2*%
%TO.N,/v_volt*%
X135000000Y-130600000D03*
%TO.P,J2,3*%
%TO.N,/v_base*%
X137000000Y-130600000D03*
%TO.P,J2,4*%
%TO.N,/I_N*%
X139000000Y-130600000D03*
%TD*%
D13*
%TO.P,J1,1*%
%TO.N,/VBAT_IN*%
X139000000Y-103200000D03*
D14*
%TO.P,J1,2*%
%TO.N,GND*%
X141000000Y-103200000D03*
%TD*%
D15*
%TO.N,/ADC_IN*%
X112026500Y-114500300D03*
X110780100Y-109789200D03*
%TO.N,/CLK5*%
X108764300Y-113665700D03*
X106444800Y-120521200D03*
%TO.N,/DOUT5*%
X103325000Y-127232700D03*
X114475000Y-113703800D03*
D16*
%TO.N,/I_N*%
X129950600Y-125181600D03*
D15*
%TO.N,/RG_A*%
X112612500Y-124125000D03*
X117073500Y-127329500D03*
%TO.N,/SCLK5*%
X113218800Y-112324100D03*
X113218800Y-124990600D03*
%TO.N,/V5_BOOST*%
X103202200Y-112350000D03*
X104888600Y-120179400D03*
D16*
X106993400Y-108756600D03*
D15*
X102637500Y-116657700D03*
D16*
%TO.N,/VCC*%
X137377100Y-113702100D03*
X104911800Y-107878800D03*
X125167600Y-131152400D03*
X122296000Y-124803600D03*
X134646400Y-121855100D03*
D15*
X104911800Y-103587500D03*
%TO.N,/VREF*%
X115873300Y-114810000D03*
X115873300Y-109537800D03*
%TO.N,/VSET*%
X139100800Y-118425000D03*
X135703100Y-120800000D03*
%TO.N,/adc_out*%
X102000000Y-126917900D03*
X112601800Y-108460000D03*
%TO.N,/clk*%
X104773600Y-118858300D03*
%TO.N,/sclk*%
X102322500Y-124801000D03*
X111196600Y-116184700D03*
%TO.N,/v_base*%
X125055200Y-125850000D03*
X115109000Y-124799300D03*
X121228600Y-127747400D03*
%TO.N,/v_volt*%
X123750700Y-124300700D03*
X117885400Y-125274700D03*
D16*
%TO.N,GND*%
X118770300Y-126020800D03*
D15*
X107600000Y-113600000D03*
X116100000Y-131600000D03*
X111600000Y-105600000D03*
X111600000Y-122600000D03*
X140100000Y-117100000D03*
X142600000Y-121600000D03*
X121100000Y-129100000D03*
X137100000Y-127600000D03*
X116100000Y-119100000D03*
D16*
X137451600Y-117515000D03*
D15*
X123100000Y-120100000D03*
X125600000Y-110600000D03*
X108100000Y-131100000D03*
X129100000Y-130600000D03*
X131600000Y-110600000D03*
X135600000Y-105100000D03*
X107600000Y-101600000D03*
X126100000Y-101600000D03*
X101600000Y-105100000D03*
X131600000Y-117100000D03*
X108100000Y-118600000D03*
X120600000Y-115600000D03*
X101600000Y-123600000D03*
X101600000Y-114100000D03*
D16*
X114500000Y-117263300D03*
D15*
X120600000Y-101600000D03*
D16*
X105314000Y-101298300D03*
D15*
X128100000Y-121600000D03*
X143100000Y-126600000D03*
X142600000Y-131600000D03*
X126100000Y-115600000D03*
D16*
X110807200Y-105528700D03*
D15*
X120100000Y-110600000D03*
X123100000Y-106100000D03*
X107600000Y-126100000D03*
X115100000Y-101600000D03*
X102600000Y-131100000D03*
D16*
X137043000Y-110000000D03*
D15*
X129100000Y-106100000D03*
X112600000Y-127600000D03*
X113600000Y-114600000D03*
X131600000Y-101600000D03*
%TD*%
D17*
%TO.N,/ADC_IN*%
X110780100Y-109789200D02*
X112026500Y-111035600D01*
X112026500Y-111035600D02*
X112026500Y-114500300D01*
%TO.N,/CLK5*%
X106444800Y-115985200D02*
X106444800Y-120521200D01*
X108764300Y-113665700D02*
X106444800Y-115985200D01*
%TO.N,/DOUT5*%
X103325000Y-126158800D02*
X103325000Y-127232700D01*
X114475000Y-113703800D02*
X114475000Y-115008800D01*
X114475000Y-115008800D02*
X103325000Y-126158800D01*
D18*
%TO.N,/I_N*%
X139000000Y-130600000D02*
X138048300Y-130600000D01*
X138048300Y-130005200D02*
X133224700Y-125181600D01*
X133224700Y-125181600D02*
X129950600Y-125181600D01*
X138048300Y-130600000D02*
X138048300Y-130005200D01*
D17*
%TO.N,/RG_A*%
X112612500Y-125271100D02*
X114670900Y-127329500D01*
X112612500Y-124125000D02*
X112612500Y-125271100D01*
X114670900Y-127329500D02*
X117073500Y-127329500D01*
%TO.N,/SCLK5*%
X113935300Y-112324100D02*
X113218800Y-112324100D01*
X113218800Y-124990600D02*
X113218800Y-117338600D01*
X115060300Y-113449100D02*
X113935300Y-112324100D01*
X115060300Y-115497100D02*
X115060300Y-113449100D01*
X113218800Y-117338600D02*
X115060300Y-115497100D01*
D18*
%TO.N,/V5_BOOST*%
X106795600Y-108756600D02*
X103202200Y-112350000D01*
X102637500Y-112914700D02*
X102637500Y-116657700D01*
X102637500Y-116657700D02*
X102637500Y-117928300D01*
X102637500Y-117928300D02*
X104888600Y-120179400D01*
X103202200Y-112350000D02*
X102637500Y-112914700D01*
X106993400Y-108756600D02*
X106795600Y-108756600D01*
%TO.N,/VCC*%
X122640600Y-124803600D02*
X122640600Y-128625400D01*
X135604600Y-115474600D02*
X134881300Y-114751300D01*
X104911800Y-107878800D02*
X104911800Y-103587500D01*
X135604600Y-118777900D02*
X135604600Y-115474600D01*
X132351300Y-114751300D02*
X124700000Y-107100000D01*
X122640600Y-124462000D02*
X122640600Y-124803600D01*
X135604600Y-115474600D02*
X137377100Y-113702100D01*
X134646400Y-121855100D02*
X134646400Y-119736100D01*
X134646400Y-119736100D02*
X135604600Y-118777900D01*
X132351300Y-114751300D02*
X122640600Y-124462000D01*
X134881300Y-114751300D02*
X132351300Y-114751300D01*
X122640600Y-128625400D02*
X125167600Y-131152400D01*
X122640600Y-124803600D02*
X122296000Y-124803600D01*
D17*
%TO.N,/VREF*%
X115873300Y-109537800D02*
X115873300Y-114810000D01*
%TO.N,/VSET*%
X139100800Y-118425000D02*
X138078100Y-118425000D01*
X138078100Y-118425000D02*
X135703100Y-120800000D01*
%TO.N,/adc_out*%
X112655900Y-114292700D02*
X112655900Y-116259800D01*
X112601800Y-108460000D02*
X112601800Y-114238600D01*
X102000000Y-126915700D02*
X102000000Y-126917900D01*
X112601800Y-114238600D02*
X112655900Y-114292700D01*
X112655900Y-116259800D02*
X102000000Y-126915700D01*
%TO.N,/clk*%
X104773600Y-114973400D02*
X104773600Y-118858300D01*
X113827000Y-105920000D02*
X104773600Y-114973400D01*
X118380000Y-105920000D02*
X113827000Y-105920000D01*
%TO.N,/sclk*%
X103019300Y-124801000D02*
X102322500Y-124801000D01*
X111196600Y-116623700D02*
X103019300Y-124801000D01*
X111196600Y-116184700D02*
X111196600Y-116623700D01*
%TO.N,/v_base*%
X115109000Y-124799300D02*
X115818200Y-124799300D01*
X136123300Y-130600000D02*
X136123300Y-130159500D01*
X137000000Y-130600000D02*
X136123300Y-130600000D01*
X118766300Y-127747400D02*
X121228600Y-127747400D01*
X136123300Y-130159500D02*
X131813800Y-125850000D01*
X115818200Y-124799300D02*
X118766300Y-127747400D01*
X131813800Y-125850000D02*
X125055200Y-125850000D01*
%TO.N,/v_volt*%
X122126200Y-127771300D02*
X121002500Y-126647600D01*
X123750700Y-124300700D02*
X123750700Y-126991200D01*
X118489000Y-126647600D02*
X117885400Y-126044000D01*
X133580300Y-129399500D02*
X126159000Y-129399500D01*
X125468400Y-131790400D02*
X124866100Y-131790400D01*
X117885400Y-126044000D02*
X117885400Y-125274700D01*
X123750700Y-126991200D02*
X126159000Y-129399500D01*
X134123300Y-129942500D02*
X133580300Y-129399500D01*
X134123300Y-130600000D02*
X134123300Y-129942500D01*
X122126200Y-129050500D02*
X122126200Y-127771300D01*
X135000000Y-130600000D02*
X134123300Y-130600000D01*
X121002500Y-126647600D02*
X118489000Y-126647600D01*
X126159000Y-131099800D02*
X125468400Y-131790400D01*
X124866100Y-131790400D02*
X122126200Y-129050500D01*
X126159000Y-129399500D02*
X126159000Y-131099800D01*
D18*
%TO.N,GND*%
X105314000Y-101298300D02*
X106576800Y-101298300D01*
X137043000Y-110000000D02*
X134114700Y-107071700D01*
X118770300Y-126020800D02*
X118770300Y-121533600D01*
X134114700Y-107071700D02*
X133620000Y-107071700D01*
X141000000Y-103200000D02*
X141000000Y-106043000D01*
X141000000Y-106043000D02*
X137043000Y-110000000D01*
X138108300Y-111065300D02*
X137043000Y-110000000D01*
X133620000Y-105920000D02*
X133620000Y-107071700D01*
X118770300Y-121533600D02*
X114500000Y-117263300D01*
X106576800Y-101298300D02*
X110807200Y-105528700D01*
X138108300Y-116858300D02*
X138108300Y-111065300D01*
X137451600Y-117515000D02*
X138108300Y-116858300D01*
%TD*%
%TA.AperFunction,Conductor*%
%TO.N,GND*%
G36*
X113796946Y-112718507D02*
G01*
X113808759Y-112728596D01*
X114177374Y-113097211D01*
X114205151Y-113151728D01*
X114195580Y-113212160D01*
X114167638Y-113245757D01*
X114082381Y-113311177D01*
X114082377Y-113311181D01*
X113994139Y-113426174D01*
X113994137Y-113426178D01*
X113938670Y-113560090D01*
X113938669Y-113560091D01*
X113919750Y-113703799D01*
X113919750Y-113703800D01*
X113938669Y-113847508D01*
X113938670Y-113847509D01*
X113978357Y-113943325D01*
X113994139Y-113981425D01*
X114079042Y-114092073D01*
X114099466Y-114149747D01*
X114099500Y-114152339D01*
X114099500Y-114812255D01*
X114080593Y-114870446D01*
X114070504Y-114882259D01*
X113200404Y-115752359D01*
X113145887Y-115780136D01*
X113085455Y-115770565D01*
X113042190Y-115727300D01*
X113031400Y-115682355D01*
X113031400Y-114243266D01*
X113028487Y-114232393D01*
X113005810Y-114147762D01*
X112990562Y-114121351D01*
X112977300Y-114071853D01*
X112977300Y-112960443D01*
X112996207Y-112902252D01*
X113045707Y-112866288D01*
X113089220Y-112862290D01*
X113218800Y-112879350D01*
X113362509Y-112860430D01*
X113496425Y-112804961D01*
X113607073Y-112720057D01*
X113664747Y-112699634D01*
X113667339Y-112699600D01*
X113738755Y-112699600D01*
X113796946Y-112718507D01*
G37*
%TD.AperFunction*%
%TA.AperFunction,Conductor*%
G36*
X143504308Y-100500877D02*
G01*
X143520845Y-100502323D01*
X143664937Y-100514930D01*
X143681914Y-100517923D01*
X143833491Y-100558537D01*
X143849695Y-100564435D01*
X143991902Y-100630748D01*
X144006842Y-100639374D01*
X144135367Y-100729368D01*
X144148587Y-100740460D01*
X144259539Y-100851412D01*
X144270631Y-100864632D01*
X144360625Y-100993157D01*
X144369253Y-101008101D01*
X144435560Y-101150295D01*
X144441463Y-101166512D01*
X144482074Y-101318075D01*
X144485070Y-101335069D01*
X144499123Y-101495690D01*
X144499500Y-101504319D01*
X144499500Y-132495680D01*
X144499123Y-132504309D01*
X144485070Y-132664930D01*
X144482074Y-132681924D01*
X144441463Y-132833487D01*
X144435560Y-132849704D01*
X144369253Y-132991898D01*
X144360625Y-133006842D01*
X144270631Y-133135367D01*
X144259539Y-133148587D01*
X144148587Y-133259539D01*
X144135367Y-133270631D01*
X144006842Y-133360625D01*
X143991898Y-133369253D01*
X143849704Y-133435560D01*
X143833487Y-133441463D01*
X143681924Y-133482074D01*
X143664930Y-133485070D01*
X143504309Y-133499123D01*
X143495680Y-133499500D01*
X101504320Y-133499500D01*
X101495691Y-133499123D01*
X101335069Y-133485070D01*
X101318075Y-133482074D01*
X101166512Y-133441463D01*
X101150298Y-133435561D01*
X101008101Y-133369253D01*
X100993157Y-133360625D01*
X100864632Y-133270631D01*
X100851412Y-133259539D01*
X100740460Y-133148587D01*
X100729368Y-133135367D01*
X100639374Y-133006842D01*
X100630748Y-132991902D01*
X100564435Y-132849695D01*
X100558536Y-132833487D01*
X100517923Y-132681914D01*
X100514930Y-132664937D01*
X100500877Y-132504308D01*
X100500500Y-132495680D01*
X100500500Y-126917900D01*
X101444750Y-126917900D01*
X101463670Y-127061609D01*
X101519139Y-127195525D01*
X101607379Y-127310521D01*
X101722375Y-127398761D01*
X101856291Y-127454230D01*
X102000000Y-127473150D01*
X102143709Y-127454230D01*
X102277625Y-127398761D01*
X102392621Y-127310521D01*
X102480861Y-127195525D01*
X102536330Y-127061609D01*
X102554868Y-126920798D01*
X102581209Y-126865574D01*
X102582977Y-126863758D01*
X102780498Y-126666238D01*
X102835013Y-126638462D01*
X102895445Y-126648033D01*
X102938710Y-126691298D01*
X102949500Y-126736243D01*
X102949500Y-126784160D01*
X102930593Y-126842351D01*
X102929042Y-126844428D01*
X102844139Y-126955074D01*
X102844137Y-126955078D01*
X102788670Y-127088990D01*
X102788669Y-127088991D01*
X102769750Y-127232699D01*
X102769750Y-127232700D01*
X102788669Y-127376408D01*
X102788670Y-127376409D01*
X102820903Y-127454229D01*
X102844139Y-127510325D01*
X102932379Y-127625321D01*
X103047375Y-127713561D01*
X103181291Y-127769030D01*
X103325000Y-127787950D01*
X103468709Y-127769030D01*
X103602625Y-127713561D01*
X103717621Y-127625321D01*
X103805861Y-127510325D01*
X103861330Y-127376409D01*
X103880250Y-127232700D01*
X103861330Y-127088991D01*
X103805861Y-126955075D01*
X103720957Y-126844427D01*
X103700534Y-126786752D01*
X103700500Y-126784160D01*
X103700500Y-126355345D01*
X103719407Y-126297154D01*
X103729496Y-126285341D01*
X112674296Y-117340541D01*
X112728813Y-117312764D01*
X112789245Y-117322335D01*
X112832510Y-117365600D01*
X112843300Y-117410545D01*
X112843300Y-123487247D01*
X112824393Y-123545438D01*
X112774893Y-123581402D01*
X112731378Y-123585400D01*
X112612501Y-123569750D01*
X112612500Y-123569750D01*
X112468791Y-123588669D01*
X112468790Y-123588670D01*
X112334878Y-123644137D01*
X112334874Y-123644139D01*
X112219881Y-123732377D01*
X112219877Y-123732381D01*
X112131639Y-123847374D01*
X112131637Y-123847378D01*
X112076170Y-123981290D01*
X112076169Y-123981291D01*
X112057250Y-124124999D01*
X112057250Y-124125000D01*
X112076169Y-124268708D01*
X112076170Y-124268709D01*
X112129103Y-124396504D01*
X112131639Y-124402625D01*
X112216542Y-124513273D01*
X112236966Y-124570947D01*
X112237000Y-124573539D01*
X112237000Y-125320538D01*
X112241043Y-125335624D01*
X112241043Y-125335630D01*
X112241045Y-125335630D01*
X112262590Y-125416039D01*
X112262591Y-125416041D01*
X112312025Y-125501663D01*
X112312026Y-125501663D01*
X114370425Y-127560062D01*
X114370424Y-127560062D01*
X114440338Y-127629975D01*
X114525958Y-127679408D01*
X114525962Y-127679410D01*
X114573712Y-127692205D01*
X114573713Y-127692205D01*
X114621464Y-127705000D01*
X114621465Y-127705000D01*
X116624961Y-127705000D01*
X116683152Y-127723907D01*
X116685185Y-127725425D01*
X116795875Y-127810361D01*
X116929791Y-127865830D01*
X117073500Y-127884750D01*
X117217209Y-127865830D01*
X117351125Y-127810361D01*
X117466121Y-127722121D01*
X117554361Y-127607125D01*
X117609830Y-127473209D01*
X117624489Y-127361865D01*
X117650830Y-127306640D01*
X117704601Y-127277445D01*
X117765263Y-127285431D01*
X117792646Y-127304783D01*
X118465825Y-127977962D01*
X118465824Y-127977962D01*
X118535738Y-128047875D01*
X118621358Y-128097308D01*
X118621362Y-128097310D01*
X118669112Y-128110105D01*
X118669113Y-128110105D01*
X118716864Y-128122900D01*
X118716865Y-128122900D01*
X120780061Y-128122900D01*
X120838252Y-128141807D01*
X120840285Y-128143325D01*
X120950975Y-128228261D01*
X121084891Y-128283730D01*
X121228600Y-128302650D01*
X121372309Y-128283730D01*
X121506225Y-128228261D01*
X121591432Y-128162878D01*
X121649108Y-128142454D01*
X121707774Y-128159831D01*
X121745021Y-128208372D01*
X121750700Y-128241420D01*
X121750700Y-129099935D01*
X121776290Y-129195438D01*
X121810426Y-129254563D01*
X121825726Y-129281063D01*
X124635537Y-132090875D01*
X124721163Y-132140311D01*
X124816664Y-132165900D01*
X124816665Y-132165900D01*
X124816666Y-132165900D01*
X125517836Y-132165900D01*
X125565586Y-132153105D01*
X125565587Y-132153105D01*
X125613334Y-132140311D01*
X125613333Y-132140311D01*
X125613338Y-132140310D01*
X125698962Y-132090875D01*
X125768875Y-132020962D01*
X125768874Y-132020962D01*
X126459475Y-131330363D01*
X126471624Y-131309319D01*
X126492668Y-131272872D01*
X126502273Y-131256233D01*
X126508910Y-131244738D01*
X126534500Y-131149235D01*
X126534500Y-129874000D01*
X126553407Y-129815809D01*
X126602907Y-129779845D01*
X126633500Y-129775000D01*
X132055641Y-129775000D01*
X132113832Y-129793907D01*
X132149796Y-129843407D01*
X132154074Y-129884582D01*
X132149500Y-129927129D01*
X132149500Y-131272866D01*
X132149500Y-131272869D01*
X132149501Y-131272872D01*
X132150038Y-131277863D01*
X132155908Y-131332480D01*
X132155909Y-131332485D01*
X132206202Y-131467329D01*
X132292450Y-131582541D01*
X132292454Y-131582546D01*
X132292457Y-131582548D01*
X132292458Y-131582549D01*
X132407670Y-131668797D01*
X132542511Y-131719089D01*
X132542512Y-131719089D01*
X132542517Y-131719091D01*
X132602127Y-131725500D01*
X133397872Y-131725499D01*
X133457483Y-131719091D01*
X133527935Y-131692814D01*
X133592329Y-131668797D01*
X133592329Y-131668796D01*
X133592331Y-131668796D01*
X133707546Y-131582546D01*
X133793796Y-131467331D01*
X133844091Y-131332483D01*
X133850500Y-131272873D01*
X133850499Y-131044666D01*
X133869406Y-130986478D01*
X133918906Y-130950514D01*
X133975122Y-130949041D01*
X133978359Y-130949908D01*
X133978362Y-130949910D01*
X134073865Y-130975500D01*
X134073867Y-130975500D01*
X134080299Y-130976347D01*
X134080048Y-130978251D01*
X134129772Y-130994407D01*
X134165736Y-131043907D01*
X134168677Y-131055179D01*
X134175462Y-131089289D01*
X134182183Y-131123079D01*
X134182185Y-131123085D01*
X134246296Y-131277862D01*
X134246297Y-131277863D01*
X134339374Y-131417162D01*
X134457838Y-131535626D01*
X134597137Y-131628703D01*
X134751918Y-131692816D01*
X134916233Y-131725500D01*
X134916234Y-131725500D01*
X135083766Y-131725500D01*
X135083767Y-131725500D01*
X135248082Y-131692816D01*
X135402863Y-131628703D01*
X135542162Y-131535626D01*
X135660626Y-131417162D01*
X135753703Y-131277863D01*
X135817816Y-131123082D01*
X135838326Y-131019966D01*
X135868222Y-130966583D01*
X135923787Y-130940967D01*
X135973311Y-130947817D01*
X135978353Y-130949904D01*
X135978362Y-130949910D01*
X136073865Y-130975500D01*
X136073867Y-130975500D01*
X136080299Y-130976347D01*
X136080048Y-130978251D01*
X136129772Y-130994407D01*
X136165736Y-131043907D01*
X136168677Y-131055179D01*
X136175462Y-131089289D01*
X136182183Y-131123079D01*
X136182185Y-131123085D01*
X136246296Y-131277862D01*
X136246297Y-131277863D01*
X136339374Y-131417162D01*
X136457838Y-131535626D01*
X136597137Y-131628703D01*
X136751918Y-131692816D01*
X136916233Y-131725500D01*
X136916234Y-131725500D01*
X137083766Y-131725500D01*
X137083767Y-131725500D01*
X137248082Y-131692816D01*
X137402863Y-131628703D01*
X137542162Y-131535626D01*
X137660626Y-131417162D01*
X137753703Y-131277863D01*
X137817816Y-131123082D01*
X137819563Y-131114298D01*
X137849458Y-131060914D01*
X137905023Y-131035297D01*
X137942284Y-131037984D01*
X137988991Y-131050500D01*
X138086743Y-131050500D01*
X138144934Y-131069407D01*
X138180898Y-131118907D01*
X138181478Y-131120756D01*
X138182181Y-131123075D01*
X138246296Y-131277862D01*
X138246297Y-131277863D01*
X138339374Y-131417162D01*
X138457838Y-131535626D01*
X138597137Y-131628703D01*
X138751918Y-131692816D01*
X138916233Y-131725500D01*
X138916234Y-131725500D01*
X139083766Y-131725500D01*
X139083767Y-131725500D01*
X139248082Y-131692816D01*
X139402863Y-131628703D01*
X139542162Y-131535626D01*
X139660626Y-131417162D01*
X139753703Y-131277863D01*
X139817816Y-131123082D01*
X139850500Y-130958767D01*
X139850500Y-130241233D01*
X139817816Y-130076918D01*
X139753703Y-129922137D01*
X139660626Y-129782838D01*
X139542162Y-129664374D01*
X139402863Y-129571297D01*
X139402864Y-129571297D01*
X139402862Y-129571296D01*
X139248085Y-129507185D01*
X139248079Y-129507183D01*
X139083769Y-129474500D01*
X139083767Y-129474500D01*
X138916233Y-129474500D01*
X138916230Y-129474500D01*
X138751920Y-129507183D01*
X138751914Y-129507185D01*
X138597137Y-129571296D01*
X138503200Y-129634063D01*
X138457838Y-129664374D01*
X138457836Y-129664375D01*
X138457499Y-129664601D01*
X138398611Y-129681210D01*
X138341207Y-129660033D01*
X138332493Y-129652290D01*
X135921332Y-127241129D01*
X133501314Y-124821111D01*
X133501311Y-124821109D01*
X133501310Y-124821108D01*
X133501309Y-124821107D01*
X133398592Y-124761803D01*
X133398589Y-124761802D01*
X133398587Y-124761801D01*
X133362971Y-124752258D01*
X133284009Y-124731100D01*
X133284008Y-124731100D01*
X130383532Y-124731100D01*
X130325341Y-124712193D01*
X130323284Y-124710656D01*
X130253441Y-124657064D01*
X130253440Y-124657063D01*
X130253438Y-124657062D01*
X130107366Y-124596557D01*
X130107358Y-124596555D01*
X129950601Y-124575918D01*
X129950599Y-124575918D01*
X129793841Y-124596555D01*
X129793833Y-124596557D01*
X129647761Y-124657062D01*
X129647760Y-124657062D01*
X129522323Y-124753313D01*
X129522313Y-124753323D01*
X129426062Y-124878760D01*
X129426062Y-124878761D01*
X129365557Y-125024833D01*
X129365555Y-125024841D01*
X129344918Y-125181599D01*
X129344918Y-125181600D01*
X129365555Y-125338358D01*
X129367236Y-125344630D01*
X129365828Y-125345007D01*
X129370045Y-125398617D01*
X129338073Y-125450784D01*
X129281543Y-125474195D01*
X129273782Y-125474500D01*
X125503739Y-125474500D01*
X125445548Y-125455593D01*
X125443514Y-125454074D01*
X125332825Y-125369139D01*
X125332821Y-125369137D01*
X125198909Y-125313670D01*
X125198908Y-125313669D01*
X125055200Y-125294750D01*
X124911491Y-125313669D01*
X124911490Y-125313670D01*
X124777578Y-125369137D01*
X124777574Y-125369139D01*
X124662581Y-125457377D01*
X124662577Y-125457381D01*
X124574339Y-125572374D01*
X124574337Y-125572378D01*
X124518870Y-125706290D01*
X124518869Y-125706291D01*
X124499950Y-125849999D01*
X124499950Y-125850000D01*
X124518869Y-125993708D01*
X124518870Y-125993709D01*
X124574339Y-126127625D01*
X124662579Y-126242621D01*
X124777575Y-126330861D01*
X124911491Y-126386330D01*
X125055200Y-126405250D01*
X125198909Y-126386330D01*
X125332825Y-126330861D01*
X125443473Y-126245957D01*
X125501147Y-126225534D01*
X125503739Y-126225500D01*
X131617255Y-126225500D01*
X131675446Y-126244407D01*
X131687259Y-126254496D01*
X134780106Y-129347343D01*
X134807883Y-129401860D01*
X134798312Y-129462292D01*
X134755047Y-129505557D01*
X134747988Y-129508811D01*
X134597139Y-129571296D01*
X134597137Y-129571297D01*
X134569382Y-129589841D01*
X134476460Y-129651930D01*
X134417572Y-129668538D01*
X134360168Y-129647360D01*
X134351455Y-129639618D01*
X133810863Y-129099026D01*
X133810863Y-129099025D01*
X133725241Y-129049591D01*
X133725234Y-129049588D01*
X133677485Y-129036794D01*
X133677484Y-129036794D01*
X133629738Y-129024000D01*
X133629736Y-129024000D01*
X133629735Y-129024000D01*
X126355545Y-129024000D01*
X126297354Y-129005093D01*
X126285541Y-128995004D01*
X124155196Y-126864659D01*
X124127419Y-126810142D01*
X124126200Y-126794655D01*
X124126200Y-124749239D01*
X124145107Y-124691048D01*
X124146625Y-124689014D01*
X124231561Y-124578325D01*
X124287030Y-124444409D01*
X124305950Y-124300700D01*
X124301206Y-124264670D01*
X124287030Y-124156991D01*
X124231561Y-124023075D01*
X124143321Y-123908079D01*
X124143316Y-123908075D01*
X124143314Y-123908073D01*
X124056514Y-123841468D01*
X124021859Y-123791044D01*
X124023461Y-123729879D01*
X124046776Y-123692925D01*
X132446345Y-115293357D01*
X132500861Y-115265582D01*
X132561293Y-115275153D01*
X132604558Y-115318418D01*
X132614129Y-115378850D01*
X132598664Y-115418364D01*
X132489058Y-115582402D01*
X132409869Y-115773581D01*
X132369500Y-115976532D01*
X132369500Y-116183467D01*
X132409869Y-116386418D01*
X132489058Y-116577597D01*
X132542580Y-116657699D01*
X132604023Y-116749655D01*
X132750345Y-116895977D01*
X132922402Y-117010941D01*
X133113580Y-117090130D01*
X133316535Y-117130500D01*
X133316536Y-117130500D01*
X133923464Y-117130500D01*
X133923465Y-117130500D01*
X134126420Y-117090130D01*
X134317598Y-117010941D01*
X134489655Y-116895977D01*
X134635977Y-116749655D01*
X134750941Y-116577598D01*
X134830130Y-116386420D01*
X134870500Y-116183465D01*
X134870500Y-115976535D01*
X134830130Y-115773580D01*
X134750941Y-115582402D01*
X134656233Y-115440661D01*
X134639626Y-115381774D01*
X134660804Y-115324370D01*
X134711678Y-115290378D01*
X134772816Y-115292780D01*
X134808554Y-115315657D01*
X135125104Y-115632207D01*
X135152881Y-115686724D01*
X135154100Y-115702211D01*
X135154100Y-118550289D01*
X135135193Y-118608480D01*
X135125104Y-118620293D01*
X135039504Y-118705893D01*
X134984987Y-118733670D01*
X134924555Y-118724099D01*
X134881290Y-118680834D01*
X134870500Y-118635889D01*
X134870500Y-118516536D01*
X134870499Y-118516532D01*
X134852292Y-118425000D01*
X134830130Y-118313580D01*
X134750941Y-118122402D01*
X134635977Y-117950345D01*
X134489655Y-117804023D01*
X134317598Y-117689059D01*
X134317599Y-117689059D01*
X134317597Y-117689058D01*
X134126418Y-117609869D01*
X133923467Y-117569500D01*
X133923465Y-117569500D01*
X133316535Y-117569500D01*
X133316532Y-117569500D01*
X133113581Y-117609869D01*
X132922402Y-117689058D01*
X132750348Y-117804020D01*
X132604020Y-117950348D01*
X132489058Y-118122402D01*
X132409869Y-118313581D01*
X132369500Y-118516532D01*
X132369500Y-118723467D01*
X132409869Y-118926418D01*
X132489058Y-119117597D01*
X132604020Y-119289651D01*
X132604023Y-119289655D01*
X132750345Y-119435977D01*
X132922402Y-119550941D01*
X133113580Y-119630130D01*
X133316535Y-119670500D01*
X133316536Y-119670500D01*
X133923464Y-119670500D01*
X133923465Y-119670500D01*
X134077587Y-119639843D01*
X134138347Y-119647035D01*
X134183277Y-119688567D01*
X134195900Y-119736941D01*
X134195900Y-121422167D01*
X134176993Y-121480358D01*
X134175442Y-121482434D01*
X134121862Y-121552260D01*
X134121862Y-121552261D01*
X134061357Y-121698333D01*
X134061355Y-121698341D01*
X134040718Y-121855099D01*
X134040718Y-121855100D01*
X134061355Y-122011858D01*
X134061357Y-122011866D01*
X134121862Y-122157938D01*
X134121862Y-122157939D01*
X134121864Y-122157941D01*
X134218118Y-122283382D01*
X134343559Y-122379636D01*
X134489638Y-122440144D01*
X134607209Y-122455622D01*
X134646399Y-122460782D01*
X134646400Y-122460782D01*
X134646401Y-122460782D01*
X134677752Y-122456654D01*
X134803162Y-122440144D01*
X134949241Y-122379636D01*
X135074682Y-122283382D01*
X135170936Y-122157941D01*
X135231444Y-122011862D01*
X135252082Y-121855100D01*
X135231444Y-121698338D01*
X135170937Y-121552261D01*
X135170937Y-121552260D01*
X135117358Y-121482434D01*
X135096934Y-121424758D01*
X135096900Y-121422167D01*
X135096900Y-121205924D01*
X135115807Y-121147733D01*
X135165307Y-121111769D01*
X135226493Y-121111769D01*
X135274442Y-121145657D01*
X135310479Y-121192621D01*
X135425475Y-121280861D01*
X135559391Y-121336330D01*
X135703100Y-121355250D01*
X135846809Y-121336330D01*
X135980725Y-121280861D01*
X136095721Y-121192621D01*
X136183961Y-121077625D01*
X136239430Y-120943709D01*
X136257634Y-120805432D01*
X136283975Y-120750209D01*
X136285745Y-120748390D01*
X138204641Y-118829496D01*
X138259158Y-118801719D01*
X138274645Y-118800500D01*
X138652261Y-118800500D01*
X138710452Y-118819407D01*
X138712485Y-118820925D01*
X138823175Y-118905861D01*
X138957091Y-118961330D01*
X139100800Y-118980250D01*
X139244509Y-118961330D01*
X139378425Y-118905861D01*
X139493421Y-118817621D01*
X139581661Y-118702625D01*
X139637130Y-118568709D01*
X139656050Y-118425000D01*
X139637130Y-118281291D01*
X139581661Y-118147375D01*
X139493421Y-118032379D01*
X139378425Y-117944139D01*
X139378421Y-117944137D01*
X139244509Y-117888670D01*
X139244508Y-117888669D01*
X139100800Y-117869750D01*
X138957091Y-117888669D01*
X138957090Y-117888670D01*
X138823178Y-117944137D01*
X138823174Y-117944139D01*
X138771946Y-117983448D01*
X138712526Y-118029042D01*
X138654853Y-118049466D01*
X138652261Y-118049500D01*
X138127536Y-118049500D01*
X138028664Y-118049500D01*
X137980913Y-118062295D01*
X137980912Y-118062294D01*
X137933162Y-118075089D01*
X137933158Y-118075091D01*
X137847536Y-118124525D01*
X137847537Y-118124526D01*
X135754745Y-120217316D01*
X135700228Y-120245093D01*
X135697664Y-120245465D01*
X135559391Y-120263670D01*
X135559390Y-120263670D01*
X135425478Y-120319137D01*
X135425474Y-120319139D01*
X135310481Y-120407377D01*
X135310473Y-120407385D01*
X135274441Y-120454343D01*
X135224017Y-120488998D01*
X135162852Y-120487396D01*
X135114311Y-120450148D01*
X135096900Y-120394075D01*
X135096900Y-119963710D01*
X135115807Y-119905519D01*
X135125890Y-119893712D01*
X135965089Y-119054514D01*
X136010710Y-118975495D01*
X136024399Y-118951786D01*
X136055100Y-118837209D01*
X136055100Y-115702210D01*
X136074007Y-115644019D01*
X136084090Y-115632212D01*
X137389523Y-114326778D01*
X137444038Y-114299003D01*
X137446570Y-114298635D01*
X137533862Y-114287144D01*
X137679941Y-114226636D01*
X137805382Y-114130382D01*
X137901636Y-114004941D01*
X137962144Y-113858862D01*
X137982782Y-113702100D01*
X137981146Y-113689677D01*
X137964086Y-113560090D01*
X137962144Y-113545338D01*
X137915120Y-113431811D01*
X137901637Y-113399261D01*
X137901637Y-113399260D01*
X137805386Y-113273823D01*
X137805385Y-113273822D01*
X137805382Y-113273818D01*
X137805377Y-113273814D01*
X137805376Y-113273813D01*
X137734204Y-113219201D01*
X137679941Y-113177564D01*
X137679940Y-113177563D01*
X137679938Y-113177562D01*
X137533866Y-113117057D01*
X137533858Y-113117055D01*
X137377101Y-113096418D01*
X137377099Y-113096418D01*
X137220341Y-113117055D01*
X137220333Y-113117057D01*
X137074261Y-113177562D01*
X137074260Y-113177562D01*
X136948823Y-113273813D01*
X136948813Y-113273823D01*
X136852562Y-113399260D01*
X136852562Y-113399261D01*
X136792056Y-113545337D01*
X136780567Y-113632596D01*
X136754225Y-113687821D01*
X136752418Y-113689677D01*
X135674603Y-114767492D01*
X135620086Y-114795269D01*
X135559654Y-114785698D01*
X135534596Y-114767492D01*
X135157914Y-114390811D01*
X135157909Y-114390807D01*
X135055190Y-114331502D01*
X135055186Y-114331500D01*
X135030973Y-114325012D01*
X135030973Y-114325013D01*
X134940609Y-114300800D01*
X134940607Y-114300800D01*
X134760292Y-114300800D01*
X134702101Y-114281893D01*
X134666137Y-114232393D01*
X134666137Y-114171207D01*
X134677976Y-114146799D01*
X134712893Y-114094541D01*
X134750941Y-114037598D01*
X134830130Y-113846420D01*
X134870500Y-113643465D01*
X134870500Y-113436535D01*
X134830130Y-113233580D01*
X134750941Y-113042402D01*
X134743325Y-113031004D01*
X141629500Y-113031004D01*
X141629500Y-113168995D01*
X141656420Y-113304327D01*
X141656420Y-113304329D01*
X141709222Y-113431806D01*
X141709228Y-113431817D01*
X141785885Y-113546541D01*
X141883458Y-113644114D01*
X141998182Y-113720771D01*
X141998193Y-113720777D01*
X142045283Y-113740282D01*
X142125672Y-113773580D01*
X142261007Y-113800500D01*
X142261008Y-113800500D01*
X142398992Y-113800500D01*
X142398993Y-113800500D01*
X142534328Y-113773580D01*
X142661811Y-113720775D01*
X142776542Y-113644114D01*
X142874114Y-113546542D01*
X142950775Y-113431811D01*
X143003580Y-113304328D01*
X143030500Y-113168993D01*
X143030500Y-113031007D01*
X143003580Y-112895672D01*
X142966007Y-112804962D01*
X142950777Y-112768193D01*
X142950771Y-112768182D01*
X142874114Y-112653458D01*
X142776541Y-112555885D01*
X142661817Y-112479228D01*
X142661806Y-112479222D01*
X142534328Y-112426420D01*
X142398995Y-112399500D01*
X142398993Y-112399500D01*
X142261007Y-112399500D01*
X142261004Y-112399500D01*
X142125672Y-112426420D01*
X142125670Y-112426420D01*
X141998193Y-112479222D01*
X141998182Y-112479228D01*
X141883458Y-112555885D01*
X141785885Y-112653458D01*
X141709228Y-112768182D01*
X141709222Y-112768193D01*
X141656420Y-112895670D01*
X141656420Y-112895672D01*
X141629500Y-113031004D01*
X134743325Y-113031004D01*
X134635977Y-112870345D01*
X134489655Y-112724023D01*
X134478727Y-112716721D01*
X134317597Y-112609058D01*
X134126418Y-112529869D01*
X133923467Y-112489500D01*
X133923465Y-112489500D01*
X133316535Y-112489500D01*
X133316532Y-112489500D01*
X133113581Y-112529869D01*
X132922402Y-112609058D01*
X132750348Y-112724020D01*
X132604020Y-112870348D01*
X132489058Y-113042402D01*
X132409869Y-113233581D01*
X132369500Y-113436532D01*
X132369500Y-113643467D01*
X132409869Y-113846418D01*
X132450168Y-113943707D01*
X132454969Y-114004704D01*
X132422999Y-114056873D01*
X132366471Y-114080288D01*
X132306977Y-114066004D01*
X132288700Y-114051597D01*
X129133635Y-110896532D01*
X132369500Y-110896532D01*
X132369500Y-111103467D01*
X132409869Y-111306418D01*
X132489058Y-111497597D01*
X132489059Y-111497598D01*
X132604023Y-111669655D01*
X132750345Y-111815977D01*
X132922402Y-111930941D01*
X133113580Y-112010130D01*
X133316535Y-112050500D01*
X133316536Y-112050500D01*
X133923464Y-112050500D01*
X133923465Y-112050500D01*
X134126420Y-112010130D01*
X134317598Y-111930941D01*
X134489655Y-111815977D01*
X134635977Y-111669655D01*
X134750941Y-111497598D01*
X134830130Y-111306420D01*
X134870500Y-111103465D01*
X134870500Y-110896535D01*
X134830130Y-110693580D01*
X134750941Y-110502402D01*
X134635977Y-110330345D01*
X134489655Y-110184023D01*
X134486361Y-110181822D01*
X134317597Y-110069058D01*
X134225727Y-110031004D01*
X141629500Y-110031004D01*
X141629500Y-110168995D01*
X141656420Y-110304327D01*
X141656420Y-110304329D01*
X141709222Y-110431806D01*
X141709228Y-110431817D01*
X141785885Y-110546541D01*
X141883458Y-110644114D01*
X141998182Y-110720771D01*
X141998193Y-110720777D01*
X142045283Y-110740282D01*
X142125672Y-110773580D01*
X142261007Y-110800500D01*
X142261008Y-110800500D01*
X142398992Y-110800500D01*
X142398993Y-110800500D01*
X142534328Y-110773580D01*
X142661811Y-110720775D01*
X142776542Y-110644114D01*
X142874114Y-110546542D01*
X142950775Y-110431811D01*
X143003580Y-110304328D01*
X143030500Y-110168993D01*
X143030500Y-110031007D01*
X143003580Y-109895672D01*
X142959478Y-109789200D01*
X142950777Y-109768193D01*
X142950771Y-109768182D01*
X142874114Y-109653458D01*
X142776541Y-109555885D01*
X142661817Y-109479228D01*
X142661806Y-109479222D01*
X142534328Y-109426420D01*
X142398995Y-109399500D01*
X142398993Y-109399500D01*
X142261007Y-109399500D01*
X142261004Y-109399500D01*
X142125672Y-109426420D01*
X142125670Y-109426420D01*
X141998193Y-109479222D01*
X141998182Y-109479228D01*
X141883458Y-109555885D01*
X141785885Y-109653458D01*
X141709228Y-109768182D01*
X141709222Y-109768193D01*
X141656420Y-109895670D01*
X141656420Y-109895672D01*
X141629500Y-110031004D01*
X134225727Y-110031004D01*
X134126418Y-109989869D01*
X133923467Y-109949500D01*
X133923465Y-109949500D01*
X133316535Y-109949500D01*
X133316532Y-109949500D01*
X133113581Y-109989869D01*
X132922402Y-110069058D01*
X132750348Y-110184020D01*
X132604020Y-110330348D01*
X132489058Y-110502402D01*
X132409869Y-110693581D01*
X132369500Y-110896532D01*
X129133635Y-110896532D01*
X126593635Y-108356532D01*
X132369500Y-108356532D01*
X132369500Y-108563467D01*
X132409869Y-108766418D01*
X132489058Y-108957597D01*
X132557108Y-109059441D01*
X132604023Y-109129655D01*
X132750345Y-109275977D01*
X132922402Y-109390941D01*
X133113580Y-109470130D01*
X133316535Y-109510500D01*
X133316536Y-109510500D01*
X133923464Y-109510500D01*
X133923465Y-109510500D01*
X134126420Y-109470130D01*
X134317598Y-109390941D01*
X134489655Y-109275977D01*
X134635977Y-109129655D01*
X134750941Y-108957598D01*
X134830130Y-108766420D01*
X134870500Y-108563465D01*
X134870500Y-108356535D01*
X134830130Y-108153580D01*
X134750941Y-107962402D01*
X134635977Y-107790345D01*
X134489655Y-107644023D01*
X134489651Y-107644020D01*
X134317597Y-107529058D01*
X134126418Y-107449869D01*
X133923467Y-107409500D01*
X133923465Y-107409500D01*
X133316535Y-107409500D01*
X133316532Y-107409500D01*
X133113581Y-107449869D01*
X132922402Y-107529058D01*
X132750348Y-107644020D01*
X132604020Y-107790348D01*
X132489058Y-107962402D01*
X132409869Y-108153581D01*
X132369500Y-108356532D01*
X126593635Y-108356532D01*
X125692421Y-107455318D01*
X125664644Y-107400801D01*
X125667687Y-107356577D01*
X125686024Y-107296132D01*
X125700155Y-107152661D01*
X125705341Y-107100003D01*
X125705341Y-107099996D01*
X125705341Y-107099995D01*
X126244919Y-107099995D01*
X126244919Y-107100004D01*
X126265190Y-107305830D01*
X126265191Y-107305836D01*
X126325232Y-107503762D01*
X126325234Y-107503767D01*
X126422729Y-107686167D01*
X126442388Y-107710123D01*
X126921100Y-107231410D01*
X126927259Y-107254394D01*
X126979920Y-107345606D01*
X127054394Y-107420080D01*
X127145606Y-107472741D01*
X127168587Y-107478898D01*
X126689875Y-107957611D01*
X126713826Y-107977267D01*
X126713831Y-107977270D01*
X126896232Y-108074765D01*
X126896237Y-108074767D01*
X127094163Y-108134808D01*
X127094169Y-108134809D01*
X127299996Y-108155081D01*
X127300004Y-108155081D01*
X127505830Y-108134809D01*
X127505836Y-108134808D01*
X127703762Y-108074767D01*
X127703767Y-108074765D01*
X127886160Y-107977275D01*
X127886170Y-107977268D01*
X127910123Y-107957611D01*
X127431411Y-107478899D01*
X127454394Y-107472741D01*
X127545606Y-107420080D01*
X127620080Y-107345606D01*
X127672741Y-107254394D01*
X127678899Y-107231411D01*
X128157611Y-107710123D01*
X128177268Y-107686170D01*
X128177275Y-107686160D01*
X128274765Y-107503767D01*
X128274767Y-107503762D01*
X128334808Y-107305836D01*
X128334809Y-107305830D01*
X128355081Y-107100004D01*
X128355081Y-107099995D01*
X128334809Y-106894169D01*
X128334808Y-106894163D01*
X128274767Y-106696237D01*
X128274765Y-106696232D01*
X128177270Y-106513831D01*
X128177267Y-106513826D01*
X128157611Y-106489875D01*
X127678898Y-106968587D01*
X127672741Y-106945606D01*
X127620080Y-106854394D01*
X127545606Y-106779920D01*
X127454394Y-106727259D01*
X127431410Y-106721100D01*
X127910123Y-106242388D01*
X127910124Y-106242388D01*
X127886167Y-106222729D01*
X127703767Y-106125234D01*
X127703762Y-106125232D01*
X127505836Y-106065191D01*
X127505830Y-106065190D01*
X127300004Y-106044919D01*
X127299996Y-106044919D01*
X127094169Y-106065190D01*
X127094163Y-106065191D01*
X126896237Y-106125232D01*
X126896232Y-106125234D01*
X126713832Y-106222729D01*
X126689875Y-106242387D01*
X127168588Y-106721100D01*
X127145606Y-106727259D01*
X127054394Y-106779920D01*
X126979920Y-106854394D01*
X126927259Y-106945606D01*
X126921100Y-106968588D01*
X126442387Y-106489875D01*
X126422729Y-106513832D01*
X126325234Y-106696232D01*
X126325232Y-106696237D01*
X126265191Y-106894163D01*
X126265190Y-106894169D01*
X126244919Y-107099995D01*
X125705341Y-107099995D01*
X125686025Y-106903873D01*
X125686024Y-106903870D01*
X125686024Y-106903868D01*
X125628814Y-106715273D01*
X125620650Y-106700000D01*
X125586760Y-106636596D01*
X125535910Y-106541462D01*
X125513230Y-106513826D01*
X125410887Y-106389121D01*
X125410878Y-106389112D01*
X125258542Y-106264093D01*
X125258540Y-106264092D01*
X125258538Y-106264090D01*
X125189161Y-106227007D01*
X125084732Y-106171188D01*
X125084730Y-106171187D01*
X124896129Y-106113975D01*
X124896126Y-106113974D01*
X124700003Y-106094659D01*
X124699997Y-106094659D01*
X124503873Y-106113974D01*
X124503870Y-106113975D01*
X124315269Y-106171187D01*
X124315267Y-106171188D01*
X124141467Y-106264087D01*
X124141457Y-106264093D01*
X123989121Y-106389112D01*
X123989112Y-106389121D01*
X123864093Y-106541457D01*
X123864087Y-106541467D01*
X123771188Y-106715267D01*
X123771187Y-106715269D01*
X123713975Y-106903870D01*
X123713974Y-106903873D01*
X123694659Y-107099996D01*
X123694659Y-107100003D01*
X123713974Y-107296126D01*
X123713975Y-107296129D01*
X123771187Y-107484730D01*
X123771188Y-107484732D01*
X123842218Y-107617618D01*
X123864090Y-107658538D01*
X123864092Y-107658540D01*
X123864093Y-107658542D01*
X123989112Y-107810878D01*
X123989121Y-107810887D01*
X124141457Y-107935906D01*
X124141462Y-107935910D01*
X124315273Y-108028814D01*
X124503868Y-108086024D01*
X124503870Y-108086024D01*
X124503873Y-108086025D01*
X124699997Y-108105341D01*
X124700000Y-108105341D01*
X124700003Y-108105341D01*
X124896126Y-108086025D01*
X124896127Y-108086024D01*
X124896132Y-108086024D01*
X124956577Y-108067688D01*
X125017748Y-108068889D01*
X125055318Y-108092421D01*
X131644192Y-114681295D01*
X131671969Y-114735812D01*
X131662398Y-114796244D01*
X131644192Y-114821303D01*
X122287034Y-124178463D01*
X122232517Y-124206240D01*
X122229953Y-124206612D01*
X122139237Y-124218556D01*
X121993161Y-124279062D01*
X121993160Y-124279062D01*
X121867723Y-124375313D01*
X121867713Y-124375323D01*
X121771462Y-124500760D01*
X121771462Y-124500761D01*
X121710957Y-124646833D01*
X121710955Y-124646841D01*
X121690318Y-124803599D01*
X121690318Y-124803600D01*
X121710955Y-124960358D01*
X121710957Y-124960366D01*
X121771462Y-125106438D01*
X121771462Y-125106439D01*
X121840920Y-125196958D01*
X121867718Y-125231882D01*
X121867722Y-125231885D01*
X121867723Y-125231886D01*
X121897082Y-125254413D01*
X121993159Y-125328136D01*
X121993160Y-125328136D01*
X121993161Y-125328137D01*
X122032979Y-125344630D01*
X122126138Y-125383218D01*
X122128985Y-125384397D01*
X122175511Y-125424133D01*
X122190100Y-125475861D01*
X122190100Y-127065154D01*
X122171193Y-127123345D01*
X122121693Y-127159309D01*
X122060507Y-127159309D01*
X122021096Y-127135158D01*
X121233063Y-126347126D01*
X121233063Y-126347125D01*
X121147441Y-126297691D01*
X121147434Y-126297688D01*
X121099685Y-126284894D01*
X121099684Y-126284894D01*
X121051938Y-126272100D01*
X121051936Y-126272100D01*
X121051935Y-126272100D01*
X118685545Y-126272100D01*
X118627354Y-126253193D01*
X118615541Y-126243104D01*
X118289896Y-125917459D01*
X118262119Y-125862942D01*
X118260900Y-125847455D01*
X118260900Y-125723239D01*
X118279807Y-125665048D01*
X118281325Y-125663014D01*
X118366261Y-125552325D01*
X118421730Y-125418409D01*
X118440650Y-125274700D01*
X118427721Y-125176500D01*
X118421730Y-125130991D01*
X118366261Y-124997075D01*
X118278021Y-124882079D01*
X118163025Y-124793839D01*
X118163021Y-124793837D01*
X118029109Y-124738370D01*
X118029108Y-124738369D01*
X117885400Y-124719450D01*
X117741691Y-124738369D01*
X117741690Y-124738370D01*
X117607778Y-124793837D01*
X117607774Y-124793839D01*
X117492781Y-124882077D01*
X117492777Y-124882081D01*
X117404539Y-124997074D01*
X117404537Y-124997078D01*
X117349070Y-125130990D01*
X117349069Y-125130991D01*
X117330150Y-125274699D01*
X117330150Y-125274700D01*
X117349069Y-125418408D01*
X117349070Y-125418409D01*
X117371044Y-125471461D01*
X117404539Y-125552325D01*
X117481908Y-125653154D01*
X117502332Y-125710829D01*
X117484955Y-125769495D01*
X117436413Y-125806742D01*
X117375249Y-125808344D01*
X117333362Y-125783425D01*
X116048763Y-124498826D01*
X116048763Y-124498825D01*
X115963141Y-124449391D01*
X115963137Y-124449389D01*
X115910739Y-124435349D01*
X115910738Y-124435349D01*
X115867638Y-124423800D01*
X115867636Y-124423800D01*
X115867635Y-124423800D01*
X115557539Y-124423800D01*
X115499348Y-124404893D01*
X115497314Y-124403374D01*
X115386625Y-124318439D01*
X115386621Y-124318437D01*
X115252709Y-124262970D01*
X115252708Y-124262969D01*
X115109000Y-124244050D01*
X114965291Y-124262969D01*
X114965290Y-124262970D01*
X114831378Y-124318437D01*
X114831374Y-124318439D01*
X114716381Y-124406677D01*
X114716377Y-124406681D01*
X114628139Y-124521674D01*
X114628137Y-124521678D01*
X114572670Y-124655590D01*
X114572669Y-124655591D01*
X114553750Y-124799299D01*
X114553750Y-124799300D01*
X114572669Y-124943008D01*
X114572670Y-124943009D01*
X114595064Y-124997075D01*
X114628139Y-125076925D01*
X114716379Y-125191921D01*
X114831375Y-125280161D01*
X114965291Y-125335630D01*
X115109000Y-125354550D01*
X115252709Y-125335630D01*
X115386625Y-125280161D01*
X115497273Y-125195257D01*
X115554947Y-125174834D01*
X115557539Y-125174800D01*
X115621655Y-125174800D01*
X115679846Y-125193707D01*
X115691659Y-125203796D01*
X117098216Y-126610353D01*
X117125993Y-126664870D01*
X117116422Y-126725302D01*
X117073157Y-126768567D01*
X117041135Y-126778510D01*
X116929791Y-126793170D01*
X116929790Y-126793170D01*
X116795878Y-126848637D01*
X116795874Y-126848639D01*
X116744646Y-126887948D01*
X116685226Y-126933542D01*
X116627553Y-126953966D01*
X116624961Y-126954000D01*
X114867445Y-126954000D01*
X114809254Y-126935093D01*
X114797441Y-126925004D01*
X113489944Y-125617507D01*
X113462167Y-125562990D01*
X113471738Y-125502558D01*
X113499677Y-125468965D01*
X113611421Y-125383221D01*
X113699661Y-125268225D01*
X113755130Y-125134309D01*
X113774050Y-124990600D01*
X113770068Y-124960358D01*
X113755130Y-124846891D01*
X113699661Y-124712975D01*
X113614757Y-124602327D01*
X113594334Y-124544652D01*
X113594300Y-124542060D01*
X113594300Y-118516532D01*
X117129500Y-118516532D01*
X117129500Y-118723467D01*
X117169869Y-118926418D01*
X117249058Y-119117597D01*
X117364020Y-119289651D01*
X117364023Y-119289655D01*
X117510345Y-119435977D01*
X117682402Y-119550941D01*
X117873580Y-119630130D01*
X118076535Y-119670500D01*
X118076536Y-119670500D01*
X118683464Y-119670500D01*
X118683465Y-119670500D01*
X118886420Y-119630130D01*
X119077598Y-119550941D01*
X119249655Y-119435977D01*
X119395977Y-119289655D01*
X119510941Y-119117598D01*
X119590130Y-118926420D01*
X119630500Y-118723465D01*
X119630500Y-118516535D01*
X119590130Y-118313580D01*
X119510941Y-118122402D01*
X119395977Y-117950345D01*
X119249655Y-117804023D01*
X119077598Y-117689059D01*
X119077599Y-117689059D01*
X119077597Y-117689058D01*
X118886418Y-117609869D01*
X118683467Y-117569500D01*
X118683465Y-117569500D01*
X118076535Y-117569500D01*
X118076532Y-117569500D01*
X117873581Y-117609869D01*
X117682402Y-117689058D01*
X117510348Y-117804020D01*
X117364020Y-117950348D01*
X117249058Y-118122402D01*
X117169869Y-118313581D01*
X117129500Y-118516532D01*
X113594300Y-118516532D01*
X113594300Y-117535145D01*
X113613207Y-117476954D01*
X113623296Y-117465141D01*
X115111905Y-115976532D01*
X117129500Y-115976532D01*
X117129500Y-116183467D01*
X117169869Y-116386418D01*
X117249058Y-116577597D01*
X117302580Y-116657699D01*
X117364023Y-116749655D01*
X117510345Y-116895977D01*
X117682402Y-117010941D01*
X117873580Y-117090130D01*
X118076535Y-117130500D01*
X118076536Y-117130500D01*
X118683464Y-117130500D01*
X118683465Y-117130500D01*
X118886420Y-117090130D01*
X119077598Y-117010941D01*
X119249655Y-116895977D01*
X119395977Y-116749655D01*
X119510941Y-116577598D01*
X119590130Y-116386420D01*
X119630500Y-116183465D01*
X119630500Y-115976535D01*
X119590130Y-115773580D01*
X119510941Y-115582402D01*
X119395977Y-115410345D01*
X119249655Y-115264023D01*
X119249651Y-115264020D01*
X119077597Y-115149058D01*
X118886418Y-115069869D01*
X118683467Y-115029500D01*
X118683465Y-115029500D01*
X118076535Y-115029500D01*
X118076532Y-115029500D01*
X117873581Y-115069869D01*
X117682402Y-115149058D01*
X117510348Y-115264020D01*
X117364020Y-115410348D01*
X117249058Y-115582402D01*
X117169869Y-115773581D01*
X117129500Y-115976532D01*
X115111905Y-115976532D01*
X115360774Y-115727663D01*
X115360775Y-115727663D01*
X115410208Y-115642041D01*
X115410210Y-115642038D01*
X115423005Y-115594286D01*
X115435800Y-115546536D01*
X115435800Y-115447664D01*
X115435800Y-115368937D01*
X115454707Y-115310746D01*
X115504207Y-115274782D01*
X115565393Y-115274782D01*
X115589990Y-115287723D01*
X115590053Y-115287615D01*
X115592816Y-115289210D01*
X115595067Y-115290394D01*
X115595675Y-115290861D01*
X115729591Y-115346330D01*
X115873300Y-115365250D01*
X116017009Y-115346330D01*
X116150925Y-115290861D01*
X116265921Y-115202621D01*
X116354161Y-115087625D01*
X116409630Y-114953709D01*
X116428550Y-114810000D01*
X116409630Y-114666291D01*
X116354161Y-114532375D01*
X116269257Y-114421727D01*
X116248834Y-114364052D01*
X116248800Y-114361460D01*
X116248800Y-113436532D01*
X117129500Y-113436532D01*
X117129500Y-113643467D01*
X117169869Y-113846418D01*
X117249058Y-114037597D01*
X117358928Y-114202030D01*
X117364023Y-114209655D01*
X117510345Y-114355977D01*
X117682402Y-114470941D01*
X117873580Y-114550130D01*
X118076535Y-114590500D01*
X118076536Y-114590500D01*
X118683464Y-114590500D01*
X118683465Y-114590500D01*
X118886420Y-114550130D01*
X119077598Y-114470941D01*
X119249655Y-114355977D01*
X119395977Y-114209655D01*
X119510941Y-114037598D01*
X119590130Y-113846420D01*
X119630500Y-113643465D01*
X119630500Y-113436535D01*
X119590130Y-113233580D01*
X119510941Y-113042402D01*
X119395977Y-112870345D01*
X119249655Y-112724023D01*
X119238727Y-112716721D01*
X119077597Y-112609058D01*
X118886418Y-112529869D01*
X118683467Y-112489500D01*
X118683465Y-112489500D01*
X118076535Y-112489500D01*
X118076532Y-112489500D01*
X117873581Y-112529869D01*
X117682402Y-112609058D01*
X117510348Y-112724020D01*
X117364020Y-112870348D01*
X117249058Y-113042402D01*
X117169869Y-113233581D01*
X117129500Y-113436532D01*
X116248800Y-113436532D01*
X116248800Y-110896532D01*
X117129500Y-110896532D01*
X117129500Y-111103467D01*
X117169869Y-111306418D01*
X117249058Y-111497597D01*
X117249059Y-111497598D01*
X117364023Y-111669655D01*
X117510345Y-111815977D01*
X117682402Y-111930941D01*
X117873580Y-112010130D01*
X118076535Y-112050500D01*
X118076536Y-112050500D01*
X118683464Y-112050500D01*
X118683465Y-112050500D01*
X118886420Y-112010130D01*
X119077598Y-111930941D01*
X119249655Y-111815977D01*
X119395977Y-111669655D01*
X119510941Y-111497598D01*
X119590130Y-111306420D01*
X119630500Y-111103465D01*
X119630500Y-110896535D01*
X119590130Y-110693580D01*
X119510941Y-110502402D01*
X119395977Y-110330345D01*
X119249655Y-110184023D01*
X119246361Y-110181822D01*
X119077597Y-110069058D01*
X118886418Y-109989869D01*
X118683467Y-109949500D01*
X118683465Y-109949500D01*
X118076535Y-109949500D01*
X118076532Y-109949500D01*
X117873581Y-109989869D01*
X117682402Y-110069058D01*
X117510348Y-110184020D01*
X117364020Y-110330348D01*
X117249058Y-110502402D01*
X117169869Y-110693581D01*
X117129500Y-110896532D01*
X116248800Y-110896532D01*
X116248800Y-109986339D01*
X116267707Y-109928148D01*
X116269225Y-109926114D01*
X116354161Y-109815425D01*
X116409630Y-109681509D01*
X116428550Y-109537800D01*
X116409630Y-109394091D01*
X116354161Y-109260175D01*
X116265921Y-109145179D01*
X116150925Y-109056939D01*
X116150921Y-109056937D01*
X116017009Y-109001470D01*
X116017008Y-109001469D01*
X115873300Y-108982550D01*
X115729591Y-109001469D01*
X115729590Y-109001470D01*
X115595678Y-109056937D01*
X115595674Y-109056939D01*
X115480681Y-109145177D01*
X115480677Y-109145181D01*
X115392439Y-109260174D01*
X115392437Y-109260178D01*
X115336970Y-109394090D01*
X115336969Y-109394091D01*
X115318050Y-109537799D01*
X115318050Y-109537800D01*
X115336969Y-109681508D01*
X115336970Y-109681509D01*
X115372870Y-109768182D01*
X115392439Y-109815425D01*
X115477342Y-109926073D01*
X115497766Y-109983747D01*
X115497800Y-109986339D01*
X115497800Y-113116555D01*
X115478893Y-113174746D01*
X115429393Y-113210710D01*
X115368207Y-113210710D01*
X115328796Y-113186559D01*
X114165863Y-112023626D01*
X114165863Y-112023625D01*
X114080241Y-111974191D01*
X114080237Y-111974189D01*
X114017501Y-111957378D01*
X114017501Y-111957379D01*
X113984736Y-111948600D01*
X113984735Y-111948600D01*
X113667339Y-111948600D01*
X113609148Y-111929693D01*
X113607114Y-111928174D01*
X113496425Y-111843239D01*
X113496421Y-111843237D01*
X113362509Y-111787770D01*
X113362508Y-111787769D01*
X113218800Y-111768850D01*
X113218799Y-111768850D01*
X113089222Y-111785909D01*
X113029061Y-111774759D01*
X112986944Y-111730376D01*
X112977300Y-111687756D01*
X112977300Y-108908539D01*
X112996207Y-108850348D01*
X112997725Y-108848314D01*
X113082661Y-108737625D01*
X113138130Y-108603709D01*
X113157050Y-108460000D01*
X113156228Y-108453760D01*
X113143428Y-108356532D01*
X117129500Y-108356532D01*
X117129500Y-108563467D01*
X117169869Y-108766418D01*
X117249058Y-108957597D01*
X117317108Y-109059441D01*
X117364023Y-109129655D01*
X117510345Y-109275977D01*
X117682402Y-109390941D01*
X117873580Y-109470130D01*
X118076535Y-109510500D01*
X118076536Y-109510500D01*
X118683464Y-109510500D01*
X118683465Y-109510500D01*
X118886420Y-109470130D01*
X119077598Y-109390941D01*
X119249655Y-109275977D01*
X119395977Y-109129655D01*
X119510941Y-108957598D01*
X119590130Y-108766420D01*
X119630500Y-108563465D01*
X119630500Y-108356535D01*
X119590130Y-108153580D01*
X119510941Y-107962402D01*
X119395977Y-107790345D01*
X119249655Y-107644023D01*
X119249651Y-107644020D01*
X119077597Y-107529058D01*
X118886418Y-107449869D01*
X118683467Y-107409500D01*
X118683465Y-107409500D01*
X118076535Y-107409500D01*
X118076532Y-107409500D01*
X117873581Y-107449869D01*
X117682402Y-107529058D01*
X117510348Y-107644020D01*
X117364020Y-107790348D01*
X117249058Y-107962402D01*
X117169869Y-108153581D01*
X117129500Y-108356532D01*
X113143428Y-108356532D01*
X113138130Y-108316291D01*
X113082661Y-108182375D01*
X112994421Y-108067379D01*
X112879425Y-107979139D01*
X112879421Y-107979137D01*
X112775059Y-107935910D01*
X112745509Y-107923670D01*
X112723037Y-107920711D01*
X112598904Y-107904368D01*
X112543679Y-107878026D01*
X112514485Y-107824256D01*
X112522471Y-107763594D01*
X112541821Y-107736215D01*
X113688386Y-106589651D01*
X113953542Y-106324496D01*
X114008058Y-106296719D01*
X114023545Y-106295500D01*
X117132334Y-106295500D01*
X117190525Y-106314407D01*
X117223798Y-106356614D01*
X117249058Y-106417597D01*
X117331825Y-106541467D01*
X117364023Y-106589655D01*
X117510345Y-106735977D01*
X117682402Y-106850941D01*
X117873580Y-106930130D01*
X118076535Y-106970500D01*
X118076536Y-106970500D01*
X118683464Y-106970500D01*
X118683465Y-106970500D01*
X118886420Y-106930130D01*
X119077598Y-106850941D01*
X119249655Y-106735977D01*
X119395977Y-106589655D01*
X119510941Y-106417598D01*
X119590130Y-106226420D01*
X119630500Y-106023465D01*
X119630500Y-105816535D01*
X119616271Y-105745000D01*
X132334006Y-105745000D01*
X133149254Y-105745000D01*
X133120000Y-105854174D01*
X133120000Y-105985826D01*
X133149254Y-106095000D01*
X132334006Y-106095000D01*
X132347084Y-106177579D01*
X132400588Y-106342248D01*
X132479195Y-106496524D01*
X132479197Y-106496528D01*
X132580962Y-106636596D01*
X132703403Y-106759037D01*
X132843471Y-106860802D01*
X132843475Y-106860804D01*
X132997751Y-106939411D01*
X133162420Y-106992915D01*
X133333425Y-107020000D01*
X133444999Y-107020000D01*
X133445000Y-107019999D01*
X133445000Y-106390746D01*
X133554174Y-106420000D01*
X133685826Y-106420000D01*
X133795000Y-106390746D01*
X133795000Y-107019999D01*
X133795001Y-107020000D01*
X133906575Y-107020000D01*
X134077579Y-106992915D01*
X134242248Y-106939411D01*
X134396524Y-106860804D01*
X134396528Y-106860802D01*
X134536596Y-106759037D01*
X134659037Y-106636596D01*
X134760802Y-106496528D01*
X134760804Y-106496524D01*
X134839411Y-106342248D01*
X134892915Y-106177579D01*
X134905994Y-106095000D01*
X134090746Y-106095000D01*
X134120000Y-105985826D01*
X134120000Y-105854174D01*
X134090746Y-105745000D01*
X134905994Y-105745000D01*
X134892915Y-105662420D01*
X134839411Y-105497751D01*
X134760804Y-105343475D01*
X134760802Y-105343471D01*
X134659037Y-105203403D01*
X134536596Y-105080962D01*
X134396528Y-104979197D01*
X134396524Y-104979195D01*
X134242248Y-104900588D01*
X134077579Y-104847084D01*
X133906575Y-104820000D01*
X133795001Y-104820000D01*
X133795000Y-104820001D01*
X133795000Y-105449253D01*
X133685826Y-105420000D01*
X133554174Y-105420000D01*
X133445000Y-105449253D01*
X133445000Y-104820001D01*
X133444999Y-104820000D01*
X133333425Y-104820000D01*
X133162420Y-104847084D01*
X132997751Y-104900588D01*
X132843475Y-104979195D01*
X132843471Y-104979197D01*
X132703403Y-105080962D01*
X132580962Y-105203403D01*
X132479197Y-105343471D01*
X132479195Y-105343475D01*
X132400588Y-105497751D01*
X132347084Y-105662420D01*
X132334006Y-105745000D01*
X119616271Y-105745000D01*
X119590130Y-105613580D01*
X119510941Y-105422402D01*
X119395977Y-105250345D01*
X119249655Y-105104023D01*
X119077598Y-104989059D01*
X119077599Y-104989059D01*
X119077597Y-104989058D01*
X118886418Y-104909869D01*
X118683467Y-104869500D01*
X118683465Y-104869500D01*
X118076535Y-104869500D01*
X118076532Y-104869500D01*
X117873581Y-104909869D01*
X117682402Y-104989058D01*
X117510348Y-105104020D01*
X117364020Y-105250348D01*
X117249058Y-105422402D01*
X117223798Y-105483386D01*
X117184061Y-105529912D01*
X117132334Y-105544500D01*
X113876436Y-105544500D01*
X113777564Y-105544500D01*
X113729813Y-105557295D01*
X113729812Y-105557294D01*
X113682062Y-105570089D01*
X113682058Y-105570091D01*
X113596436Y-105619525D01*
X113596437Y-105619526D01*
X104543038Y-114672925D01*
X104543037Y-114672924D01*
X104473124Y-114742838D01*
X104423691Y-114828457D01*
X104398100Y-114923966D01*
X104398100Y-118409760D01*
X104379193Y-118467951D01*
X104377642Y-118470028D01*
X104292739Y-118580674D01*
X104292737Y-118580678D01*
X104242311Y-118702421D01*
X104202575Y-118748947D01*
X104143080Y-118763231D01*
X104086552Y-118739817D01*
X104080843Y-118734540D01*
X103116996Y-117770693D01*
X103089219Y-117716176D01*
X103088000Y-117700689D01*
X103088000Y-117008498D01*
X103106907Y-116950307D01*
X103108459Y-116948229D01*
X103118361Y-116935325D01*
X103173830Y-116801409D01*
X103192750Y-116657700D01*
X103173830Y-116513991D01*
X103118361Y-116380075D01*
X103118360Y-116380074D01*
X103118360Y-116380073D01*
X103108456Y-116367165D01*
X103088034Y-116309489D01*
X103088000Y-116306900D01*
X103088000Y-113142309D01*
X103106907Y-113084118D01*
X103116990Y-113072311D01*
X103272701Y-112916600D01*
X103327216Y-112888824D01*
X103329681Y-112888466D01*
X103345909Y-112886330D01*
X103479825Y-112830861D01*
X103594821Y-112742621D01*
X103683061Y-112627625D01*
X103738530Y-112493709D01*
X103740652Y-112477581D01*
X103766990Y-112422360D01*
X103768764Y-112420537D01*
X106811856Y-109377445D01*
X106866371Y-109349670D01*
X106894776Y-109349298D01*
X106993400Y-109362282D01*
X107150162Y-109341644D01*
X107296241Y-109281136D01*
X107421682Y-109184882D01*
X107517936Y-109059441D01*
X107578444Y-108913362D01*
X107599082Y-108756600D01*
X107578444Y-108599838D01*
X107530662Y-108484482D01*
X107517937Y-108453761D01*
X107517937Y-108453760D01*
X107421686Y-108328323D01*
X107421684Y-108328321D01*
X107421682Y-108328318D01*
X107421677Y-108328314D01*
X107421676Y-108328313D01*
X107296238Y-108232062D01*
X107150166Y-108171557D01*
X107150158Y-108171555D01*
X106993401Y-108150918D01*
X106993399Y-108150918D01*
X106836641Y-108171555D01*
X106836633Y-108171557D01*
X106690561Y-108232062D01*
X106690560Y-108232062D01*
X106565116Y-108328318D01*
X106565114Y-108328321D01*
X106497632Y-108416264D01*
X106489095Y-108426000D01*
X103131698Y-111783397D01*
X103077181Y-111811174D01*
X103074621Y-111811545D01*
X103058495Y-111813668D01*
X103058490Y-111813670D01*
X102924578Y-111869137D01*
X102924574Y-111869139D01*
X102809581Y-111957377D01*
X102809580Y-111957377D01*
X102809579Y-111957379D01*
X102796679Y-111974191D01*
X102721339Y-112072374D01*
X102721337Y-112072378D01*
X102665870Y-112206289D01*
X102663746Y-112222421D01*
X102637402Y-112277645D01*
X102635597Y-112279498D01*
X102277011Y-112638085D01*
X102277007Y-112638090D01*
X102217700Y-112740812D01*
X102217700Y-112740813D01*
X102217701Y-112740814D01*
X102196504Y-112819924D01*
X102187000Y-112855392D01*
X102187000Y-116306900D01*
X102168093Y-116365091D01*
X102166544Y-116367165D01*
X102156639Y-116380073D01*
X102101170Y-116513990D01*
X102101169Y-116513991D01*
X102082250Y-116657699D01*
X102082250Y-116657700D01*
X102101169Y-116801408D01*
X102101170Y-116801409D01*
X102156637Y-116935321D01*
X102156640Y-116935326D01*
X102166541Y-116948229D01*
X102186966Y-117005905D01*
X102187000Y-117008498D01*
X102187000Y-117987608D01*
X102203582Y-118049496D01*
X102203583Y-118049498D01*
X102203584Y-118049500D01*
X102217701Y-118102187D01*
X102217702Y-118102189D01*
X102217703Y-118102192D01*
X102277007Y-118204909D01*
X102277008Y-118204910D01*
X102277009Y-118204911D01*
X102277011Y-118204914D01*
X103323015Y-119250918D01*
X104321997Y-120249900D01*
X104349774Y-120304417D01*
X104350146Y-120306979D01*
X104352270Y-120323110D01*
X104404890Y-120450148D01*
X104407739Y-120457025D01*
X104495979Y-120572021D01*
X104610975Y-120660261D01*
X104744891Y-120715730D01*
X104888600Y-120734650D01*
X105032309Y-120715730D01*
X105166225Y-120660261D01*
X105281221Y-120572021D01*
X105369461Y-120457025D01*
X105424930Y-120323109D01*
X105443850Y-120179400D01*
X105435429Y-120115441D01*
X105424930Y-120035691D01*
X105369461Y-119901775D01*
X105281221Y-119786779D01*
X105166225Y-119698539D01*
X105166221Y-119698537D01*
X105032309Y-119643070D01*
X105032310Y-119643070D01*
X105016179Y-119640946D01*
X104960954Y-119614603D01*
X104959100Y-119612797D01*
X104897359Y-119551056D01*
X104869582Y-119496539D01*
X104879153Y-119436107D01*
X104922418Y-119392842D01*
X104929434Y-119389607D01*
X105051225Y-119339161D01*
X105166221Y-119250921D01*
X105254461Y-119135925D01*
X105309930Y-119002009D01*
X105328850Y-118858300D01*
X105323494Y-118817621D01*
X105309930Y-118714591D01*
X105254461Y-118580675D01*
X105169557Y-118470027D01*
X105149134Y-118412352D01*
X105149100Y-118409760D01*
X105149100Y-115169944D01*
X105168007Y-115111753D01*
X105178090Y-115099946D01*
X110181197Y-110096838D01*
X110235712Y-110069063D01*
X110296144Y-110078634D01*
X110329740Y-110106576D01*
X110387473Y-110181814D01*
X110387475Y-110181816D01*
X110387479Y-110181821D01*
X110502475Y-110270061D01*
X110636391Y-110325530D01*
X110774663Y-110343734D01*
X110829888Y-110370075D01*
X110831745Y-110371883D01*
X111622004Y-111162141D01*
X111649781Y-111216658D01*
X111651000Y-111232145D01*
X111651000Y-114051760D01*
X111632093Y-114109951D01*
X111630542Y-114112028D01*
X111545639Y-114222674D01*
X111545637Y-114222678D01*
X111490170Y-114356590D01*
X111490169Y-114356591D01*
X111471250Y-114500299D01*
X111471250Y-114500300D01*
X111490169Y-114644008D01*
X111490170Y-114644009D01*
X111541317Y-114767492D01*
X111545639Y-114777925D01*
X111633879Y-114892921D01*
X111748875Y-114981161D01*
X111882791Y-115036630D01*
X112026500Y-115055550D01*
X112168480Y-115036857D01*
X112228638Y-115048007D01*
X112270756Y-115092389D01*
X112280400Y-115135010D01*
X112280400Y-116063254D01*
X112261493Y-116121445D01*
X112251404Y-116133258D01*
X111856238Y-116528424D01*
X111801721Y-116556201D01*
X111741289Y-116546630D01*
X111698024Y-116503365D01*
X111688453Y-116442933D01*
X111694767Y-116420542D01*
X111732930Y-116328409D01*
X111751850Y-116184700D01*
X111751687Y-116183465D01*
X111732930Y-116040991D01*
X111677461Y-115907075D01*
X111589221Y-115792079D01*
X111474225Y-115703839D01*
X111474221Y-115703837D01*
X111340309Y-115648370D01*
X111340308Y-115648369D01*
X111196600Y-115629450D01*
X111052891Y-115648369D01*
X111052890Y-115648370D01*
X110918978Y-115703837D01*
X110918974Y-115703839D01*
X110803981Y-115792077D01*
X110803977Y-115792081D01*
X110715739Y-115907074D01*
X110715737Y-115907078D01*
X110660270Y-116040990D01*
X110660269Y-116040991D01*
X110641350Y-116184699D01*
X110641350Y-116184700D01*
X110660269Y-116328408D01*
X110660270Y-116328409D01*
X110715737Y-116462321D01*
X110718455Y-116467028D01*
X110731179Y-116526875D01*
X110706296Y-116582772D01*
X110702725Y-116586536D01*
X107057596Y-120231665D01*
X107003079Y-120259442D01*
X106942647Y-120249871D01*
X106909051Y-120221929D01*
X106876417Y-120179399D01*
X106840758Y-120132927D01*
X106820334Y-120075251D01*
X106820300Y-120072660D01*
X106820300Y-116181744D01*
X106839207Y-116123553D01*
X106849290Y-116111746D01*
X108712654Y-114248381D01*
X108767169Y-114220606D01*
X108769690Y-114220240D01*
X108908009Y-114202030D01*
X109041925Y-114146561D01*
X109156921Y-114058321D01*
X109245161Y-113943325D01*
X109300630Y-113809409D01*
X109319550Y-113665700D01*
X109316622Y-113643463D01*
X109300630Y-113521991D01*
X109245161Y-113388075D01*
X109156921Y-113273079D01*
X109041925Y-113184839D01*
X109041921Y-113184837D01*
X108908009Y-113129370D01*
X108908008Y-113129369D01*
X108764300Y-113110450D01*
X108620591Y-113129369D01*
X108620590Y-113129370D01*
X108486678Y-113184837D01*
X108486674Y-113184839D01*
X108371681Y-113273077D01*
X108371677Y-113273081D01*
X108283439Y-113388074D01*
X108283437Y-113388078D01*
X108227970Y-113521990D01*
X108227970Y-113521991D01*
X108209765Y-113660264D01*
X108183423Y-113715489D01*
X108181616Y-113717345D01*
X106214238Y-115684725D01*
X106214237Y-115684724D01*
X106144324Y-115754638D01*
X106094891Y-115840257D01*
X106094890Y-115840262D01*
X106076988Y-115907075D01*
X106069300Y-115935766D01*
X106069300Y-120072660D01*
X106050393Y-120130851D01*
X106048842Y-120132928D01*
X105963939Y-120243574D01*
X105963937Y-120243578D01*
X105908470Y-120377490D01*
X105908469Y-120377491D01*
X105889550Y-120521199D01*
X105889550Y-120521200D01*
X105908469Y-120664908D01*
X105908470Y-120664909D01*
X105943032Y-120748352D01*
X105963939Y-120798825D01*
X106052179Y-120913821D01*
X106145528Y-120985451D01*
X106180184Y-121035874D01*
X106178583Y-121097039D01*
X106155265Y-121133996D01*
X102892759Y-124396504D01*
X102838242Y-124424281D01*
X102822755Y-124425500D01*
X102771039Y-124425500D01*
X102712848Y-124406593D01*
X102710814Y-124405074D01*
X102600125Y-124320139D01*
X102600121Y-124320137D01*
X102466209Y-124264670D01*
X102466208Y-124264669D01*
X102322500Y-124245750D01*
X102178791Y-124264669D01*
X102178790Y-124264670D01*
X102044878Y-124320137D01*
X102044874Y-124320139D01*
X101929881Y-124408377D01*
X101929877Y-124408381D01*
X101841639Y-124523374D01*
X101841637Y-124523378D01*
X101786170Y-124657290D01*
X101786169Y-124657291D01*
X101767250Y-124800999D01*
X101767250Y-124801000D01*
X101786169Y-124944708D01*
X101786170Y-124944709D01*
X101807861Y-124997078D01*
X101841639Y-125078625D01*
X101929879Y-125193621D01*
X102044875Y-125281861D01*
X102178791Y-125337330D01*
X102322500Y-125356250D01*
X102466209Y-125337330D01*
X102600125Y-125281861D01*
X102710773Y-125196957D01*
X102768447Y-125176534D01*
X102771039Y-125176500D01*
X102969154Y-125176500D01*
X103027345Y-125195407D01*
X103063309Y-125244907D01*
X103063309Y-125306093D01*
X103039158Y-125345504D01*
X102049111Y-126335550D01*
X101994594Y-126363327D01*
X101992030Y-126363699D01*
X101856290Y-126381570D01*
X101722378Y-126437037D01*
X101722374Y-126437039D01*
X101607381Y-126525277D01*
X101607377Y-126525281D01*
X101519139Y-126640274D01*
X101519137Y-126640278D01*
X101463670Y-126774190D01*
X101463669Y-126774191D01*
X101451883Y-126863717D01*
X101444750Y-126917900D01*
X100500500Y-126917900D01*
X100500500Y-107878799D01*
X104306118Y-107878799D01*
X104306118Y-107878800D01*
X104326755Y-108035558D01*
X104326757Y-108035566D01*
X104387262Y-108181638D01*
X104387262Y-108181639D01*
X104483513Y-108307076D01*
X104483518Y-108307082D01*
X104608959Y-108403336D01*
X104608960Y-108403336D01*
X104608961Y-108403337D01*
X104738766Y-108457104D01*
X104755038Y-108463844D01*
X104872609Y-108479322D01*
X104911799Y-108484482D01*
X104911800Y-108484482D01*
X104911801Y-108484482D01*
X104943152Y-108480354D01*
X105068562Y-108463844D01*
X105214641Y-108403336D01*
X105340082Y-108307082D01*
X105436336Y-108181641D01*
X105496844Y-108035562D01*
X105517482Y-107878800D01*
X105496844Y-107722038D01*
X105470543Y-107658542D01*
X105436337Y-107575961D01*
X105436337Y-107575960D01*
X105382758Y-107506134D01*
X105362334Y-107448458D01*
X105362300Y-107445867D01*
X105362300Y-103938298D01*
X105381207Y-103880107D01*
X105382759Y-103878029D01*
X105383090Y-103877598D01*
X105392661Y-103865125D01*
X105448130Y-103731209D01*
X105467050Y-103587500D01*
X105448130Y-103443791D01*
X105392661Y-103309875D01*
X105304421Y-103194879D01*
X105189425Y-103106639D01*
X105189421Y-103106637D01*
X105055509Y-103051170D01*
X105055508Y-103051169D01*
X104911800Y-103032250D01*
X104768091Y-103051169D01*
X104768090Y-103051170D01*
X104634178Y-103106637D01*
X104634174Y-103106639D01*
X104519181Y-103194877D01*
X104519177Y-103194881D01*
X104430939Y-103309874D01*
X104430937Y-103309878D01*
X104375470Y-103443790D01*
X104375469Y-103443791D01*
X104356550Y-103587499D01*
X104356550Y-103587500D01*
X104375469Y-103731208D01*
X104375470Y-103731209D01*
X104430939Y-103865125D01*
X104440509Y-103877597D01*
X104440841Y-103878029D01*
X104461266Y-103935705D01*
X104461300Y-103938298D01*
X104461300Y-107445867D01*
X104442393Y-107504058D01*
X104440842Y-107506134D01*
X104387262Y-107575960D01*
X104387262Y-107575961D01*
X104326757Y-107722033D01*
X104326755Y-107722041D01*
X104306118Y-107878799D01*
X100500500Y-107878799D01*
X100500500Y-102555327D01*
X117129500Y-102555327D01*
X117129500Y-104204672D01*
X117129501Y-104204684D01*
X117144033Y-104277736D01*
X117144035Y-104277742D01*
X117199397Y-104360599D01*
X117199399Y-104360601D01*
X117282260Y-104415966D01*
X117337808Y-104427015D01*
X117355315Y-104430498D01*
X117355320Y-104430498D01*
X117355326Y-104430500D01*
X117355327Y-104430500D01*
X119404673Y-104430500D01*
X119404674Y-104430500D01*
X119477740Y-104415966D01*
X119560601Y-104360601D01*
X119615966Y-104277740D01*
X119630500Y-104204674D01*
X119630500Y-103276532D01*
X132369500Y-103276532D01*
X132369500Y-103483467D01*
X132409869Y-103686418D01*
X132489058Y-103877597D01*
X132529617Y-103938298D01*
X132604023Y-104049655D01*
X132750345Y-104195977D01*
X132922402Y-104310941D01*
X133113580Y-104390130D01*
X133316535Y-104430500D01*
X133316536Y-104430500D01*
X133923464Y-104430500D01*
X133923465Y-104430500D01*
X134126420Y-104390130D01*
X134317598Y-104310941D01*
X134489655Y-104195977D01*
X134635977Y-104049655D01*
X134750941Y-103877598D01*
X134830130Y-103686420D01*
X134870500Y-103483465D01*
X134870500Y-103276535D01*
X134830130Y-103073580D01*
X134750941Y-102882402D01*
X134635977Y-102710345D01*
X134489655Y-102564023D01*
X134489651Y-102564020D01*
X134434439Y-102527129D01*
X138149500Y-102527129D01*
X138149500Y-103872866D01*
X138149501Y-103872870D01*
X138155908Y-103932480D01*
X138155909Y-103932485D01*
X138206202Y-104067329D01*
X138286113Y-104174076D01*
X138292454Y-104182546D01*
X138292457Y-104182548D01*
X138292458Y-104182549D01*
X138407670Y-104268797D01*
X138542511Y-104319089D01*
X138542512Y-104319089D01*
X138542517Y-104319091D01*
X138602127Y-104325500D01*
X139397872Y-104325499D01*
X139457483Y-104319091D01*
X139568362Y-104277736D01*
X139592329Y-104268797D01*
X139592329Y-104268796D01*
X139592331Y-104268796D01*
X139707546Y-104182546D01*
X139793796Y-104067331D01*
X139800740Y-104048715D01*
X139844089Y-103932488D01*
X139844090Y-103932485D01*
X139844091Y-103932483D01*
X139850500Y-103872873D01*
X139850499Y-102836355D01*
X140100000Y-102836355D01*
X140100000Y-103024999D01*
X140100001Y-103025000D01*
X140668024Y-103025000D01*
X140650556Y-103055255D01*
X140625000Y-103150630D01*
X140625000Y-103249370D01*
X140650556Y-103344745D01*
X140668024Y-103375000D01*
X140100001Y-103375000D01*
X140100000Y-103375001D01*
X140100000Y-103563644D01*
X140134586Y-103737519D01*
X140134586Y-103737521D01*
X140202429Y-103901308D01*
X140300923Y-104048715D01*
X140426284Y-104174076D01*
X140573691Y-104272570D01*
X140737473Y-104340411D01*
X140737484Y-104340414D01*
X140825000Y-104357821D01*
X140825000Y-103531976D01*
X140855255Y-103549444D01*
X140950630Y-103575000D01*
X141049370Y-103575000D01*
X141144745Y-103549444D01*
X141175000Y-103531976D01*
X141175000Y-104357820D01*
X141262515Y-104340414D01*
X141262526Y-104340411D01*
X141426308Y-104272570D01*
X141573715Y-104174076D01*
X141699076Y-104048715D01*
X141797570Y-103901308D01*
X141865413Y-103737521D01*
X141865413Y-103737519D01*
X141899999Y-103563644D01*
X141900000Y-103563641D01*
X141900000Y-103375001D01*
X141899999Y-103375000D01*
X141331976Y-103375000D01*
X141349444Y-103344745D01*
X141375000Y-103249370D01*
X141375000Y-103150630D01*
X141349444Y-103055255D01*
X141331976Y-103025000D01*
X141899999Y-103025000D01*
X141900000Y-103024999D01*
X141900000Y-102836358D01*
X141899999Y-102836355D01*
X141865413Y-102662480D01*
X141865413Y-102662478D01*
X141797570Y-102498691D01*
X141699076Y-102351284D01*
X141573715Y-102225923D01*
X141426308Y-102127429D01*
X141262520Y-102059586D01*
X141175000Y-102042177D01*
X141175000Y-102868023D01*
X141144745Y-102850556D01*
X141049370Y-102825000D01*
X140950630Y-102825000D01*
X140855255Y-102850556D01*
X140825000Y-102868023D01*
X140825000Y-102042177D01*
X140737480Y-102059586D01*
X140737478Y-102059586D01*
X140573691Y-102127429D01*
X140426284Y-102225923D01*
X140300923Y-102351284D01*
X140202429Y-102498691D01*
X140134586Y-102662478D01*
X140134586Y-102662480D01*
X140100000Y-102836355D01*
X139850499Y-102836355D01*
X139850499Y-102527128D01*
X139844091Y-102467517D01*
X139818684Y-102399397D01*
X139793797Y-102332670D01*
X139707549Y-102217458D01*
X139707548Y-102217457D01*
X139707546Y-102217454D01*
X139707541Y-102217450D01*
X139592329Y-102131202D01*
X139457488Y-102080910D01*
X139457483Y-102080909D01*
X139457481Y-102080908D01*
X139457477Y-102080908D01*
X139426249Y-102077550D01*
X139397873Y-102074500D01*
X139397870Y-102074500D01*
X138602133Y-102074500D01*
X138602129Y-102074500D01*
X138602128Y-102074501D01*
X138594949Y-102075272D01*
X138542519Y-102080908D01*
X138542514Y-102080909D01*
X138407670Y-102131202D01*
X138292458Y-102217450D01*
X138292450Y-102217458D01*
X138206202Y-102332670D01*
X138155910Y-102467511D01*
X138155908Y-102467522D01*
X138149500Y-102527129D01*
X134434439Y-102527129D01*
X134317597Y-102449058D01*
X134126418Y-102369869D01*
X133923467Y-102329500D01*
X133923465Y-102329500D01*
X133316535Y-102329500D01*
X133316532Y-102329500D01*
X133113581Y-102369869D01*
X132922402Y-102449058D01*
X132750348Y-102564020D01*
X132604020Y-102710348D01*
X132489058Y-102882402D01*
X132409869Y-103073581D01*
X132369500Y-103276532D01*
X119630500Y-103276532D01*
X119630500Y-102555326D01*
X119615966Y-102482260D01*
X119560601Y-102399399D01*
X119560599Y-102399397D01*
X119477742Y-102344035D01*
X119477740Y-102344034D01*
X119477737Y-102344033D01*
X119477736Y-102344033D01*
X119404684Y-102329501D01*
X119404674Y-102329500D01*
X117355326Y-102329500D01*
X117355325Y-102329500D01*
X117355315Y-102329501D01*
X117282263Y-102344033D01*
X117282257Y-102344035D01*
X117199400Y-102399397D01*
X117199397Y-102399400D01*
X117144035Y-102482257D01*
X117144033Y-102482263D01*
X117129501Y-102555315D01*
X117129500Y-102555327D01*
X100500500Y-102555327D01*
X100500500Y-101504319D01*
X100500877Y-101495691D01*
X100506265Y-101434108D01*
X100514930Y-101335060D01*
X100517922Y-101318086D01*
X100558538Y-101166504D01*
X100564434Y-101150308D01*
X100630751Y-101008092D01*
X100639371Y-100993161D01*
X100729373Y-100864625D01*
X100740454Y-100851418D01*
X100851418Y-100740454D01*
X100864625Y-100729373D01*
X100993161Y-100639371D01*
X101008092Y-100630751D01*
X101150308Y-100564434D01*
X101166504Y-100558538D01*
X101318086Y-100517922D01*
X101335060Y-100514930D01*
X101480668Y-100502191D01*
X101495692Y-100500877D01*
X101504320Y-100500500D01*
X101565892Y-100500500D01*
X143434108Y-100500500D01*
X143495680Y-100500500D01*
X143504308Y-100500877D01*
G37*
%TD.AperFunction*%
%TD*%
M02*
