%TF.GenerationSoftware,KiCad,Pcbnew,8.0.4*%
%TF.CreationDate,2026-10-01T15:00:12-05:00*%
%TF.ProjectId,Miliohmimetro_PCB,4d696c69-6f68-46d6-996d-6574726f5f50,rev?*%
%TF.SameCoordinates,Original*%
%TF.FileFunction,Paste,Top*%
%TF.FilePolarity,Positive*%
%FSLAX46Y46*%
G04 Gerber Fmt 4.6, Leading zero omitted, Abs format (unit mm)*
G04 Created by KiCad (PCBNEW 8.0.4) date 2026-10-01 15:00:12*
%MOMM*%
%LPD*%
G01*
G04 APERTURE LIST*
G04 Aperture macros list*
%AMRoundRect*
0 Rectangle with rounded corners*
0 $1 Rounding radius*
0 $2 $3 $4 $5 $6 $7 $8 $9 X,Y pos of 4 corners*
0 Add a 4 corners polygon primitive as box body*
4,1,4,$2,$3,$4,$5,$6,$7,$8,$9,$2,$3,0*
0 Add four circle primitives for the rounded corners*
1,1,$1+$1,$2,$3*
1,1,$1+$1,$4,$5*
1,1,$1+$1,$6,$7*
1,1,$1+$1,$8,$9*
0 Add four rect primitives between the rounded corners*
20,1,$1+$1,$2,$3,$4,$5,0*
20,1,$1+$1,$4,$5,$6,$7,0*
20,1,$1+$1,$6,$7,$8,$9,0*
20,1,$1+$1,$8,$9,$2,$3,0*%
G04 Aperture macros list end*
%ADD10RoundRect,0.200000X-0.200000X-0.275000X0.200000X-0.275000X0.200000X0.275000X-0.200000X0.275000X0*%
%ADD11RoundRect,0.225000X0.250000X-0.225000X0.250000X0.225000X-0.250000X0.225000X-0.250000X-0.225000X0*%
%ADD12RoundRect,0.250000X0.625000X-0.375000X0.625000X0.375000X-0.625000X0.375000X-0.625000X-0.375000X0*%
%ADD13RoundRect,0.250000X0.475000X-0.250000X0.475000X0.250000X-0.475000X0.250000X-0.475000X-0.250000X0*%
%ADD14RoundRect,0.200000X0.275000X-0.200000X0.275000X0.200000X-0.275000X0.200000X-0.275000X-0.200000X0*%
%ADD15R,0.800000X1.000000*%
%ADD16R,1.500000X0.700000*%
%ADD17RoundRect,0.112500X0.112500X-0.187500X0.112500X0.187500X-0.112500X0.187500X-0.112500X-0.187500X0*%
%ADD18RoundRect,0.225000X-0.225000X-0.250000X0.225000X-0.250000X0.225000X0.250000X-0.225000X0.250000X0*%
%ADD19R,0.800000X2.700000*%
%ADD20RoundRect,0.250000X0.300000X-0.300000X0.300000X0.300000X-0.300000X0.300000X-0.300000X-0.300000X0*%
%ADD21RoundRect,0.150000X-0.825000X-0.150000X0.825000X-0.150000X0.825000X0.150000X-0.825000X0.150000X0*%
%ADD22RoundRect,0.125000X-0.687500X-0.125000X0.687500X-0.125000X0.687500X0.125000X-0.687500X0.125000X0*%
%ADD23RoundRect,0.150000X-0.512500X-0.150000X0.512500X-0.150000X0.512500X0.150000X-0.512500X0.150000X0*%
%ADD24RoundRect,0.150000X-0.587500X-0.150000X0.587500X-0.150000X0.587500X0.150000X-0.587500X0.150000X0*%
%ADD25RoundRect,0.250000X0.450000X-0.262500X0.450000X0.262500X-0.450000X0.262500X-0.450000X-0.262500X0*%
%ADD26RoundRect,0.250000X-0.250000X-0.475000X0.250000X-0.475000X0.250000X0.475000X-0.250000X0.475000X0*%
G04 APERTURE END LIST*
D10*
%TO.C,R1*%
X136575000Y-112900000D03*
X138225000Y-112900000D03*
%TD*%
D11*
%TO.C,C3*%
X114500000Y-119775000D03*
X114500000Y-118225000D03*
%TD*%
D10*
%TO.C,R3*%
X136575000Y-120800000D03*
X138225000Y-120800000D03*
%TD*%
D12*
%TO.C,LED5*%
X109600000Y-104600000D03*
X109600000Y-101800000D03*
%TD*%
D13*
%TO.C,C7*%
X102000000Y-112350000D03*
X102000000Y-110450000D03*
%TD*%
D14*
%TO.C,R6*%
X104400000Y-113075000D03*
X104400000Y-111425000D03*
%TD*%
D15*
%TO.C,SW1*%
X141220000Y-115250000D03*
X143430000Y-115250000D03*
X141220000Y-107950000D03*
X143430000Y-107950000D03*
D16*
X140570000Y-113850000D03*
X140570000Y-110850000D03*
X140570000Y-109350000D03*
%TD*%
D13*
%TO.C,C6*%
X102000000Y-103650000D03*
X102000000Y-101750000D03*
%TD*%
D10*
%TO.C,R5*%
X117675000Y-128200000D03*
X119325000Y-128200000D03*
%TD*%
D17*
%TO.C,D2*%
X123200000Y-125850000D03*
X123200000Y-123750000D03*
%TD*%
D11*
%TO.C,C10*%
X101550000Y-121775000D03*
X101550000Y-120225000D03*
%TD*%
D14*
%TO.C,R8*%
X102000000Y-117425000D03*
X102000000Y-115775000D03*
%TD*%
%TO.C,R9*%
X102000000Y-129425000D03*
X102000000Y-127775000D03*
%TD*%
D18*
%TO.C,C5*%
X117725000Y-130500000D03*
X119275000Y-130500000D03*
%TD*%
D19*
%TO.C,L1*%
X103900000Y-103000000D03*
X106100000Y-103000000D03*
%TD*%
D11*
%TO.C,C4*%
X109200000Y-116975000D03*
X109200000Y-115425000D03*
%TD*%
D20*
%TO.C,D4*%
X106150000Y-109600000D03*
X106150000Y-106800000D03*
%TD*%
D21*
%TO.C,U2*%
X126525000Y-123595000D03*
X126525000Y-124865000D03*
X126525000Y-126135000D03*
X126525000Y-127405000D03*
X131475000Y-127405000D03*
X131475000Y-126135000D03*
X131475000Y-124865000D03*
X131475000Y-123595000D03*
%TD*%
D10*
%TO.C,R2*%
X136575000Y-118500000D03*
X138225000Y-118500000D03*
%TD*%
D22*
%TO.C,U3*%
X116387500Y-124025000D03*
X116387500Y-124675000D03*
X116387500Y-125325000D03*
X116387500Y-125975000D03*
X120612500Y-125975000D03*
X120612500Y-125325000D03*
X120612500Y-124675000D03*
X120612500Y-124025000D03*
%TD*%
D18*
%TO.C,C1*%
X125825000Y-130300000D03*
X127375000Y-130300000D03*
%TD*%
D23*
%TO.C,U6*%
X101462500Y-106650000D03*
X101462500Y-107600000D03*
X101462500Y-108550000D03*
X103737500Y-108550000D03*
X103737500Y-107600000D03*
X103737500Y-106650000D03*
%TD*%
%TO.C,U8*%
X103462500Y-123850000D03*
X103462500Y-124800000D03*
X103462500Y-125750000D03*
X105737500Y-125750000D03*
X105737500Y-123850000D03*
%TD*%
D14*
%TO.C,R27*%
X112000000Y-117025000D03*
X112000000Y-115375000D03*
%TD*%
D23*
%TO.C,U7*%
X103462500Y-119450000D03*
X103462500Y-120400000D03*
X103462500Y-121350000D03*
X105737500Y-121350000D03*
X105737500Y-119450000D03*
%TD*%
D24*
%TO.C,Q2*%
X135562500Y-124250000D03*
X135562500Y-126150000D03*
X137437500Y-125200000D03*
%TD*%
D13*
%TO.C,C8*%
X104600000Y-117550000D03*
X104600000Y-115650000D03*
%TD*%
D17*
%TO.C,D3*%
X123200000Y-130050000D03*
X123200000Y-127950000D03*
%TD*%
D25*
%TO.C,R4*%
X140500000Y-126112500D03*
X140500000Y-124287500D03*
%TD*%
D14*
%TO.C,R26*%
X113300000Y-104025000D03*
X113300000Y-102375000D03*
%TD*%
D21*
%TO.C,U4*%
X109525000Y-109095000D03*
X109525000Y-110365000D03*
X109525000Y-111635000D03*
X109525000Y-112905000D03*
X114475000Y-112905000D03*
X114475000Y-111635000D03*
X114475000Y-110365000D03*
X114475000Y-109095000D03*
%TD*%
D14*
%TO.C,R10*%
X104200000Y-129425000D03*
X104200000Y-127775000D03*
%TD*%
D24*
%TO.C,U1*%
X136462500Y-109050000D03*
X136462500Y-110950000D03*
X138337500Y-110000000D03*
%TD*%
D26*
%TO.C,C2*%
X136450000Y-116000000D03*
X138350000Y-116000000D03*
%TD*%
D14*
%TO.C,R7*%
X106000000Y-113075000D03*
X106000000Y-111425000D03*
%TD*%
M02*
