#VRML V2.0 utf8
Transform { translation -3.0000 0.0000 0.4921 children [ Shape {
  appearance Appearance { material Material { diffuseColor 0.08 0.08 0.08 specularColor 0.2 0.2 0.2 shininess 0.2 } }
  geometry Box { size 0.9843 7.0079 0.9843 } } ] }
Transform { translation 3.0000 0.0000 0.4921 children [ Shape {
  appearance Appearance { material Material { diffuseColor 0.08 0.08 0.08 specularColor 0.2 0.2 0.2 shininess 0.2 } }
  geometry Box { size 0.9843 7.0079 0.9843 } } ] }
Transform { translation 0.0000 0.0000 1.1811 children [ Shape {
  appearance Appearance { material Material { diffuseColor 0.05 0.05 0.06 specularColor 0.3 0.3 0.3 shininess 0.3 } }
  geometry Box { size 7.0079 8.2677 0.3937 } } ] }
Transform { translation -3.0000 3.0000 1.3780 rotation 1 0 0 1.5708 children [ Shape {
  appearance Appearance { material Material { diffuseColor 0.85 0.7 0.3 specularColor 0.8 0.8 0.6 shininess 0.6 } }
  geometry Cylinder { radius 0.2953 height 0.0197 } } ] }
Transform { translation 3.0000 3.0000 1.3780 rotation 1 0 0 1.5708 children [ Shape {
  appearance Appearance { material Material { diffuseColor 0.85 0.7 0.3 specularColor 0.8 0.8 0.6 shininess 0.6 } }
  geometry Cylinder { radius 0.2953 height 0.0197 } } ] }
Transform { translation -3.0000 2.0000 1.3780 rotation 1 0 0 1.5708 children [ Shape {
  appearance Appearance { material Material { diffuseColor 0.85 0.7 0.3 specularColor 0.8 0.8 0.6 shininess 0.6 } }
  geometry Cylinder { radius 0.2953 height 0.0197 } } ] }
Transform { translation 3.0000 2.0000 1.3780 rotation 1 0 0 1.5708 children [ Shape {
  appearance Appearance { material Material { diffuseColor 0.85 0.7 0.3 specularColor 0.8 0.8 0.6 shininess 0.6 } }
  geometry Cylinder { radius 0.2953 height 0.0197 } } ] }
Transform { translation -3.0000 1.0000 1.3780 rotation 1 0 0 1.5708 children [ Shape {
  appearance Appearance { material Material { diffuseColor 0.85 0.7 0.3 specularColor 0.8 0.8 0.6 shininess 0.6 } }
  geometry Cylinder { radius 0.2953 height 0.0197 } } ] }
Transform { translation 3.0000 1.0000 1.3780 rotation 1 0 0 1.5708 children [ Shape {
  appearance Appearance { material Material { diffuseColor 0.85 0.7 0.3 specularColor 0.8 0.8 0.6 shininess 0.6 } }
  geometry Cylinder { radius 0.2953 height 0.0197 } } ] }
Transform { translation -3.0000 0.0000 1.3780 rotation 1 0 0 1.5708 children [ Shape {
  appearance Appearance { material Material { diffuseColor 0.85 0.7 0.3 specularColor 0.8 0.8 0.6 shininess 0.6 } }
  geometry Cylinder { radius 0.2953 height 0.0197 } } ] }
Transform { translation 3.0000 0.0000 1.3780 rotation 1 0 0 1.5708 children [ Shape {
  appearance Appearance { material Material { diffuseColor 0.85 0.7 0.3 specularColor 0.8 0.8 0.6 shininess 0.6 } }
  geometry Cylinder { radius 0.2953 height 0.0197 } } ] }
Transform { translation -3.0000 -1.0000 1.3780 rotation 1 0 0 1.5708 children [ Shape {
  appearance Appearance { material Material { diffuseColor 0.85 0.7 0.3 specularColor 0.8 0.8 0.6 shininess 0.6 } }
  geometry Cylinder { radius 0.2953 height 0.0197 } } ] }
Transform { translation 3.0000 -1.0000 1.3780 rotation 1 0 0 1.5708 children [ Shape {
  appearance Appearance { material Material { diffuseColor 0.85 0.7 0.3 specularColor 0.8 0.8 0.6 shininess 0.6 } }
  geometry Cylinder { radius 0.2953 height 0.0197 } } ] }
Transform { translation -3.0000 -2.0000 1.3780 rotation 1 0 0 1.5708 children [ Shape {
  appearance Appearance { material Material { diffuseColor 0.85 0.7 0.3 specularColor 0.8 0.8 0.6 shininess 0.6 } }
  geometry Cylinder { radius 0.2953 height 0.0197 } } ] }
Transform { translation 3.0000 -2.0000 1.3780 rotation 1 0 0 1.5708 children [ Shape {
  appearance Appearance { material Material { diffuseColor 0.85 0.7 0.3 specularColor 0.8 0.8 0.6 shininess 0.6 } }
  geometry Cylinder { radius 0.2953 height 0.0197 } } ] }
Transform { translation -3.0000 -3.0000 1.3780 rotation 1 0 0 1.5708 children [ Shape {
  appearance Appearance { material Material { diffuseColor 0.85 0.7 0.3 specularColor 0.8 0.8 0.6 shininess 0.6 } }
  geometry Cylinder { radius 0.2953 height 0.0197 } } ] }
Transform { translation 3.0000 -3.0000 1.3780 rotation 1 0 0 1.5708 children [ Shape {
  appearance Appearance { material Material { diffuseColor 0.85 0.7 0.3 specularColor 0.8 0.8 0.6 shininess 0.6 } }
  geometry Cylinder { radius 0.2953 height 0.0197 } } ] }
Transform { translation 0.0787 -0.5906 1.6732 children [ Shape {
  appearance Appearance { material Material { diffuseColor 0.82 0.82 0.84 specularColor 0.8 0.8 0.8 shininess 0.7 } }
  geometry Box { size 4.9213 4.3307 0.5906 } } ] }
Transform { translation 0.0787 -0.5906 1.9764 children [ Shape {
  appearance Appearance { material Material { diffuseColor 0.95 0.95 0.95 specularColor 0.1 0.1 0.1 shininess 0.1 } }
  geometry Box { size 4.3307 3.5433 0.0197 } } ] }
Transform { translation 0.0000 3.5039 1.9685 children [ Shape {
  appearance Appearance { material Material { diffuseColor 0.75 0.75 0.78 specularColor 0.9 0.9 0.9 shininess 0.8 } }
  geometry Box { size 3.5433 2.9134 1.2598 } } ] }
Transform { translation -2.4409 -3.2283 1.5354 children [ Shape {
  appearance Appearance { material Material { diffuseColor 0.85 0.75 0.4 specularColor 0.2 0.2 0.2 shininess 0.2 } }
  geometry Box { size 0.6299 0.6299 0.3150 } } ] }
